<svg width="1120" height="44" viewBox="0 0 1120 44" fill="none" xmlns="http://www.w3.org/2000/svg">
<g clip-path="url(#clip0_15350_19617)">
<path d="M202.727 36.8978C201.701 27.8777 196.546 28.1633 196.546 28.1633C193.841 23.387 189.969 24.4399 189.969 24.4399C189.761 24.1157 189.523 23.8419 189.275 23.6109C188.733 18.2917 192.234 18.2643 192.917 18.2974C192.997 18.3012 193.073 18.2671 193.122 18.2043C193.256 18.0309 193.483 17.6564 193.355 17.2366C193.278 16.9829 193.321 16.7767 193.394 16.6252C193.476 16.4537 193.388 16.249 193.206 16.1951C191.377 15.6544 189.729 15.9403 188.114 17.0235C185.648 18.6781 184.897 22.0471 184.897 22.0471C184.384 22.0609 183.811 22.1597 183.23 22.4171C183.23 22.4171 180.578 19.4057 175.69 21.9024C175.69 21.9024 171.415 18.5282 166.184 26.5519C164.935 28.4677 162.991 33.1311 162.812 36.2183C162.145 47.6526 168.925 47.7377 168.925 47.7377C168.925 47.7377 170.845 51.0538 174.904 50.3486C174.904 50.3486 175.733 52.0548 177.818 52.6809C179.904 53.307 181.535 52.3393 181.535 52.3393C184.535 55.1636 187.963 53.4528 187.963 53.4528C187.963 53.4528 193.747 58.7449 200.538 47.3311C202.399 44.2032 202.919 38.5878 202.727 36.8978ZM180.828 37.9548L182.822 35.8974C182.957 35.7578 183.194 35.8307 183.227 36.0222L183.743 38.9929C183.774 39.173 183.599 39.3196 183.427 39.2571L180.918 38.3438C180.756 38.2848 180.708 38.0786 180.828 37.9548ZM173.518 32.3661L177.948 30.0908C178.1 30.0126 178.283 30.116 178.294 30.2868L178.591 34.8293C178.603 35.0108 178.415 35.1379 178.251 35.0593L173.524 32.7921C173.347 32.7071 173.344 32.4559 173.518 32.3661ZM190.238 44.2537C189.391 44.9526 187.496 46.3782 185.628 46.8295C185.462 46.8695 185.31 46.7247 185.339 46.5567L185.521 45.5169C185.545 45.3767 185.442 45.2465 185.3 45.2385L183.723 45.1499C183.613 45.1438 183.513 45.2137 183.482 45.319L182.941 47.119C182.915 47.2081 182.839 47.2735 182.747 47.2862C182.132 47.3706 179.745 47.5596 177.3 45.8906C177.209 45.8285 177.172 45.7123 177.211 45.6093L177.873 43.8605C177.914 43.75 177.869 43.6255 177.765 43.5683L176.537 42.8895C176.431 42.8308 176.298 42.8614 176.228 42.9604L175.372 44.1724C175.284 44.2977 175.101 44.3079 175 44.1929C174.38 43.4895 172.523 41.2044 172.202 38.7256C172.178 38.5379 172.371 38.3975 172.541 38.4795C173.773 39.0722 177.686 40.9284 179.428 41.4319C179.528 41.4606 179.597 41.5498 179.6 41.6531L179.631 42.682C179.634 42.7843 179.702 42.8732 179.8 42.9026L181.832 43.5124C181.925 43.5404 182.025 43.5088 182.086 43.4327L182.817 42.514C182.876 42.4398 182.973 42.4077 183.065 42.4324C183.868 42.6486 187.706 43.6572 190.104 43.8336C190.318 43.8493 190.403 44.1175 190.238 44.2537ZM192.814 38.8719L187.62 38.1609C187.44 38.1362 187.353 37.9266 187.463 37.7816L190.213 34.154C190.316 34.0176 190.526 34.0318 190.61 34.1809L193.053 38.5195C193.15 38.6908 193.009 38.8985 192.814 38.8719Z" fill="#7179E2"/>
</g>
<g clip-path="url(#clip1_15350_19617)">
<path d="M33.938 24.3505C28.8869 19.132 25.7579 21.828 25.7579 21.828C21.7125 20.1195 19.7711 22.6761 19.7711 22.6761C19.481 22.5721 19.1969 22.5143 18.9266 22.4891C15.9883 19.3809 18.1948 17.6552 18.644 17.343C18.6962 17.3067 18.728 17.2479 18.7281 17.1843C18.7285 17.009 18.6902 16.6605 18.4041 16.4569C18.2312 16.3338 18.158 16.182 18.1303 16.0504C18.0989 15.9015 17.9433 15.8146 17.8013 15.8694C16.3777 16.419 15.4725 17.4041 14.9772 18.8787C14.2206 21.131 15.3884 23.6331 15.3884 23.6331C15.0695 23.8925 14.7549 24.2343 14.5121 24.681C14.5121 24.681 11.3614 24.0655 9.47995 28.0334C9.47995 28.0334 5.12345 27.9796 5.72115 35.619C5.86386 37.443 6.90694 41.3477 8.29903 43.3928C13.4551 50.9675 17.7951 47.7139 17.7951 47.7139C17.7951 47.7139 20.6299 48.88 22.8596 46.4525C22.8596 46.4525 24.2173 47.13 25.8451 46.5094C27.4729 45.8889 28.0351 44.4795 28.0351 44.4795C31.3149 44.8067 32.654 42.0494 32.654 42.0494C32.654 42.0494 38.9029 42.5831 37.6403 32.0333C37.2943 29.1421 34.8843 25.3282 33.938 24.3505ZM20.5693 35.7042L20.8295 33.4272C20.8472 33.2727 21.0327 33.2035 21.1472 33.3087L22.9237 34.9404C23.0315 35.0393 22.9919 35.2177 22.8525 35.2619L20.8158 35.9071C20.6843 35.9488 20.5536 35.8412 20.5693 35.7042ZM13.2081 35.727L14.9064 32.1235C14.9648 31.9996 15.131 31.9761 15.2214 32.079L17.6261 34.8139C17.7222 34.9232 17.6651 35.0955 17.5227 35.1256L13.4196 35.9942C13.2658 36.0268 13.1411 35.8693 13.2081 35.727ZM29.6082 35.1073C29.4124 35.9635 28.9061 37.792 27.9418 38.9896C27.8562 39.0959 27.6892 39.0782 27.6259 38.9574L27.2339 38.2094C27.181 38.1085 27.052 38.0764 26.958 38.1407L25.9147 38.854C25.8421 38.9036 25.813 38.9966 25.8443 39.0788L26.3799 40.4837C26.4064 40.5532 26.3903 40.6317 26.338 40.6846C25.9896 41.038 24.5682 42.3224 22.2039 42.457C22.116 42.462 22.0357 42.4064 22.0102 42.3221L21.5765 40.8905C21.5491 40.8 21.4594 40.7434 21.3659 40.7576L20.2562 40.9262C20.1603 40.9408 20.0908 41.0252 20.0947 41.1221L20.1433 42.3082C20.1483 42.4308 20.0376 42.5263 19.9172 42.5028C19.1808 42.3594 16.8889 41.8164 15.4763 40.4011C15.3693 40.294 15.4229 40.111 15.5711 40.0798C16.6409 39.8548 20.028 39.1223 21.378 38.5918C21.4549 38.5616 21.5424 38.5843 21.5947 38.6483L22.1163 39.2855C22.1682 39.3489 22.2548 39.372 22.3313 39.3428L23.9167 38.7384C23.9894 38.7107 24.0379 38.6415 24.0392 38.5638L24.0545 37.6246C24.0557 37.5488 24.1016 37.481 24.1717 37.452C24.7862 37.1975 27.7119 35.9643 29.3186 34.906C29.4616 34.8119 29.6464 34.9405 29.6082 35.1073ZM28.616 30.4383L24.976 32.5215C24.8496 32.5938 24.6923 32.5032 24.6912 32.3577L24.6651 28.716C24.6641 28.5791 24.8037 28.486 24.9297 28.5396L28.5959 30.0981C28.7406 30.1596 28.7525 30.3602 28.616 30.4383Z" fill="#7179E2"/>
</g>
<g clip-path="url(#clip2_15350_19617)">
<path d="M124.178 3.67881C123.562 -1.73314 120.469 -1.56123 120.469 -1.56123C118.845 -4.42672 116.522 -3.79458 116.522 -3.79458C116.397 -3.98907 116.254 -4.15333 116.105 -4.2919C115.78 -7.48332 117.881 -7.50018 118.29 -7.48039C118.338 -7.47809 118.384 -7.49855 118.413 -7.53628C118.493 -7.64029 118.63 -7.86503 118.553 -8.11689C118.507 -8.2691 118.532 -8.39284 118.576 -8.48375C118.626 -8.58663 118.573 -8.70943 118.463 -8.74176C117.366 -9.06599 116.377 -8.8943 115.408 -8.24417C113.929 -7.25116 113.479 -5.22973 113.479 -5.22972C113.171 -5.22137 112.827 -5.16201 112.479 -5.00752C112.479 -5.00752 110.887 -6.8141 107.954 -5.31557C107.954 -5.31557 105.389 -7.33963 102.251 -2.52484C101.502 -1.37526 100.336 1.42299 100.229 3.27532C99.8304 10.136 103.898 10.1863 103.898 10.1863C103.898 10.1863 105.05 12.1758 107.486 11.7523C107.486 11.7523 107.983 12.7759 109.235 13.1513C110.486 13.5267 111.465 12.9459 111.465 12.9459C113.265 14.6402 115.322 13.6134 115.322 13.6134C115.322 13.6134 118.793 16.7881 122.866 9.93907C123.982 8.06209 124.294 4.69281 124.178 3.67881ZM111.039 4.31534L112.235 3.08072C112.316 2.99694 112.458 3.04063 112.478 3.15555L112.788 4.9379C112.807 5.04596 112.702 5.13394 112.599 5.09645L111.093 4.54871C110.996 4.51336 110.967 4.38961 111.039 4.31534ZM106.653 0.962895L109.31 -0.402754C109.401 -0.449697 109.511 -0.387671 109.518 -0.285193L109.697 2.44027C109.704 2.54919 109.591 2.62548 109.492 2.57829L106.656 1.21848C106.55 1.16749 106.548 1.01681 106.653 0.962895ZM116.685 8.09371C116.178 8.51314 115.04 9.36865 113.92 9.63965C113.82 9.66369 113.729 9.57682 113.746 9.47604L113.855 8.85212C113.87 8.76798 113.808 8.68987 113.723 8.68509L112.777 8.63213C112.711 8.62844 112.651 8.6704 112.632 8.73359L112.308 9.81366C112.292 9.86711 112.246 9.90638 112.191 9.91398C111.822 9.96468 110.39 10.0783 108.923 9.07722C108.868 9.03997 108.846 8.97022 108.87 8.90842L109.266 7.8591C109.291 7.79276 109.264 7.71805 109.202 7.68374L108.465 7.2766C108.401 7.24141 108.321 7.25976 108.279 7.31919L107.766 8.04648C107.713 8.12167 107.603 8.12782 107.543 8.0588C107.17 7.63684 106.056 6.26601 105.864 4.77873C105.849 4.66611 105.965 4.58183 106.067 4.63106C106.806 4.98651 109.154 6.09985 110.199 6.40176C110.259 6.41897 110.301 6.47249 110.302 6.53447L110.321 7.1518C110.323 7.21319 110.364 7.2665 110.423 7.28415L111.642 7.64981C111.697 7.66657 111.758 7.64763 111.794 7.60197L112.233 7.05066C112.268 7.00615 112.326 6.98687 112.381 7.00165C112.863 7.13133 115.166 7.73604 116.605 7.84163C116.733 7.85103 116.784 8.01195 116.685 8.09371ZM118.231 4.86433L115.114 4.43829C115.006 4.42351 114.954 4.29772 115.02 4.21073L116.669 2.03386C116.731 1.95201 116.857 1.96052 116.907 2.04999L118.374 4.6529C118.432 4.75565 118.347 4.8803 118.231 4.86433Z" fill="#7179E2"/>
</g>
<g clip-path="url(#clip3_15350_19617)">
<path d="M946.052 26.4457C941.237 18.7494 936.709 21.2297 936.709 21.2297C932.209 18.0865 929.169 20.706 929.169 20.706C928.841 20.5032 928.509 20.3585 928.185 20.2572C925.403 15.6914 928.551 14.1569 929.181 13.8923C929.254 13.8616 929.308 13.798 929.325 13.7203C929.371 13.5061 929.415 13.07 929.119 12.7465C928.939 12.551 928.89 12.3463 928.89 12.1782C928.89 11.9879 928.723 11.8412 928.535 11.8712C926.651 12.172 925.288 13.1403 924.298 14.8139C922.786 17.3702 923.561 20.7335 923.561 20.7335C923.104 20.9674 922.63 21.3033 922.217 21.7861C922.217 21.7861 918.526 20.2124 915.191 24.5728C915.191 24.5728 909.879 23.3714 908.619 32.8665C908.318 35.1336 908.575 40.1791 909.744 43.0422C914.073 53.6463 920.227 50.8 920.227 50.8C920.227 50.8 923.388 52.9646 926.747 50.5781C926.747 50.5781 928.23 51.7603 930.382 51.4259C932.534 51.0916 933.588 49.5151 933.588 49.5151C937.513 50.7701 939.868 47.7483 939.868 47.7483C939.868 47.7483 947.369 50.0296 948.575 36.8032C948.906 33.1785 946.954 27.8877 946.052 26.4457ZM926.749 36.8411L927.66 34.1253C927.722 33.941 927.967 33.9047 928.08 34.0632L929.826 36.5211C929.932 36.6701 929.837 36.8779 929.655 36.8955L926.997 37.1535C926.825 37.1701 926.694 37.0045 926.749 36.8411ZM917.744 34.9502L920.759 30.9875C920.863 30.8513 921.072 30.8659 921.156 31.0152L923.383 34.9855C923.472 35.1442 923.357 35.3399 923.175 35.3397L917.932 35.332C917.736 35.3317 917.624 35.1066 917.744 34.9502ZM937.954 38.4676C937.492 39.4632 936.396 41.5666 934.905 42.7794C934.773 42.8869 934.573 42.8218 934.527 42.6576L934.243 41.641C934.205 41.5039 934.055 41.431 933.924 41.485L932.462 42.0852C932.361 42.1269 932.301 42.233 932.318 42.3417L932.606 44.1988C932.621 44.2906 932.58 44.3824 932.503 44.4335C931.985 44.7746 929.912 45.9744 926.987 45.5226C926.878 45.5058 926.794 45.4169 926.785 45.3072L926.628 43.4441C926.618 43.3262 926.523 43.2336 926.405 43.2266L925.005 43.1435C924.884 43.1364 924.777 43.2214 924.756 43.3409L924.506 44.8036C924.48 44.9548 924.32 45.0426 924.179 44.9825C923.316 44.6153 920.656 43.354 919.298 41.2556C919.195 41.0967 919.308 40.887 919.498 40.8875C920.864 40.8913 925.196 40.8788 926.985 40.5821C927.086 40.5651 927.187 40.6158 927.235 40.7076L927.706 41.6226C927.753 41.7136 927.853 41.7644 927.954 41.7487L930.05 41.4231C930.146 41.4081 930.223 41.3362 930.245 41.2414L930.509 40.0973C930.53 40.0049 930.604 39.9341 930.697 39.9169C931.515 39.7659 935.413 39.0209 937.653 38.146C937.852 38.0681 938.045 38.2735 937.954 38.4676ZM937.958 32.5009L932.965 34.0988C932.792 34.1543 932.623 34.0026 932.66 33.8244L933.577 29.3656C933.612 29.1979 933.807 29.1205 933.947 29.2188L938.023 32.0798C938.183 32.1927 938.146 32.441 937.958 32.5009Z" fill="#4794FF"/>
</g>
<g clip-path="url(#clip4_15350_19617)">
<path d="M1113.99 36.5024C1113.65 29.2477 1109.52 29.2024 1109.52 29.2024C1107.62 25.2463 1104.47 25.8814 1104.47 25.8814C1104.32 25.6116 1104.15 25.3804 1103.96 25.1829C1103.81 20.9082 1106.61 21.0719 1107.15 21.1346C1107.21 21.1419 1107.28 21.1187 1107.32 21.0711C1107.43 20.9398 1107.64 20.6529 1107.56 20.3111C1107.51 20.1044 1107.55 19.9421 1107.62 19.825C1107.69 19.6926 1107.63 19.5245 1107.49 19.4718C1106.06 18.9432 1104.73 19.084 1103.38 19.8631C1101.33 21.053 1100.55 23.7024 1100.55 23.7025C1100.14 23.6862 1099.68 23.7348 1099.2 23.9094C1099.2 23.9094 1097.24 21.365 1093.21 23.0987C1093.21 23.0987 1089.97 20.1786 1085.37 26.306C1084.27 27.769 1082.48 31.3885 1082.17 33.8433C1081.03 42.9353 1086.44 43.3628 1086.44 43.3628C1086.44 43.3628 1087.79 46.1116 1091.07 45.764C1091.07 45.764 1091.64 47.1698 1093.27 47.7802C1094.91 48.3906 1096.26 47.7046 1096.26 47.7046C1098.5 50.1182 1101.33 48.9344 1101.33 48.9344C1101.33 48.9344 1105.67 53.4655 1111.69 44.7146C1113.34 42.3165 1114.06 37.8616 1113.99 36.5024ZM1096.46 36.1849L1098.16 34.6483C1098.27 34.544 1098.46 34.6148 1098.47 34.7694L1098.73 37.1681C1098.74 37.3135 1098.6 37.4213 1098.46 37.3622L1096.51 36.5001C1096.38 36.4445 1096.36 36.2773 1096.46 36.1849ZM1090.92 31.3361L1094.58 29.7548C1094.7 29.7004 1094.84 29.7926 1094.84 29.9296L1094.84 33.5713C1094.84 33.7169 1094.68 33.8084 1094.55 33.7369L1090.9 31.6764C1090.76 31.5992 1090.77 31.3985 1090.92 31.3361ZM1103.63 41.7119C1102.92 42.2249 1101.33 43.2623 1099.82 43.5235C1099.68 43.5467 1099.57 43.423 1099.6 43.2905L1099.8 42.4701C1099.83 42.3595 1099.75 42.2501 1099.64 42.2361L1098.39 42.0818C1098.3 42.0711 1098.22 42.1216 1098.18 42.204L1097.66 43.6122C1097.63 43.6819 1097.57 43.7301 1097.49 43.7353C1097 43.7701 1095.08 43.7943 1093.22 42.3325C1093.15 42.2781 1093.13 42.1833 1093.16 42.1032L1093.78 40.7423C1093.82 40.6563 1093.79 40.5545 1093.71 40.5033L1092.77 39.8964C1092.69 39.8439 1092.58 39.8613 1092.52 39.9366L1091.77 40.8587C1091.7 40.954 1091.55 40.9525 1091.47 40.8553C1091.02 40.2609 1089.66 38.3384 1089.53 36.3427C1089.52 36.1916 1089.68 36.0897 1089.81 36.1643C1090.77 36.7026 1093.79 38.3919 1095.16 38.8862C1095.23 38.9144 1095.28 38.9893 1095.28 39.0719L1095.25 39.8948C1095.25 39.9767 1095.3 40.0512 1095.37 40.0799L1096.96 40.6744C1097.04 40.7016 1097.12 40.6818 1097.17 40.6243L1097.8 39.9297C1097.85 39.8736 1097.93 39.8531 1098.01 39.8776C1098.63 40.0929 1101.64 41.1014 1103.55 41.3694C1103.72 41.3933 1103.77 41.6119 1103.63 41.7119ZM1105.98 37.5525L1101.87 36.7095C1101.73 36.6803 1101.67 36.5083 1101.76 36.3984L1104.15 33.6485C1104.24 33.5452 1104.41 33.5676 1104.47 33.6911L1106.19 37.284C1106.25 37.4258 1106.13 37.5841 1105.98 37.5525Z" fill="#4794FF"/>
</g>
<g clip-path="url(#clip5_15350_19617)">
<path d="M1019.19 -3.85657C1014.66 -6.87838 1012.79 -4.4049 1012.79 -4.4049C1009.55 -5.01398 1008.54 -2.8314 1008.54 -2.8314C1008.31 -2.86155 1008.09 -2.85872 1007.89 -2.83422C1005.24 -4.64525 1006.58 -6.26088 1006.86 -6.56114C1006.9 -6.59604 1006.91 -6.64419 1006.9 -6.69081C1006.87 -6.81935 1006.79 -7.06873 1006.55 -7.17249C1006.4 -7.2352 1006.32 -7.33485 1006.28 -7.4269C1006.24 -7.53106 1006.11 -7.56999 1006.01 -7.50725C1005.06 -6.87807 1004.55 -6.01209 1004.42 -4.85255C1004.22 -3.08141 1005.48 -1.43318 1005.48 -1.43317C1005.29 -1.19236 1005.11 -0.891786 1005 -0.525811C1005 -0.525811 1002.6 -0.47599 1001.85 2.73145C1001.85 2.73145 998.646 3.38466 1000.3 8.88896C1000.69 10.2032 1002.08 12.8993 1003.42 14.177C1008.41 18.9091 1011.07 15.8343 1011.07 15.8343C1011.07 15.8343 1013.33 16.2383 1014.58 14.1045C1014.58 14.1045 1015.69 14.3852 1016.78 13.6716C1017.87 12.958 1018.06 11.8356 1018.06 11.8356C1020.52 11.5539 1021.06 9.32007 1021.06 9.32007C1021.06 9.32007 1025.73 8.71771 1023.12 1.18593C1022.41 -0.878174 1020.04 -3.2904 1019.19 -3.85657ZM1011.19 6.59066L1011.02 4.88038C1011.01 4.76432 1011.14 4.6841 1011.24 4.743L1012.8 5.65652C1012.89 5.7119 1012.89 5.84894 1012.8 5.90348L1011.41 6.70024C1011.32 6.75165 1011.21 6.69355 1011.19 6.59066ZM1005.8 7.77774L1006.47 4.86651C1006.5 4.76644 1006.62 4.7228 1006.7 4.7838L1008.9 6.40605C1008.98 6.47088 1008.97 6.60628 1008.87 6.65101L1006 7.93999C1005.89 7.98832 1005.78 7.89267 1005.8 7.77774ZM1017.72 4.71611C1017.72 5.37472 1017.64 6.79545 1017.12 7.82659C1017.07 7.91807 1016.95 7.93169 1016.88 7.8532L1016.48 7.36727C1016.42 7.30174 1016.32 7.29869 1016.26 7.36075L1015.61 8.04945C1015.57 8.09739 1015.56 8.17016 1015.6 8.22543L1016.21 9.16999C1016.24 9.21673 1016.24 9.27681 1016.21 9.32394C1016.02 9.63831 1015.18 10.8057 1013.47 11.2803C1013.4 11.2979 1013.34 11.2699 1013.3 11.2122L1012.76 10.2319C1012.72 10.1699 1012.65 10.1427 1012.58 10.1679L1011.8 10.468C1011.73 10.4939 1011.69 10.5668 1011.71 10.6372L1011.93 11.4988C1011.96 11.5879 1011.89 11.6755 1011.8 11.6774C1011.24 11.6894 1009.47 11.6558 1008.21 10.8431C1008.11 10.7815 1008.12 10.6389 1008.23 10.5925C1008.98 10.2575 1011.34 9.18209 1012.25 8.57859C1012.3 8.54419 1012.37 8.54698 1012.41 8.58555L1012.9 8.96967C1012.95 9.00787 1013.01 9.01101 1013.06 8.97747L1014.13 8.28241C1014.18 8.25055 1014.2 8.19213 1014.19 8.13492L1014.05 7.44413C1014.04 7.38836 1014.07 7.33142 1014.11 7.29901C1014.52 7.01472 1016.47 5.64573 1017.48 4.61459C1017.57 4.52284 1017.73 4.58772 1017.72 4.71611ZM1016.26 1.45166L1013.92 3.55726C1013.84 3.63033 1013.71 3.58901 1013.68 3.48251L1013.09 0.817476C1013.06 0.717268 1013.15 0.626827 1013.25 0.646057L1016.19 1.20548C1016.3 1.22757 1016.34 1.3727 1016.26 1.45166Z" fill="#4794FF"/>
</g>
<defs>
<clipPath id="clip0_15350_19617">
<rect width="40" height="40" fill="white" transform="translate(170.594 9.09424) rotate(16.7093)"/>
</clipPath>
<clipPath id="clip1_15350_19617">
<rect width="32" height="32" fill="white" transform="translate(0 22.3987) rotate(-20.8677)"/>
</clipPath>
<clipPath id="clip2_15350_19617">
<rect width="24" height="24" fill="white" transform="translate(104.895 -13) rotate(16.6992)"/>
</clipPath>
<clipPath id="clip3_15350_19617">
<rect width="40" height="40" fill="white" transform="translate(905.07 15.2134) rotate(-8.83129)"/>
</clipPath>
<clipPath id="clip4_15350_19617">
<rect width="32" height="32" fill="white" transform="translate(1089.82 12.6045) rotate(20.51)"/>
</clipPath>
<clipPath id="clip5_15350_19617">
<rect width="24" height="24" fill="white" transform="translate(994 0.108643) rotate(-33.1066)"/>
</clipPath>
</defs>
</svg>
