<svg width="100" height="32" viewBox="0 0 100 32" fill="none" xmlns="http://www.w3.org/2000/svg">
<path d="M16 32C24.8366 32 32 24.8366 32 16C32 7.16344 24.8366 0 16 0C7.16344 0 0 7.16344 0 16C0 24.8366 7.16344 32 16 32Z" fill="#0098EA"/>
<path d="M21.4629 8.93018H10.5363C8.52724 8.93018 7.25388 11.0974 8.26459 12.8492L15.0081 24.5377C15.4482 25.3009 16.551 25.3009 16.9911 24.5377L23.736 12.8492C24.7453 11.1001 23.472 8.93018 21.4643 8.93018H21.4629ZM15.0026 21.0325L13.534 18.1902L9.99036 11.8523C9.75659 11.4466 10.0454 10.9268 10.5349 10.9268H15.0013V21.0339L15.0026 21.0325ZM22.0061 11.8509L18.4638 18.1916L16.9952 21.0325V10.9255H21.4616C21.9511 10.9255 22.2399 11.4453 22.0061 11.8509Z" fill="white"/>
<path d="M40.3945 24.834V8.92603H45.6374C50.2082 8.92603 53.8154 12.4437 53.8154 16.88C53.8154 21.3163 50.2082 24.834 45.6374 24.834H40.3945ZM43.6433 21.854H45.6374C48.5726 21.854 50.5442 19.6359 50.5442 16.88C50.5442 14.1241 48.5726 11.906 45.6374 11.906H43.6433V21.854Z" fill="#000"/>
<path d="M66.7394 19.2326C66.7394 22.5038 64.0956 25.0804 60.8468 25.0804C57.598 25.0804 54.9541 22.5038 54.9541 19.2326C54.9541 15.9614 57.598 13.3847 60.8468 13.3847C64.0956 13.3847 66.7394 15.9614 66.7394 19.2326ZM58.0461 19.2326C58.0461 20.9578 59.2336 22.2125 60.8468 22.2125C62.46 22.2125 63.625 20.9578 63.625 19.2326C63.625 17.5073 62.46 16.2526 60.8468 16.2526C59.2336 16.2526 58.0461 17.5073 58.0461 19.2326Z" fill="#000"/>
<path d="M79.4164 20.5545C78.8114 23.1311 76.7725 25.0804 73.6806 25.0804C70.2749 25.0804 67.7879 22.4814 67.7879 19.2326C67.7879 15.9838 70.2749 13.3847 73.6806 13.3847C76.7725 13.3847 78.8114 15.334 79.4164 17.9106H76.2348C75.8091 16.9024 74.9801 16.163 73.6806 16.163C72.0674 16.163 70.8799 17.3729 70.8799 19.2326C70.8799 21.0922 72.0674 22.3021 73.6806 22.3021C74.9801 22.3021 75.8091 21.5627 76.2348 20.5545H79.4164Z" fill="#000"/>
<path d="M90.0608 21.6748C90.0608 23.7809 88.0891 25.0804 85.378 25.0804C82.4877 25.0804 80.4264 23.4672 80.3144 21.2715H83.5184C83.6304 22.2573 84.4818 22.7278 85.4676 22.7278C86.4311 22.7278 86.924 22.3693 86.924 21.8316C86.924 21.2491 86.4983 20.9578 85.5125 20.7113L83.4063 20.1736C81.4571 19.6807 80.5608 18.3364 80.5608 16.7007C80.5608 14.7739 82.2637 13.3847 85.0643 13.3847C87.529 13.3847 89.411 14.6842 89.5903 16.9248H86.4983C86.3415 16.0734 85.6917 15.7821 85.0195 15.7821C84.2353 15.7821 83.6976 16.0958 83.6976 16.6335C83.6976 17.2609 84.3026 17.5073 84.9747 17.6642L86.9464 18.2019C89.1421 18.7621 90.0608 19.9271 90.0608 21.6748Z" fill="#000"/>
</svg>
