<svg width="148" height="56" viewBox="0 0 148 56" fill="none" xmlns="http://www.w3.org/2000/svg">
<path d="M87.2328 40V22.208H80.3848V17.44H100.001V22.208H93.1528V40H87.2328Z" fill="white"/>
<path d="M100.567 28.704C100.567 26.3573 101.025 24.32 101.943 22.592C102.86 20.8427 104.172 19.488 105.879 18.528C107.585 17.568 109.601 17.088 111.927 17.088C114.273 17.088 116.3 17.568 118.007 18.528C119.713 19.488 121.025 20.8427 121.943 22.592C122.881 24.32 123.351 26.3573 123.351 28.704C123.351 31.0293 122.881 33.0667 121.943 34.816C121.025 36.5653 119.713 37.9307 118.007 38.912C116.3 39.872 114.273 40.352 111.927 40.352C109.601 40.352 107.585 39.872 105.879 38.912C104.193 37.9307 102.881 36.5653 101.943 34.816C101.025 33.0667 100.567 31.0293 100.567 28.704ZM106.743 28.704C106.743 30.112 106.935 31.3173 107.319 32.32C107.703 33.3227 108.268 34.0907 109.015 34.624C109.783 35.1573 110.753 35.424 111.927 35.424C113.676 35.424 114.988 34.8373 115.863 33.664C116.737 32.4693 117.175 30.816 117.175 28.704C117.175 27.296 116.983 26.0907 116.599 25.088C116.215 24.0853 115.628 23.328 114.839 22.816C114.071 22.2827 113.1 22.016 111.927 22.016C110.177 22.016 108.876 22.6027 108.023 23.776C107.169 24.928 106.743 26.5707 106.743 28.704Z" fill="white"/>
<path d="M126.893 40V17.44H131.245L142.669 31.616H141.741V17.44H147.213V40H142.861L131.501 25.824H132.429V40H126.893Z" fill="white"/>
<circle cx="28" cy="28" r="28" fill="#0088CC"/>
<path fill-rule="evenodd" clip-rule="evenodd" d="M20.2088 18.5043L35.9132 18.5043C36.4688 18.5043 37.024 18.5859 37.6042 18.8564C38.2997 19.1805 38.6685 19.6916 38.9269 20.0695C38.947 20.0989 38.9658 20.1292 38.9832 20.1602C39.287 20.701 39.4436 21.2849 39.4436 21.913C39.4436 22.5098 39.3016 23.16 38.9832 23.7267C38.9802 23.7321 38.9771 23.7375 38.974 23.7429L29.0522 40.7864C28.8334 41.1622 28.4307 41.3928 27.9958 41.3913C27.5609 41.3897 27.1598 41.1563 26.9437 40.7789L17.2041 23.7717C17.2013 23.7672 17.1985 23.7625 17.1957 23.7579C16.9728 23.3906 16.6281 22.8226 16.5678 22.0895C16.5124 21.4155 16.6639 20.7401 17.0026 20.1545C17.3413 19.5688 17.8512 19.1006 18.4645 18.814C19.1221 18.5067 19.7885 18.5043 20.2088 18.5043ZM26.7827 20.9391L20.2088 20.9391C19.7769 20.9391 19.6111 20.9657 19.4952 21.0199C19.3349 21.0947 19.2003 21.2177 19.1103 21.3734C19.0203 21.5291 18.9796 21.7095 18.9944 21.89C19.0029 21.9936 19.0451 22.112 19.294 22.5225C19.2992 22.5311 19.3043 22.5398 19.3093 22.5485L26.7827 35.5984V20.9391ZM29.2175 20.9391V35.6629L36.864 22.5278C36.9503 22.371 37.0088 22.1444 37.0088 21.913C37.0088 21.7253 36.9699 21.5623 36.8829 21.3942C36.7916 21.263 36.736 21.1935 36.6895 21.1459C36.6496 21.1052 36.6189 21.0834 36.5755 21.0632C36.3947 20.9789 36.2097 20.9391 35.9132 20.9391L29.2175 20.9391Z" fill="white"/>
</svg>
