<svg width="100" height="32" viewBox="0 0 100 32" fill="none" xmlns="http://www.w3.org/2000/svg"><path d="M16 32C24.8366 32 32 24.8366 32 16C32 7.16344 24.8366 0 16 0C7.16344 0 0 7.16344 0 16C0 24.8366 7.16344 32 16 32Z" fill="#0098EA"></path><path d="M21.4629 8.93005H10.5363C8.52724 8.93005 7.25388 11.0972 8.26459 12.8491L15.0081 24.5376C15.4482 25.3008 16.551 25.3008 16.9911 24.5376L23.736 12.8491C24.7453 11.1 23.472 8.93005 21.4643 8.93005H21.4629ZM15.0026 21.0324L13.534 18.1901L9.99036 11.8522C9.75659 11.4465 10.0454 10.9267 10.5349 10.9267H15.0013V21.0338L15.0026 21.0324ZM22.0061 11.8508L18.4638 18.1914L16.9952 21.0324V10.9253H21.4616C21.9511 10.9253 22.2399 11.4451 22.0061 11.8508Z" fill="white"></path><path d="M42.1973 24.7384H45.685V12.5749H50.5076V9.26158H37.3745V12.5749H42.1973V24.7384Z" fill="currentColor"></path><path d="M58.8897 25C63.293 25 66.8897 21.4033 66.8897 17C66.8897 12.5967 63.293 9 58.8897 9C54.4647 9 50.8897 12.5967 50.8897 17C50.8897 21.4033 54.4647 25 58.8897 25ZM58.8897 21.6431C56.3611 21.6431 54.3775 19.5068 54.3775 17C54.3775 14.4932 56.3611 12.3569 58.8897 12.3569C61.3965 12.3569 63.3802 14.4932 63.3802 17C63.3802 19.5068 61.3965 21.6431 58.8897 21.6431Z" fill="currentColor"></path><path d="M82.8059 24.7384V9.26158H79.3182V18.8093L71.7978 9.26158H68.8114V24.7384H72.2773V15.1689L79.8196 24.7384H82.8059Z" fill="currentColor"></path></svg>