<svg width="24" height="24" viewBox="0 0 24 24" fill="none" xmlns="http://www.w3.org/2000/svg">
    <path fill-rule="evenodd" clip-rule="evenodd" d="M12 21C16.9706 21 21 16.9706 21 12C21 7.02944 16.9706 3 12 3C7.02944 3 3 7.02944 3 12C3 16.9706 7.02944 21 12 21ZM15.7818 13.2138C15.9719 13.3194 16.222 13.303 16.4344 13.1707C16.7609 12.9676 16.9332 12.5508 16.9077 12.0266C16.9075 12.024 16.9077 12.0215 16.9079 12.019C16.9081 12.0171 16.9083 12.0152 16.9083 12.0132C16.9081 12.0113 16.9078 12.0095 16.9076 12.0077C16.9072 12.0052 16.9068 12.0027 16.9068 12C16.9068 9.29298 14.7052 7.09083 11.9988 7.09083C9.29247 7.09083 7.09056 9.29298 7.09056 12C7.08953 12.8039 7.28778 13.5959 7.66807 14.3072L10.5087 9.81337C10.8515 9.29649 11.2044 9.26927 11.4403 9.33717C11.7968 9.4399 11.9846 9.7806 11.9988 10.3502V12.8257L13.2667 10.8003L13.267 10.7998C13.4705 10.4739 14.011 9.6083 14.7295 9.81454C15.1537 9.936 15.4074 10.3858 15.4074 11.0181V12.3272C15.4074 12.7648 15.5402 13.0794 15.7818 13.2138ZM17.9973 11.9865V12.0003C18.0348 12.9199 17.6762 13.6829 17.0107 14.0971C16.4618 14.4383 15.788 14.4653 15.2521 14.1673C14.6576 13.8369 14.3166 13.1661 14.3166 12.3272V11.1892C14.2786 11.2434 14.237 11.3061 14.1918 11.3786L12.7828 13.6291C12.3072 14.3901 11.8541 14.448 11.5576 14.3631C11.2615 14.2782 10.9083 13.9882 10.9083 13.0908V11.2226L8.34659 15.2751C9.24583 16.2773 10.5497 16.9092 11.9988 16.9092C13.2401 16.9094 14.4342 16.4409 15.3356 15.6C15.441 15.5018 15.5821 15.4496 15.7271 15.4551C15.8721 15.4606 16.0087 15.5234 16.1062 15.6292C16.3112 15.8499 16.2981 16.195 16.077 16.3999C14.9651 17.4316 13.5166 18 11.9988 18C8.6912 18 6 15.3082 6 12C6 8.69151 8.6912 6 11.9985 6C15.2972 6 17.9819 8.67629 17.997 11.9731L17.9973 11.9865Z" fill="#C0D1D9"/>
</svg>
