<svg width="24" height="24" viewBox="0 0 24 24" fill="none" xmlns="http://www.w3.org/2000/svg">
<g id="Icon menu 24px">
<g id="Group 1321317480">
<path id="Vector 1771" d="M16.0159 13.6471C15.0719 14.156 13.6495 16.5377 12.8482 18.7588C12.6555 19.2929 12.4228 20.2759 12.2414 21.1087C12.0669 21.91 11.2889 22.4373 10.4835 22.2827V22.2827C9.84338 22.1598 9.35269 21.6343 9.29508 20.985C9.1467 19.3128 9.11629 17.3284 9.96687 15.8621" stroke="#F3F3F6" stroke-width="1.8"/>
<path id="Vector 1772" d="M9.92879 15.9314L4.34737 15.9314C3.53172 15.9314 2.8705 15.2702 2.8705 14.4545V14.4545C2.8705 13.6389 3.53172 12.9776 4.34737 12.9776L6.24618 12.9776" stroke="#F3F3F6" stroke-width="1.8" stroke-linecap="round" stroke-linejoin="round"/>
<path id="Vector 1773" d="M6.09263 12.9777L3.67401 12.9777C2.85836 12.9777 2.19715 12.3164 2.19715 11.5008V11.5008C2.19715 10.6851 2.85836 10.0239 3.67401 10.0239L5.57282 10.0239" stroke="#F3F3F6" stroke-width="1.8" stroke-linecap="round" stroke-linejoin="round"/>
<path id="Vector 1774" d="M6.90006 10.0239L4.59467 10.0239C3.77901 10.0239 3.1178 9.36269 3.1178 8.54704V8.54704C3.1178 7.73139 3.77901 7.07017 4.59467 7.07017L6.49348 7.07017" stroke="#F3F3F6" stroke-width="1.8" stroke-linecap="round" stroke-linejoin="round"/>
<path id="Vector 1775" d="M7.42423 7.07019L5.92884 7.07019C5.11319 7.07019 4.45197 6.40897 4.45197 5.59332V5.59332C4.45197 4.77767 5.11319 4.11645 5.92884 4.11645L10.2299 4.11645C13.0286 4.10388 14.4284 4.27713 16.1494 5.41934" stroke="#F3F3F6" stroke-width="1.8" stroke-linecap="round" stroke-linejoin="round"/>
<path id="Rectangle 8590" d="M21.4016 12.2978C21.4016 13.5918 20.3526 14.6408 19.0586 14.6408L17.3306 14.6408C16.6836 14.6408 16.1591 14.1163 16.1591 13.4693L16.1591 5.28735C16.1591 4.64035 16.6836 4.11585 17.3306 4.11585L19.0586 4.11585C20.3526 4.11585 21.4016 5.16485 21.4016 6.45886L21.4016 12.2978Z" stroke="#F3F3F6" stroke-width="1.8"/>
</g>
</g>
</svg>
