<svg width="24" height="24" viewBox="0 0 24 24" fill="none" xmlns="http://www.w3.org/2000/svg">
  <path fill-rule="evenodd" clip-rule="evenodd"
    d="M14.298 20.704A9 9 0 1 0 3 12a9.003 9.003 0 0 0 6.97 8.77.428.428 0 0 0 .115-.302l-.004-.472-.008-.952c-2.329.506-2.82-1.123-2.82-1.123-.38-.968-.93-1.226-.93-1.226-.76-.52.058-.51.058-.51.84.06 1.282.864 1.282.864.747 1.28 1.96.911 2.437.696.076-.541.293-.91.532-1.12-1.86-.211-3.814-.93-3.814-4.14 0-.915.326-1.663.862-2.249-.086-.212-.374-1.063.082-2.217 0 0 .703-.225 2.302.86a8.035 8.035 0 0 1 2.096-.283 8.038 8.038 0 0 1 2.096.282c1.598-1.084 2.3-.859 2.3-.859.457 1.154.17 2.005.083 2.217.537.586.861 1.334.861 2.249 0 3.218-1.957 3.927-3.822 4.134.3.259.568.77.568 1.551 0 .75-.005 1.401-.008 1.833l-.003.466c0 .08.02.163.063.235Z"
    fill="currentColor" />
</svg>