<svg width="24" height="24" viewBox="0 0 24 24" fill="none" xmlns="http://www.w3.org/2000/svg">
<g id="Icon menu 24px">
<g id="Group 1321317480">
<path id="Vector 1771" d="M7.87088 10.4103C8.82063 9.89829 10.2517 7.50195 11.0579 5.26726C11.2518 4.72983 11.486 3.74086 11.6685 2.90289C11.8441 2.09669 12.6268 1.56619 13.4371 1.72173V1.72173C14.0812 1.84537 14.5749 2.37406 14.6329 3.02735C14.7822 4.70985 14.8128 6.70635 13.957 8.18171" stroke="#04060B" stroke-width="1.8"/>
<path id="Vector 1772" d="M13.9953 8.11198H19.6109C20.4316 8.11198 21.0969 8.77726 21.0969 9.59791V9.59791C21.0969 10.4186 20.4316 11.0838 19.6109 11.0838H17.7005" stroke="#04060B" stroke-width="1.8" stroke-linecap="round" stroke-linejoin="round"/>
<path id="Vector 1773" d="M17.855 11.0838H20.2884C21.1091 11.0838 21.7744 11.7491 21.7744 12.5697V12.5697C21.7744 13.3904 21.1091 14.0557 20.2884 14.0557H18.378" stroke="#04060B" stroke-width="1.8" stroke-linecap="round" stroke-linejoin="round"/>
<path id="Vector 1774" d="M17.0426 14.0557H19.3621C20.1828 14.0557 20.8481 14.721 20.8481 15.5416V15.5416C20.8481 16.3623 20.1828 17.0276 19.3621 17.0276H17.4517" stroke="#04060B" stroke-width="1.8" stroke-linecap="round" stroke-linejoin="round"/>
<path id="Vector 1775" d="M16.5152 17.0275H18.0198C18.8404 17.0275 19.5057 17.6928 19.5057 18.5135V18.5135C19.5057 19.3341 18.8404 19.9994 18.0198 19.9994H13.6923C10.8764 20.012 9.46806 19.8377 7.7365 18.6885" stroke="#04060B" stroke-width="1.8" stroke-linecap="round" stroke-linejoin="round"/>
<path id="Rectangle 8590" d="M2.4521 11.7679C2.4521 10.4659 3.50754 9.41051 4.80949 9.41051H6.54803C7.19901 9.41051 7.72672 9.93823 7.72672 10.5892V18.8213C7.72672 19.4723 7.199 20 6.54803 20H4.80949C3.50754 20 2.4521 18.9446 2.4521 17.6426V11.7679Z" stroke="#04060B" stroke-width="1.8"/>
</g>
</g>
</svg>
