<svg width="24" height="24" viewBox="0 0 24 24" fill="none" xmlns="http://www.w3.org/2000/svg">
<path fill-rule="evenodd" clip-rule="evenodd" d="M12 3C9.51472 3 7.26472 4.00736 5.63604 5.63604C4.00736 7.26472 3 9.51472 3 12C3 14.4853 4.00736 16.7353 5.63604 18.364C7.26472 19.9926 9.51472 21 12 21C14.4853 21 16.7353 19.9926 18.364 18.364C19.9926 16.7353 21 14.4853 21 12C21 9.51472 19.9926 7.26472 18.364 5.63604C16.7353 4.00736 14.4853 3 12 3ZM9.54314 15.8517V10.0479H7.61404V15.8517H9.54314V15.8517ZM8.57858 9.25543C9.2513 9.25543 9.67001 8.80975 9.67001 8.25279C9.65747 7.68329 9.2513 7.24998 8.59134 7.24998C7.93145 7.24998 7.5 7.68329 7.5 8.25279C7.5 8.80975 7.91862 9.25543 8.56601 9.25543H8.57855H8.57858ZM10.6094 15.8518H12.5385V12.6107C12.5385 12.4372 12.551 12.2639 12.6019 12.1399C12.7414 11.7933 13.0588 11.4344 13.5917 11.4344C14.2898 11.4344 14.569 11.9666 14.569 12.7469V15.8518H16.498V12.5239C16.498 10.7412 15.5462 9.91172 14.277 9.91172C13.2363 9.91172 12.7795 10.4934 12.5256 10.8896H12.5385V10.0479H10.6094C10.6347 10.5925 10.6094 15.8518 10.6094 15.8518H10.6094Z" fill="#C0D1D9"/>
</svg>
