<svg width="63" height="24" viewBox="0 0 63 24" fill="none" xmlns="http://www.w3.org/2000/svg">
<g clip-path="url(#clip0_225_523)">
<path d="M12.0708 24C18.6982 24 24.0708 18.6274 24.0708 12C24.0708 5.37258 18.6982 0 12.0708 0C5.44338 0 0.0708008 5.37258 0.0708008 12C0.0708008 18.6274 5.44338 24 12.0708 24Z" fill="#0098EA"/>
<path d="M16.1681 6.69763H7.97313C6.46635 6.69763 5.51133 8.32302 6.26937 9.63694L11.327 18.4033C11.6571 18.9757 12.4842 18.9757 12.8142 18.4033L17.8729 9.63694C18.6299 8.32508 17.6749 6.69763 16.1691 6.69763H16.1681ZM11.3229 15.7744L10.2214 13.6426L7.56369 8.88922C7.38836 8.58497 7.60494 8.19513 7.9721 8.19513H11.3219V15.7754L11.3229 15.7744ZM16.5755 8.88819L13.9188 13.6437L12.8173 15.7744V8.1941H16.1671C16.5342 8.1941 16.7508 8.58394 16.5755 8.88819Z" fill="white"/>
<path d="M31.6353 18.6289H34.323V9.25552H38.0394V6.70219H27.9188V9.25552H31.6353V18.6289Z" fill="currentColor"/>
<path d="M44.4989 18.8305C47.8921 18.8305 50.6638 16.0588 50.6638 12.6656C50.6638 9.27232 47.8921 6.50061 44.4989 6.50061C41.0888 6.50061 38.3339 9.27232 38.3339 12.6656C38.3339 16.0588 41.0888 18.8305 44.4989 18.8305ZM44.4989 16.2436C42.5503 16.2436 41.0216 14.5974 41.0216 12.6656C41.0216 10.7338 42.5503 9.08754 44.4989 9.08754C46.4306 9.08754 47.9593 10.7338 47.9593 12.6656C47.9593 14.5974 46.4306 16.2436 44.4989 16.2436Z" fill="currentColor"/>
<path d="M62.9291 18.6289V6.70219H60.2414V14.0598L54.446 6.70219H52.1447V18.6289H54.8156V11.2545L60.6278 18.6289H62.9291Z" fill="currentColor"/>
</g>
<defs>
<clipPath id="clip0_225_523">
<rect width="63" height="24" fill="white"/>
</clipPath>
</defs>
</svg>
