<svg width="24" height="24" viewBox="0 0 24 24" fill="none" xmlns="http://www.w3.org/2000/svg">
<path fill-rule="evenodd" clip-rule="evenodd" d="M12 3C9.51472 3 7.26472 4.00736 5.63604 5.63604C4.00736 7.26472 3 9.51472 3 12C3 14.4853 4.00736 16.7353 5.63604 18.364C7.26472 19.9926 9.51472 21 12 21C14.4853 21 16.7353 19.9926 18.364 18.364C19.9926 16.7353 21 14.4853 21 12C21 9.51472 19.9926 7.26472 18.364 5.63604C16.7353 4.00736 14.4853 3 12 3ZM12.0004 11.435L16.7304 8.66C16.454 8.25101 15.994 8.0042 15.5004 8H8.50042C8.00418 7.99978 7.53996 8.245 7.26042 8.655L12.0004 11.435ZM12 12.4299C12.1756 12.4296 12.3481 12.3831 12.5 12.2949L17 9.66494V14.4999C17 15.3284 16.3284 15.9999 15.5 15.9999H8.5C7.67157 15.9999 7 15.3284 7 14.4999V9.66494L11.5 12.2999C11.6524 12.3863 11.8248 12.4311 12 12.4299Z" fill="#C0D1D9"/>
</svg>
