<svg width="24" height="24" viewBox="0 0 24 24" fill="none" xmlns="http://www.w3.org/2000/svg">
<path fill-rule="evenodd" clip-rule="evenodd" d="M5.63604 5.63604C7.26472 4.00736 9.51472 3 12 3C14.4853 3 16.7353 4.00736 18.364 5.63604C19.9926 7.26472 21 9.51472 21 12C21 14.4853 19.9926 16.7353 18.364 18.364C16.7353 19.9926 14.4853 21 12 21C9.51472 21 7.26472 19.9926 5.63604 18.364C4.00736 16.7353 3 14.4853 3 12C3 9.51472 4.00736 7.26472 5.63604 5.63604ZM12.0574 9.28098C11.1618 9.66133 9.3718 10.4486 6.68745 11.6427C6.25155 11.8197 6.02321 11.9928 6.00242 12.1621C5.96729 12.4482 6.31822 12.5609 6.79609 12.7143C6.86109 12.7352 6.92844 12.7568 6.99749 12.7797C7.46764 12.9358 8.10007 13.1183 8.42885 13.1256C8.72708 13.1321 9.05994 13.0066 9.42743 12.7489C11.9355 11.0203 13.2302 10.1466 13.3115 10.1278C13.3688 10.1145 13.4483 10.0978 13.5021 10.1467C13.556 10.1955 13.5507 10.288 13.545 10.3129C13.5102 10.4642 12.1327 11.7718 11.4198 12.4484C11.1976 12.6594 11.0399 12.809 11.0077 12.8432C10.9355 12.9197 10.862 12.9922 10.7913 13.0618C10.3545 13.4917 10.0269 13.8141 10.8094 14.3405C11.1854 14.5935 11.4863 14.8027 11.7865 15.0115C12.1143 15.2394 12.4413 15.4667 12.8643 15.7499C12.9721 15.822 13.0751 15.897 13.1753 15.9699C13.5568 16.2476 13.8996 16.4971 14.323 16.4573C14.5691 16.4342 14.8232 16.198 14.9523 15.4935C15.2574 13.8284 15.857 10.2208 15.9956 8.73415C16.0077 8.60391 15.9924 8.43721 15.9802 8.36404C15.9679 8.29087 15.9423 8.18661 15.8491 8.10943C15.7388 8.01803 15.5685 7.99876 15.4923 8.00006C15.146 8.00636 14.6146 8.195 12.0574 9.28098Z" fill="#C0D1D9"/>
</svg>
