<svg width="24" height="24" viewBox="0 0 24 24" fill="none" xmlns="http://www.w3.org/2000/svg">
<path fill-rule="evenodd" clip-rule="evenodd" d="M5.63604 5.63604C7.26472 4.00736 9.51472 3 12 3C14.4853 3 16.7353 4.00736 18.364 5.63604C19.9926 7.26472 21 9.51472 21 12C21 14.4853 19.9926 16.7353 18.364 18.364C16.7353 19.9926 14.4853 21 12 21C9.51472 21 7.26472 19.9926 5.63604 18.364C4.00736 16.7353 3 14.4853 3 12C3 9.51472 4.00736 7.26472 5.63604 5.63604ZM15.9921 10.2906V10.0288C16.3979 9.74084 16.7382 9.37435 17 8.9555C16.6335 9.12565 16.2408 9.23037 15.822 9.28272C16.2408 9.02094 16.5681 8.62827 16.7251 8.14398C16.3194 8.37958 15.8874 8.54974 15.4162 8.64136C15.0497 8.24869 14.5131 8 13.9241 8C12.7853 8 11.8691 8.91623 11.8691 10.055C11.8691 10.212 11.8822 10.3822 11.9215 10.5262C10.2199 10.4346 8.70157 9.62304 7.69372 8.37958C7.52356 8.68063 7.41885 9.03403 7.41885 9.41361C7.41885 10.1335 7.78534 10.7618 8.33508 11.1283C7.99476 11.1152 7.68063 11.0236 7.40576 10.8665V10.8927C7.40576 11.8874 8.11257 12.712 9.05497 12.8953C8.88482 12.9476 8.70157 12.9738 8.51832 12.9738C8.37435 12.9738 8.25654 12.9607 8.12565 12.9346C8.37435 13.7461 9.13351 14.3482 10.0366 14.3613C9.32984 14.911 8.43979 15.2382 7.48429 15.2382C7.32723 15.2382 7.15707 15.2251 7 15.212C7.91623 15.788 8.98953 16.1283 10.1545 16.1283C13.9241 16.1283 15.9921 13 15.9921 10.2906Z" fill="#C0D1D9"/>
</svg>
