<svg width="1479" height="544" viewBox="0 0 1479 544" fill="none" xmlns="http://www.w3.org/2000/svg">
<rect x="621" y="101" width="184" height="184" rx="92" fill="#232328"/>
<rect x="621" y="101" width="184" height="184" rx="92" stroke="#6EB1FF" stroke-width="2"/>
<path d="M650.878 184.045H653.503V196.42C653.503 197.54 653.281 198.497 652.838 199.293C652.401 200.088 651.784 200.696 650.989 201.116C650.193 201.531 649.261 201.739 648.193 201.739C647.21 201.739 646.327 201.56 645.543 201.202C644.764 200.844 644.148 200.324 643.693 199.642C643.244 198.955 643.02 198.119 643.02 197.136H645.636C645.636 197.619 645.747 198.037 645.969 198.389C646.196 198.741 646.506 199.017 646.898 199.216C647.295 199.409 647.75 199.506 648.261 199.506C648.818 199.506 649.29 199.389 649.676 199.156C650.068 198.918 650.366 198.568 650.571 198.108C650.776 197.648 650.878 197.085 650.878 196.42V184.045ZM662.053 201.764C660.764 201.764 659.653 201.489 658.721 200.938C657.795 200.381 657.079 199.599 656.573 198.594C656.073 197.582 655.823 196.398 655.823 195.04C655.823 193.699 656.073 192.517 656.573 191.494C657.079 190.472 657.784 189.673 658.687 189.099C659.596 188.526 660.659 188.239 661.874 188.239C662.613 188.239 663.329 188.361 664.022 188.605C664.715 188.849 665.337 189.233 665.889 189.756C666.44 190.278 666.874 190.957 667.193 191.793C667.511 192.622 667.67 193.631 667.67 194.818V195.722H657.264V193.812H665.173C665.173 193.142 665.036 192.548 664.764 192.031C664.491 191.509 664.107 191.097 663.613 190.795C663.124 190.494 662.551 190.344 661.891 190.344C661.176 190.344 660.551 190.52 660.016 190.872C659.488 191.219 659.079 191.673 658.789 192.236C658.505 192.793 658.363 193.398 658.363 194.051V195.543C658.363 196.418 658.516 197.162 658.823 197.776C659.136 198.389 659.57 198.858 660.127 199.182C660.684 199.5 661.335 199.659 662.079 199.659C662.562 199.659 663.002 199.591 663.4 199.455C663.798 199.312 664.141 199.102 664.431 198.824C664.721 198.545 664.943 198.202 665.096 197.793L667.508 198.227C667.315 198.937 666.968 199.56 666.468 200.094C665.974 200.622 665.352 201.034 664.602 201.33C663.857 201.619 663.008 201.764 662.053 201.764ZM675.888 188.409V190.455H668.738V188.409H675.888ZM670.655 185.273H673.203V197.656C673.203 198.151 673.277 198.523 673.425 198.773C673.573 199.017 673.763 199.185 673.996 199.276C674.235 199.361 674.493 199.403 674.772 199.403C674.976 199.403 675.155 199.389 675.309 199.361C675.462 199.332 675.581 199.31 675.666 199.293L676.127 201.398C675.979 201.455 675.769 201.511 675.496 201.568C675.223 201.631 674.882 201.665 674.473 201.67C673.803 201.682 673.178 201.562 672.598 201.312C672.019 201.062 671.55 200.676 671.192 200.153C670.834 199.631 670.655 198.974 670.655 198.185V185.273ZM684.098 188.409V190.455H676.947V188.409H684.098ZM678.865 185.273H681.413V197.656C681.413 198.151 681.487 198.523 681.635 198.773C681.782 199.017 681.973 199.185 682.206 199.276C682.444 199.361 682.703 199.403 682.981 199.403C683.186 199.403 683.365 199.389 683.518 199.361C683.672 199.332 683.791 199.31 683.876 199.293L684.336 201.398C684.189 201.455 683.978 201.511 683.706 201.568C683.433 201.631 683.092 201.665 682.683 201.67C682.013 201.682 681.388 201.562 680.808 201.312C680.228 201.062 679.76 200.676 679.402 200.153C679.044 199.631 678.865 198.974 678.865 198.185V185.273ZM691.57 201.764C690.343 201.764 689.272 201.483 688.357 200.92C687.442 200.358 686.732 199.571 686.226 198.56C685.721 197.548 685.468 196.366 685.468 195.014C685.468 193.656 685.721 192.469 686.226 191.452C686.732 190.435 687.442 189.645 688.357 189.082C689.272 188.52 690.343 188.239 691.57 188.239C692.798 188.239 693.869 188.52 694.783 189.082C695.698 189.645 696.408 190.435 696.914 191.452C697.42 192.469 697.673 193.656 697.673 195.014C697.673 196.366 697.42 197.548 696.914 198.56C696.408 199.571 695.698 200.358 694.783 200.92C693.869 201.483 692.798 201.764 691.57 201.764ZM691.579 199.625C692.374 199.625 693.033 199.415 693.556 198.994C694.079 198.574 694.465 198.014 694.715 197.315C694.971 196.616 695.099 195.847 695.099 195.006C695.099 194.17 694.971 193.403 694.715 192.705C694.465 192 694.079 191.435 693.556 191.009C693.033 190.582 692.374 190.369 691.579 190.369C690.778 190.369 690.113 190.582 689.584 191.009C689.062 191.435 688.673 192 688.417 192.705C688.167 193.403 688.042 194.17 688.042 195.006C688.042 195.847 688.167 196.616 688.417 197.315C688.673 198.014 689.062 198.574 689.584 198.994C690.113 199.415 690.778 199.625 691.579 199.625ZM702.345 193.727V201.5H699.797V188.409H702.243V190.54H702.405C702.706 189.847 703.178 189.29 703.82 188.869C704.467 188.449 705.283 188.239 706.266 188.239C707.158 188.239 707.939 188.426 708.609 188.801C709.28 189.17 709.8 189.722 710.169 190.455C710.538 191.187 710.723 192.094 710.723 193.173V201.5H708.175V193.48C708.175 192.531 707.928 191.79 707.433 191.256C706.939 190.716 706.26 190.446 705.396 190.446C704.805 190.446 704.28 190.574 703.82 190.83C703.365 191.085 703.004 191.46 702.737 191.955C702.476 192.443 702.345 193.034 702.345 193.727ZM722.674 201.5L717.834 184.045H720.603L724.004 197.562H724.166L727.703 184.045H730.447L733.984 197.571H734.146L737.538 184.045H740.316L735.467 201.5H732.816L729.143 188.426H729.007L725.334 201.5H722.674ZM744.314 201.79C743.484 201.79 742.734 201.636 742.064 201.33C741.393 201.017 740.862 200.565 740.47 199.974C740.084 199.384 739.891 198.659 739.891 197.801C739.891 197.062 740.033 196.455 740.317 195.977C740.601 195.5 740.984 195.122 741.467 194.844C741.95 194.565 742.49 194.355 743.087 194.213C743.683 194.071 744.291 193.963 744.91 193.889C745.695 193.798 746.331 193.724 746.82 193.668C747.308 193.605 747.663 193.506 747.885 193.369C748.106 193.233 748.217 193.011 748.217 192.705V192.645C748.217 191.901 748.007 191.324 747.587 190.915C747.172 190.506 746.552 190.301 745.729 190.301C744.871 190.301 744.195 190.491 743.7 190.872C743.212 191.247 742.873 191.665 742.686 192.125L740.291 191.58C740.575 190.784 740.99 190.142 741.535 189.653C742.087 189.159 742.72 188.801 743.436 188.58C744.152 188.352 744.905 188.239 745.695 188.239C746.217 188.239 746.771 188.301 747.356 188.426C747.947 188.545 748.498 188.767 749.01 189.091C749.527 189.415 749.95 189.878 750.28 190.48C750.609 191.077 750.774 191.852 750.774 192.807V201.5H748.285V199.71H748.183C748.018 200.04 747.771 200.364 747.442 200.682C747.112 201 746.689 201.264 746.172 201.474C745.655 201.685 745.035 201.79 744.314 201.79ZM744.868 199.744C745.572 199.744 746.175 199.605 746.675 199.327C747.18 199.048 747.564 198.685 747.825 198.236C748.092 197.781 748.226 197.295 748.226 196.778V195.091C748.135 195.182 747.959 195.267 747.697 195.347C747.442 195.42 747.149 195.486 746.82 195.543C746.49 195.594 746.169 195.642 745.856 195.688C745.544 195.727 745.283 195.761 745.072 195.79C744.578 195.852 744.126 195.957 743.717 196.105C743.314 196.253 742.99 196.466 742.746 196.744C742.507 197.017 742.388 197.381 742.388 197.835C742.388 198.466 742.621 198.943 743.087 199.267C743.552 199.585 744.146 199.744 744.868 199.744ZM755.997 184.045V201.5H753.448V184.045H755.997ZM761.253 184.045V201.5H758.705V184.045H761.253ZM769.603 201.764C768.314 201.764 767.203 201.489 766.271 200.938C765.345 200.381 764.629 199.599 764.123 198.594C763.623 197.582 763.373 196.398 763.373 195.04C763.373 193.699 763.623 192.517 764.123 191.494C764.629 190.472 765.334 189.673 766.237 189.099C767.146 188.526 768.209 188.239 769.424 188.239C770.163 188.239 770.879 188.361 771.572 188.605C772.265 188.849 772.887 189.233 773.439 189.756C773.99 190.278 774.424 190.957 774.743 191.793C775.061 192.622 775.22 193.631 775.22 194.818V195.722H764.814V193.812H772.723C772.723 193.142 772.586 192.548 772.314 192.031C772.041 191.509 771.657 191.097 771.163 190.795C770.674 190.494 770.101 190.344 769.441 190.344C768.726 190.344 768.101 190.52 767.566 190.872C767.038 191.219 766.629 191.673 766.339 192.236C766.055 192.793 765.913 193.398 765.913 194.051V195.543C765.913 196.418 766.066 197.162 766.373 197.776C766.686 198.389 767.12 198.858 767.677 199.182C768.234 199.5 768.885 199.659 769.629 199.659C770.112 199.659 770.552 199.591 770.95 199.455C771.348 199.312 771.691 199.102 771.981 198.824C772.271 198.545 772.493 198.202 772.646 197.793L775.058 198.227C774.865 198.937 774.518 199.56 774.018 200.094C773.524 200.622 772.902 201.034 772.152 201.33C771.407 201.619 770.558 201.764 769.603 201.764ZM783.438 188.409V190.455H776.288V188.409H783.438ZM778.205 185.273H780.753V197.656C780.753 198.151 780.827 198.523 780.975 198.773C781.123 199.017 781.313 199.185 781.546 199.276C781.785 199.361 782.043 199.403 782.322 199.403C782.526 199.403 782.705 199.389 782.859 199.361C783.012 199.332 783.131 199.31 783.217 199.293L783.677 201.398C783.529 201.455 783.319 201.511 783.046 201.568C782.773 201.631 782.432 201.665 782.023 201.67C781.353 201.682 780.728 201.562 780.148 201.312C779.569 201.062 779.1 200.676 778.742 200.153C778.384 199.631 778.205 198.974 778.205 198.185V185.273Z" fill="white"/>
<rect x="1180" y="101" width="184" height="184" rx="92" fill="#232328"/>
<rect x="1180" y="101" width="184" height="184" rx="92" stroke="#6EB1FF" stroke-width="2"/>
<path d="M1204.84 184.045H1207.47V196.42C1207.47 197.54 1207.25 198.497 1206.8 199.293C1206.36 200.088 1205.75 200.696 1204.95 201.116C1204.16 201.531 1203.23 201.739 1202.16 201.739C1201.17 201.739 1200.29 201.56 1199.51 201.202C1198.73 200.844 1198.11 200.324 1197.66 199.642C1197.21 198.955 1196.98 198.119 1196.98 197.136H1199.6C1199.6 197.619 1199.71 198.037 1199.93 198.389C1200.16 198.741 1200.47 199.017 1200.86 199.216C1201.26 199.409 1201.71 199.506 1202.23 199.506C1202.78 199.506 1203.25 199.389 1203.64 199.156C1204.03 198.918 1204.33 198.568 1204.54 198.108C1204.74 197.648 1204.84 197.085 1204.84 196.42V184.045ZM1216.02 201.764C1214.73 201.764 1213.62 201.489 1212.69 200.938C1211.76 200.381 1211.04 199.599 1210.54 198.594C1210.04 197.582 1209.79 196.398 1209.79 195.04C1209.79 193.699 1210.04 192.517 1210.54 191.494C1211.04 190.472 1211.75 189.673 1212.65 189.099C1213.56 188.526 1214.62 188.239 1215.84 188.239C1216.58 188.239 1217.29 188.361 1217.99 188.605C1218.68 188.849 1219.3 189.233 1219.85 189.756C1220.4 190.278 1220.84 190.957 1221.16 191.793C1221.48 192.622 1221.63 193.631 1221.63 194.818V195.722H1211.23V193.812H1219.14C1219.14 193.142 1219 192.548 1218.73 192.031C1218.46 191.509 1218.07 191.097 1217.58 190.795C1217.09 190.494 1216.51 190.344 1215.86 190.344C1215.14 190.344 1214.51 190.52 1213.98 190.872C1213.45 191.219 1213.04 191.673 1212.75 192.236C1212.47 192.793 1212.33 193.398 1212.33 194.051V195.543C1212.33 196.418 1212.48 197.162 1212.79 197.776C1213.1 198.389 1213.53 198.858 1214.09 199.182C1214.65 199.5 1215.3 199.659 1216.04 199.659C1216.53 199.659 1216.97 199.591 1217.36 199.455C1217.76 199.312 1218.11 199.102 1218.4 198.824C1218.69 198.545 1218.91 198.202 1219.06 197.793L1221.47 198.227C1221.28 198.937 1220.93 199.56 1220.43 200.094C1219.94 200.622 1219.32 201.034 1218.57 201.33C1217.82 201.619 1216.97 201.764 1216.02 201.764ZM1229.85 188.409V190.455H1222.7V188.409H1229.85ZM1224.62 185.273H1227.17V197.656C1227.17 198.151 1227.24 198.523 1227.39 198.773C1227.54 199.017 1227.73 199.185 1227.96 199.276C1228.2 199.361 1228.46 199.403 1228.74 199.403C1228.94 199.403 1229.12 199.389 1229.27 199.361C1229.43 199.332 1229.55 199.31 1229.63 199.293L1230.09 201.398C1229.94 201.455 1229.73 201.511 1229.46 201.568C1229.19 201.631 1228.85 201.665 1228.44 201.67C1227.77 201.682 1227.14 201.562 1226.56 201.312C1225.98 201.062 1225.51 200.676 1225.16 200.153C1224.8 199.631 1224.62 198.974 1224.62 198.185V185.273ZM1238.06 188.409V190.455H1230.91V188.409H1238.06ZM1232.83 185.273H1235.38V197.656C1235.38 198.151 1235.45 198.523 1235.6 198.773C1235.75 199.017 1235.94 199.185 1236.17 199.276C1236.41 199.361 1236.67 199.403 1236.95 199.403C1237.15 199.403 1237.33 199.389 1237.48 199.361C1237.64 199.332 1237.76 199.31 1237.84 199.293L1238.3 201.398C1238.15 201.455 1237.94 201.511 1237.67 201.568C1237.4 201.631 1237.06 201.665 1236.65 201.67C1235.98 201.682 1235.35 201.562 1234.77 201.312C1234.19 201.062 1233.72 200.676 1233.37 200.153C1233.01 199.631 1232.83 198.974 1232.83 198.185V185.273ZM1245.53 201.764C1244.31 201.764 1243.24 201.483 1242.32 200.92C1241.41 200.358 1240.7 199.571 1240.19 198.56C1239.69 197.548 1239.43 196.366 1239.43 195.014C1239.43 193.656 1239.69 192.469 1240.19 191.452C1240.7 190.435 1241.41 189.645 1242.32 189.082C1243.24 188.52 1244.31 188.239 1245.53 188.239C1246.76 188.239 1247.83 188.52 1248.75 189.082C1249.66 189.645 1250.37 190.435 1250.88 191.452C1251.38 192.469 1251.64 193.656 1251.64 195.014C1251.64 196.366 1251.38 197.548 1250.88 198.56C1250.37 199.571 1249.66 200.358 1248.75 200.92C1247.83 201.483 1246.76 201.764 1245.53 201.764ZM1245.54 199.625C1246.34 199.625 1247 199.415 1247.52 198.994C1248.04 198.574 1248.43 198.014 1248.68 197.315C1248.94 196.616 1249.06 195.847 1249.06 195.006C1249.06 194.17 1248.94 193.403 1248.68 192.705C1248.43 192 1248.04 191.435 1247.52 191.009C1247 190.582 1246.34 190.369 1245.54 190.369C1244.74 190.369 1244.08 190.582 1243.55 191.009C1243.03 191.435 1242.64 192 1242.38 192.705C1242.13 193.403 1242.01 194.17 1242.01 195.006C1242.01 195.847 1242.13 196.616 1242.38 197.315C1242.64 198.014 1243.03 198.574 1243.55 198.994C1244.08 199.415 1244.74 199.625 1245.54 199.625ZM1256.31 193.727V201.5H1253.76V188.409H1256.21V190.54H1256.37C1256.67 189.847 1257.14 189.29 1257.78 188.869C1258.43 188.449 1259.25 188.239 1260.23 188.239C1261.12 188.239 1261.9 188.426 1262.57 188.801C1263.24 189.17 1263.76 189.722 1264.13 190.455C1264.5 191.187 1264.69 192.094 1264.69 193.173V201.5H1262.14V193.48C1262.14 192.531 1261.89 191.79 1261.4 191.256C1260.9 190.716 1260.22 190.446 1259.36 190.446C1258.77 190.446 1258.24 190.574 1257.78 190.83C1257.33 191.085 1256.97 191.46 1256.7 191.955C1256.44 192.443 1256.31 193.034 1256.31 193.727ZM1273.22 184.045H1276.42L1281.97 197.614H1282.18L1287.74 184.045H1290.93V201.5H1288.43V188.869H1288.26L1283.12 201.474H1281.04L1275.89 188.861H1275.73V201.5H1273.22V184.045ZM1297.65 201.79C1296.82 201.79 1296.07 201.636 1295.4 201.33C1294.72 201.017 1294.19 200.565 1293.8 199.974C1293.42 199.384 1293.22 198.659 1293.22 197.801C1293.22 197.062 1293.36 196.455 1293.65 195.977C1293.93 195.5 1294.32 195.122 1294.8 194.844C1295.28 194.565 1295.82 194.355 1296.42 194.213C1297.01 194.071 1297.62 193.963 1298.24 193.889C1299.03 193.798 1299.66 193.724 1300.15 193.668C1300.64 193.605 1300.99 193.506 1301.22 193.369C1301.44 193.233 1301.55 193.011 1301.55 192.705V192.645C1301.55 191.901 1301.34 191.324 1300.92 190.915C1300.5 190.506 1299.88 190.301 1299.06 190.301C1298.2 190.301 1297.53 190.491 1297.03 190.872C1296.54 191.247 1296.2 191.665 1296.02 192.125L1293.62 191.58C1293.91 190.784 1294.32 190.142 1294.87 189.653C1295.42 189.159 1296.05 188.801 1296.77 188.58C1297.48 188.352 1298.24 188.239 1299.03 188.239C1299.55 188.239 1300.1 188.301 1300.69 188.426C1301.28 188.545 1301.83 188.767 1302.34 189.091C1302.86 189.415 1303.28 189.878 1303.61 190.48C1303.94 191.077 1304.11 191.852 1304.11 192.807V201.5H1301.62V199.71H1301.51C1301.35 200.04 1301.1 200.364 1300.77 200.682C1300.44 201 1300.02 201.264 1299.5 201.474C1298.99 201.685 1298.37 201.79 1297.65 201.79ZM1298.2 199.744C1298.9 199.744 1299.51 199.605 1300.01 199.327C1300.51 199.048 1300.9 198.685 1301.16 198.236C1301.42 197.781 1301.56 197.295 1301.56 196.778V195.091C1301.47 195.182 1301.29 195.267 1301.03 195.347C1300.77 195.42 1300.48 195.486 1300.15 195.543C1299.82 195.594 1299.5 195.642 1299.19 195.688C1298.88 195.727 1298.61 195.761 1298.4 195.79C1297.91 195.852 1297.46 195.957 1297.05 196.105C1296.65 196.253 1296.32 196.466 1296.08 196.744C1295.84 197.017 1295.72 197.381 1295.72 197.835C1295.72 198.466 1295.95 198.943 1296.42 199.267C1296.88 199.585 1297.48 199.744 1298.2 199.744ZM1316.59 191.605L1314.28 192.014C1314.18 191.719 1314.03 191.437 1313.82 191.17C1313.61 190.903 1313.34 190.685 1312.98 190.514C1312.63 190.344 1312.19 190.259 1311.66 190.259C1310.94 190.259 1310.34 190.42 1309.86 190.744C1309.37 191.062 1309.13 191.474 1309.13 191.98C1309.13 192.418 1309.29 192.77 1309.62 193.037C1309.94 193.304 1310.46 193.523 1311.19 193.693L1313.27 194.17C1314.47 194.449 1315.37 194.878 1315.96 195.457C1316.55 196.037 1316.84 196.79 1316.84 197.716C1316.84 198.5 1316.62 199.199 1316.16 199.812C1315.71 200.42 1315.09 200.898 1314.28 201.244C1313.48 201.591 1312.55 201.764 1311.49 201.764C1310.03 201.764 1308.83 201.452 1307.9 200.827C1306.98 200.196 1306.41 199.301 1306.2 198.142L1308.66 197.767C1308.82 198.409 1309.13 198.895 1309.61 199.224C1310.09 199.548 1310.71 199.71 1311.48 199.71C1312.31 199.71 1312.98 199.537 1313.48 199.19C1313.98 198.838 1314.23 198.409 1314.23 197.903C1314.23 197.494 1314.08 197.151 1313.77 196.872C1313.47 196.594 1313 196.384 1312.38 196.241L1310.16 195.756C1308.94 195.477 1308.04 195.034 1307.45 194.426C1306.87 193.818 1306.58 193.048 1306.58 192.116C1306.58 191.344 1306.8 190.668 1307.23 190.088C1307.66 189.509 1308.26 189.057 1309.02 188.733C1309.78 188.403 1310.65 188.239 1311.64 188.239C1313.05 188.239 1314.17 188.545 1314.98 189.159C1315.79 189.767 1316.33 190.582 1316.59 191.605ZM1325.04 188.409V190.455H1317.89V188.409H1325.04ZM1319.8 185.273H1322.35V197.656C1322.35 198.151 1322.43 198.523 1322.57 198.773C1322.72 199.017 1322.91 199.185 1323.15 199.276C1323.38 199.361 1323.64 199.403 1323.92 199.403C1324.13 199.403 1324.3 199.389 1324.46 199.361C1324.61 199.332 1324.73 199.31 1324.82 199.293L1325.28 201.398C1325.13 201.455 1324.92 201.511 1324.65 201.568C1324.37 201.631 1324.03 201.665 1323.62 201.67C1322.95 201.682 1322.33 201.562 1321.75 201.312C1321.17 201.062 1320.7 200.676 1320.34 200.153C1319.98 199.631 1319.8 198.974 1319.8 198.185V185.273ZM1332.64 201.764C1331.35 201.764 1330.24 201.489 1329.31 200.938C1328.38 200.381 1327.66 199.599 1327.16 198.594C1326.66 197.582 1326.41 196.398 1326.41 195.04C1326.41 193.699 1326.66 192.517 1327.16 191.494C1327.66 190.472 1328.37 189.673 1329.27 189.099C1330.18 188.526 1331.24 188.239 1332.46 188.239C1333.2 188.239 1333.91 188.361 1334.61 188.605C1335.3 188.849 1335.92 189.233 1336.47 189.756C1337.02 190.278 1337.46 190.957 1337.78 191.793C1338.1 192.622 1338.25 193.631 1338.25 194.818V195.722H1327.85V193.812H1335.76C1335.76 193.142 1335.62 192.548 1335.35 192.031C1335.08 191.509 1334.69 191.097 1334.2 190.795C1333.71 190.494 1333.14 190.344 1332.48 190.344C1331.76 190.344 1331.14 190.52 1330.6 190.872C1330.07 191.219 1329.66 191.673 1329.37 192.236C1329.09 192.793 1328.95 193.398 1328.95 194.051V195.543C1328.95 196.418 1329.1 197.162 1329.41 197.776C1329.72 198.389 1330.15 198.858 1330.71 199.182C1331.27 199.5 1331.92 199.659 1332.66 199.659C1333.15 199.659 1333.59 199.591 1333.98 199.455C1334.38 199.312 1334.73 199.102 1335.02 198.824C1335.31 198.545 1335.53 198.202 1335.68 197.793L1338.09 198.227C1337.9 198.937 1337.55 199.56 1337.05 200.094C1336.56 200.622 1335.94 201.034 1335.19 201.33C1334.44 201.619 1333.59 201.764 1332.64 201.764ZM1340.36 201.5V188.409H1342.82V190.489H1342.96C1343.2 189.784 1343.62 189.23 1344.22 188.827C1344.83 188.418 1345.52 188.213 1346.29 188.213C1346.44 188.213 1346.63 188.219 1346.85 188.23C1347.07 188.241 1347.24 188.256 1347.37 188.273V190.71C1347.27 190.682 1347.08 190.651 1346.82 190.616C1346.56 190.577 1346.3 190.557 1346.04 190.557C1345.44 190.557 1344.9 190.685 1344.43 190.94C1343.96 191.19 1343.59 191.54 1343.32 191.989C1343.05 192.432 1342.91 192.937 1342.91 193.506V201.5H1340.36Z" fill="white"/>
<rect x="80" y="101" width="184" height="184" rx="92" fill="#232328"/>
<rect x="80" y="101" width="184" height="184" rx="92" stroke="#6EB1FF" stroke-width="2"/>
<path d="M144.093 201.5L139.252 184.045H142.022L145.422 197.562H145.584L149.121 184.045H151.866L155.403 197.571H155.564L158.957 184.045H161.735L156.885 201.5H154.235L150.562 188.426H150.425L146.752 201.5H144.093ZM165.732 201.79C164.903 201.79 164.153 201.636 163.482 201.33C162.812 201.017 162.281 200.565 161.889 199.974C161.502 199.384 161.309 198.659 161.309 197.801C161.309 197.062 161.451 196.455 161.735 195.977C162.019 195.5 162.403 195.122 162.886 194.844C163.369 194.565 163.908 194.355 164.505 194.213C165.102 194.071 165.71 193.963 166.329 193.889C167.113 193.798 167.749 193.724 168.238 193.668C168.727 193.605 169.082 193.506 169.303 193.369C169.525 193.233 169.636 193.011 169.636 192.705V192.645C169.636 191.901 169.425 191.324 169.005 190.915C168.59 190.506 167.971 190.301 167.147 190.301C166.289 190.301 165.613 190.491 165.119 190.872C164.63 191.247 164.292 191.665 164.104 192.125L161.71 191.58C161.994 190.784 162.408 190.142 162.954 189.653C163.505 189.159 164.139 188.801 164.854 188.58C165.57 188.352 166.323 188.239 167.113 188.239C167.636 188.239 168.19 188.301 168.775 188.426C169.366 188.545 169.917 188.767 170.428 189.091C170.945 189.415 171.369 189.878 171.698 190.48C172.028 191.077 172.192 191.852 172.192 192.807V201.5H169.704V199.71H169.602C169.437 200.04 169.19 200.364 168.86 200.682C168.531 201 168.107 201.264 167.59 201.474C167.073 201.685 166.454 201.79 165.732 201.79ZM166.286 199.744C166.991 199.744 167.593 199.605 168.093 199.327C168.599 199.048 168.982 198.685 169.244 198.236C169.511 197.781 169.644 197.295 169.644 196.778V195.091C169.553 195.182 169.377 195.267 169.116 195.347C168.86 195.42 168.567 195.486 168.238 195.543C167.908 195.594 167.587 195.642 167.275 195.688C166.962 195.727 166.701 195.761 166.491 195.79C165.996 195.852 165.545 195.957 165.136 196.105C164.732 196.253 164.408 196.466 164.164 196.744C163.925 197.017 163.806 197.381 163.806 197.835C163.806 198.466 164.039 198.943 164.505 199.267C164.971 199.585 165.565 199.744 166.286 199.744ZM177.415 184.045V201.5H174.867V184.045H177.415ZM182.672 184.045V201.5H180.123V184.045H182.672ZM191.022 201.764C189.732 201.764 188.621 201.489 187.689 200.938C186.763 200.381 186.047 199.599 185.542 198.594C185.042 197.582 184.792 196.398 184.792 195.04C184.792 193.699 185.042 192.517 185.542 191.494C186.047 190.472 186.752 189.673 187.655 189.099C188.564 188.526 189.627 188.239 190.843 188.239C191.581 188.239 192.297 188.361 192.991 188.605C193.684 188.849 194.306 189.233 194.857 189.756C195.408 190.278 195.843 190.957 196.161 191.793C196.479 192.622 196.638 193.631 196.638 194.818V195.722H186.232V193.812H194.141C194.141 193.142 194.005 192.548 193.732 192.031C193.459 191.509 193.076 191.097 192.581 190.795C192.093 190.494 191.519 190.344 190.86 190.344C190.144 190.344 189.519 190.52 188.985 190.872C188.456 191.219 188.047 191.673 187.758 192.236C187.474 192.793 187.331 193.398 187.331 194.051V195.543C187.331 196.418 187.485 197.162 187.792 197.776C188.104 198.389 188.539 198.858 189.096 199.182C189.653 199.5 190.303 199.659 191.047 199.659C191.53 199.659 191.971 199.591 192.368 199.455C192.766 199.312 193.11 199.102 193.4 198.824C193.689 198.545 193.911 198.202 194.064 197.793L196.476 198.227C196.283 198.937 195.937 199.56 195.437 200.094C194.942 200.622 194.32 201.034 193.57 201.33C192.826 201.619 191.976 201.764 191.022 201.764ZM204.857 188.409V190.455H197.706V188.409H204.857ZM199.624 185.273H202.172V197.656C202.172 198.151 202.246 198.523 202.393 198.773C202.541 199.017 202.732 199.185 202.964 199.276C203.203 199.361 203.462 199.403 203.74 199.403C203.945 199.403 204.124 199.389 204.277 199.361C204.43 199.332 204.55 199.31 204.635 199.293L205.095 201.398C204.947 201.455 204.737 201.511 204.464 201.568C204.192 201.631 203.851 201.665 203.442 201.67C202.771 201.682 202.146 201.562 201.567 201.312C200.987 201.062 200.518 200.676 200.16 200.153C199.803 199.631 199.624 198.974 199.624 198.185V185.273Z" fill="white"/>
<rect x="1162" y="321" width="184" height="184" rx="92" fill="#232328"/>
<rect x="1162" y="321" width="184" height="184" rx="92" stroke="#4C525B" stroke-width="2"/>
<path d="M1201.65 409V391.545H1207.87C1209.22 391.545 1210.34 391.778 1211.24 392.244C1212.13 392.71 1212.8 393.355 1213.25 394.179C1213.69 394.997 1213.91 395.943 1213.91 397.017C1213.91 398.085 1213.69 399.026 1213.24 399.838C1212.8 400.645 1212.13 401.273 1211.23 401.722C1210.34 402.17 1209.21 402.395 1207.86 402.395H1203.15V400.128H1207.62C1208.48 400.128 1209.17 400.006 1209.7 399.761C1210.24 399.517 1210.64 399.162 1210.89 398.696C1211.14 398.23 1211.26 397.67 1211.26 397.017C1211.26 396.358 1211.13 395.787 1210.88 395.304C1210.63 394.821 1210.23 394.452 1209.69 394.196C1209.16 393.935 1208.46 393.804 1207.59 393.804H1204.28V409H1201.65ZM1210.27 401.125L1214.58 409H1211.58L1207.35 401.125H1210.27ZM1221.67 409.264C1220.38 409.264 1219.27 408.989 1218.34 408.438C1217.41 407.881 1216.7 407.099 1216.19 406.094C1215.69 405.082 1215.44 403.898 1215.44 402.54C1215.44 401.199 1215.69 400.017 1216.19 398.994C1216.7 397.972 1217.4 397.173 1218.3 396.599C1219.21 396.026 1220.28 395.739 1221.49 395.739C1222.23 395.739 1222.95 395.861 1223.64 396.105C1224.33 396.349 1224.95 396.733 1225.51 397.256C1226.06 397.778 1226.49 398.457 1226.81 399.293C1227.13 400.122 1227.29 401.131 1227.29 402.318V403.222H1216.88V401.312H1224.79C1224.79 400.642 1224.65 400.048 1224.38 399.531C1224.11 399.009 1223.72 398.597 1223.23 398.295C1222.74 397.994 1222.17 397.844 1221.51 397.844C1220.79 397.844 1220.17 398.02 1219.63 398.372C1219.11 398.719 1218.7 399.173 1218.41 399.736C1218.12 400.293 1217.98 400.898 1217.98 401.551V403.043C1217.98 403.918 1218.13 404.662 1218.44 405.276C1218.75 405.889 1219.19 406.358 1219.74 406.682C1220.3 407 1220.95 407.159 1221.7 407.159C1222.18 407.159 1222.62 407.091 1223.02 406.955C1223.42 406.812 1223.76 406.602 1224.05 406.324C1224.34 406.045 1224.56 405.702 1224.71 405.293L1227.13 405.727C1226.93 406.437 1226.59 407.06 1226.09 407.594C1225.59 408.122 1224.97 408.534 1224.22 408.83C1223.47 409.119 1222.63 409.264 1221.67 409.264ZM1239.2 399.105L1236.89 399.514C1236.8 399.219 1236.64 398.937 1236.43 398.67C1236.23 398.403 1235.95 398.185 1235.6 398.014C1235.25 397.844 1234.81 397.759 1234.28 397.759C1233.56 397.759 1232.95 397.92 1232.47 398.244C1231.99 398.562 1231.75 398.974 1231.75 399.48C1231.75 399.918 1231.91 400.27 1232.23 400.537C1232.56 400.804 1233.08 401.023 1233.8 401.193L1235.88 401.67C1237.08 401.949 1237.98 402.378 1238.57 402.957C1239.16 403.537 1239.46 404.29 1239.46 405.216C1239.46 406 1239.23 406.699 1238.78 407.312C1238.33 407.92 1237.7 408.398 1236.89 408.744C1236.09 409.091 1235.16 409.264 1234.11 409.264C1232.64 409.264 1231.45 408.952 1230.52 408.327C1229.59 407.696 1229.03 406.801 1228.82 405.642L1231.28 405.267C1231.43 405.909 1231.75 406.395 1232.22 406.724C1232.7 407.048 1233.32 407.21 1234.09 407.21C1234.93 407.21 1235.59 407.037 1236.09 406.69C1236.59 406.338 1236.84 405.909 1236.84 405.403C1236.84 404.994 1236.69 404.651 1236.38 404.372C1236.08 404.094 1235.62 403.884 1234.99 403.741L1232.78 403.256C1231.56 402.977 1230.65 402.534 1230.07 401.926C1229.49 401.318 1229.2 400.548 1229.2 399.616C1229.2 398.844 1229.41 398.168 1229.85 397.588C1230.28 397.009 1230.87 396.557 1231.64 396.233C1232.4 395.903 1233.27 395.739 1234.25 395.739C1235.67 395.739 1236.78 396.045 1237.59 396.659C1238.41 397.267 1238.94 398.082 1239.2 399.105ZM1241.54 413.909V395.909H1244.03V398.031H1244.24C1244.39 397.759 1244.6 397.443 1244.88 397.085C1245.16 396.727 1245.55 396.415 1246.04 396.148C1246.54 395.875 1247.19 395.739 1248 395.739C1249.06 395.739 1250 396.006 1250.83 396.54C1251.66 397.074 1252.31 397.844 1252.78 398.849C1253.26 399.855 1253.5 401.065 1253.5 402.48C1253.5 403.895 1253.26 405.108 1252.79 406.119C1252.32 407.125 1251.67 407.901 1250.85 408.446C1250.02 408.986 1249.08 409.256 1248.03 409.256C1247.23 409.256 1246.58 409.122 1246.08 408.855C1245.58 408.588 1245.18 408.276 1244.9 407.918C1244.62 407.56 1244.4 407.241 1244.24 406.963H1244.09V413.909H1241.54ZM1244.04 402.455C1244.04 403.375 1244.17 404.182 1244.44 404.875C1244.71 405.568 1245.09 406.111 1245.6 406.503C1246.1 406.889 1246.72 407.082 1247.46 407.082C1248.22 407.082 1248.85 406.881 1249.37 406.477C1249.88 406.068 1250.26 405.514 1250.52 404.815C1250.79 404.116 1250.93 403.33 1250.93 402.455C1250.93 401.591 1250.79 400.815 1250.53 400.128C1250.28 399.44 1249.89 398.898 1249.37 398.5C1248.86 398.102 1248.22 397.903 1247.46 397.903C1246.72 397.903 1246.09 398.094 1245.58 398.474C1245.08 398.855 1244.69 399.386 1244.43 400.068C1244.17 400.75 1244.04 401.545 1244.04 402.455ZM1261.15 409.264C1259.92 409.264 1258.85 408.983 1257.94 408.42C1257.02 407.858 1256.31 407.071 1255.8 406.06C1255.3 405.048 1255.05 403.866 1255.05 402.514C1255.05 401.156 1255.3 399.969 1255.8 398.952C1256.31 397.935 1257.02 397.145 1257.94 396.582C1258.85 396.02 1259.92 395.739 1261.15 395.739C1262.38 395.739 1263.45 396.02 1264.36 396.582C1265.28 397.145 1265.99 397.935 1266.49 398.952C1267 399.969 1267.25 401.156 1267.25 402.514C1267.25 403.866 1267 405.048 1266.49 406.06C1265.99 407.071 1265.28 407.858 1264.36 408.42C1263.45 408.983 1262.38 409.264 1261.15 409.264ZM1261.16 407.125C1261.95 407.125 1262.61 406.915 1263.13 406.494C1263.66 406.074 1264.04 405.514 1264.29 404.815C1264.55 404.116 1264.68 403.347 1264.68 402.506C1264.68 401.67 1264.55 400.903 1264.29 400.205C1264.04 399.5 1263.66 398.935 1263.13 398.509C1262.61 398.082 1261.95 397.869 1261.16 397.869C1260.36 397.869 1259.69 398.082 1259.16 398.509C1258.64 398.935 1258.25 399.5 1258 400.205C1257.75 400.903 1257.62 401.67 1257.62 402.506C1257.62 403.347 1257.75 404.116 1258 404.815C1258.25 405.514 1258.64 406.074 1259.16 406.494C1259.69 406.915 1260.36 407.125 1261.16 407.125ZM1271.92 401.227V409H1269.38V395.909H1271.82V398.04H1271.98C1272.28 397.347 1272.76 396.79 1273.4 396.369C1274.05 395.949 1274.86 395.739 1275.84 395.739C1276.74 395.739 1277.52 395.926 1278.19 396.301C1278.86 396.67 1279.38 397.222 1279.75 397.955C1280.12 398.687 1280.3 399.594 1280.3 400.673V409H1277.75V400.98C1277.75 400.031 1277.51 399.29 1277.01 398.756C1276.52 398.216 1275.84 397.946 1274.97 397.946C1274.38 397.946 1273.86 398.074 1273.4 398.33C1272.94 398.585 1272.58 398.96 1272.32 399.455C1272.05 399.943 1271.92 400.534 1271.92 401.227ZM1288.51 409.264C1287.25 409.264 1286.16 408.977 1285.24 408.403C1284.33 407.824 1283.63 407.026 1283.14 406.009C1282.66 404.991 1282.41 403.827 1282.41 402.514C1282.41 401.185 1282.66 400.011 1283.16 398.994C1283.66 397.972 1284.37 397.173 1285.27 396.599C1286.18 396.026 1287.25 395.739 1288.49 395.739C1289.48 395.739 1290.37 395.923 1291.15 396.293C1291.93 396.656 1292.55 397.168 1293.03 397.827C1293.51 398.486 1293.8 399.256 1293.89 400.136H1291.41C1291.27 399.523 1290.96 398.994 1290.47 398.551C1289.99 398.108 1289.34 397.886 1288.53 397.886C1287.82 397.886 1287.2 398.074 1286.66 398.449C1286.14 398.818 1285.72 399.347 1285.43 400.034C1285.13 400.716 1284.98 401.523 1284.98 402.455C1284.98 403.409 1285.13 404.233 1285.42 404.926C1285.71 405.619 1286.12 406.156 1286.65 406.537C1287.18 406.918 1287.81 407.108 1288.53 407.108C1289.01 407.108 1289.45 407.02 1289.84 406.844C1290.24 406.662 1290.57 406.403 1290.84 406.068C1291.11 405.733 1291.3 405.33 1291.41 404.858H1293.89C1293.8 405.705 1293.52 406.46 1293.06 407.125C1292.6 407.79 1291.99 408.312 1291.21 408.693C1290.45 409.074 1289.55 409.264 1288.51 409.264ZM1301.54 409.264C1300.25 409.264 1299.14 408.989 1298.21 408.438C1297.28 407.881 1296.56 407.099 1296.06 406.094C1295.56 405.082 1295.31 403.898 1295.31 402.54C1295.31 401.199 1295.56 400.017 1296.06 398.994C1296.56 397.972 1297.27 397.173 1298.17 396.599C1299.08 396.026 1300.14 395.739 1301.36 395.739C1302.1 395.739 1302.81 395.861 1303.51 396.105C1304.2 396.349 1304.82 396.733 1305.37 397.256C1305.92 397.778 1306.36 398.457 1306.68 399.293C1307 400.122 1307.15 401.131 1307.15 402.318V403.222H1296.75V401.312H1304.66C1304.66 400.642 1304.52 400.048 1304.25 399.531C1303.98 399.009 1303.59 398.597 1303.1 398.295C1302.61 397.994 1302.04 397.844 1301.38 397.844C1300.66 397.844 1300.04 398.02 1299.5 398.372C1298.97 398.719 1298.56 399.173 1298.27 399.736C1297.99 400.293 1297.85 400.898 1297.85 401.551V403.043C1297.85 403.918 1298 404.662 1298.31 405.276C1298.62 405.889 1299.06 406.358 1299.61 406.682C1300.17 407 1300.82 407.159 1301.56 407.159C1302.05 407.159 1302.49 407.091 1302.88 406.955C1303.28 406.812 1303.63 406.602 1303.92 406.324C1304.21 406.045 1304.43 405.702 1304.58 405.293L1306.99 405.727C1306.8 406.437 1306.45 407.06 1305.95 407.594C1305.46 408.122 1304.84 408.534 1304.09 408.83C1303.34 409.119 1302.49 409.264 1301.54 409.264ZM1199.91 434.256C1198.86 434.256 1197.91 433.986 1197.08 433.446C1196.26 432.901 1195.61 432.125 1195.14 431.119C1194.67 430.108 1194.44 428.895 1194.44 427.48C1194.44 426.065 1194.68 424.855 1195.15 423.849C1195.63 422.844 1196.28 422.074 1197.11 421.54C1197.94 421.006 1198.88 420.739 1199.93 420.739C1200.74 420.739 1201.4 420.875 1201.89 421.148C1202.39 421.415 1202.78 421.727 1203.05 422.085C1203.33 422.443 1203.54 422.759 1203.7 423.031H1203.85V416.545H1206.4V434H1203.91V431.963H1203.7C1203.54 432.241 1203.32 432.56 1203.03 432.918C1202.75 433.276 1202.36 433.588 1201.86 433.855C1201.36 434.122 1200.71 434.256 1199.91 434.256ZM1200.48 432.082C1201.21 432.082 1201.83 431.889 1202.33 431.503C1202.84 431.111 1203.23 430.568 1203.49 429.875C1203.76 429.182 1203.89 428.375 1203.89 427.455C1203.89 426.545 1203.76 425.75 1203.5 425.068C1203.24 424.386 1202.86 423.855 1202.35 423.474C1201.84 423.094 1201.22 422.903 1200.48 422.903C1199.71 422.903 1199.07 423.102 1198.56 423.5C1198.05 423.898 1197.66 424.44 1197.4 425.128C1197.14 425.815 1197.02 426.591 1197.02 427.455C1197.02 428.33 1197.15 429.116 1197.41 429.815C1197.67 430.514 1198.05 431.068 1198.57 431.477C1199.08 431.881 1199.72 432.082 1200.48 432.082ZM1214.96 434.264C1213.67 434.264 1212.56 433.989 1211.63 433.438C1210.7 432.881 1209.98 432.099 1209.48 431.094C1208.98 430.082 1208.73 428.898 1208.73 427.54C1208.73 426.199 1208.98 425.017 1209.48 423.994C1209.98 422.972 1210.69 422.173 1211.59 421.599C1212.5 421.026 1213.56 420.739 1214.78 420.739C1215.52 420.739 1216.23 420.861 1216.93 421.105C1217.62 421.349 1218.24 421.733 1218.79 422.256C1219.34 422.778 1219.78 423.457 1220.1 424.293C1220.42 425.122 1220.57 426.131 1220.57 427.318V428.222H1210.17V426.312H1218.08C1218.08 425.642 1217.94 425.048 1217.67 424.531C1217.4 424.009 1217.01 423.597 1216.52 423.295C1216.03 422.994 1215.45 422.844 1214.8 422.844C1214.08 422.844 1213.45 423.02 1212.92 423.372C1212.39 423.719 1211.98 424.173 1211.69 424.736C1211.41 425.293 1211.27 425.898 1211.27 426.551V428.043C1211.27 428.918 1211.42 429.662 1211.73 430.276C1212.04 430.889 1212.47 431.358 1213.03 431.682C1213.59 432 1214.24 432.159 1214.98 432.159C1215.47 432.159 1215.91 432.091 1216.3 431.955C1216.7 431.812 1217.05 431.602 1217.34 431.324C1217.63 431.045 1217.85 430.702 1218 430.293L1220.41 430.727C1220.22 431.437 1219.87 432.06 1219.37 432.594C1218.88 433.122 1218.26 433.534 1217.51 433.83C1216.76 434.119 1215.91 434.264 1214.96 434.264ZM1232.49 424.105L1230.18 424.514C1230.09 424.219 1229.93 423.937 1229.72 423.67C1229.52 423.403 1229.24 423.185 1228.89 423.014C1228.53 422.844 1228.09 422.759 1227.57 422.759C1226.84 422.759 1226.24 422.92 1225.76 423.244C1225.28 423.562 1225.03 423.974 1225.03 424.48C1225.03 424.918 1225.2 425.27 1225.52 425.537C1225.84 425.804 1226.37 426.023 1227.09 426.193L1229.17 426.67C1230.37 426.949 1231.27 427.378 1231.86 427.957C1232.45 428.537 1232.75 429.29 1232.75 430.216C1232.75 431 1232.52 431.699 1232.07 432.312C1231.62 432.92 1230.99 433.398 1230.18 433.744C1229.38 434.091 1228.45 434.264 1227.39 434.264C1225.93 434.264 1224.73 433.952 1223.81 433.327C1222.88 432.696 1222.31 431.801 1222.1 430.642L1224.57 430.267C1224.72 430.909 1225.03 431.395 1225.51 431.724C1225.99 432.048 1226.61 432.21 1227.38 432.21C1228.21 432.21 1228.88 432.037 1229.38 431.69C1229.88 431.338 1230.13 430.909 1230.13 430.403C1230.13 429.994 1229.98 429.651 1229.67 429.372C1229.37 429.094 1228.91 428.884 1228.28 428.741L1226.07 428.256C1224.84 427.977 1223.94 427.534 1223.35 426.926C1222.78 426.318 1222.49 425.548 1222.49 424.616C1222.49 423.844 1222.7 423.168 1223.13 422.588C1223.57 422.009 1224.16 421.557 1224.92 421.233C1225.68 420.903 1226.56 420.739 1227.54 420.739C1228.95 420.739 1230.07 421.045 1230.88 421.659C1231.69 422.267 1232.23 423.082 1232.49 424.105ZM1240.94 420.909V422.955H1233.79V420.909H1240.94ZM1235.71 417.773H1238.25V430.156C1238.25 430.651 1238.33 431.023 1238.48 431.273C1238.62 431.517 1238.81 431.685 1239.05 431.776C1239.29 431.861 1239.54 431.903 1239.82 431.903C1240.03 431.903 1240.21 431.889 1240.36 431.861C1240.51 431.832 1240.63 431.81 1240.72 431.793L1241.18 433.898C1241.03 433.955 1240.82 434.011 1240.55 434.068C1240.27 434.131 1239.93 434.165 1239.52 434.17C1238.85 434.182 1238.23 434.062 1237.65 433.812C1237.07 433.562 1236.6 433.176 1236.24 432.653C1235.89 432.131 1235.71 431.474 1235.71 430.685V417.773ZM1243.04 434V420.909H1245.59V434H1243.04ZM1244.33 418.889C1243.88 418.889 1243.5 418.741 1243.18 418.446C1242.87 418.145 1242.71 417.787 1242.71 417.372C1242.71 416.952 1242.87 416.594 1243.18 416.298C1243.5 415.997 1243.88 415.847 1244.33 415.847C1244.77 415.847 1245.15 415.997 1245.46 416.298C1245.78 416.594 1245.94 416.952 1245.94 417.372C1245.94 417.787 1245.78 418.145 1245.46 418.446C1245.15 418.741 1244.77 418.889 1244.33 418.889ZM1250.84 426.227V434H1248.3V420.909H1250.74V423.04H1250.9C1251.2 422.347 1251.68 421.79 1252.32 421.369C1252.97 420.949 1253.78 420.739 1254.76 420.739C1255.66 420.739 1256.44 420.926 1257.11 421.301C1257.78 421.67 1258.3 422.222 1258.67 422.955C1259.04 423.687 1259.22 424.594 1259.22 425.673V434H1256.67V425.98C1256.67 425.031 1256.43 424.29 1255.93 423.756C1255.44 423.216 1254.76 422.946 1253.89 422.946C1253.3 422.946 1252.78 423.074 1252.32 423.33C1251.86 423.585 1251.5 423.96 1251.24 424.455C1250.97 424.943 1250.84 425.534 1250.84 426.227ZM1265.73 434.29C1264.9 434.29 1264.15 434.136 1263.48 433.83C1262.81 433.517 1262.28 433.065 1261.88 432.474C1261.5 431.884 1261.31 431.159 1261.31 430.301C1261.31 429.562 1261.45 428.955 1261.73 428.477C1262.02 428 1262.4 427.622 1262.88 427.344C1263.36 427.065 1263.9 426.855 1264.5 426.713C1265.1 426.571 1265.71 426.463 1266.33 426.389C1267.11 426.298 1267.75 426.224 1268.23 426.168C1268.72 426.105 1269.08 426.006 1269.3 425.869C1269.52 425.733 1269.63 425.511 1269.63 425.205V425.145C1269.63 424.401 1269.42 423.824 1269 423.415C1268.59 423.006 1267.97 422.801 1267.14 422.801C1266.29 422.801 1265.61 422.991 1265.11 423.372C1264.63 423.747 1264.29 424.165 1264.1 424.625L1261.71 424.08C1261.99 423.284 1262.4 422.642 1262.95 422.153C1263.5 421.659 1264.13 421.301 1264.85 421.08C1265.57 420.852 1266.32 420.739 1267.11 420.739C1267.63 420.739 1268.19 420.801 1268.77 420.926C1269.36 421.045 1269.91 421.267 1270.42 421.591C1270.94 421.915 1271.36 422.378 1271.69 422.98C1272.02 423.577 1272.19 424.352 1272.19 425.307V434H1269.7V432.21H1269.6C1269.43 432.54 1269.19 432.864 1268.86 433.182C1268.53 433.5 1268.1 433.764 1267.59 433.974C1267.07 434.185 1266.45 434.29 1265.73 434.29ZM1266.28 432.244C1266.99 432.244 1267.59 432.105 1268.09 431.827C1268.59 431.548 1268.98 431.185 1269.24 430.736C1269.51 430.281 1269.64 429.795 1269.64 429.278V427.591C1269.55 427.682 1269.37 427.767 1269.11 427.847C1268.86 427.92 1268.56 427.986 1268.23 428.043C1267.9 428.094 1267.58 428.142 1267.27 428.188C1266.96 428.227 1266.7 428.261 1266.49 428.29C1265.99 428.352 1265.54 428.457 1265.13 428.605C1264.73 428.753 1264.4 428.966 1264.16 429.244C1263.92 429.517 1263.8 429.881 1263.8 430.335C1263.8 430.966 1264.04 431.443 1264.5 431.767C1264.97 432.085 1265.56 432.244 1266.28 432.244ZM1280.97 420.909V422.955H1273.82V420.909H1280.97ZM1275.74 417.773H1278.29V430.156C1278.29 430.651 1278.36 431.023 1278.51 431.273C1278.66 431.517 1278.85 431.685 1279.08 431.776C1279.32 431.861 1279.58 431.903 1279.86 431.903C1280.06 431.903 1280.24 431.889 1280.39 431.861C1280.55 431.832 1280.67 431.81 1280.75 431.793L1281.21 433.898C1281.06 433.955 1280.85 434.011 1280.58 434.068C1280.31 434.131 1279.97 434.165 1279.56 434.17C1278.89 434.182 1278.26 434.062 1277.68 433.812C1277.1 433.562 1276.64 433.176 1276.28 432.653C1275.92 432.131 1275.74 431.474 1275.74 430.685V417.773ZM1283.07 434V420.909H1285.62V434H1283.07ZM1284.36 418.889C1283.92 418.889 1283.54 418.741 1283.22 418.446C1282.9 418.145 1282.75 417.787 1282.75 417.372C1282.75 416.952 1282.9 416.594 1283.22 416.298C1283.54 415.997 1283.92 415.847 1284.36 415.847C1284.8 415.847 1285.18 415.997 1285.49 416.298C1285.81 416.594 1285.97 416.952 1285.97 417.372C1285.97 417.787 1285.81 418.145 1285.49 418.446C1285.18 418.741 1284.8 418.889 1284.36 418.889ZM1293.84 434.264C1292.62 434.264 1291.55 433.983 1290.63 433.42C1289.72 432.858 1289.01 432.071 1288.5 431.06C1287.99 430.048 1287.74 428.866 1287.74 427.514C1287.74 426.156 1287.99 424.969 1288.5 423.952C1289.01 422.935 1289.72 422.145 1290.63 421.582C1291.55 421.02 1292.62 420.739 1293.84 420.739C1295.07 420.739 1296.14 421.02 1297.06 421.582C1297.97 422.145 1298.68 422.935 1299.19 423.952C1299.69 424.969 1299.95 426.156 1299.95 427.514C1299.95 428.866 1299.69 430.048 1299.19 431.06C1298.68 432.071 1297.97 432.858 1297.06 433.42C1296.14 433.983 1295.07 434.264 1293.84 434.264ZM1293.85 432.125C1294.65 432.125 1295.31 431.915 1295.83 431.494C1296.35 431.074 1296.74 430.514 1296.99 429.815C1297.24 429.116 1297.37 428.347 1297.37 427.506C1297.37 426.67 1297.24 425.903 1296.99 425.205C1296.74 424.5 1296.35 423.935 1295.83 423.509C1295.31 423.082 1294.65 422.869 1293.85 422.869C1293.05 422.869 1292.39 423.082 1291.86 423.509C1291.33 423.935 1290.95 424.5 1290.69 425.205C1290.44 425.903 1290.31 426.67 1290.31 427.506C1290.31 428.347 1290.44 429.116 1290.69 429.815C1290.95 430.514 1291.33 431.074 1291.86 431.494C1292.39 431.915 1293.05 432.125 1293.85 432.125ZM1304.62 426.227V434H1302.07V420.909H1304.52V423.04H1304.68C1304.98 422.347 1305.45 421.79 1306.09 421.369C1306.74 420.949 1307.56 420.739 1308.54 420.739C1309.43 420.739 1310.21 420.926 1310.88 421.301C1311.55 421.67 1312.07 422.222 1312.44 422.955C1312.81 423.687 1313 424.594 1313 425.673V434H1310.45V425.98C1310.45 425.031 1310.2 424.29 1309.71 423.756C1309.21 423.216 1308.53 422.946 1307.67 422.946C1307.08 422.946 1306.55 423.074 1306.09 423.33C1305.64 423.585 1305.28 423.96 1305.01 424.455C1304.75 424.943 1304.62 425.534 1304.62 426.227Z" fill="white"/>
<rect width="8" height="2" transform="matrix(4.37114e-08 1 1 -4.37114e-08 713 296)" fill="white"/>
<rect width="8" height="2" transform="matrix(4.37114e-08 1 1 -4.37114e-08 713 308)" fill="white"/>
<rect width="8" height="2" transform="matrix(4.37114e-08 1 1 -4.37114e-08 713 320)" fill="white"/>
<rect width="8" height="2" transform="matrix(4.37114e-08 1 1 -4.37114e-08 713 332)" fill="white"/>
<rect width="8" height="2" transform="matrix(4.37114e-08 1 1 -4.37114e-08 713 344)" fill="white"/>
<rect width="8" height="2" transform="matrix(4.37114e-08 1 1 -4.37114e-08 713 356)" fill="white"/>
<rect width="8" height="2" transform="matrix(4.37114e-08 1 1 -4.37114e-08 713 368)" fill="white"/>
<rect width="8" height="2" transform="matrix(4.37114e-08 1 1 -4.37114e-08 713 380)" fill="white"/>
<rect width="8" height="2" transform="matrix(4.37114e-08 1 1 -4.37114e-08 713 392)" fill="white"/>
<rect width="8" height="2" transform="matrix(4.37114e-08 1 1 -4.37114e-08 713 404)" fill="white"/>
<rect width="8" height="2" transform="matrix(1 -8.74228e-08 -8.74228e-08 -1 718 414)" fill="white"/>
<rect width="8" height="2" transform="matrix(1 -8.74228e-08 -8.74228e-08 -1 730 414)" fill="white"/>
<rect width="8" height="2" transform="matrix(1 -8.74228e-08 -8.74228e-08 -1 742 414)" fill="white"/>
<rect width="8" height="2" transform="matrix(1 -8.74228e-08 -8.74228e-08 -1 754 414)" fill="white"/>
<rect width="8" height="2" transform="matrix(1 -8.74228e-08 -8.74228e-08 -1 766 414)" fill="white"/>
<rect width="8" height="2" transform="matrix(1 -8.74228e-08 -8.74228e-08 -1 853 196)" fill="white"/>
<rect width="8" height="2" transform="matrix(1 -8.74228e-08 -8.74228e-08 -1 865 196)" fill="white"/>
<rect width="8" height="2" transform="matrix(1 -8.74228e-08 -8.74228e-08 -1 877 196)" fill="white"/>
<rect width="8" height="2" transform="matrix(1 -8.74228e-08 -8.74228e-08 -1 889 196)" fill="white"/>
<rect width="8" height="2" transform="matrix(1 -8.74228e-08 -8.74228e-08 -1 901 196)" fill="white"/>
<rect width="8" height="2" transform="matrix(1 -8.74228e-08 -8.74228e-08 -1 778 414)" fill="white"/>
<rect width="8" height="2" transform="matrix(1 -8.74228e-08 -8.74228e-08 -1 790 414)" fill="white"/>
<rect width="8" height="2" transform="matrix(1 -8.74228e-08 -8.74228e-08 -1 802 414)" fill="white"/>
<rect width="8" height="2" transform="matrix(1 -8.74228e-08 -8.74228e-08 -1 814 414)" fill="white"/>
<rect width="8" height="2" transform="matrix(1 -8.74228e-08 -8.74228e-08 -1 826 414)" fill="white"/>
<rect width="8" height="2" transform="matrix(1 -8.74228e-08 -8.74228e-08 -1 817 196)" fill="white"/>
<rect width="8" height="2" transform="matrix(1 -8.74228e-08 -8.74228e-08 -1 829 196)" fill="white"/>
<rect width="8" height="2" transform="matrix(1 -8.74228e-08 -8.74228e-08 -1 841 196)" fill="white"/>
<rect width="8" height="2" transform="matrix(1 -8.74228e-08 -8.74228e-08 -1 853 196)" fill="white"/>
<rect width="8" height="2" transform="matrix(1 -8.74228e-08 -8.74228e-08 -1 865 196)" fill="white"/>
<rect width="8" height="2" transform="matrix(1 -8.74228e-08 -8.74228e-08 -1 998 414)" fill="white"/>
<rect width="8" height="2" transform="matrix(1 -8.74228e-08 -8.74228e-08 -1 1010 414)" fill="white"/>
<rect width="8" height="2" transform="matrix(1 -8.74228e-08 -8.74228e-08 -1 1022 414)" fill="white"/>
<rect width="8" height="2" transform="matrix(1 -8.74228e-08 -8.74228e-08 -1 1034 414)" fill="white"/>
<rect width="8" height="2" transform="matrix(1 -8.74228e-08 -8.74228e-08 -1 1046 414)" fill="white"/>
<rect width="8" height="2" transform="matrix(1 -8.74228e-08 -8.74228e-08 -1 1058 414)" fill="white"/>
<rect x="1071" y="411.938" width="8" height="2" fill="white"/>
<rect x="1083" y="411.938" width="8" height="2" fill="white"/>
<rect x="1095" y="411.938" width="8" height="2" fill="white"/>
<rect x="1107" y="411.938" width="8" height="2" fill="white"/>
<path d="M1134 413L1115 419L1115 407L1134 413Z" fill="white"/>
<rect width="8" height="2" transform="matrix(1 -8.74228e-08 -8.74228e-08 -1 1057 195)" fill="white"/>
<rect width="8" height="2" transform="matrix(1 -8.74228e-08 -8.74228e-08 -1 1069 195)" fill="white"/>
<rect width="8" height="2" transform="matrix(1 -8.74228e-08 -8.74228e-08 -1 1081 195)" fill="white"/>
<rect width="8" height="2" transform="matrix(1 -8.74228e-08 -8.74228e-08 -1 1093 195)" fill="white"/>
<rect width="8" height="2" transform="matrix(1 -8.74228e-08 -8.74228e-08 -1 1105 195)" fill="white"/>
<rect width="8" height="2" transform="matrix(1 -8.74228e-08 -8.74228e-08 -1 1117 195)" fill="white"/>
<rect x="1091" y="192.938" width="8" height="2" fill="white"/>
<rect x="1103" y="192.938" width="8" height="2" fill="white"/>
<rect x="1115" y="192.938" width="8" height="2" fill="white"/>
<rect x="1127" y="192.938" width="8" height="2" fill="white"/>
<path d="M1154 194L1135 200L1135 188L1154 194Z" fill="white"/>
<path d="M404.388 203.264C403.161 203.264 402.09 202.983 401.175 202.42C400.26 201.858 399.55 201.071 399.044 200.06C398.538 199.048 398.286 197.866 398.286 196.514C398.286 195.156 398.538 193.969 399.044 192.952C399.55 191.935 400.26 191.145 401.175 190.582C402.09 190.02 403.161 189.739 404.388 189.739C405.615 189.739 406.686 190.02 407.601 190.582C408.516 191.145 409.226 191.935 409.732 192.952C410.237 193.969 410.49 195.156 410.49 196.514C410.49 197.866 410.237 199.048 409.732 200.06C409.226 201.071 408.516 201.858 407.601 202.42C406.686 202.983 405.615 203.264 404.388 203.264ZM404.396 201.125C405.192 201.125 405.851 200.915 406.374 200.494C406.896 200.074 407.283 199.514 407.533 198.815C407.788 198.116 407.916 197.347 407.916 196.506C407.916 195.67 407.788 194.903 407.533 194.205C407.283 193.5 406.896 192.935 406.374 192.509C405.851 192.082 405.192 191.869 404.396 191.869C403.595 191.869 402.931 192.082 402.402 192.509C401.879 192.935 401.49 193.5 401.234 194.205C400.984 194.903 400.859 195.67 400.859 196.506C400.859 197.347 400.984 198.116 401.234 198.815C401.49 199.514 401.879 200.074 402.402 200.494C402.931 200.915 403.595 201.125 404.396 201.125ZM412.615 207.909V189.909H415.103V192.031H415.316C415.464 191.759 415.677 191.443 415.956 191.085C416.234 190.727 416.62 190.415 417.115 190.148C417.609 189.875 418.262 189.739 419.075 189.739C420.132 189.739 421.075 190.006 421.904 190.54C422.734 191.074 423.385 191.844 423.856 192.849C424.333 193.855 424.572 195.065 424.572 196.48C424.572 197.895 424.336 199.108 423.865 200.119C423.393 201.125 422.745 201.901 421.921 202.446C421.098 202.986 420.157 203.256 419.1 203.256C418.305 203.256 417.654 203.122 417.149 202.855C416.649 202.588 416.257 202.276 415.973 201.918C415.688 201.56 415.47 201.241 415.316 200.963H415.163V207.909H412.615ZM415.112 196.455C415.112 197.375 415.245 198.182 415.512 198.875C415.779 199.568 416.166 200.111 416.671 200.503C417.177 200.889 417.796 201.082 418.529 201.082C419.291 201.082 419.927 200.881 420.438 200.477C420.95 200.068 421.336 199.514 421.598 198.815C421.865 198.116 421.998 197.33 421.998 196.455C421.998 195.591 421.867 194.815 421.606 194.128C421.35 193.44 420.964 192.898 420.447 192.5C419.936 192.102 419.296 191.903 418.529 191.903C417.791 191.903 417.166 192.094 416.654 192.474C416.149 192.855 415.765 193.386 415.504 194.068C415.242 194.75 415.112 195.545 415.112 196.455ZM428.386 203.162C427.92 203.162 427.52 202.997 427.184 202.668C426.849 202.332 426.682 201.929 426.682 201.457C426.682 200.991 426.849 200.594 427.184 200.264C427.52 199.929 427.92 199.761 428.386 199.761C428.852 199.761 429.253 199.929 429.588 200.264C429.923 200.594 430.091 200.991 430.091 201.457C430.091 201.77 430.011 202.057 429.852 202.318C429.699 202.574 429.494 202.778 429.238 202.932C428.983 203.085 428.699 203.162 428.386 203.162ZM428.386 193.634C427.92 193.634 427.52 193.466 427.184 193.131C426.849 192.795 426.682 192.395 426.682 191.929C426.682 191.463 426.849 191.065 427.184 190.736C427.52 190.401 427.92 190.233 428.386 190.233C428.852 190.233 429.253 190.401 429.588 190.736C429.923 191.065 430.091 191.463 430.091 191.929C430.091 192.241 430.011 192.528 429.852 192.79C429.699 193.045 429.494 193.25 429.238 193.403C428.983 193.557 428.699 193.634 428.386 193.634ZM434.463 203.162C433.997 203.162 433.597 202.997 433.261 202.668C432.926 202.332 432.758 201.929 432.758 201.457C432.758 200.991 432.926 200.594 433.261 200.264C433.597 199.929 433.997 199.761 434.463 199.761C434.929 199.761 435.329 199.929 435.665 200.264C436 200.594 436.168 200.991 436.168 201.457C436.168 201.77 436.088 202.057 435.929 202.318C435.775 202.574 435.571 202.778 435.315 202.932C435.06 203.085 434.775 203.162 434.463 203.162ZM434.463 193.634C433.997 193.634 433.597 193.466 433.261 193.131C432.926 192.795 432.758 192.395 432.758 191.929C432.758 191.463 432.926 191.065 433.261 190.736C433.597 190.401 433.997 190.233 434.463 190.233C434.929 190.233 435.329 190.401 435.665 190.736C436 191.065 436.168 191.463 436.168 191.929C436.168 192.241 436.088 192.528 435.929 192.79C435.775 193.045 435.571 193.25 435.315 193.403C435.06 193.557 434.775 193.634 434.463 193.634ZM439.065 203V185.545H441.614V192.031H441.767C441.915 191.759 442.128 191.443 442.406 191.085C442.685 190.727 443.071 190.415 443.565 190.148C444.06 189.875 444.713 189.739 445.526 189.739C446.582 189.739 447.526 190.006 448.355 190.54C449.185 191.074 449.835 191.844 450.307 192.849C450.784 193.855 451.023 195.065 451.023 196.48C451.023 197.895 450.787 199.108 450.315 200.119C449.844 201.125 449.196 201.901 448.372 202.446C447.548 202.986 446.608 203.256 445.551 203.256C444.756 203.256 444.105 203.122 443.6 202.855C443.1 202.588 442.707 202.276 442.423 201.918C442.139 201.56 441.921 201.241 441.767 200.963H441.554V203H439.065ZM441.563 196.455C441.563 197.375 441.696 198.182 441.963 198.875C442.23 199.568 442.617 200.111 443.122 200.503C443.628 200.889 444.247 201.082 444.98 201.082C445.742 201.082 446.378 200.881 446.889 200.477C447.401 200.068 447.787 199.514 448.048 198.815C448.315 198.116 448.449 197.33 448.449 196.455C448.449 195.591 448.318 194.815 448.057 194.128C447.801 193.44 447.415 192.898 446.898 192.5C446.386 192.102 445.747 191.903 444.98 191.903C444.242 191.903 443.617 192.094 443.105 192.474C442.6 192.855 442.216 193.386 441.955 194.068C441.693 194.75 441.563 195.545 441.563 196.455ZM461.457 197.571V189.909H464.014V203H461.508V200.733H461.372C461.071 201.432 460.588 202.014 459.923 202.48C459.264 202.94 458.443 203.17 457.46 203.17C456.619 203.17 455.875 202.986 455.227 202.616C454.585 202.241 454.079 201.688 453.71 200.955C453.346 200.222 453.164 199.315 453.164 198.236V189.909H455.713V197.929C455.713 198.821 455.96 199.531 456.454 200.06C456.948 200.588 457.59 200.852 458.38 200.852C458.858 200.852 459.332 200.733 459.804 200.494C460.281 200.256 460.676 199.895 460.988 199.412C461.306 198.929 461.463 198.315 461.457 197.571ZM466.718 203V189.909H469.181V191.989H469.317C469.556 191.284 469.976 190.73 470.579 190.327C471.187 189.918 471.874 189.713 472.641 189.713C472.8 189.713 472.988 189.719 473.204 189.73C473.425 189.741 473.598 189.756 473.723 189.773V192.21C473.621 192.182 473.439 192.151 473.178 192.116C472.917 192.077 472.655 192.057 472.394 192.057C471.792 192.057 471.255 192.185 470.783 192.44C470.317 192.69 469.948 193.04 469.675 193.489C469.402 193.932 469.266 194.437 469.266 195.006V203H466.718ZM477.757 195.227V203H475.209V189.909H477.655V192.04H477.817C478.118 191.347 478.589 190.79 479.231 190.369C479.879 189.949 480.694 189.739 481.677 189.739C482.569 189.739 483.351 189.926 484.021 190.301C484.692 190.67 485.212 191.222 485.581 191.955C485.95 192.687 486.135 193.594 486.135 194.673V203H483.587V194.98C483.587 194.031 483.339 193.29 482.845 192.756C482.351 192.216 481.672 191.946 480.808 191.946C480.217 191.946 479.692 192.074 479.231 192.33C478.777 192.585 478.416 192.96 478.149 193.455C477.888 193.943 477.757 194.534 477.757 195.227Z" fill="white"/>
<path d="M852.316 420.264C851.089 420.264 850.018 419.983 849.103 419.42C848.188 418.858 847.478 418.071 846.972 417.06C846.467 416.048 846.214 414.866 846.214 413.514C846.214 412.156 846.467 410.969 846.972 409.952C847.478 408.935 848.188 408.145 849.103 407.582C850.018 407.02 851.089 406.739 852.316 406.739C853.543 406.739 854.614 407.02 855.529 407.582C856.444 408.145 857.154 408.935 857.66 409.952C858.166 410.969 858.418 412.156 858.418 413.514C858.418 414.866 858.166 416.048 857.66 417.06C857.154 418.071 856.444 418.858 855.529 419.42C854.614 419.983 853.543 420.264 852.316 420.264ZM852.325 418.125C853.12 418.125 853.779 417.915 854.302 417.494C854.825 417.074 855.211 416.514 855.461 415.815C855.717 415.116 855.845 414.347 855.845 413.506C855.845 412.67 855.717 411.903 855.461 411.205C855.211 410.5 854.825 409.935 854.302 409.509C853.779 409.082 853.12 408.869 852.325 408.869C851.524 408.869 850.859 409.082 850.33 409.509C849.808 409.935 849.418 410.5 849.163 411.205C848.913 411.903 848.788 412.67 848.788 413.506C848.788 414.347 848.913 415.116 849.163 415.815C849.418 416.514 849.808 417.074 850.33 417.494C850.859 417.915 851.524 418.125 852.325 418.125ZM860.543 424.909V406.909H863.032V409.031H863.245C863.392 408.759 863.605 408.443 863.884 408.085C864.162 407.727 864.549 407.415 865.043 407.148C865.537 406.875 866.191 406.739 867.003 406.739C868.06 406.739 869.003 407.006 869.833 407.54C870.662 408.074 871.313 408.844 871.784 409.849C872.262 410.855 872.5 412.065 872.5 413.48C872.5 414.895 872.265 416.108 871.793 417.119C871.321 418.125 870.674 418.901 869.85 419.446C869.026 419.986 868.086 420.256 867.029 420.256C866.233 420.256 865.583 420.122 865.077 419.855C864.577 419.588 864.185 419.276 863.901 418.918C863.617 418.56 863.398 418.241 863.245 417.963H863.091V424.909H860.543ZM863.04 413.455C863.04 414.375 863.174 415.182 863.441 415.875C863.708 416.568 864.094 417.111 864.6 417.503C865.105 417.889 865.725 418.082 866.458 418.082C867.219 418.082 867.855 417.881 868.367 417.477C868.878 417.068 869.265 416.514 869.526 415.815C869.793 415.116 869.926 414.33 869.926 413.455C869.926 412.591 869.796 411.815 869.534 411.128C869.279 410.44 868.892 409.898 868.375 409.5C867.864 409.102 867.225 408.903 866.458 408.903C865.719 408.903 865.094 409.094 864.583 409.474C864.077 409.855 863.693 410.386 863.432 411.068C863.171 411.75 863.04 412.545 863.04 413.455ZM876.314 420.162C875.848 420.162 875.448 419.997 875.113 419.668C874.777 419.332 874.61 418.929 874.61 418.457C874.61 417.991 874.777 417.594 875.113 417.264C875.448 416.929 875.848 416.761 876.314 416.761C876.78 416.761 877.181 416.929 877.516 417.264C877.851 417.594 878.019 417.991 878.019 418.457C878.019 418.77 877.939 419.057 877.78 419.318C877.627 419.574 877.422 419.778 877.167 419.932C876.911 420.085 876.627 420.162 876.314 420.162ZM876.314 410.634C875.848 410.634 875.448 410.466 875.113 410.131C874.777 409.795 874.61 409.395 874.61 408.929C874.61 408.463 874.777 408.065 875.113 407.736C875.448 407.401 875.848 407.233 876.314 407.233C876.78 407.233 877.181 407.401 877.516 407.736C877.851 408.065 878.019 408.463 878.019 408.929C878.019 409.241 877.939 409.528 877.78 409.79C877.627 410.045 877.422 410.25 877.167 410.403C876.911 410.557 876.627 410.634 876.314 410.634ZM882.391 420.162C881.925 420.162 881.525 419.997 881.19 419.668C880.854 419.332 880.687 418.929 880.687 418.457C880.687 417.991 880.854 417.594 881.19 417.264C881.525 416.929 881.925 416.761 882.391 416.761C882.857 416.761 883.258 416.929 883.593 417.264C883.928 417.594 884.096 417.991 884.096 418.457C884.096 418.77 884.016 419.057 883.857 419.318C883.704 419.574 883.499 419.778 883.244 419.932C882.988 420.085 882.704 420.162 882.391 420.162ZM882.391 410.634C881.925 410.634 881.525 410.466 881.19 410.131C880.854 409.795 880.687 409.395 880.687 408.929C880.687 408.463 880.854 408.065 881.19 407.736C881.525 407.401 881.925 407.233 882.391 407.233C882.857 407.233 883.258 407.401 883.593 407.736C883.928 408.065 884.096 408.463 884.096 408.929C884.096 409.241 884.016 409.528 883.857 409.79C883.704 410.045 883.499 410.25 883.244 410.403C882.988 410.557 882.704 410.634 882.391 410.634ZM892.431 420.264C891.141 420.264 890.031 419.989 889.099 419.438C888.173 418.881 887.457 418.099 886.951 417.094C886.451 416.082 886.201 414.898 886.201 413.54C886.201 412.199 886.451 411.017 886.951 409.994C887.457 408.972 888.161 408.173 889.065 407.599C889.974 407.026 891.036 406.739 892.252 406.739C892.991 406.739 893.707 406.861 894.4 407.105C895.093 407.349 895.715 407.733 896.266 408.256C896.818 408.778 897.252 409.457 897.57 410.293C897.889 411.122 898.048 412.131 898.048 413.318V414.222H887.641V412.312H895.551C895.551 411.642 895.414 411.048 895.141 410.531C894.869 410.009 894.485 409.597 893.991 409.295C893.502 408.994 892.928 408.844 892.269 408.844C891.553 408.844 890.928 409.02 890.394 409.372C889.866 409.719 889.457 410.173 889.167 410.736C888.883 411.293 888.741 411.898 888.741 412.551V414.043C888.741 414.918 888.894 415.662 889.201 416.276C889.514 416.889 889.948 417.358 890.505 417.682C891.062 418 891.712 418.159 892.457 418.159C892.94 418.159 893.38 418.091 893.778 417.955C894.176 417.812 894.519 417.602 894.809 417.324C895.099 417.045 895.32 416.702 895.474 416.293L897.886 416.727C897.693 417.437 897.346 418.06 896.846 418.594C896.352 419.122 895.73 419.534 894.98 419.83C894.235 420.119 893.386 420.264 892.431 420.264ZM901.862 406.909L904.751 412.006L907.666 406.909H910.453L906.37 413.455L910.487 420H907.7L904.751 415.108L901.811 420H899.015L903.089 413.455L899.066 406.909H901.862ZM917.348 420.264C916.081 420.264 914.99 419.977 914.075 419.403C913.166 418.824 912.467 418.026 911.978 417.009C911.49 415.991 911.245 414.827 911.245 413.514C911.245 412.185 911.495 411.011 911.995 409.994C912.495 408.972 913.2 408.173 914.109 407.599C915.018 407.026 916.089 406.739 917.322 406.739C918.316 406.739 919.203 406.923 919.981 407.293C920.76 407.656 921.388 408.168 921.865 408.827C922.348 409.486 922.635 410.256 922.726 411.136H920.245C920.109 410.523 919.797 409.994 919.308 409.551C918.825 409.108 918.177 408.886 917.365 408.886C916.655 408.886 916.032 409.074 915.498 409.449C914.97 409.818 914.558 410.347 914.263 411.034C913.967 411.716 913.819 412.523 913.819 413.455C913.819 414.409 913.964 415.233 914.254 415.926C914.544 416.619 914.953 417.156 915.481 417.537C916.015 417.918 916.643 418.108 917.365 418.108C917.848 418.108 918.285 418.02 918.677 417.844C919.075 417.662 919.407 417.403 919.674 417.068C919.947 416.733 920.138 416.33 920.245 415.858H922.726C922.635 416.705 922.359 417.46 921.899 418.125C921.439 418.79 920.822 419.312 920.049 419.693C919.282 420.074 918.382 420.264 917.348 420.264ZM930.373 420.264C929.083 420.264 927.972 419.989 927.04 419.438C926.114 418.881 925.398 418.099 924.893 417.094C924.393 416.082 924.143 414.898 924.143 413.54C924.143 412.199 924.393 411.017 924.893 409.994C925.398 408.972 926.103 408.173 927.006 407.599C927.915 407.026 928.978 406.739 930.194 406.739C930.932 406.739 931.648 406.861 932.342 407.105C933.035 407.349 933.657 407.733 934.208 408.256C934.759 408.778 935.194 409.457 935.512 410.293C935.83 411.122 935.989 412.131 935.989 413.318V414.222H925.583V412.312H933.492C933.492 411.642 933.356 411.048 933.083 410.531C932.81 410.009 932.427 409.597 931.932 409.295C931.444 408.994 930.87 408.844 930.211 408.844C929.495 408.844 928.87 409.02 928.336 409.372C927.807 409.719 927.398 410.173 927.109 410.736C926.824 411.293 926.682 411.898 926.682 412.551V414.043C926.682 414.918 926.836 415.662 927.143 416.276C927.455 416.889 927.89 417.358 928.447 417.682C929.003 418 929.654 418.159 930.398 418.159C930.881 418.159 931.322 418.091 931.719 417.955C932.117 417.812 932.461 417.602 932.751 417.324C933.04 417.045 933.262 416.702 933.415 416.293L935.827 416.727C935.634 417.437 935.288 418.06 934.788 418.594C934.293 419.122 933.671 419.534 932.921 419.83C932.177 420.119 931.327 420.264 930.373 420.264ZM947.906 410.105L945.597 410.514C945.5 410.219 945.347 409.937 945.136 409.67C944.932 409.403 944.653 409.185 944.301 409.014C943.949 408.844 943.509 408.759 942.98 408.759C942.259 408.759 941.656 408.92 941.173 409.244C940.69 409.562 940.449 409.974 940.449 410.48C940.449 410.918 940.611 411.27 940.935 411.537C941.259 411.804 941.781 412.023 942.503 412.193L944.582 412.67C945.787 412.949 946.685 413.378 947.276 413.957C947.867 414.537 948.162 415.29 948.162 416.216C948.162 417 947.935 417.699 947.48 418.312C947.031 418.92 946.403 419.398 945.597 419.744C944.796 420.091 943.867 420.264 942.81 420.264C941.344 420.264 940.148 419.952 939.222 419.327C938.296 418.696 937.727 417.801 937.517 416.642L939.98 416.267C940.134 416.909 940.449 417.395 940.926 417.724C941.403 418.048 942.026 418.21 942.793 418.21C943.628 418.21 944.296 418.037 944.796 417.69C945.296 417.338 945.546 416.909 945.546 416.403C945.546 415.994 945.392 415.651 945.085 415.372C944.784 415.094 944.321 414.884 943.696 414.741L941.48 414.256C940.259 413.977 939.355 413.534 938.77 412.926C938.19 412.318 937.901 411.548 937.901 410.616C937.901 409.844 938.117 409.168 938.548 408.588C938.98 408.009 939.577 407.557 940.338 407.233C941.1 406.903 941.972 406.739 942.955 406.739C944.369 406.739 945.483 407.045 946.296 407.659C947.108 408.267 947.645 409.082 947.906 410.105ZM960.054 410.105L957.744 410.514C957.647 410.219 957.494 409.937 957.284 409.67C957.079 409.403 956.801 409.185 956.448 409.014C956.096 408.844 955.656 408.759 955.127 408.759C954.406 408.759 953.804 408.92 953.321 409.244C952.838 409.562 952.596 409.974 952.596 410.48C952.596 410.918 952.758 411.27 953.082 411.537C953.406 411.804 953.929 412.023 954.65 412.193L956.73 412.67C957.934 412.949 958.832 413.378 959.423 413.957C960.014 414.537 960.309 415.29 960.309 416.216C960.309 417 960.082 417.699 959.627 418.312C959.179 418.92 958.551 419.398 957.744 419.744C956.943 420.091 956.014 420.264 954.957 420.264C953.491 420.264 952.295 419.952 951.369 419.327C950.443 418.696 949.875 417.801 949.664 416.642L952.127 416.267C952.281 416.909 952.596 417.395 953.073 417.724C953.551 418.048 954.173 418.21 954.94 418.21C955.775 418.21 956.443 418.037 956.943 417.69C957.443 417.338 957.693 416.909 957.693 416.403C957.693 415.994 957.539 415.651 957.232 415.372C956.931 415.094 956.468 414.884 955.843 414.741L953.627 414.256C952.406 413.977 951.502 413.534 950.917 412.926C950.338 412.318 950.048 411.548 950.048 410.616C950.048 409.844 950.264 409.168 950.696 408.588C951.127 408.009 951.724 407.557 952.485 407.233C953.247 406.903 954.119 406.739 955.102 406.739C956.517 406.739 957.63 407.045 958.443 407.659C959.255 408.267 959.792 409.082 960.054 410.105ZM968.033 420.264C966.743 420.264 965.633 419.989 964.701 419.438C963.775 418.881 963.059 418.099 962.553 417.094C962.053 416.082 961.803 414.898 961.803 413.54C961.803 412.199 962.053 411.017 962.553 409.994C963.059 408.972 963.763 408.173 964.667 407.599C965.576 407.026 966.638 406.739 967.854 406.739C968.593 406.739 969.309 406.861 970.002 407.105C970.695 407.349 971.317 407.733 971.868 408.256C972.419 408.778 972.854 409.457 973.172 410.293C973.49 411.122 973.65 412.131 973.65 413.318V414.222H963.243V412.312H971.152C971.152 411.642 971.016 411.048 970.743 410.531C970.471 410.009 970.087 409.597 969.593 409.295C969.104 408.994 968.53 408.844 967.871 408.844C967.155 408.844 966.53 409.02 965.996 409.372C965.468 409.719 965.059 410.173 964.769 410.736C964.485 411.293 964.343 411.898 964.343 412.551V414.043C964.343 414.918 964.496 415.662 964.803 416.276C965.115 416.889 965.55 417.358 966.107 417.682C966.664 418 967.314 418.159 968.059 418.159C968.542 418.159 968.982 418.091 969.38 417.955C969.777 417.812 970.121 417.602 970.411 417.324C970.701 417.045 970.922 416.702 971.076 416.293L973.488 416.727C973.294 417.437 972.948 418.06 972.448 418.594C971.954 419.122 971.331 419.534 970.581 419.83C969.837 420.119 968.988 420.264 968.033 420.264ZM985.567 410.105L983.257 410.514C983.16 410.219 983.007 409.937 982.797 409.67C982.592 409.403 982.314 409.185 981.962 409.014C981.609 408.844 981.169 408.759 980.641 408.759C979.919 408.759 979.317 408.92 978.834 409.244C978.351 409.562 978.109 409.974 978.109 410.48C978.109 410.918 978.271 411.27 978.595 411.537C978.919 411.804 979.442 412.023 980.163 412.193L982.243 412.67C983.447 412.949 984.345 413.378 984.936 413.957C985.527 414.537 985.822 415.29 985.822 416.216C985.822 417 985.595 417.699 985.141 418.312C984.692 418.92 984.064 419.398 983.257 419.744C982.456 420.091 981.527 420.264 980.47 420.264C979.004 420.264 977.808 419.952 976.882 419.327C975.956 418.696 975.388 417.801 975.177 416.642L977.641 416.267C977.794 416.909 978.109 417.395 978.587 417.724C979.064 418.048 979.686 418.21 980.453 418.21C981.288 418.21 981.956 418.037 982.456 417.69C982.956 417.338 983.206 416.909 983.206 416.403C983.206 415.994 983.052 415.651 982.746 415.372C982.444 415.094 981.981 414.884 981.356 414.741L979.141 414.256C977.919 413.977 977.016 413.534 976.43 412.926C975.851 412.318 975.561 411.548 975.561 410.616C975.561 409.844 975.777 409.168 976.209 408.588C976.641 408.009 977.237 407.557 977.998 407.233C978.76 406.903 979.632 406.739 980.615 406.739C982.03 406.739 983.143 407.045 983.956 407.659C984.768 408.267 985.305 409.082 985.567 410.105Z" fill="white"/>
<path d="M513 197L574 197" stroke="white" stroke-width="2"/>
<path d="M591.34 197L574.5 202.317V191.682L591.34 197Z" fill="white" stroke="white"/>
<path d="M292 197H370" stroke="white" stroke-width="2"/>
<path d="M952.888 188.264C951.661 188.264 950.59 187.983 949.675 187.42C948.76 186.858 948.05 186.071 947.544 185.06C947.038 184.048 946.786 182.866 946.786 181.514C946.786 180.156 947.038 178.969 947.544 177.952C948.05 176.935 948.76 176.145 949.675 175.582C950.59 175.02 951.661 174.739 952.888 174.739C954.115 174.739 955.186 175.02 956.101 175.582C957.016 176.145 957.726 176.935 958.232 177.952C958.737 178.969 958.99 180.156 958.99 181.514C958.99 182.866 958.737 184.048 958.232 185.06C957.726 186.071 957.016 186.858 956.101 187.42C955.186 187.983 954.115 188.264 952.888 188.264ZM952.896 186.125C953.692 186.125 954.351 185.915 954.874 185.494C955.396 185.074 955.783 184.514 956.033 183.815C956.288 183.116 956.416 182.347 956.416 181.506C956.416 180.67 956.288 179.903 956.033 179.205C955.783 178.5 955.396 177.935 954.874 177.509C954.351 177.082 953.692 176.869 952.896 176.869C952.095 176.869 951.431 177.082 950.902 177.509C950.379 177.935 949.99 178.5 949.734 179.205C949.484 179.903 949.359 180.67 949.359 181.506C949.359 182.347 949.484 183.116 949.734 183.815C949.99 184.514 950.379 185.074 950.902 185.494C951.431 185.915 952.095 186.125 952.896 186.125ZM961.115 192.909V174.909H963.603V177.031H963.816C963.964 176.759 964.177 176.443 964.456 176.085C964.734 175.727 965.12 175.415 965.615 175.148C966.109 174.875 966.762 174.739 967.575 174.739C968.632 174.739 969.575 175.006 970.404 175.54C971.234 176.074 971.885 176.844 972.356 177.849C972.833 178.855 973.072 180.065 973.072 181.48C973.072 182.895 972.836 184.108 972.365 185.119C971.893 186.125 971.245 186.901 970.421 187.446C969.598 187.986 968.657 188.256 967.6 188.256C966.805 188.256 966.154 188.122 965.649 187.855C965.149 187.588 964.757 187.276 964.473 186.918C964.188 186.56 963.97 186.241 963.816 185.963H963.663V192.909H961.115ZM963.612 181.455C963.612 182.375 963.745 183.182 964.012 183.875C964.279 184.568 964.666 185.111 965.171 185.503C965.677 185.889 966.296 186.082 967.029 186.082C967.791 186.082 968.427 185.881 968.938 185.477C969.45 185.068 969.836 184.514 970.098 183.815C970.365 183.116 970.498 182.33 970.498 181.455C970.498 180.591 970.367 179.815 970.106 179.128C969.85 178.44 969.464 177.898 968.947 177.5C968.436 177.102 967.796 176.903 967.029 176.903C966.291 176.903 965.666 177.094 965.154 177.474C964.649 177.855 964.265 178.386 964.004 179.068C963.742 179.75 963.612 180.545 963.612 181.455ZM976.886 188.162C976.42 188.162 976.02 187.997 975.684 187.668C975.349 187.332 975.182 186.929 975.182 186.457C975.182 185.991 975.349 185.594 975.684 185.264C976.02 184.929 976.42 184.761 976.886 184.761C977.352 184.761 977.753 184.929 978.088 185.264C978.423 185.594 978.591 185.991 978.591 186.457C978.591 186.77 978.511 187.057 978.352 187.318C978.199 187.574 977.994 187.778 977.738 187.932C977.483 188.085 977.199 188.162 976.886 188.162ZM976.886 178.634C976.42 178.634 976.02 178.466 975.684 178.131C975.349 177.795 975.182 177.395 975.182 176.929C975.182 176.463 975.349 176.065 975.684 175.736C976.02 175.401 976.42 175.233 976.886 175.233C977.352 175.233 977.753 175.401 978.088 175.736C978.423 176.065 978.591 176.463 978.591 176.929C978.591 177.241 978.511 177.528 978.352 177.79C978.199 178.045 977.994 178.25 977.738 178.403C977.483 178.557 977.199 178.634 976.886 178.634ZM982.963 188.162C982.497 188.162 982.097 187.997 981.761 187.668C981.426 187.332 981.258 186.929 981.258 186.457C981.258 185.991 981.426 185.594 981.761 185.264C982.097 184.929 982.497 184.761 982.963 184.761C983.429 184.761 983.829 184.929 984.165 185.264C984.5 185.594 984.668 185.991 984.668 186.457C984.668 186.77 984.588 187.057 984.429 187.318C984.275 187.574 984.071 187.778 983.815 187.932C983.56 188.085 983.275 188.162 982.963 188.162ZM982.963 178.634C982.497 178.634 982.097 178.466 981.761 178.131C981.426 177.795 981.258 177.395 981.258 176.929C981.258 176.463 981.426 176.065 981.761 175.736C982.097 175.401 982.497 175.233 982.963 175.233C983.429 175.233 983.829 175.401 984.165 175.736C984.5 176.065 984.668 176.463 984.668 176.929C984.668 177.241 984.588 177.528 984.429 177.79C984.275 178.045 984.071 178.25 983.815 178.403C983.56 178.557 983.275 178.634 982.963 178.634ZM987.565 188V170.545H990.114V177.031H990.267C990.415 176.759 990.628 176.443 990.906 176.085C991.185 175.727 991.571 175.415 992.065 175.148C992.56 174.875 993.213 174.739 994.026 174.739C995.082 174.739 996.026 175.006 996.855 175.54C997.685 176.074 998.335 176.844 998.807 177.849C999.284 178.855 999.523 180.065 999.523 181.48C999.523 182.895 999.287 184.108 998.815 185.119C998.344 186.125 997.696 186.901 996.872 187.446C996.048 187.986 995.108 188.256 994.051 188.256C993.256 188.256 992.605 188.122 992.1 187.855C991.6 187.588 991.207 187.276 990.923 186.918C990.639 186.56 990.421 186.241 990.267 185.963H990.054V188H987.565ZM990.063 181.455C990.063 182.375 990.196 183.182 990.463 183.875C990.73 184.568 991.117 185.111 991.622 185.503C992.128 185.889 992.747 186.082 993.48 186.082C994.242 186.082 994.878 185.881 995.389 185.477C995.901 185.068 996.287 184.514 996.548 183.815C996.815 183.116 996.949 182.33 996.949 181.455C996.949 180.591 996.818 179.815 996.557 179.128C996.301 178.44 995.915 177.898 995.398 177.5C994.886 177.102 994.247 176.903 993.48 176.903C992.742 176.903 992.117 177.094 991.605 177.474C991.1 177.855 990.716 178.386 990.455 179.068C990.193 179.75 990.063 180.545 990.063 181.455ZM1009.96 182.571V174.909H1012.51V188H1010.01V185.733H1009.87C1009.57 186.432 1009.09 187.014 1008.42 187.48C1007.76 187.94 1006.94 188.17 1005.96 188.17C1005.12 188.17 1004.37 187.986 1003.73 187.616C1003.08 187.241 1002.58 186.688 1002.21 185.955C1001.85 185.222 1001.66 184.315 1001.66 183.236V174.909H1004.21V182.929C1004.21 183.821 1004.46 184.531 1004.95 185.06C1005.45 185.588 1006.09 185.852 1006.88 185.852C1007.36 185.852 1007.83 185.733 1008.3 185.494C1008.78 185.256 1009.18 184.895 1009.49 184.412C1009.81 183.929 1009.96 183.315 1009.96 182.571ZM1015.22 188V174.909H1017.68V176.989H1017.82C1018.06 176.284 1018.48 175.73 1019.08 175.327C1019.69 174.918 1020.37 174.713 1021.14 174.713C1021.3 174.713 1021.49 174.719 1021.7 174.73C1021.93 174.741 1022.1 174.756 1022.22 174.773V177.21C1022.12 177.182 1021.94 177.151 1021.68 177.116C1021.42 177.077 1021.16 177.057 1020.89 177.057C1020.29 177.057 1019.75 177.185 1019.28 177.44C1018.82 177.69 1018.45 178.04 1018.18 178.489C1017.9 178.932 1017.77 179.437 1017.77 180.006V188H1015.22ZM1026.26 180.227V188H1023.71V174.909H1026.15V177.04H1026.32C1026.62 176.347 1027.09 175.79 1027.73 175.369C1028.38 174.949 1029.19 174.739 1030.18 174.739C1031.07 174.739 1031.85 174.926 1032.52 175.301C1033.19 175.67 1033.71 176.222 1034.08 176.955C1034.45 177.687 1034.63 178.594 1034.63 179.673V188H1032.09V179.98C1032.09 179.031 1031.84 178.29 1031.35 177.756C1030.85 177.216 1030.17 176.946 1029.31 176.946C1028.72 176.946 1028.19 177.074 1027.73 177.33C1027.28 177.585 1026.92 177.96 1026.65 178.455C1026.39 178.943 1026.26 179.534 1026.26 180.227ZM935.543 213V215.165H924.455V213H935.543ZM940.162 205.227V213H937.614V199.909H940.06V202.04H940.222C940.523 201.347 940.995 200.79 941.637 200.369C942.284 199.949 943.1 199.739 944.083 199.739C944.975 199.739 945.756 199.926 946.426 200.301C947.097 200.67 947.617 201.222 947.986 201.955C948.355 202.687 948.54 203.594 948.54 204.673V213H945.992V204.98C945.992 204.031 945.745 203.29 945.25 202.756C944.756 202.216 944.077 201.946 943.213 201.946C942.622 201.946 942.097 202.074 941.637 202.33C941.182 202.585 940.821 202.96 940.554 203.455C940.293 203.943 940.162 204.534 940.162 205.227ZM956.752 213.264C955.525 213.264 954.454 212.983 953.539 212.42C952.624 211.858 951.914 211.071 951.408 210.06C950.902 209.048 950.65 207.866 950.65 206.514C950.65 205.156 950.902 203.969 951.408 202.952C951.914 201.935 952.624 201.145 953.539 200.582C954.454 200.02 955.525 199.739 956.752 199.739C957.979 199.739 959.05 200.02 959.965 200.582C960.88 201.145 961.59 201.935 962.096 202.952C962.601 203.969 962.854 205.156 962.854 206.514C962.854 207.866 962.601 209.048 962.096 210.06C961.59 211.071 960.88 211.858 959.965 212.42C959.05 212.983 957.979 213.264 956.752 213.264ZM956.76 211.125C957.556 211.125 958.215 210.915 958.738 210.494C959.26 210.074 959.647 209.514 959.897 208.815C960.152 208.116 960.28 207.347 960.28 206.506C960.28 205.67 960.152 204.903 959.897 204.205C959.647 203.5 959.26 202.935 958.738 202.509C958.215 202.082 957.556 201.869 956.76 201.869C955.959 201.869 955.294 202.082 954.766 202.509C954.243 202.935 953.854 203.5 953.598 204.205C953.348 204.903 953.223 205.67 953.223 206.506C953.223 207.347 953.348 208.116 953.598 208.815C953.854 209.514 954.243 210.074 954.766 210.494C955.294 210.915 955.959 211.125 956.76 211.125ZM971.089 199.909V201.955H963.939V199.909H971.089ZM965.856 196.773H968.405V209.156C968.405 209.651 968.479 210.023 968.626 210.273C968.774 210.517 968.964 210.685 969.197 210.776C969.436 210.861 969.694 210.903 969.973 210.903C970.177 210.903 970.356 210.889 970.51 210.861C970.663 210.832 970.783 210.81 970.868 210.793L971.328 212.898C971.18 212.955 970.97 213.011 970.697 213.068C970.425 213.131 970.084 213.165 969.675 213.17C969.004 213.182 968.379 213.062 967.8 212.812C967.22 212.562 966.751 212.176 966.393 211.653C966.035 211.131 965.856 210.474 965.856 209.685V196.773ZM973.188 213V199.909H975.737V213H973.188ZM974.475 197.889C974.032 197.889 973.651 197.741 973.333 197.446C973.021 197.145 972.864 196.787 972.864 196.372C972.864 195.952 973.021 195.594 973.333 195.298C973.651 194.997 974.032 194.847 974.475 194.847C974.918 194.847 975.296 194.997 975.609 195.298C975.927 195.594 976.086 195.952 976.086 196.372C976.086 196.787 975.927 197.145 975.609 197.446C975.296 197.741 974.918 197.889 974.475 197.889ZM984.675 199.909V201.955H977.277V199.909H984.675ZM979.306 213V198.392C979.306 197.574 979.485 196.895 979.843 196.355C980.2 195.81 980.675 195.403 981.266 195.136C981.857 194.864 982.499 194.727 983.192 194.727C983.703 194.727 984.141 194.77 984.504 194.855C984.868 194.935 985.138 195.009 985.314 195.077L984.718 197.139C984.598 197.105 984.445 197.065 984.257 197.02C984.07 196.969 983.843 196.943 983.575 196.943C982.956 196.943 982.513 197.097 982.246 197.403C981.985 197.71 981.854 198.153 981.854 198.733V213H979.306ZM986.584 213V199.909H989.132V213H986.584ZM987.871 197.889C987.428 197.889 987.047 197.741 986.729 197.446C986.417 197.145 986.26 196.787 986.26 196.372C986.26 195.952 986.417 195.594 986.729 195.298C987.047 194.997 987.428 194.847 987.871 194.847C988.314 194.847 988.692 194.997 989.005 195.298C989.323 195.594 989.482 195.952 989.482 196.372C989.482 196.787 989.323 197.145 989.005 197.446C988.692 197.741 988.314 197.889 987.871 197.889ZM997.355 213.264C996.088 213.264 994.997 212.977 994.082 212.403C993.173 211.824 992.474 211.026 991.986 210.009C991.497 208.991 991.253 207.827 991.253 206.514C991.253 205.185 991.503 204.011 992.003 202.994C992.503 201.972 993.207 201.173 994.116 200.599C995.025 200.026 996.096 199.739 997.329 199.739C998.324 199.739 999.21 199.923 999.988 200.293C1000.77 200.656 1001.39 201.168 1001.87 201.827C1002.35 202.486 1002.64 203.256 1002.73 204.136H1000.25C1000.12 203.523 999.804 202.994 999.315 202.551C998.832 202.108 998.184 201.886 997.372 201.886C996.662 201.886 996.04 202.074 995.505 202.449C994.977 202.818 994.565 203.347 994.27 204.034C993.974 204.716 993.827 205.523 993.827 206.455C993.827 207.409 993.971 208.233 994.261 208.926C994.551 209.619 994.96 210.156 995.488 210.537C996.023 210.918 996.65 211.108 997.372 211.108C997.855 211.108 998.292 211.02 998.684 210.844C999.082 210.662 999.415 210.403 999.682 210.068C999.954 209.733 1000.14 209.33 1000.25 208.858H1002.73C1002.64 209.705 1002.37 210.46 1001.91 211.125C1001.45 211.79 1000.83 212.312 1000.06 212.693C999.29 213.074 998.389 213.264 997.355 213.264ZM1008.55 213.29C1007.72 213.29 1006.97 213.136 1006.3 212.83C1005.63 212.517 1005.1 212.065 1004.7 211.474C1004.32 210.884 1004.12 210.159 1004.12 209.301C1004.12 208.562 1004.27 207.955 1004.55 207.477C1004.83 207 1005.22 206.622 1005.7 206.344C1006.18 206.065 1006.72 205.855 1007.32 205.713C1007.92 205.571 1008.52 205.463 1009.14 205.389C1009.93 205.298 1010.56 205.224 1011.05 205.168C1011.54 205.105 1011.9 205.006 1012.12 204.869C1012.34 204.733 1012.45 204.511 1012.45 204.205V204.145C1012.45 203.401 1012.24 202.824 1011.82 202.415C1011.41 202.006 1010.79 201.801 1009.96 201.801C1009.1 201.801 1008.43 201.991 1007.93 202.372C1007.45 202.747 1007.11 203.165 1006.92 203.625L1004.52 203.08C1004.81 202.284 1005.22 201.642 1005.77 201.153C1006.32 200.659 1006.95 200.301 1007.67 200.08C1008.39 199.852 1009.14 199.739 1009.93 199.739C1010.45 199.739 1011 199.801 1011.59 199.926C1012.18 200.045 1012.73 200.267 1013.24 200.591C1013.76 200.915 1014.18 201.378 1014.51 201.98C1014.84 202.577 1015.01 203.352 1015.01 204.307V213H1012.52V211.21H1012.42C1012.25 211.54 1012 211.864 1011.68 212.182C1011.35 212.5 1010.92 212.764 1010.41 212.974C1009.89 213.185 1009.27 213.29 1008.55 213.29ZM1009.1 211.244C1009.81 211.244 1010.41 211.105 1010.91 210.827C1011.41 210.548 1011.8 210.185 1012.06 209.736C1012.33 209.281 1012.46 208.795 1012.46 208.278V206.591C1012.37 206.682 1012.19 206.767 1011.93 206.847C1011.68 206.92 1011.38 206.986 1011.05 207.043C1010.72 207.094 1010.4 207.142 1010.09 207.188C1009.78 207.227 1009.52 207.261 1009.31 207.29C1008.81 207.352 1008.36 207.457 1007.95 207.605C1007.55 207.753 1007.22 207.966 1006.98 208.244C1006.74 208.517 1006.62 208.881 1006.62 209.335C1006.62 209.966 1006.85 210.443 1007.32 210.767C1007.79 211.085 1008.38 211.244 1009.1 211.244ZM1023.79 199.909V201.955H1016.64V199.909H1023.79ZM1018.56 196.773H1021.11V209.156C1021.11 209.651 1021.18 210.023 1021.33 210.273C1021.48 210.517 1021.67 210.685 1021.9 210.776C1022.14 210.861 1022.4 210.903 1022.68 210.903C1022.88 210.903 1023.06 210.889 1023.21 210.861C1023.37 210.832 1023.49 210.81 1023.57 210.793L1024.03 212.898C1023.88 212.955 1023.67 213.011 1023.4 213.068C1023.13 213.131 1022.79 213.165 1022.38 213.17C1021.71 213.182 1021.08 213.062 1020.5 212.812C1019.92 212.562 1019.45 212.176 1019.1 211.653C1018.74 211.131 1018.56 210.474 1018.56 209.685V196.773ZM1025.89 213V199.909H1028.44V213H1025.89ZM1027.18 197.889C1026.74 197.889 1026.35 197.741 1026.04 197.446C1025.72 197.145 1025.57 196.787 1025.57 196.372C1025.57 195.952 1025.72 195.594 1026.04 195.298C1026.35 194.997 1026.74 194.847 1027.18 194.847C1027.62 194.847 1028 194.997 1028.31 195.298C1028.63 195.594 1028.79 195.952 1028.79 196.372C1028.79 196.787 1028.63 197.145 1028.31 197.446C1028 197.741 1027.62 197.889 1027.18 197.889ZM1036.66 213.264C1035.44 213.264 1034.36 212.983 1033.45 212.42C1032.53 211.858 1031.82 211.071 1031.32 210.06C1030.81 209.048 1030.56 207.866 1030.56 206.514C1030.56 205.156 1030.81 203.969 1031.32 202.952C1031.82 201.935 1032.53 201.145 1033.45 200.582C1034.36 200.02 1035.44 199.739 1036.66 199.739C1037.89 199.739 1038.96 200.02 1039.88 200.582C1040.79 201.145 1041.5 201.935 1042.01 202.952C1042.51 203.969 1042.76 205.156 1042.76 206.514C1042.76 207.866 1042.51 209.048 1042.01 210.06C1041.5 211.071 1040.79 211.858 1039.88 212.42C1038.96 212.983 1037.89 213.264 1036.66 213.264ZM1036.67 211.125C1037.47 211.125 1038.13 210.915 1038.65 210.494C1039.17 210.074 1039.56 209.514 1039.81 208.815C1040.06 208.116 1040.19 207.347 1040.19 206.506C1040.19 205.67 1040.06 204.903 1039.81 204.205C1039.56 203.5 1039.17 202.935 1038.65 202.509C1038.13 202.082 1037.47 201.869 1036.67 201.869C1035.87 201.869 1035.21 202.082 1034.68 202.509C1034.15 202.935 1033.76 203.5 1033.51 204.205C1033.26 204.903 1033.13 205.67 1033.13 206.506C1033.13 207.347 1033.26 208.116 1033.51 208.815C1033.76 209.514 1034.15 210.074 1034.68 210.494C1035.21 210.915 1035.87 211.125 1036.67 211.125ZM1047.44 205.227V213H1044.89V199.909H1047.34V202.04H1047.5C1047.8 201.347 1048.27 200.79 1048.91 200.369C1049.56 199.949 1050.37 199.739 1051.36 199.739C1052.25 199.739 1053.03 199.926 1053.7 200.301C1054.37 200.67 1054.89 201.222 1055.26 201.955C1055.63 202.687 1055.82 203.594 1055.82 204.673V213H1053.27V204.98C1053.27 204.031 1053.02 203.29 1052.53 202.756C1052.03 202.216 1051.35 201.946 1050.49 201.946C1049.9 201.946 1049.37 202.074 1048.91 202.33C1048.46 202.585 1048.1 202.96 1047.83 203.455C1047.57 203.943 1047.44 204.534 1047.44 205.227Z" fill="white"/>
</svg>
