<svg width="1495" height="460" viewBox="0 0 1495 460" fill="none" xmlns="http://www.w3.org/2000/svg">
<g clip-path="url(#clip0_5_31)">
<rect width="1495" height="460" fill="white"/>
<rect x="614.895" y="138" width="184" height="184" rx="92" fill="white"/>
<rect x="614.895" y="138" width="184" height="184" rx="92" stroke="#6EB1FF" stroke-width="2"/>
<path d="M678.628 238.5L673.787 221.045H676.557L679.957 234.562H680.119L683.656 221.045H686.401L689.937 234.571H690.099L693.491 221.045H696.27L691.42 238.5H688.77L685.097 225.426H684.96L681.287 238.5H678.628ZM700.267 238.79C699.438 238.79 698.688 238.636 698.017 238.33C697.347 238.017 696.815 237.565 696.423 236.974C696.037 236.384 695.844 235.659 695.844 234.801C695.844 234.062 695.986 233.455 696.27 232.977C696.554 232.5 696.938 232.122 697.421 231.844C697.904 231.565 698.443 231.355 699.04 231.213C699.636 231.071 700.244 230.963 700.864 230.889C701.648 230.798 702.284 230.724 702.773 230.668C703.261 230.605 703.617 230.506 703.838 230.369C704.06 230.233 704.171 230.011 704.171 229.705V229.645C704.171 228.901 703.96 228.324 703.54 227.915C703.125 227.506 702.506 227.301 701.682 227.301C700.824 227.301 700.148 227.491 699.654 227.872C699.165 228.247 698.827 228.665 698.639 229.125L696.244 228.58C696.529 227.784 696.943 227.142 697.489 226.653C698.04 226.159 698.673 225.801 699.389 225.58C700.105 225.352 700.858 225.239 701.648 225.239C702.171 225.239 702.725 225.301 703.31 225.426C703.901 225.545 704.452 225.767 704.963 226.091C705.48 226.415 705.904 226.878 706.233 227.48C706.563 228.077 706.727 228.852 706.727 229.807V238.5H704.239V236.71H704.136C703.972 237.04 703.725 237.364 703.395 237.682C703.065 238 702.642 238.264 702.125 238.474C701.608 238.685 700.989 238.79 700.267 238.79ZM700.821 236.744C701.526 236.744 702.128 236.605 702.628 236.327C703.134 236.048 703.517 235.685 703.779 235.236C704.046 234.781 704.179 234.295 704.179 233.778V232.091C704.088 232.182 703.912 232.267 703.651 232.347C703.395 232.42 703.102 232.486 702.773 232.543C702.443 232.594 702.122 232.642 701.81 232.688C701.497 232.727 701.236 232.761 701.026 232.79C700.531 232.852 700.08 232.957 699.671 233.105C699.267 233.253 698.943 233.466 698.699 233.744C698.46 234.017 698.341 234.381 698.341 234.835C698.341 235.466 698.574 235.943 699.04 236.267C699.506 236.585 700.1 236.744 700.821 236.744ZM711.95 221.045V238.5H709.402V221.045H711.95ZM717.206 221.045V238.5H714.658V221.045H717.206ZM725.557 238.764C724.267 238.764 723.156 238.489 722.224 237.938C721.298 237.381 720.582 236.599 720.077 235.594C719.577 234.582 719.327 233.398 719.327 232.04C719.327 230.699 719.577 229.517 720.077 228.494C720.582 227.472 721.287 226.673 722.19 226.099C723.099 225.526 724.162 225.239 725.378 225.239C726.116 225.239 726.832 225.361 727.525 225.605C728.219 225.849 728.841 226.233 729.392 226.756C729.943 227.278 730.378 227.957 730.696 228.793C731.014 229.622 731.173 230.631 731.173 231.818V232.722H720.767V230.812H728.676C728.676 230.142 728.54 229.548 728.267 229.031C727.994 228.509 727.611 228.097 727.116 227.795C726.628 227.494 726.054 227.344 725.395 227.344C724.679 227.344 724.054 227.52 723.52 227.872C722.991 228.219 722.582 228.673 722.293 229.236C722.008 229.793 721.866 230.398 721.866 231.051V232.543C721.866 233.418 722.02 234.162 722.327 234.776C722.639 235.389 723.074 235.858 723.631 236.182C724.187 236.5 724.838 236.659 725.582 236.659C726.065 236.659 726.506 236.591 726.903 236.455C727.301 236.312 727.645 236.102 727.935 235.824C728.224 235.545 728.446 235.202 728.599 234.793L731.011 235.227C730.818 235.937 730.472 236.56 729.972 237.094C729.477 237.622 728.855 238.034 728.105 238.33C727.361 238.619 726.511 238.764 725.557 238.764ZM739.391 225.409V227.455H732.241V225.409H739.391ZM734.158 222.273H736.707V234.656C736.707 235.151 736.781 235.523 736.928 235.773C737.076 236.017 737.266 236.185 737.499 236.276C737.738 236.361 737.997 236.403 738.275 236.403C738.479 236.403 738.658 236.389 738.812 236.361C738.965 236.332 739.085 236.31 739.17 236.293L739.63 238.398C739.482 238.455 739.272 238.511 738.999 238.568C738.727 238.631 738.386 238.665 737.977 238.67C737.306 238.682 736.681 238.562 736.102 238.312C735.522 238.062 735.053 237.676 734.695 237.153C734.337 236.631 734.158 235.974 734.158 235.185V222.273Z" fill="black"/>
<rect x="1203.89" y="138" width="184" height="184" rx="92" fill="white"/>
<rect x="1203.89" y="138" width="184" height="184" rx="92" stroke="#6EB1FF" stroke-width="2"/>
<path d="M1241.61 226H1235.96V208.545H1241.79C1243.5 208.545 1244.97 208.895 1246.2 209.594C1247.43 210.287 1248.37 211.284 1249.02 212.585C1249.68 213.881 1250.01 215.435 1250.01 217.247C1250.01 219.065 1249.68 220.628 1249.01 221.935C1248.35 223.241 1247.4 224.247 1246.15 224.952C1244.9 225.651 1243.39 226 1241.61 226ZM1238.6 223.699H1241.47C1242.8 223.699 1243.9 223.449 1244.78 222.949C1245.66 222.443 1246.32 221.713 1246.76 220.759C1247.2 219.798 1247.42 218.628 1247.42 217.247C1247.42 215.878 1247.2 214.716 1246.76 213.761C1246.33 212.807 1245.68 212.082 1244.83 211.588C1243.97 211.094 1242.9 210.847 1241.63 210.847H1238.6V223.699ZM1258 226.264C1256.71 226.264 1255.6 225.989 1254.67 225.438C1253.74 224.881 1253.03 224.099 1252.52 223.094C1252.02 222.082 1251.77 220.898 1251.77 219.54C1251.77 218.199 1252.02 217.017 1252.52 215.994C1253.03 214.972 1253.73 214.173 1254.63 213.599C1255.54 213.026 1256.61 212.739 1257.82 212.739C1258.56 212.739 1259.28 212.861 1259.97 213.105C1260.66 213.349 1261.29 213.733 1261.84 214.256C1262.39 214.778 1262.82 215.457 1263.14 216.293C1263.46 217.122 1263.62 218.131 1263.62 219.318V220.222H1253.21V218.312H1261.12C1261.12 217.642 1260.98 217.048 1260.71 216.531C1260.44 216.009 1260.06 215.597 1259.56 215.295C1259.07 214.994 1258.5 214.844 1257.84 214.844C1257.12 214.844 1256.5 215.02 1255.96 215.372C1255.44 215.719 1255.03 216.173 1254.74 216.736C1254.45 217.293 1254.31 217.898 1254.31 218.551V220.043C1254.31 220.918 1254.46 221.662 1254.77 222.276C1255.08 222.889 1255.52 223.358 1256.07 223.682C1256.63 224 1257.28 224.159 1258.03 224.159C1258.51 224.159 1258.95 224.091 1259.35 223.955C1259.75 223.812 1260.09 223.602 1260.38 223.324C1260.67 223.045 1260.89 222.702 1261.04 222.293L1263.46 222.727C1263.26 223.437 1262.92 224.06 1262.42 224.594C1261.92 225.122 1261.3 225.534 1260.55 225.83C1259.81 226.119 1258.96 226.264 1258 226.264ZM1275.53 216.105L1273.22 216.514C1273.13 216.219 1272.97 215.937 1272.76 215.67C1272.56 215.403 1272.28 215.185 1271.93 215.014C1271.58 214.844 1271.14 214.759 1270.61 214.759C1269.89 214.759 1269.28 214.92 1268.8 215.244C1268.32 215.562 1268.08 215.974 1268.08 216.48C1268.08 216.918 1268.24 217.27 1268.56 217.537C1268.89 217.804 1269.41 218.023 1270.13 218.193L1272.21 218.67C1273.42 218.949 1274.31 219.378 1274.9 219.957C1275.49 220.537 1275.79 221.29 1275.79 222.216C1275.79 223 1275.56 223.699 1275.11 224.312C1274.66 224.92 1274.03 225.398 1273.22 225.744C1272.42 226.091 1271.49 226.264 1270.44 226.264C1268.97 226.264 1267.78 225.952 1266.85 225.327C1265.92 224.696 1265.36 223.801 1265.15 222.642L1267.61 222.267C1267.76 222.909 1268.08 223.395 1268.55 223.724C1269.03 224.048 1269.65 224.21 1270.42 224.21C1271.26 224.21 1271.92 224.037 1272.42 223.69C1272.92 223.338 1273.17 222.909 1273.17 222.403C1273.17 221.994 1273.02 221.651 1272.71 221.372C1272.41 221.094 1271.95 220.884 1271.32 220.741L1269.11 220.256C1267.89 219.977 1266.98 219.534 1266.4 218.926C1265.82 218.318 1265.53 217.548 1265.53 216.616C1265.53 215.844 1265.74 215.168 1266.18 214.588C1266.61 214.009 1267.21 213.557 1267.97 213.233C1268.73 212.903 1269.6 212.739 1270.58 212.739C1272 212.739 1273.11 213.045 1273.92 213.659C1274.74 214.267 1275.27 215.082 1275.53 216.105ZM1283.98 212.909V214.955H1276.83V212.909H1283.98ZM1278.75 209.773H1281.3V222.156C1281.3 222.651 1281.37 223.023 1281.52 223.273C1281.67 223.517 1281.86 223.685 1282.09 223.776C1282.33 223.861 1282.59 223.903 1282.87 223.903C1283.07 223.903 1283.25 223.889 1283.4 223.861C1283.56 223.832 1283.68 223.81 1283.76 223.793L1284.22 225.898C1284.07 225.955 1283.86 226.011 1283.59 226.068C1283.32 226.131 1282.98 226.165 1282.57 226.17C1281.9 226.182 1281.27 226.062 1280.69 225.812C1280.11 225.562 1279.64 225.176 1279.29 224.653C1278.93 224.131 1278.75 223.474 1278.75 222.685V209.773ZM1286.08 226V212.909H1288.63V226H1286.08ZM1287.37 210.889C1286.93 210.889 1286.54 210.741 1286.23 210.446C1285.91 210.145 1285.76 209.787 1285.76 209.372C1285.76 208.952 1285.91 208.594 1286.23 208.298C1286.54 207.997 1286.93 207.847 1287.37 207.847C1287.81 207.847 1288.19 207.997 1288.5 208.298C1288.82 208.594 1288.98 208.952 1288.98 209.372C1288.98 209.787 1288.82 210.145 1288.5 210.446C1288.19 210.741 1287.81 210.889 1287.37 210.889ZM1293.89 218.227V226H1291.34V212.909H1293.78V215.04H1293.95C1294.25 214.347 1294.72 213.79 1295.36 213.369C1296.01 212.949 1296.82 212.739 1297.81 212.739C1298.7 212.739 1299.48 212.926 1300.15 213.301C1300.82 213.67 1301.34 214.222 1301.71 214.955C1302.08 215.687 1302.26 216.594 1302.26 217.673V226H1299.72V217.98C1299.72 217.031 1299.47 216.29 1298.97 215.756C1298.48 215.216 1297.8 214.946 1296.94 214.946C1296.35 214.946 1295.82 215.074 1295.36 215.33C1294.91 215.585 1294.55 215.96 1294.28 216.455C1294.02 216.943 1293.89 217.534 1293.89 218.227ZM1308.77 226.29C1307.94 226.29 1307.19 226.136 1306.52 225.83C1305.85 225.517 1305.32 225.065 1304.93 224.474C1304.54 223.884 1304.35 223.159 1304.35 222.301C1304.35 221.562 1304.49 220.955 1304.77 220.477C1305.06 220 1305.44 219.622 1305.93 219.344C1306.41 219.065 1306.95 218.855 1307.54 218.713C1308.14 218.571 1308.75 218.463 1309.37 218.389C1310.15 218.298 1310.79 218.224 1311.28 218.168C1311.77 218.105 1312.12 218.006 1312.34 217.869C1312.56 217.733 1312.68 217.511 1312.68 217.205V217.145C1312.68 216.401 1312.47 215.824 1312.04 215.415C1311.63 215.006 1311.01 214.801 1310.19 214.801C1309.33 214.801 1308.65 214.991 1308.16 215.372C1307.67 215.747 1307.33 216.165 1307.14 216.625L1304.75 216.08C1305.03 215.284 1305.45 214.642 1305.99 214.153C1306.54 213.659 1307.18 213.301 1307.89 213.08C1308.61 212.852 1309.36 212.739 1310.15 212.739C1310.68 212.739 1311.23 212.801 1311.81 212.926C1312.41 213.045 1312.96 213.267 1313.47 213.591C1313.98 213.915 1314.41 214.378 1314.74 214.98C1315.07 215.577 1315.23 216.352 1315.23 217.307V226H1312.74V224.21H1312.64C1312.48 224.54 1312.23 224.864 1311.9 225.182C1311.57 225.5 1311.15 225.764 1310.63 225.974C1310.11 226.185 1309.49 226.29 1308.77 226.29ZM1309.33 224.244C1310.03 224.244 1310.63 224.105 1311.13 223.827C1311.64 223.548 1312.02 223.185 1312.28 222.736C1312.55 222.281 1312.68 221.795 1312.68 221.278V219.591C1312.59 219.682 1312.42 219.767 1312.16 219.847C1311.9 219.92 1311.61 219.986 1311.28 220.043C1310.95 220.094 1310.63 220.142 1310.31 220.188C1310 220.227 1309.74 220.261 1309.53 220.29C1309.04 220.352 1308.58 220.457 1308.18 220.605C1307.77 220.753 1307.45 220.966 1307.2 221.244C1306.97 221.517 1306.85 221.881 1306.85 222.335C1306.85 222.966 1307.08 223.443 1307.54 223.767C1308.01 224.085 1308.6 224.244 1309.33 224.244ZM1324.02 212.909V214.955H1316.87V212.909H1324.02ZM1318.78 209.773H1321.33V222.156C1321.33 222.651 1321.41 223.023 1321.55 223.273C1321.7 223.517 1321.89 223.685 1322.12 223.776C1322.36 223.861 1322.62 223.903 1322.9 223.903C1323.11 223.903 1323.28 223.889 1323.44 223.861C1323.59 223.832 1323.71 223.81 1323.8 223.793L1324.26 225.898C1324.11 225.955 1323.9 226.011 1323.62 226.068C1323.35 226.131 1323.01 226.165 1322.6 226.17C1321.93 226.182 1321.31 226.062 1320.73 225.812C1320.15 225.562 1319.68 225.176 1319.32 224.653C1318.96 224.131 1318.78 223.474 1318.78 222.685V209.773ZM1326.12 226V212.909H1328.66V226H1326.12ZM1327.4 210.889C1326.96 210.889 1326.58 210.741 1326.26 210.446C1325.95 210.145 1325.79 209.787 1325.79 209.372C1325.79 208.952 1325.95 208.594 1326.26 208.298C1326.58 207.997 1326.96 207.847 1327.4 207.847C1327.85 207.847 1328.22 207.997 1328.54 208.298C1328.85 208.594 1329.01 208.952 1329.01 209.372C1329.01 209.787 1328.85 210.145 1328.54 210.446C1328.22 210.741 1327.85 210.889 1327.4 210.889ZM1336.89 226.264C1335.66 226.264 1334.59 225.983 1333.67 225.42C1332.76 224.858 1332.05 224.071 1331.54 223.06C1331.04 222.048 1330.78 220.866 1330.78 219.514C1330.78 218.156 1331.04 216.969 1331.54 215.952C1332.05 214.935 1332.76 214.145 1333.67 213.582C1334.59 213.02 1335.66 212.739 1336.89 212.739C1338.11 212.739 1339.18 213.02 1340.1 213.582C1341.01 214.145 1341.72 214.935 1342.23 215.952C1342.74 216.969 1342.99 218.156 1342.99 219.514C1342.99 220.866 1342.74 222.048 1342.23 223.06C1341.72 224.071 1341.01 224.858 1340.1 225.42C1339.18 225.983 1338.11 226.264 1336.89 226.264ZM1336.9 224.125C1337.69 224.125 1338.35 223.915 1338.87 223.494C1339.4 223.074 1339.78 222.514 1340.03 221.815C1340.29 221.116 1340.42 220.347 1340.42 219.506C1340.42 218.67 1340.29 217.903 1340.03 217.205C1339.78 216.5 1339.4 215.935 1338.87 215.509C1338.35 215.082 1337.69 214.869 1336.9 214.869C1336.09 214.869 1335.43 215.082 1334.9 215.509C1334.38 215.935 1333.99 216.5 1333.73 217.205C1333.48 217.903 1333.36 218.67 1333.36 219.506C1333.36 220.347 1333.48 221.116 1333.73 221.815C1333.99 222.514 1334.38 223.074 1334.9 223.494C1335.43 223.915 1336.09 224.125 1336.9 224.125ZM1347.66 218.227V226H1345.11V212.909H1347.56V215.04H1347.72C1348.02 214.347 1348.49 213.79 1349.14 213.369C1349.78 212.949 1350.6 212.739 1351.58 212.739C1352.47 212.739 1353.26 212.926 1353.93 213.301C1354.6 213.67 1355.12 214.222 1355.49 214.955C1355.85 215.687 1356.04 216.594 1356.04 217.673V226H1353.49V217.98C1353.49 217.031 1353.24 216.29 1352.75 215.756C1352.26 215.216 1351.58 214.946 1350.71 214.946C1350.12 214.946 1349.6 215.074 1349.14 215.33C1348.68 215.585 1348.32 215.96 1348.05 216.455C1347.79 216.943 1347.66 217.534 1347.66 218.227ZM1257.31 251.264C1256.05 251.264 1254.96 250.977 1254.04 250.403C1253.13 249.824 1252.43 249.026 1251.94 248.009C1251.46 246.991 1251.21 245.827 1251.21 244.514C1251.21 243.185 1251.46 242.011 1251.96 240.994C1252.46 239.972 1253.17 239.173 1254.08 238.599C1254.98 238.026 1256.06 237.739 1257.29 237.739C1258.28 237.739 1259.17 237.923 1259.95 238.293C1260.73 238.656 1261.35 239.168 1261.83 239.827C1262.31 240.486 1262.6 241.256 1262.69 242.136H1260.21C1260.08 241.523 1259.76 240.994 1259.27 240.551C1258.79 240.108 1258.14 239.886 1257.33 239.886C1256.62 239.886 1256 240.074 1255.46 240.449C1254.94 240.818 1254.52 241.347 1254.23 242.034C1253.93 242.716 1253.79 243.523 1253.79 244.455C1253.79 245.409 1253.93 246.233 1254.22 246.926C1254.51 247.619 1254.92 248.156 1255.45 248.537C1255.98 248.918 1256.61 249.108 1257.33 249.108C1257.81 249.108 1258.25 249.02 1258.64 248.844C1259.04 248.662 1259.37 248.403 1259.64 248.068C1259.91 247.733 1260.1 247.33 1260.21 246.858H1262.69C1262.6 247.705 1262.33 248.46 1261.87 249.125C1261.4 249.79 1260.79 250.312 1260.02 250.693C1259.25 251.074 1258.35 251.264 1257.31 251.264ZM1270.21 251.264C1268.98 251.264 1267.91 250.983 1267 250.42C1266.08 249.858 1265.37 249.071 1264.87 248.06C1264.36 247.048 1264.11 245.866 1264.11 244.514C1264.11 243.156 1264.36 241.969 1264.87 240.952C1265.37 239.935 1266.08 239.145 1267 238.582C1267.91 238.02 1268.98 237.739 1270.21 237.739C1271.44 237.739 1272.51 238.02 1273.42 238.582C1274.34 239.145 1275.05 239.935 1275.55 240.952C1276.06 241.969 1276.31 243.156 1276.31 244.514C1276.31 245.866 1276.06 247.048 1275.55 248.06C1275.05 249.071 1274.34 249.858 1273.42 250.42C1272.51 250.983 1271.44 251.264 1270.21 251.264ZM1270.22 249.125C1271.02 249.125 1271.67 248.915 1272.2 248.494C1272.72 248.074 1273.11 247.514 1273.36 246.815C1273.61 246.116 1273.74 245.347 1273.74 244.506C1273.74 243.67 1273.61 242.903 1273.36 242.205C1273.11 241.5 1272.72 240.935 1272.2 240.509C1271.67 240.082 1271.02 239.869 1270.22 239.869C1269.42 239.869 1268.75 240.082 1268.23 240.509C1267.7 240.935 1267.31 241.5 1267.06 242.205C1266.81 242.903 1266.68 243.67 1266.68 244.506C1266.68 245.347 1266.81 246.116 1267.06 246.815C1267.31 247.514 1267.7 248.074 1268.23 248.494C1268.75 248.915 1269.42 249.125 1270.22 249.125ZM1280.99 243.227V251H1278.44V237.909H1280.88V240.04H1281.05C1281.35 239.347 1281.82 238.79 1282.46 238.369C1283.11 237.949 1283.92 237.739 1284.91 237.739C1285.8 237.739 1286.58 237.926 1287.25 238.301C1287.92 238.67 1288.44 239.222 1288.81 239.955C1289.18 240.687 1289.36 241.594 1289.36 242.673V251H1286.82V242.98C1286.82 242.031 1286.57 241.29 1286.07 240.756C1285.58 240.216 1284.9 239.946 1284.04 239.946C1283.45 239.946 1282.92 240.074 1282.46 240.33C1282.01 240.585 1281.65 240.96 1281.38 241.455C1281.12 241.943 1280.99 242.534 1280.99 243.227ZM1298.17 237.909V239.955H1291.02V237.909H1298.17ZM1292.94 234.773H1295.49V247.156C1295.49 247.651 1295.56 248.023 1295.71 248.273C1295.86 248.517 1296.05 248.685 1296.28 248.776C1296.52 248.861 1296.78 248.903 1297.06 248.903C1297.26 248.903 1297.44 248.889 1297.59 248.861C1297.75 248.832 1297.87 248.81 1297.95 248.793L1298.41 250.898C1298.26 250.955 1298.05 251.011 1297.78 251.068C1297.51 251.131 1297.17 251.165 1296.76 251.17C1296.09 251.182 1295.46 251.062 1294.88 250.812C1294.3 250.562 1293.83 250.176 1293.48 249.653C1293.12 249.131 1292.94 248.474 1292.94 247.685V234.773ZM1300.27 251V237.909H1302.73V239.989H1302.87C1303.11 239.284 1303.53 238.73 1304.13 238.327C1304.74 237.918 1305.43 237.713 1306.19 237.713C1306.35 237.713 1306.54 237.719 1306.76 237.73C1306.98 237.741 1307.15 237.756 1307.28 237.773V240.21C1307.17 240.182 1306.99 240.151 1306.73 240.116C1306.47 240.077 1306.21 240.057 1305.95 240.057C1305.35 240.057 1304.81 240.185 1304.34 240.44C1303.87 240.69 1303.5 241.04 1303.23 241.489C1302.96 241.932 1302.82 242.437 1302.82 243.006V251H1300.27ZM1312.45 251.29C1311.63 251.29 1310.88 251.136 1310.2 250.83C1309.53 250.517 1309 250.065 1308.61 249.474C1308.22 248.884 1308.03 248.159 1308.03 247.301C1308.03 246.562 1308.17 245.955 1308.46 245.477C1308.74 245 1309.13 244.622 1309.61 244.344C1310.09 244.065 1310.63 243.855 1311.23 243.713C1311.82 243.571 1312.43 243.463 1313.05 243.389C1313.84 243.298 1314.47 243.224 1314.96 243.168C1315.45 243.105 1315.8 243.006 1316.03 242.869C1316.25 242.733 1316.36 242.511 1316.36 242.205V242.145C1316.36 241.401 1316.15 240.824 1315.73 240.415C1315.31 240.006 1314.69 239.801 1313.87 239.801C1313.01 239.801 1312.34 239.991 1311.84 240.372C1311.35 240.747 1311.01 241.165 1310.83 241.625L1308.43 241.08C1308.72 240.284 1309.13 239.642 1309.68 239.153C1310.23 238.659 1310.86 238.301 1311.58 238.08C1312.29 237.852 1313.05 237.739 1313.84 237.739C1314.36 237.739 1314.91 237.801 1315.5 237.926C1316.09 238.045 1316.64 238.267 1317.15 238.591C1317.67 238.915 1318.09 239.378 1318.42 239.98C1318.75 240.577 1318.92 241.352 1318.92 242.307V251H1316.43V249.21H1316.32C1316.16 249.54 1315.91 249.864 1315.58 250.182C1315.25 250.5 1314.83 250.764 1314.31 250.974C1313.8 251.185 1313.18 251.29 1312.45 251.29ZM1313.01 249.244C1313.71 249.244 1314.32 249.105 1314.82 248.827C1315.32 248.548 1315.7 248.185 1315.97 247.736C1316.23 247.281 1316.37 246.795 1316.37 246.278V244.591C1316.28 244.682 1316.1 244.767 1315.84 244.847C1315.58 244.92 1315.29 244.986 1314.96 245.043C1314.63 245.094 1314.31 245.142 1314 245.188C1313.68 245.227 1313.42 245.261 1313.21 245.29C1312.72 245.352 1312.27 245.457 1311.86 245.605C1311.45 245.753 1311.13 245.966 1310.89 246.244C1310.65 246.517 1310.53 246.881 1310.53 247.335C1310.53 247.966 1310.76 248.443 1311.23 248.767C1311.69 249.085 1312.29 249.244 1313.01 249.244ZM1327.1 251.264C1325.84 251.264 1324.75 250.977 1323.83 250.403C1322.92 249.824 1322.22 249.026 1321.73 248.009C1321.25 246.991 1321 245.827 1321 244.514C1321 243.185 1321.25 242.011 1321.75 240.994C1322.25 239.972 1322.96 239.173 1323.86 238.599C1324.77 238.026 1325.84 237.739 1327.08 237.739C1328.07 237.739 1328.96 237.923 1329.74 238.293C1330.52 238.656 1331.14 239.168 1331.62 239.827C1332.1 240.486 1332.39 241.256 1332.48 242.136H1330C1329.86 241.523 1329.55 240.994 1329.06 240.551C1328.58 240.108 1327.93 239.886 1327.12 239.886C1326.41 239.886 1325.79 240.074 1325.25 240.449C1324.73 240.818 1324.31 241.347 1324.02 242.034C1323.72 242.716 1323.58 243.523 1323.58 244.455C1323.58 245.409 1323.72 246.233 1324.01 246.926C1324.3 247.619 1324.71 248.156 1325.24 248.537C1325.77 248.918 1326.4 249.108 1327.12 249.108C1327.6 249.108 1328.04 249.02 1328.43 248.844C1328.83 248.662 1329.16 248.403 1329.43 248.068C1329.7 247.733 1329.89 247.33 1330 246.858H1332.48C1332.39 247.705 1332.11 248.46 1331.65 249.125C1331.19 249.79 1330.58 250.312 1329.81 250.693C1329.04 251.074 1328.14 251.264 1327.1 251.264ZM1340.6 237.909V239.955H1333.45V237.909H1340.6ZM1335.36 234.773H1337.91V247.156C1337.91 247.651 1337.99 248.023 1338.13 248.273C1338.28 248.517 1338.47 248.685 1338.71 248.776C1338.94 248.861 1339.2 248.903 1339.48 248.903C1339.69 248.903 1339.86 248.889 1340.02 248.861C1340.17 248.832 1340.29 248.81 1340.38 248.793L1340.84 250.898C1340.69 250.955 1340.48 251.011 1340.21 251.068C1339.93 251.131 1339.59 251.165 1339.18 251.17C1338.51 251.182 1337.89 251.062 1337.31 250.812C1336.73 250.562 1336.26 250.176 1335.9 249.653C1335.54 249.131 1335.36 248.474 1335.36 247.685V234.773Z" fill="black"/>
<path d="M375.235 230.264C373.945 230.264 372.834 229.989 371.902 229.438C370.976 228.881 370.26 228.099 369.755 227.094C369.255 226.082 369.005 224.898 369.005 223.54C369.005 222.199 369.255 221.017 369.755 219.994C370.26 218.972 370.965 218.173 371.868 217.599C372.777 217.026 373.84 216.739 375.056 216.739C375.795 216.739 376.51 216.861 377.204 217.105C377.897 217.349 378.519 217.733 379.07 218.256C379.621 218.778 380.056 219.457 380.374 220.293C380.692 221.122 380.851 222.131 380.851 223.318V224.222H370.445V222.312H378.354C378.354 221.642 378.218 221.048 377.945 220.531C377.672 220.009 377.289 219.597 376.795 219.295C376.306 218.994 375.732 218.844 375.073 218.844C374.357 218.844 373.732 219.02 373.198 219.372C372.67 219.719 372.26 220.173 371.971 220.736C371.687 221.293 371.545 221.898 371.545 222.551V224.043C371.545 224.918 371.698 225.662 372.005 226.276C372.317 226.889 372.752 227.358 373.309 227.682C373.866 228 374.516 228.159 375.26 228.159C375.743 228.159 376.184 228.091 376.581 227.955C376.979 227.812 377.323 227.602 377.613 227.324C377.902 227.045 378.124 226.702 378.277 226.293L380.689 226.727C380.496 227.437 380.15 228.06 379.65 228.594C379.155 229.122 378.533 229.534 377.783 229.83C377.039 230.119 376.189 230.264 375.235 230.264ZM384.665 216.909L387.555 222.006L390.469 216.909H393.256L389.174 223.455L393.29 230H390.503L387.555 225.108L384.614 230H381.819L385.893 223.455L381.87 216.909H384.665ZM401.264 216.909V218.955H394.113V216.909H401.264ZM396.031 213.773H398.579V226.156C398.579 226.651 398.653 227.023 398.801 227.273C398.948 227.517 399.139 227.685 399.372 227.776C399.61 227.861 399.869 227.903 400.147 227.903C400.352 227.903 400.531 227.889 400.684 227.861C400.837 227.832 400.957 227.81 401.042 227.793L401.502 229.898C401.355 229.955 401.144 230.011 400.872 230.068C400.599 230.131 400.258 230.165 399.849 230.17C399.178 230.182 398.553 230.062 397.974 229.812C397.394 229.562 396.926 229.176 396.568 228.653C396.21 228.131 396.031 227.474 396.031 226.685V213.773ZM408.864 230.264C407.574 230.264 406.463 229.989 405.532 229.438C404.605 228.881 403.889 228.099 403.384 227.094C402.884 226.082 402.634 224.898 402.634 223.54C402.634 222.199 402.884 221.017 403.384 219.994C403.889 218.972 404.594 218.173 405.497 217.599C406.407 217.026 407.469 216.739 408.685 216.739C409.424 216.739 410.139 216.861 410.833 217.105C411.526 217.349 412.148 217.733 412.699 218.256C413.25 218.778 413.685 219.457 414.003 220.293C414.321 221.122 414.48 222.131 414.48 223.318V224.222H404.074V222.312H411.983C411.983 221.642 411.847 221.048 411.574 220.531C411.301 220.009 410.918 219.597 410.424 219.295C409.935 218.994 409.361 218.844 408.702 218.844C407.986 218.844 407.361 219.02 406.827 219.372C406.299 219.719 405.889 220.173 405.6 220.736C405.316 221.293 405.174 221.898 405.174 222.551V224.043C405.174 224.918 405.327 225.662 405.634 226.276C405.946 226.889 406.381 227.358 406.938 227.682C407.495 228 408.145 228.159 408.889 228.159C409.372 228.159 409.813 228.091 410.211 227.955C410.608 227.812 410.952 227.602 411.242 227.324C411.532 227.045 411.753 226.702 411.907 226.293L414.318 226.727C414.125 227.437 413.779 228.06 413.279 228.594C412.784 229.122 412.162 229.534 411.412 229.83C410.668 230.119 409.818 230.264 408.864 230.264ZM416.588 230V216.909H419.051V218.989H419.187C419.426 218.284 419.846 217.73 420.449 217.327C421.057 216.918 421.744 216.713 422.511 216.713C422.67 216.713 422.858 216.719 423.074 216.73C423.295 216.741 423.468 216.756 423.593 216.773V219.21C423.491 219.182 423.309 219.151 423.048 219.116C422.787 219.077 422.525 219.057 422.264 219.057C421.662 219.057 421.125 219.185 420.653 219.44C420.187 219.69 419.818 220.04 419.545 220.489C419.272 220.932 419.136 221.437 419.136 222.006V230H416.588ZM427.627 222.227V230H425.079V216.909H427.525V219.04H427.687C427.988 218.347 428.459 217.79 429.101 217.369C429.749 216.949 430.565 216.739 431.547 216.739C432.44 216.739 433.221 216.926 433.891 217.301C434.562 217.67 435.082 218.222 435.451 218.955C435.82 219.687 436.005 220.594 436.005 221.673V230H433.457V221.98C433.457 221.031 433.209 220.29 432.715 219.756C432.221 219.216 431.542 218.946 430.678 218.946C430.087 218.946 429.562 219.074 429.101 219.33C428.647 219.585 428.286 219.96 428.019 220.455C427.758 220.943 427.627 221.534 427.627 222.227ZM442.512 230.29C441.683 230.29 440.933 230.136 440.262 229.83C439.592 229.517 439.06 229.065 438.668 228.474C438.282 227.884 438.089 227.159 438.089 226.301C438.089 225.562 438.231 224.955 438.515 224.477C438.799 224 439.183 223.622 439.666 223.344C440.149 223.065 440.688 222.855 441.285 222.713C441.881 222.571 442.489 222.463 443.109 222.389C443.893 222.298 444.529 222.224 445.018 222.168C445.506 222.105 445.862 222.006 446.083 221.869C446.305 221.733 446.416 221.511 446.416 221.205V221.145C446.416 220.401 446.205 219.824 445.785 219.415C445.37 219.006 444.751 218.801 443.927 218.801C443.069 218.801 442.393 218.991 441.899 219.372C441.41 219.747 441.072 220.165 440.884 220.625L438.489 220.08C438.774 219.284 439.188 218.642 439.734 218.153C440.285 217.659 440.918 217.301 441.634 217.08C442.35 216.852 443.103 216.739 443.893 216.739C444.416 216.739 444.97 216.801 445.555 216.926C446.146 217.045 446.697 217.267 447.208 217.591C447.725 217.915 448.149 218.378 448.478 218.98C448.808 219.577 448.972 220.352 448.972 221.307V230H446.484V228.21H446.381C446.217 228.54 445.97 228.864 445.64 229.182C445.31 229.5 444.887 229.764 444.37 229.974C443.853 230.185 443.234 230.29 442.512 230.29ZM443.066 228.244C443.771 228.244 444.373 228.105 444.873 227.827C445.379 227.548 445.762 227.185 446.024 226.736C446.291 226.281 446.424 225.795 446.424 225.278V223.591C446.333 223.682 446.157 223.767 445.896 223.847C445.64 223.92 445.347 223.986 445.018 224.043C444.688 224.094 444.367 224.142 444.055 224.188C443.742 224.227 443.481 224.261 443.271 224.29C442.776 224.352 442.325 224.457 441.916 224.605C441.512 224.753 441.188 224.966 440.944 225.244C440.705 225.517 440.586 225.881 440.586 226.335C440.586 226.966 440.819 227.443 441.285 227.767C441.751 228.085 442.345 228.244 443.066 228.244ZM454.195 212.545V230H451.647V212.545H454.195ZM360.482 245.105L358.172 245.514C358.076 245.219 357.922 244.937 357.712 244.67C357.507 244.403 357.229 244.185 356.877 244.014C356.524 243.844 356.084 243.759 355.556 243.759C354.834 243.759 354.232 243.92 353.749 244.244C353.266 244.562 353.024 244.974 353.024 245.48C353.024 245.918 353.186 246.27 353.51 246.537C353.834 246.804 354.357 247.023 355.078 247.193L357.158 247.67C358.363 247.949 359.26 248.378 359.851 248.957C360.442 249.537 360.738 250.29 360.738 251.216C360.738 252 360.51 252.699 360.056 253.312C359.607 253.92 358.979 254.398 358.172 254.744C357.371 255.091 356.442 255.264 355.385 255.264C353.919 255.264 352.723 254.952 351.797 254.327C350.871 253.696 350.303 252.801 350.093 251.642L352.556 251.267C352.709 251.909 353.024 252.395 353.502 252.724C353.979 253.048 354.601 253.21 355.368 253.21C356.203 253.21 356.871 253.037 357.371 252.69C357.871 252.338 358.121 251.909 358.121 251.403C358.121 250.994 357.968 250.651 357.661 250.372C357.36 250.094 356.897 249.884 356.272 249.741L354.056 249.256C352.834 248.977 351.931 248.534 351.345 247.926C350.766 247.318 350.476 246.548 350.476 245.616C350.476 244.844 350.692 244.168 351.124 243.588C351.556 243.009 352.152 242.557 352.914 242.233C353.675 241.903 354.547 241.739 355.53 241.739C356.945 241.739 358.059 242.045 358.871 242.659C359.684 243.267 360.22 244.082 360.482 245.105ZM362.819 255V241.909H365.368V255H362.819ZM364.106 239.889C363.663 239.889 363.282 239.741 362.964 239.446C362.652 239.145 362.496 238.787 362.496 238.372C362.496 237.952 362.652 237.594 362.964 237.298C363.282 236.997 363.663 236.847 364.106 236.847C364.549 236.847 364.927 236.997 365.24 237.298C365.558 237.594 365.717 237.952 365.717 238.372C365.717 238.787 365.558 239.145 365.24 239.446C364.927 239.741 364.549 239.889 364.106 239.889ZM373.565 260.182C372.525 260.182 371.63 260.045 370.88 259.773C370.136 259.5 369.528 259.139 369.056 258.69C368.584 258.241 368.232 257.75 367.999 257.216L370.19 256.312C370.343 256.562 370.548 256.827 370.803 257.105C371.065 257.389 371.417 257.631 371.86 257.83C372.309 258.028 372.886 258.128 373.59 258.128C374.556 258.128 375.354 257.892 375.985 257.42C376.616 256.955 376.931 256.21 376.931 255.188V252.614H376.769C376.616 252.892 376.394 253.202 376.104 253.543C375.82 253.884 375.428 254.179 374.928 254.429C374.428 254.679 373.778 254.804 372.977 254.804C371.942 254.804 371.011 254.562 370.181 254.08C369.357 253.591 368.704 252.872 368.221 251.923C367.744 250.969 367.505 249.795 367.505 248.403C367.505 247.011 367.741 245.818 368.212 244.824C368.69 243.83 369.343 243.068 370.173 242.54C371.002 242.006 371.942 241.739 372.994 241.739C373.806 241.739 374.462 241.875 374.962 242.148C375.462 242.415 375.852 242.727 376.13 243.085C376.414 243.443 376.633 243.759 376.786 244.031H376.974V241.909H379.471V255.29C379.471 256.415 379.209 257.338 378.687 258.06C378.164 258.781 377.457 259.315 376.565 259.662C375.678 260.009 374.678 260.182 373.565 260.182ZM373.539 252.69C374.272 252.69 374.891 252.52 375.397 252.179C375.908 251.832 376.295 251.338 376.556 250.696C376.823 250.048 376.957 249.273 376.957 248.369C376.957 247.489 376.826 246.713 376.565 246.043C376.303 245.372 375.92 244.849 375.414 244.474C374.908 244.094 374.283 243.903 373.539 243.903C372.772 243.903 372.133 244.102 371.621 244.5C371.11 244.892 370.724 245.426 370.462 246.102C370.207 246.778 370.079 247.534 370.079 248.369C370.079 249.227 370.209 249.98 370.471 250.628C370.732 251.276 371.119 251.781 371.63 252.145C372.147 252.509 372.783 252.69 373.539 252.69ZM384.717 247.227V255H382.168V241.909H384.614V244.04H384.776C385.078 243.347 385.549 242.79 386.191 242.369C386.839 241.949 387.654 241.739 388.637 241.739C389.529 241.739 390.31 241.926 390.981 242.301C391.651 242.67 392.171 243.222 392.541 243.955C392.91 244.687 393.095 245.594 393.095 246.673V255H390.546V246.98C390.546 246.031 390.299 245.29 389.805 244.756C389.31 244.216 388.632 243.946 387.768 243.946C387.177 243.946 386.651 244.074 386.191 244.33C385.737 244.585 385.376 244.96 385.109 245.455C384.847 245.943 384.717 246.534 384.717 247.227ZM401.434 255.264C400.144 255.264 399.034 254.989 398.102 254.438C397.176 253.881 396.46 253.099 395.954 252.094C395.454 251.082 395.204 249.898 395.204 248.54C395.204 247.199 395.454 246.017 395.954 244.994C396.46 243.972 397.164 243.173 398.068 242.599C398.977 242.026 400.039 241.739 401.255 241.739C401.994 241.739 402.71 241.861 403.403 242.105C404.096 242.349 404.718 242.733 405.269 243.256C405.821 243.778 406.255 244.457 406.573 245.293C406.892 246.122 407.051 247.131 407.051 248.318V249.222H396.644V247.312H404.554C404.554 246.642 404.417 246.048 404.144 245.531C403.872 245.009 403.488 244.597 402.994 244.295C402.505 243.994 401.931 243.844 401.272 243.844C400.556 243.844 399.931 244.02 399.397 244.372C398.869 244.719 398.46 245.173 398.17 245.736C397.886 246.293 397.744 246.898 397.744 247.551V249.043C397.744 249.918 397.897 250.662 398.204 251.276C398.517 251.889 398.951 252.358 399.508 252.682C400.065 253 400.715 253.159 401.46 253.159C401.943 253.159 402.383 253.091 402.781 252.955C403.179 252.812 403.522 252.602 403.812 252.324C404.102 252.045 404.323 251.702 404.477 251.293L406.889 251.727C406.696 252.437 406.349 253.06 405.849 253.594C405.355 254.122 404.733 254.534 403.983 254.83C403.238 255.119 402.389 255.264 401.434 255.264ZM414.059 255.256C413.002 255.256 412.059 254.986 411.229 254.446C410.405 253.901 409.758 253.125 409.286 252.119C408.82 251.108 408.587 249.895 408.587 248.48C408.587 247.065 408.823 245.855 409.294 244.849C409.772 243.844 410.425 243.074 411.255 242.54C412.084 242.006 413.025 241.739 414.076 241.739C414.888 241.739 415.542 241.875 416.036 242.148C416.536 242.415 416.922 242.727 417.195 243.085C417.473 243.443 417.689 243.759 417.843 244.031H417.996V237.545H420.544V255H418.056V252.963H417.843C417.689 253.241 417.468 253.56 417.178 253.918C416.894 254.276 416.502 254.588 416.002 254.855C415.502 255.122 414.854 255.256 414.059 255.256ZM414.621 253.082C415.354 253.082 415.973 252.889 416.479 252.503C416.991 252.111 417.377 251.568 417.638 250.875C417.905 250.182 418.039 249.375 418.039 248.455C418.039 247.545 417.908 246.75 417.647 246.068C417.385 245.386 417.002 244.855 416.496 244.474C415.991 244.094 415.366 243.903 414.621 243.903C413.854 243.903 413.215 244.102 412.704 244.5C412.192 244.898 411.806 245.44 411.544 246.128C411.289 246.815 411.161 247.591 411.161 248.455C411.161 249.33 411.292 250.116 411.553 250.815C411.814 251.514 412.201 252.068 412.712 252.477C413.229 252.881 413.866 253.082 414.621 253.082ZM429.093 255V241.909H431.539V244.04H431.701C431.974 243.318 432.42 242.756 433.039 242.352C433.658 241.943 434.4 241.739 435.264 241.739C436.139 241.739 436.872 241.943 437.462 242.352C438.059 242.761 438.499 243.324 438.783 244.04H438.92C439.232 243.341 439.729 242.784 440.411 242.369C441.093 241.949 441.906 241.739 442.849 241.739C444.036 241.739 445.005 242.111 445.755 242.855C446.511 243.599 446.889 244.722 446.889 246.222V255H444.34V246.46C444.34 245.574 444.099 244.932 443.616 244.534C443.133 244.136 442.556 243.938 441.886 243.938C441.056 243.938 440.411 244.193 439.951 244.705C439.491 245.21 439.261 245.861 439.261 246.656V255H436.721V246.298C436.721 245.588 436.499 245.017 436.056 244.585C435.613 244.153 435.036 243.938 434.326 243.938C433.843 243.938 433.397 244.065 432.988 244.321C432.585 244.571 432.258 244.92 432.008 245.369C431.764 245.818 431.641 246.338 431.641 246.929V255H429.093ZM459.394 245.105L457.084 245.514C456.987 245.219 456.834 244.937 456.624 244.67C456.419 244.403 456.141 244.185 455.789 244.014C455.436 243.844 454.996 243.759 454.468 243.759C453.746 243.759 453.144 243.92 452.661 244.244C452.178 244.562 451.936 244.974 451.936 245.48C451.936 245.918 452.098 246.27 452.422 246.537C452.746 246.804 453.269 247.023 453.99 247.193L456.07 247.67C457.274 247.949 458.172 248.378 458.763 248.957C459.354 249.537 459.649 250.29 459.649 251.216C459.649 252 459.422 252.699 458.968 253.312C458.519 253.92 457.891 254.398 457.084 254.744C456.283 255.091 455.354 255.264 454.297 255.264C452.831 255.264 451.635 254.952 450.709 254.327C449.783 253.696 449.215 252.801 449.005 251.642L451.468 251.267C451.621 251.909 451.936 252.395 452.414 252.724C452.891 253.048 453.513 253.21 454.28 253.21C455.115 253.21 455.783 253.037 456.283 252.69C456.783 252.338 457.033 251.909 457.033 251.403C457.033 250.994 456.88 250.651 456.573 250.372C456.272 250.094 455.808 249.884 455.183 249.741L452.968 249.256C451.746 248.977 450.843 248.534 450.257 247.926C449.678 247.318 449.388 246.548 449.388 245.616C449.388 244.844 449.604 244.168 450.036 243.588C450.468 243.009 451.064 242.557 451.826 242.233C452.587 241.903 453.459 241.739 454.442 241.739C455.857 241.739 456.97 242.045 457.783 242.659C458.595 243.267 459.132 244.082 459.394 245.105ZM467.22 260.182C466.18 260.182 465.285 260.045 464.535 259.773C463.791 259.5 463.183 259.139 462.711 258.69C462.24 258.241 461.887 257.75 461.655 257.216L463.845 256.312C463.998 256.562 464.203 256.827 464.459 257.105C464.72 257.389 465.072 257.631 465.515 257.83C465.964 258.028 466.541 258.128 467.245 258.128C468.211 258.128 469.01 257.892 469.64 257.42C470.271 256.955 470.586 256.21 470.586 255.188V252.614H470.424C470.271 252.892 470.049 253.202 469.76 253.543C469.476 253.884 469.084 254.179 468.584 254.429C468.084 254.679 467.433 254.804 466.632 254.804C465.598 254.804 464.666 254.562 463.836 254.08C463.012 253.591 462.359 252.872 461.876 251.923C461.399 250.969 461.16 249.795 461.16 248.403C461.16 247.011 461.396 245.818 461.868 244.824C462.345 243.83 462.998 243.068 463.828 242.54C464.657 242.006 465.598 241.739 466.649 241.739C467.461 241.739 468.118 241.875 468.618 242.148C469.118 242.415 469.507 242.727 469.785 243.085C470.069 243.443 470.288 243.759 470.441 244.031H470.629V241.909H473.126V255.29C473.126 256.415 472.865 257.338 472.342 258.06C471.819 258.781 471.112 259.315 470.22 259.662C469.334 260.009 468.334 260.182 467.22 260.182ZM467.194 252.69C467.927 252.69 468.547 252.52 469.052 252.179C469.564 251.832 469.95 251.338 470.211 250.696C470.478 250.048 470.612 249.273 470.612 248.369C470.612 247.489 470.481 246.713 470.22 246.043C469.959 245.372 469.575 244.849 469.069 244.474C468.564 244.094 467.939 243.903 467.194 243.903C466.427 243.903 465.788 244.102 465.277 244.5C464.765 244.892 464.379 245.426 464.118 246.102C463.862 246.778 463.734 247.534 463.734 248.369C463.734 249.227 463.865 249.98 464.126 250.628C464.387 251.276 464.774 251.781 465.285 252.145C465.802 252.509 466.439 252.69 467.194 252.69Z" fill="black"/>
<path d="M483.895 234L567.895 234" stroke="#4C525B" stroke-width="2"/>
<path d="M586.895 234L567.895 240L567.895 228L586.895 234Z" fill="#4C525B"/>
<path d="M237.895 234H341.895" stroke="#4C525B" stroke-width="2"/>
<path d="M935.857 226V212.909H938.405V226H935.857ZM937.144 210.889C936.7 210.889 936.32 210.741 936.002 210.446C935.689 210.145 935.533 209.787 935.533 209.372C935.533 208.952 935.689 208.594 936.002 208.298C936.32 207.997 936.7 207.847 937.144 207.847C937.587 207.847 937.965 207.997 938.277 208.298C938.595 208.594 938.754 208.952 938.754 209.372C938.754 209.787 938.595 210.145 938.277 210.446C937.965 210.741 937.587 210.889 937.144 210.889ZM943.662 218.227V226H941.113V212.909H943.559V215.04H943.721C944.022 214.347 944.494 213.79 945.136 213.369C945.784 212.949 946.599 212.739 947.582 212.739C948.474 212.739 949.255 212.926 949.926 213.301C950.596 213.67 951.116 214.222 951.485 214.955C951.855 215.687 952.039 216.594 952.039 217.673V226H949.491V217.98C949.491 217.031 949.244 216.29 948.75 215.756C948.255 215.216 947.576 214.946 946.713 214.946C946.122 214.946 945.596 215.074 945.136 215.33C944.681 215.585 944.321 215.96 944.054 216.455C943.792 216.943 943.662 217.534 943.662 218.227ZM960.848 212.909V214.955H953.697V212.909H960.848ZM955.615 209.773H958.163V222.156C958.163 222.651 958.237 223.023 958.385 223.273C958.532 223.517 958.723 223.685 958.956 223.776C959.194 223.861 959.453 223.903 959.731 223.903C959.936 223.903 960.115 223.889 960.268 223.861C960.422 223.832 960.541 223.81 960.626 223.793L961.086 225.898C960.939 225.955 960.728 226.011 960.456 226.068C960.183 226.131 959.842 226.165 959.433 226.17C958.763 226.182 958.138 226.062 957.558 225.812C956.978 225.562 956.51 225.176 956.152 224.653C955.794 224.131 955.615 223.474 955.615 222.685V209.773ZM968.448 226.264C967.158 226.264 966.048 225.989 965.116 225.438C964.19 224.881 963.474 224.099 962.968 223.094C962.468 222.082 962.218 220.898 962.218 219.54C962.218 218.199 962.468 217.017 962.968 215.994C963.474 214.972 964.178 214.173 965.082 213.599C965.991 213.026 967.053 212.739 968.269 212.739C969.008 212.739 969.724 212.861 970.417 213.105C971.11 213.349 971.732 213.733 972.283 214.256C972.834 214.778 973.269 215.457 973.587 216.293C973.905 217.122 974.065 218.131 974.065 219.318V220.222H963.658V218.312H971.567C971.567 217.642 971.431 217.048 971.158 216.531C970.886 216.009 970.502 215.597 970.008 215.295C969.519 214.994 968.945 214.844 968.286 214.844C967.57 214.844 966.945 215.02 966.411 215.372C965.883 215.719 965.474 216.173 965.184 216.736C964.9 217.293 964.758 217.898 964.758 218.551V220.043C964.758 220.918 964.911 221.662 965.218 222.276C965.53 222.889 965.965 223.358 966.522 223.682C967.079 224 967.729 224.159 968.474 224.159C968.957 224.159 969.397 224.091 969.795 223.955C970.192 223.812 970.536 223.602 970.826 223.324C971.116 223.045 971.337 222.702 971.491 222.293L973.903 222.727C973.709 223.437 973.363 224.06 972.863 224.594C972.369 225.122 971.746 225.534 970.996 225.83C970.252 226.119 969.403 226.264 968.448 226.264ZM976.172 226V212.909H978.635V214.989H978.771C979.01 214.284 979.43 213.73 980.033 213.327C980.641 212.918 981.328 212.713 982.095 212.713C982.254 212.713 982.442 212.719 982.658 212.73C982.879 212.741 983.053 212.756 983.178 212.773V215.21C983.075 215.182 982.894 215.151 982.632 215.116C982.371 215.077 982.109 215.057 981.848 215.057C981.246 215.057 980.709 215.185 980.237 215.44C979.771 215.69 979.402 216.04 979.129 216.489C978.857 216.932 978.72 217.437 978.72 218.006V226H976.172ZM987.211 218.227V226H984.663V212.909H987.109V215.04H987.271C987.572 214.347 988.044 213.79 988.686 213.369C989.333 212.949 990.149 212.739 991.132 212.739C992.024 212.739 992.805 212.926 993.475 213.301C994.146 213.67 994.666 214.222 995.035 214.955C995.404 215.687 995.589 216.594 995.589 217.673V226H993.041V217.98C993.041 217.031 992.794 216.29 992.299 215.756C991.805 215.216 991.126 214.946 990.262 214.946C989.671 214.946 989.146 215.074 988.686 215.33C988.231 215.585 987.87 215.96 987.603 216.455C987.342 216.943 987.211 217.534 987.211 218.227ZM1002.1 226.29C1001.27 226.29 1000.52 226.136 999.846 225.83C999.176 225.517 998.645 225.065 998.253 224.474C997.866 223.884 997.673 223.159 997.673 222.301C997.673 221.562 997.815 220.955 998.099 220.477C998.383 220 998.767 219.622 999.25 219.344C999.733 219.065 1000.27 218.855 1000.87 218.713C1001.47 218.571 1002.07 218.463 1002.69 218.389C1003.48 218.298 1004.11 218.224 1004.6 218.168C1005.09 218.105 1005.45 218.006 1005.67 217.869C1005.89 217.733 1006 217.511 1006 217.205V217.145C1006 216.401 1005.79 215.824 1005.37 215.415C1004.95 215.006 1004.33 214.801 1003.51 214.801C1002.65 214.801 1001.98 214.991 1001.48 215.372C1000.99 215.747 1000.66 216.165 1000.47 216.625L998.074 216.08C998.358 215.284 998.772 214.642 999.318 214.153C999.869 213.659 1000.5 213.301 1001.22 213.08C1001.93 212.852 1002.69 212.739 1003.48 212.739C1004 212.739 1004.55 212.801 1005.14 212.926C1005.73 213.045 1006.28 213.267 1006.79 213.591C1007.31 213.915 1007.73 214.378 1008.06 214.98C1008.39 215.577 1008.56 216.352 1008.56 217.307V226H1006.07V224.21H1005.97C1005.8 224.54 1005.55 224.864 1005.22 225.182C1004.89 225.5 1004.47 225.764 1003.95 225.974C1003.44 226.185 1002.82 226.29 1002.1 226.29ZM1002.65 224.244C1003.35 224.244 1003.96 224.105 1004.46 223.827C1004.96 223.548 1005.35 223.185 1005.61 222.736C1005.87 222.281 1006.01 221.795 1006.01 221.278V219.591C1005.92 219.682 1005.74 219.767 1005.48 219.847C1005.22 219.92 1004.93 219.986 1004.6 220.043C1004.27 220.094 1003.95 220.142 1003.64 220.188C1003.33 220.227 1003.07 220.261 1002.85 220.29C1002.36 220.352 1001.91 220.457 1001.5 220.605C1001.1 220.753 1000.77 220.966 1000.53 221.244C1000.29 221.517 1000.17 221.881 1000.17 222.335C1000.17 222.966 1000.4 223.443 1000.87 223.767C1001.33 224.085 1001.93 224.244 1002.65 224.244ZM1013.78 208.545V226H1011.23V208.545H1013.78ZM1022.12 226V212.909H1024.56V215.04H1024.73C1025 214.318 1025.45 213.756 1026.06 213.352C1026.68 212.943 1027.43 212.739 1028.29 212.739C1029.16 212.739 1029.9 212.943 1030.49 213.352C1031.08 213.761 1031.53 214.324 1031.81 215.04H1031.95C1032.26 214.341 1032.76 213.784 1033.44 213.369C1034.12 212.949 1034.93 212.739 1035.87 212.739C1037.06 212.739 1038.03 213.111 1038.78 213.855C1039.54 214.599 1039.91 215.722 1039.91 217.222V226H1037.37V217.46C1037.37 216.574 1037.12 215.932 1036.64 215.534C1036.16 215.136 1035.58 214.938 1034.91 214.938C1034.08 214.938 1033.44 215.193 1032.98 215.705C1032.52 216.21 1032.29 216.861 1032.29 217.656V226H1029.75V217.298C1029.75 216.588 1029.53 216.017 1029.08 215.585C1028.64 215.153 1028.06 214.938 1027.35 214.938C1026.87 214.938 1026.42 215.065 1026.01 215.321C1025.61 215.571 1025.28 215.92 1025.03 216.369C1024.79 216.818 1024.67 217.338 1024.67 217.929V226H1022.12ZM1052.42 216.105L1050.11 216.514C1050.01 216.219 1049.86 215.937 1049.65 215.67C1049.45 215.403 1049.17 215.185 1048.81 215.014C1048.46 214.844 1048.02 214.759 1047.49 214.759C1046.77 214.759 1046.17 214.92 1045.69 215.244C1045.2 215.562 1044.96 215.974 1044.96 216.48C1044.96 216.918 1045.12 217.27 1045.45 217.537C1045.77 217.804 1046.29 218.023 1047.02 218.193L1049.1 218.67C1050.3 218.949 1051.2 219.378 1051.79 219.957C1052.38 220.537 1052.68 221.29 1052.68 222.216C1052.68 223 1052.45 223.699 1051.99 224.312C1051.54 224.92 1050.92 225.398 1050.11 225.744C1049.31 226.091 1048.38 226.264 1047.32 226.264C1045.86 226.264 1044.66 225.952 1043.73 225.327C1042.81 224.696 1042.24 223.801 1042.03 222.642L1044.49 222.267C1044.65 222.909 1044.96 223.395 1045.44 223.724C1045.92 224.048 1046.54 224.21 1047.31 224.21C1048.14 224.21 1048.81 224.037 1049.31 223.69C1049.81 223.338 1050.06 222.909 1050.06 222.403C1050.06 221.994 1049.91 221.651 1049.6 221.372C1049.3 221.094 1048.83 220.884 1048.21 220.741L1045.99 220.256C1044.77 219.977 1043.87 219.534 1043.28 218.926C1042.7 218.318 1042.41 217.548 1042.41 216.616C1042.41 215.844 1042.63 215.168 1043.06 214.588C1043.49 214.009 1044.09 213.557 1044.85 213.233C1045.61 212.903 1046.48 212.739 1047.47 212.739C1048.88 212.739 1050 213.045 1050.81 213.659C1051.62 214.267 1052.16 215.082 1052.42 216.105ZM1060.25 231.182C1059.21 231.182 1058.31 231.045 1057.56 230.773C1056.82 230.5 1056.21 230.139 1055.74 229.69C1055.27 229.241 1054.91 228.75 1054.68 228.216L1056.87 227.312C1057.02 227.562 1057.23 227.827 1057.48 228.105C1057.75 228.389 1058.1 228.631 1058.54 228.83C1058.99 229.028 1059.57 229.128 1060.27 229.128C1061.24 229.128 1062.04 228.892 1062.67 228.42C1063.3 227.955 1063.61 227.21 1063.61 226.188V223.614H1063.45C1063.3 223.892 1063.08 224.202 1062.79 224.543C1062.5 224.884 1062.11 225.179 1061.61 225.429C1061.11 225.679 1060.46 225.804 1059.66 225.804C1058.62 225.804 1057.69 225.562 1056.86 225.08C1056.04 224.591 1055.38 223.872 1054.9 222.923C1054.42 221.969 1054.19 220.795 1054.19 219.403C1054.19 218.011 1054.42 216.818 1054.89 215.824C1055.37 214.83 1056.02 214.068 1056.85 213.54C1057.68 213.006 1058.62 212.739 1059.67 212.739C1060.49 212.739 1061.14 212.875 1061.64 213.148C1062.14 213.415 1062.53 213.727 1062.81 214.085C1063.1 214.443 1063.31 214.759 1063.47 215.031H1063.65V212.909H1066.15V226.29C1066.15 227.415 1065.89 228.338 1065.37 229.06C1064.85 229.781 1064.14 230.315 1063.25 230.662C1062.36 231.009 1061.36 231.182 1060.25 231.182ZM1060.22 223.69C1060.95 223.69 1061.57 223.52 1062.08 223.179C1062.59 222.832 1062.98 222.338 1063.24 221.696C1063.5 221.048 1063.64 220.273 1063.64 219.369C1063.64 218.489 1063.51 217.713 1063.25 217.043C1062.98 216.372 1062.6 215.849 1062.1 215.474C1061.59 215.094 1060.96 214.903 1060.22 214.903C1059.45 214.903 1058.81 215.102 1058.3 215.5C1057.79 215.892 1057.4 216.426 1057.14 217.102C1056.89 217.778 1056.76 218.534 1056.76 219.369C1056.76 220.227 1056.89 220.98 1057.15 221.628C1057.41 222.276 1057.8 222.781 1058.31 223.145C1058.83 223.509 1059.46 223.69 1060.22 223.69ZM949.292 251L945.439 237.909H948.073L950.638 247.523H950.766L953.34 237.909H955.974L958.53 247.48H958.658L961.207 237.909H963.84L959.996 251H957.397L954.738 241.548H954.542L951.883 251H949.292ZM980.98 241.105L978.67 241.514C978.573 241.219 978.42 240.937 978.21 240.67C978.005 240.403 977.727 240.185 977.374 240.014C977.022 239.844 976.582 239.759 976.053 239.759C975.332 239.759 974.73 239.92 974.247 240.244C973.764 240.562 973.522 240.974 973.522 241.48C973.522 241.918 973.684 242.27 974.008 242.537C974.332 242.804 974.855 243.023 975.576 243.193L977.656 243.67C978.86 243.949 979.758 244.378 980.349 244.957C980.94 245.537 981.235 246.29 981.235 247.216C981.235 248 981.008 248.699 980.553 249.312C980.105 249.92 979.477 250.398 978.67 250.744C977.869 251.091 976.94 251.264 975.883 251.264C974.417 251.264 973.221 250.952 972.295 250.327C971.369 249.696 970.801 248.801 970.59 247.642L973.053 247.267C973.207 247.909 973.522 248.395 973.999 248.724C974.477 249.048 975.099 249.21 975.866 249.21C976.701 249.21 977.369 249.037 977.869 248.69C978.369 248.338 978.619 247.909 978.619 247.403C978.619 246.994 978.465 246.651 978.159 246.372C977.857 246.094 977.394 245.884 976.769 245.741L974.553 245.256C973.332 244.977 972.428 244.534 971.843 243.926C971.264 243.318 970.974 242.548 970.974 241.616C970.974 240.844 971.19 240.168 971.622 239.588C972.053 239.009 972.65 238.557 973.411 238.233C974.173 237.903 975.045 237.739 976.028 237.739C977.443 237.739 978.556 238.045 979.369 238.659C980.181 239.267 980.718 240.082 980.98 241.105ZM989.428 237.909V239.955H982.277V237.909H989.428ZM984.195 234.773H986.743V247.156C986.743 247.651 986.817 248.023 986.965 248.273C987.113 248.517 987.303 248.685 987.536 248.776C987.775 248.861 988.033 248.903 988.311 248.903C988.516 248.903 988.695 248.889 988.848 248.861C989.002 248.832 989.121 248.81 989.206 248.793L989.667 250.898C989.519 250.955 989.309 251.011 989.036 251.068C988.763 251.131 988.422 251.165 988.013 251.17C987.343 251.182 986.718 251.062 986.138 250.812C985.559 250.562 985.09 250.176 984.732 249.653C984.374 249.131 984.195 248.474 984.195 247.685V234.773ZM995.336 251.29C994.507 251.29 993.757 251.136 993.086 250.83C992.416 250.517 991.885 250.065 991.493 249.474C991.106 248.884 990.913 248.159 990.913 247.301C990.913 246.562 991.055 245.955 991.339 245.477C991.623 245 992.007 244.622 992.49 244.344C992.973 244.065 993.513 243.855 994.109 243.713C994.706 243.571 995.314 243.463 995.933 243.389C996.717 243.298 997.354 243.224 997.842 243.168C998.331 243.105 998.686 243.006 998.907 242.869C999.129 242.733 999.24 242.511 999.24 242.205V242.145C999.24 241.401 999.03 240.824 998.609 240.415C998.194 240.006 997.575 239.801 996.751 239.801C995.893 239.801 995.217 239.991 994.723 240.372C994.234 240.747 993.896 241.165 993.709 241.625L991.314 241.08C991.598 240.284 992.013 239.642 992.558 239.153C993.109 238.659 993.743 238.301 994.459 238.08C995.175 237.852 995.927 237.739 996.717 237.739C997.24 237.739 997.794 237.801 998.379 237.926C998.97 238.045 999.521 238.267 1000.03 238.591C1000.55 238.915 1000.97 239.378 1001.3 239.98C1001.63 240.577 1001.8 241.352 1001.8 242.307V251H999.308V249.21H999.206C999.041 249.54 998.794 249.864 998.464 250.182C998.135 250.5 997.711 250.764 997.194 250.974C996.677 251.185 996.058 251.29 995.336 251.29ZM995.89 249.244C996.595 249.244 997.197 249.105 997.697 248.827C998.203 248.548 998.586 248.185 998.848 247.736C999.115 247.281 999.248 246.795 999.248 246.278V244.591C999.157 244.682 998.981 244.767 998.72 244.847C998.464 244.92 998.172 244.986 997.842 245.043C997.513 245.094 997.192 245.142 996.879 245.188C996.567 245.227 996.305 245.261 996.095 245.29C995.601 245.352 995.149 245.457 994.74 245.605C994.336 245.753 994.013 245.966 993.768 246.244C993.53 246.517 993.41 246.881 993.41 247.335C993.41 247.966 993.643 248.443 994.109 248.767C994.575 249.085 995.169 249.244 995.89 249.244ZM1010.58 237.909V239.955H1003.43V237.909H1010.58ZM1005.35 234.773H1007.9V247.156C1007.9 247.651 1007.97 248.023 1008.12 248.273C1008.27 248.517 1008.46 248.685 1008.69 248.776C1008.93 248.861 1009.19 248.903 1009.47 248.903C1009.67 248.903 1009.85 248.889 1010 248.861C1010.16 248.832 1010.27 248.81 1010.36 248.793L1010.82 250.898C1010.67 250.955 1010.46 251.011 1010.19 251.068C1009.92 251.131 1009.58 251.165 1009.17 251.17C1008.5 251.182 1007.87 251.062 1007.29 250.812C1006.71 250.562 1006.24 250.176 1005.89 249.653C1005.53 249.131 1005.35 248.474 1005.35 247.685V234.773ZM1018.18 251.264C1016.89 251.264 1015.78 250.989 1014.85 250.438C1013.92 249.881 1013.21 249.099 1012.7 248.094C1012.2 247.082 1011.95 245.898 1011.95 244.54C1011.95 243.199 1012.2 242.017 1012.7 240.994C1013.21 239.972 1013.91 239.173 1014.82 238.599C1015.72 238.026 1016.79 237.739 1018 237.739C1018.74 237.739 1019.46 237.861 1020.15 238.105C1020.84 238.349 1021.47 238.733 1022.02 239.256C1022.57 239.778 1023 240.457 1023.32 241.293C1023.64 242.122 1023.8 243.131 1023.8 244.318V245.222H1013.39V243.312H1021.3C1021.3 242.642 1021.16 242.048 1020.89 241.531C1020.62 241.009 1020.24 240.597 1019.74 240.295C1019.25 239.994 1018.68 239.844 1018.02 239.844C1017.3 239.844 1016.68 240.02 1016.15 240.372C1015.62 240.719 1015.21 241.173 1014.92 241.736C1014.63 242.293 1014.49 242.898 1014.49 243.551V245.043C1014.49 245.918 1014.65 246.662 1014.95 247.276C1015.26 247.889 1015.7 248.358 1016.26 248.682C1016.81 249 1017.46 249.159 1018.21 249.159C1018.69 249.159 1019.13 249.091 1019.53 248.955C1019.93 248.812 1020.27 248.602 1020.56 248.324C1020.85 248.045 1021.07 247.702 1021.22 247.293L1023.64 247.727C1023.44 248.437 1023.1 249.06 1022.6 249.594C1022.1 250.122 1021.48 250.534 1020.73 250.83C1019.99 251.119 1019.14 251.264 1018.18 251.264ZM1025.91 251V237.909H1028.45V251H1025.91ZM1027.19 235.889C1026.75 235.889 1026.37 235.741 1026.05 235.446C1025.74 235.145 1025.58 234.787 1025.58 234.372C1025.58 233.952 1025.74 233.594 1026.05 233.298C1026.37 232.997 1026.75 232.847 1027.19 232.847C1027.64 232.847 1028.01 232.997 1028.33 233.298C1028.64 233.594 1028.8 233.952 1028.8 234.372C1028.8 234.787 1028.64 235.145 1028.33 235.446C1028.01 235.741 1027.64 235.889 1027.19 235.889ZM1033.71 243.227V251H1031.16V237.909H1033.61V240.04H1033.77C1034.07 239.347 1034.54 238.79 1035.19 238.369C1035.83 237.949 1036.65 237.739 1037.63 237.739C1038.52 237.739 1039.3 237.926 1039.97 238.301C1040.65 238.67 1041.17 239.222 1041.53 239.955C1041.9 240.687 1042.09 241.594 1042.09 242.673V251H1039.54V242.98C1039.54 242.031 1039.29 241.29 1038.8 240.756C1038.3 240.216 1037.63 239.946 1036.76 239.946C1036.17 239.946 1035.65 240.074 1035.19 240.33C1034.73 240.585 1034.37 240.96 1034.1 241.455C1033.84 241.943 1033.71 242.534 1033.71 243.227ZM1044.79 251V237.909H1047.33V251H1044.79ZM1046.07 235.889C1045.63 235.889 1045.25 235.741 1044.93 235.446C1044.62 235.145 1044.46 234.787 1044.46 234.372C1044.46 233.952 1044.62 233.594 1044.93 233.298C1045.25 232.997 1045.63 232.847 1046.07 232.847C1046.52 232.847 1046.89 232.997 1047.21 233.298C1047.52 233.594 1047.68 233.952 1047.68 234.372C1047.68 234.787 1047.52 235.145 1047.21 235.446C1046.89 235.741 1046.52 235.889 1046.07 235.889ZM1056.15 237.909V239.955H1049V237.909H1056.15ZM1050.92 234.773H1053.47V247.156C1053.47 247.651 1053.54 248.023 1053.69 248.273C1053.84 248.517 1054.03 248.685 1054.26 248.776C1054.5 248.861 1054.76 248.903 1055.04 248.903C1055.24 248.903 1055.42 248.889 1055.57 248.861C1055.73 248.832 1055.85 248.81 1055.93 248.793L1056.39 250.898C1056.24 250.955 1056.03 251.011 1055.76 251.068C1055.49 251.131 1055.15 251.165 1054.74 251.17C1054.07 251.182 1053.44 251.062 1052.86 250.812C1052.28 250.562 1051.82 250.176 1051.46 249.653C1051.1 249.131 1050.92 248.474 1050.92 247.685V234.773Z" fill="black"/>
<path d="M1079.89 234L1156.89 234" stroke="#4C525B" stroke-width="2"/>
<path d="M1175.89 234L1156.89 240L1156.89 228L1175.89 234Z" fill="#4C525B"/>
<path d="M826.895 234H922.895" stroke="#4C525B" stroke-width="2"/>
<path d="M171.952 229.059C159.003 229.059 147.831 217.442 147.831 202.525C147.831 187.862 159.003 176.563 171.952 176.563C184.838 176.563 196.01 187.672 196.01 202.462C196.01 217.442 184.901 229.059 171.952 229.059ZM131.708 284.728C125.233 284.728 121.298 281.617 121.298 276.539C121.298 261.114 140.785 239.786 171.889 239.786C203.056 239.786 222.479 261.114 222.479 276.539C222.479 281.617 218.607 284.728 212.069 284.728H131.708Z" fill="#979EA8"/>
<path d="M148.602 146H145.806L152.087 128.545H155.13L161.411 146H158.616L153.681 131.716H153.545L148.602 146ZM149.07 139.165H158.139V141.381H149.07V139.165ZM165.556 128.545V146H163.007V128.545H165.556ZM168.264 146V132.909H170.812V146H168.264ZM169.551 130.889C169.108 130.889 168.727 130.741 168.409 130.446C168.096 130.145 167.94 129.787 167.94 129.372C167.94 128.952 168.096 128.594 168.409 128.298C168.727 127.997 169.108 127.847 169.551 127.847C169.994 127.847 170.372 127.997 170.684 128.298C171.002 128.594 171.162 128.952 171.162 129.372C171.162 129.787 171.002 130.145 170.684 130.446C170.372 130.741 169.994 130.889 169.551 130.889ZM179.035 146.264C177.768 146.264 176.677 145.977 175.762 145.403C174.853 144.824 174.154 144.026 173.665 143.009C173.177 141.991 172.932 140.827 172.932 139.514C172.932 138.185 173.182 137.011 173.682 135.994C174.182 134.972 174.887 134.173 175.796 133.599C176.705 133.026 177.776 132.739 179.009 132.739C180.003 132.739 180.89 132.923 181.668 133.293C182.447 133.656 183.074 134.168 183.552 134.827C184.035 135.486 184.322 136.256 184.412 137.136H181.932C181.796 136.523 181.483 135.994 180.995 135.551C180.512 135.108 179.864 134.886 179.052 134.886C178.341 134.886 177.719 135.074 177.185 135.449C176.657 135.818 176.245 136.347 175.949 137.034C175.654 137.716 175.506 138.523 175.506 139.455C175.506 140.409 175.651 141.233 175.941 141.926C176.231 142.619 176.64 143.156 177.168 143.537C177.702 143.918 178.33 144.108 179.052 144.108C179.535 144.108 179.972 144.02 180.364 143.844C180.762 143.662 181.094 143.403 181.361 143.068C181.634 142.733 181.824 142.33 181.932 141.858H184.412C184.322 142.705 184.046 143.46 183.586 144.125C183.126 144.79 182.509 145.312 181.736 145.693C180.969 146.074 180.069 146.264 179.035 146.264ZM192.06 146.264C190.77 146.264 189.659 145.989 188.727 145.438C187.801 144.881 187.085 144.099 186.58 143.094C186.08 142.082 185.83 140.898 185.83 139.54C185.83 138.199 186.08 137.017 186.58 135.994C187.085 134.972 187.79 134.173 188.693 133.599C189.602 133.026 190.665 132.739 191.881 132.739C192.619 132.739 193.335 132.861 194.028 133.105C194.722 133.349 195.344 133.733 195.895 134.256C196.446 134.778 196.881 135.457 197.199 136.293C197.517 137.122 197.676 138.131 197.676 139.318V140.222H187.27V138.312H195.179C195.179 137.642 195.043 137.048 194.77 136.531C194.497 136.009 194.114 135.597 193.619 135.295C193.131 134.994 192.557 134.844 191.898 134.844C191.182 134.844 190.557 135.02 190.023 135.372C189.494 135.719 189.085 136.173 188.795 136.736C188.511 137.293 188.369 137.898 188.369 138.551V140.043C188.369 140.918 188.523 141.662 188.83 142.276C189.142 142.889 189.577 143.358 190.134 143.682C190.69 144 191.341 144.159 192.085 144.159C192.568 144.159 193.009 144.091 193.406 143.955C193.804 143.812 194.148 143.602 194.437 143.324C194.727 143.045 194.949 142.702 195.102 142.293L197.514 142.727C197.321 143.437 196.974 144.06 196.474 144.594C195.98 145.122 195.358 145.534 194.608 145.83C193.864 146.119 193.014 146.264 192.06 146.264Z" fill="black"/>
</g>
<defs>
<clipPath id="clip0_5_31">
<rect width="1495" height="460" fill="white"/>
</clipPath>
</defs>
</svg>
