<svg width="1495" height="460" viewBox="0 0 1495 460" fill="none" xmlns="http://www.w3.org/2000/svg">
<g clip-path="url(#clip0_0_10)">
<rect x="614.895" y="138" width="184" height="184" rx="92" fill="#232328"/>
<rect x="614.895" y="138" width="184" height="184" rx="92" stroke="#6EB1FF" stroke-width="2"/>
<path d="M678.628 238.5L673.787 221.045H676.557L679.957 234.562H680.119L683.656 221.045H686.401L689.937 234.571H690.099L693.491 221.045H696.27L691.42 238.5H688.77L685.097 225.426H684.96L681.287 238.5H678.628ZM700.267 238.79C699.438 238.79 698.688 238.636 698.017 238.33C697.347 238.017 696.815 237.565 696.423 236.974C696.037 236.384 695.844 235.659 695.844 234.801C695.844 234.062 695.986 233.455 696.27 232.977C696.554 232.5 696.938 232.122 697.421 231.844C697.904 231.565 698.443 231.355 699.04 231.213C699.636 231.071 700.244 230.963 700.864 230.889C701.648 230.798 702.284 230.724 702.773 230.668C703.261 230.605 703.617 230.506 703.838 230.369C704.06 230.233 704.171 230.011 704.171 229.705V229.645C704.171 228.901 703.96 228.324 703.54 227.915C703.125 227.506 702.506 227.301 701.682 227.301C700.824 227.301 700.148 227.491 699.654 227.872C699.165 228.247 698.827 228.665 698.639 229.125L696.244 228.58C696.529 227.784 696.943 227.142 697.489 226.653C698.04 226.159 698.673 225.801 699.389 225.58C700.105 225.352 700.858 225.239 701.648 225.239C702.171 225.239 702.725 225.301 703.31 225.426C703.901 225.545 704.452 225.767 704.963 226.091C705.48 226.415 705.904 226.878 706.233 227.48C706.563 228.077 706.727 228.852 706.727 229.807V238.5H704.239V236.71H704.136C703.972 237.04 703.725 237.364 703.395 237.682C703.065 238 702.642 238.264 702.125 238.474C701.608 238.685 700.989 238.79 700.267 238.79ZM700.821 236.744C701.526 236.744 702.128 236.605 702.628 236.327C703.134 236.048 703.517 235.685 703.779 235.236C704.046 234.781 704.179 234.295 704.179 233.778V232.091C704.088 232.182 703.912 232.267 703.651 232.347C703.395 232.42 703.102 232.486 702.773 232.543C702.443 232.594 702.122 232.642 701.81 232.688C701.497 232.727 701.236 232.761 701.026 232.79C700.531 232.852 700.08 232.957 699.671 233.105C699.267 233.253 698.943 233.466 698.699 233.744C698.46 234.017 698.341 234.381 698.341 234.835C698.341 235.466 698.574 235.943 699.04 236.267C699.506 236.585 700.1 236.744 700.821 236.744ZM711.95 221.045V238.5H709.402V221.045H711.95ZM717.206 221.045V238.5H714.658V221.045H717.206ZM725.557 238.764C724.267 238.764 723.156 238.489 722.224 237.938C721.298 237.381 720.582 236.599 720.077 235.594C719.577 234.582 719.327 233.398 719.327 232.04C719.327 230.699 719.577 229.517 720.077 228.494C720.582 227.472 721.287 226.673 722.19 226.099C723.099 225.526 724.162 225.239 725.378 225.239C726.116 225.239 726.832 225.361 727.525 225.605C728.219 225.849 728.841 226.233 729.392 226.756C729.943 227.278 730.378 227.957 730.696 228.793C731.014 229.622 731.173 230.631 731.173 231.818V232.722H720.767V230.812H728.676C728.676 230.142 728.54 229.548 728.267 229.031C727.994 228.509 727.611 228.097 727.116 227.795C726.628 227.494 726.054 227.344 725.395 227.344C724.679 227.344 724.054 227.52 723.52 227.872C722.991 228.219 722.582 228.673 722.293 229.236C722.008 229.793 721.866 230.398 721.866 231.051V232.543C721.866 233.418 722.02 234.162 722.327 234.776C722.639 235.389 723.074 235.858 723.631 236.182C724.187 236.5 724.838 236.659 725.582 236.659C726.065 236.659 726.506 236.591 726.903 236.455C727.301 236.312 727.645 236.102 727.935 235.824C728.224 235.545 728.446 235.202 728.599 234.793L731.011 235.227C730.818 235.937 730.472 236.56 729.972 237.094C729.477 237.622 728.855 238.034 728.105 238.33C727.361 238.619 726.511 238.764 725.557 238.764ZM739.391 225.409V227.455H732.241V225.409H739.391ZM734.158 222.273H736.707V234.656C736.707 235.151 736.781 235.523 736.928 235.773C737.076 236.017 737.266 236.185 737.499 236.276C737.738 236.361 737.997 236.403 738.275 236.403C738.479 236.403 738.658 236.389 738.812 236.361C738.965 236.332 739.085 236.31 739.17 236.293L739.63 238.398C739.482 238.455 739.272 238.511 738.999 238.568C738.727 238.631 738.386 238.665 737.977 238.67C737.306 238.682 736.681 238.562 736.102 238.312C735.522 238.062 735.053 237.676 734.695 237.153C734.337 236.631 734.158 235.974 734.158 235.185V222.273Z" fill="white"/>
<rect x="1203.89" y="138" width="184" height="184" rx="92" fill="#232328"/>
<rect x="1203.89" y="138" width="184" height="184" rx="92" stroke="#6EB1FF" stroke-width="2"/>
<path d="M1241.61 226H1235.96V208.545H1241.79C1243.5 208.545 1244.97 208.895 1246.2 209.594C1247.43 210.287 1248.37 211.284 1249.02 212.585C1249.68 213.881 1250.01 215.435 1250.01 217.247C1250.01 219.065 1249.68 220.628 1249.01 221.935C1248.35 223.241 1247.4 224.247 1246.15 224.952C1244.9 225.651 1243.39 226 1241.61 226ZM1238.6 223.699H1241.47C1242.8 223.699 1243.9 223.449 1244.78 222.949C1245.66 222.443 1246.32 221.713 1246.76 220.759C1247.2 219.798 1247.42 218.628 1247.42 217.247C1247.42 215.878 1247.2 214.716 1246.76 213.761C1246.33 212.807 1245.68 212.082 1244.83 211.588C1243.97 211.094 1242.9 210.847 1241.63 210.847H1238.6V223.699ZM1258 226.264C1256.71 226.264 1255.6 225.989 1254.67 225.438C1253.74 224.881 1253.03 224.099 1252.52 223.094C1252.02 222.082 1251.77 220.898 1251.77 219.54C1251.77 218.199 1252.02 217.017 1252.52 215.994C1253.03 214.972 1253.73 214.173 1254.63 213.599C1255.54 213.026 1256.61 212.739 1257.82 212.739C1258.56 212.739 1259.28 212.861 1259.97 213.105C1260.66 213.349 1261.29 213.733 1261.84 214.256C1262.39 214.778 1262.82 215.457 1263.14 216.293C1263.46 217.122 1263.62 218.131 1263.62 219.318V220.222H1253.21V218.312H1261.12C1261.12 217.642 1260.98 217.048 1260.71 216.531C1260.44 216.009 1260.06 215.597 1259.56 215.295C1259.07 214.994 1258.5 214.844 1257.84 214.844C1257.12 214.844 1256.5 215.02 1255.96 215.372C1255.44 215.719 1255.03 216.173 1254.74 216.736C1254.45 217.293 1254.31 217.898 1254.31 218.551V220.043C1254.31 220.918 1254.46 221.662 1254.77 222.276C1255.08 222.889 1255.52 223.358 1256.07 223.682C1256.63 224 1257.28 224.159 1258.03 224.159C1258.51 224.159 1258.95 224.091 1259.35 223.955C1259.75 223.812 1260.09 223.602 1260.38 223.324C1260.67 223.045 1260.89 222.702 1261.04 222.293L1263.46 222.727C1263.26 223.437 1262.92 224.06 1262.42 224.594C1261.92 225.122 1261.3 225.534 1260.55 225.83C1259.81 226.119 1258.96 226.264 1258 226.264ZM1275.53 216.105L1273.22 216.514C1273.13 216.219 1272.97 215.937 1272.76 215.67C1272.56 215.403 1272.28 215.185 1271.93 215.014C1271.58 214.844 1271.14 214.759 1270.61 214.759C1269.89 214.759 1269.28 214.92 1268.8 215.244C1268.32 215.562 1268.08 215.974 1268.08 216.48C1268.08 216.918 1268.24 217.27 1268.56 217.537C1268.89 217.804 1269.41 218.023 1270.13 218.193L1272.21 218.67C1273.42 218.949 1274.31 219.378 1274.9 219.957C1275.49 220.537 1275.79 221.29 1275.79 222.216C1275.79 223 1275.56 223.699 1275.11 224.312C1274.66 224.92 1274.03 225.398 1273.22 225.744C1272.42 226.091 1271.49 226.264 1270.44 226.264C1268.97 226.264 1267.78 225.952 1266.85 225.327C1265.92 224.696 1265.36 223.801 1265.15 222.642L1267.61 222.267C1267.76 222.909 1268.08 223.395 1268.55 223.724C1269.03 224.048 1269.65 224.21 1270.42 224.21C1271.26 224.21 1271.92 224.037 1272.42 223.69C1272.92 223.338 1273.17 222.909 1273.17 222.403C1273.17 221.994 1273.02 221.651 1272.71 221.372C1272.41 221.094 1271.95 220.884 1271.32 220.741L1269.11 220.256C1267.89 219.977 1266.98 219.534 1266.4 218.926C1265.82 218.318 1265.53 217.548 1265.53 216.616C1265.53 215.844 1265.74 215.168 1266.18 214.588C1266.61 214.009 1267.21 213.557 1267.97 213.233C1268.73 212.903 1269.6 212.739 1270.58 212.739C1272 212.739 1273.11 213.045 1273.92 213.659C1274.74 214.267 1275.27 215.082 1275.53 216.105ZM1283.98 212.909V214.955H1276.83V212.909H1283.98ZM1278.75 209.773H1281.3V222.156C1281.3 222.651 1281.37 223.023 1281.52 223.273C1281.67 223.517 1281.86 223.685 1282.09 223.776C1282.33 223.861 1282.59 223.903 1282.87 223.903C1283.07 223.903 1283.25 223.889 1283.4 223.861C1283.56 223.832 1283.68 223.81 1283.76 223.793L1284.22 225.898C1284.07 225.955 1283.86 226.011 1283.59 226.068C1283.32 226.131 1282.98 226.165 1282.57 226.17C1281.9 226.182 1281.27 226.062 1280.69 225.812C1280.11 225.562 1279.64 225.176 1279.29 224.653C1278.93 224.131 1278.75 223.474 1278.75 222.685V209.773ZM1286.08 226V212.909H1288.63V226H1286.08ZM1287.37 210.889C1286.93 210.889 1286.54 210.741 1286.23 210.446C1285.91 210.145 1285.76 209.787 1285.76 209.372C1285.76 208.952 1285.91 208.594 1286.23 208.298C1286.54 207.997 1286.93 207.847 1287.37 207.847C1287.81 207.847 1288.19 207.997 1288.5 208.298C1288.82 208.594 1288.98 208.952 1288.98 209.372C1288.98 209.787 1288.82 210.145 1288.5 210.446C1288.19 210.741 1287.81 210.889 1287.37 210.889ZM1293.89 218.227V226H1291.34V212.909H1293.78V215.04H1293.95C1294.25 214.347 1294.72 213.79 1295.36 213.369C1296.01 212.949 1296.82 212.739 1297.81 212.739C1298.7 212.739 1299.48 212.926 1300.15 213.301C1300.82 213.67 1301.34 214.222 1301.71 214.955C1302.08 215.687 1302.26 216.594 1302.26 217.673V226H1299.72V217.98C1299.72 217.031 1299.47 216.29 1298.97 215.756C1298.48 215.216 1297.8 214.946 1296.94 214.946C1296.35 214.946 1295.82 215.074 1295.36 215.33C1294.91 215.585 1294.55 215.96 1294.28 216.455C1294.02 216.943 1293.89 217.534 1293.89 218.227ZM1308.77 226.29C1307.94 226.29 1307.19 226.136 1306.52 225.83C1305.85 225.517 1305.32 225.065 1304.93 224.474C1304.54 223.884 1304.35 223.159 1304.35 222.301C1304.35 221.562 1304.49 220.955 1304.77 220.477C1305.06 220 1305.44 219.622 1305.93 219.344C1306.41 219.065 1306.95 218.855 1307.54 218.713C1308.14 218.571 1308.75 218.463 1309.37 218.389C1310.15 218.298 1310.79 218.224 1311.28 218.168C1311.77 218.105 1312.12 218.006 1312.34 217.869C1312.56 217.733 1312.68 217.511 1312.68 217.205V217.145C1312.68 216.401 1312.47 215.824 1312.04 215.415C1311.63 215.006 1311.01 214.801 1310.19 214.801C1309.33 214.801 1308.65 214.991 1308.16 215.372C1307.67 215.747 1307.33 216.165 1307.14 216.625L1304.75 216.08C1305.03 215.284 1305.45 214.642 1305.99 214.153C1306.54 213.659 1307.18 213.301 1307.89 213.08C1308.61 212.852 1309.36 212.739 1310.15 212.739C1310.68 212.739 1311.23 212.801 1311.81 212.926C1312.41 213.045 1312.96 213.267 1313.47 213.591C1313.98 213.915 1314.41 214.378 1314.74 214.98C1315.07 215.577 1315.23 216.352 1315.23 217.307V226H1312.74V224.21H1312.64C1312.48 224.54 1312.23 224.864 1311.9 225.182C1311.57 225.5 1311.15 225.764 1310.63 225.974C1310.11 226.185 1309.49 226.29 1308.77 226.29ZM1309.33 224.244C1310.03 224.244 1310.63 224.105 1311.13 223.827C1311.64 223.548 1312.02 223.185 1312.28 222.736C1312.55 222.281 1312.68 221.795 1312.68 221.278V219.591C1312.59 219.682 1312.42 219.767 1312.16 219.847C1311.9 219.92 1311.61 219.986 1311.28 220.043C1310.95 220.094 1310.63 220.142 1310.31 220.188C1310 220.227 1309.74 220.261 1309.53 220.29C1309.04 220.352 1308.58 220.457 1308.18 220.605C1307.77 220.753 1307.45 220.966 1307.2 221.244C1306.97 221.517 1306.85 221.881 1306.85 222.335C1306.85 222.966 1307.08 223.443 1307.54 223.767C1308.01 224.085 1308.6 224.244 1309.33 224.244ZM1324.02 212.909V214.955H1316.87V212.909H1324.02ZM1318.78 209.773H1321.33V222.156C1321.33 222.651 1321.41 223.023 1321.55 223.273C1321.7 223.517 1321.89 223.685 1322.12 223.776C1322.36 223.861 1322.62 223.903 1322.9 223.903C1323.11 223.903 1323.28 223.889 1323.44 223.861C1323.59 223.832 1323.71 223.81 1323.8 223.793L1324.26 225.898C1324.11 225.955 1323.9 226.011 1323.62 226.068C1323.35 226.131 1323.01 226.165 1322.6 226.17C1321.93 226.182 1321.31 226.062 1320.73 225.812C1320.15 225.562 1319.68 225.176 1319.32 224.653C1318.96 224.131 1318.78 223.474 1318.78 222.685V209.773ZM1326.12 226V212.909H1328.66V226H1326.12ZM1327.4 210.889C1326.96 210.889 1326.58 210.741 1326.26 210.446C1325.95 210.145 1325.79 209.787 1325.79 209.372C1325.79 208.952 1325.95 208.594 1326.26 208.298C1326.58 207.997 1326.96 207.847 1327.4 207.847C1327.85 207.847 1328.22 207.997 1328.54 208.298C1328.85 208.594 1329.01 208.952 1329.01 209.372C1329.01 209.787 1328.85 210.145 1328.54 210.446C1328.22 210.741 1327.85 210.889 1327.4 210.889ZM1336.89 226.264C1335.66 226.264 1334.59 225.983 1333.67 225.42C1332.76 224.858 1332.05 224.071 1331.54 223.06C1331.04 222.048 1330.78 220.866 1330.78 219.514C1330.78 218.156 1331.04 216.969 1331.54 215.952C1332.05 214.935 1332.76 214.145 1333.67 213.582C1334.59 213.02 1335.66 212.739 1336.89 212.739C1338.11 212.739 1339.18 213.02 1340.1 213.582C1341.01 214.145 1341.72 214.935 1342.23 215.952C1342.74 216.969 1342.99 218.156 1342.99 219.514C1342.99 220.866 1342.74 222.048 1342.23 223.06C1341.72 224.071 1341.01 224.858 1340.1 225.42C1339.18 225.983 1338.11 226.264 1336.89 226.264ZM1336.9 224.125C1337.69 224.125 1338.35 223.915 1338.87 223.494C1339.4 223.074 1339.78 222.514 1340.03 221.815C1340.29 221.116 1340.42 220.347 1340.42 219.506C1340.42 218.67 1340.29 217.903 1340.03 217.205C1339.78 216.5 1339.4 215.935 1338.87 215.509C1338.35 215.082 1337.69 214.869 1336.9 214.869C1336.09 214.869 1335.43 215.082 1334.9 215.509C1334.38 215.935 1333.99 216.5 1333.73 217.205C1333.48 217.903 1333.36 218.67 1333.36 219.506C1333.36 220.347 1333.48 221.116 1333.73 221.815C1333.99 222.514 1334.38 223.074 1334.9 223.494C1335.43 223.915 1336.09 224.125 1336.9 224.125ZM1347.66 218.227V226H1345.11V212.909H1347.56V215.04H1347.72C1348.02 214.347 1348.49 213.79 1349.14 213.369C1349.78 212.949 1350.6 212.739 1351.58 212.739C1352.47 212.739 1353.26 212.926 1353.93 213.301C1354.6 213.67 1355.12 214.222 1355.49 214.955C1355.85 215.687 1356.04 216.594 1356.04 217.673V226H1353.49V217.98C1353.49 217.031 1353.24 216.29 1352.75 215.756C1352.26 215.216 1351.58 214.946 1350.71 214.946C1350.12 214.946 1349.6 215.074 1349.14 215.33C1348.68 215.585 1348.32 215.96 1348.05 216.455C1347.79 216.943 1347.66 217.534 1347.66 218.227ZM1257.31 251.264C1256.05 251.264 1254.96 250.977 1254.04 250.403C1253.13 249.824 1252.43 249.026 1251.94 248.009C1251.46 246.991 1251.21 245.827 1251.21 244.514C1251.21 243.185 1251.46 242.011 1251.96 240.994C1252.46 239.972 1253.17 239.173 1254.08 238.599C1254.98 238.026 1256.06 237.739 1257.29 237.739C1258.28 237.739 1259.17 237.923 1259.95 238.293C1260.73 238.656 1261.35 239.168 1261.83 239.827C1262.31 240.486 1262.6 241.256 1262.69 242.136H1260.21C1260.08 241.523 1259.76 240.994 1259.27 240.551C1258.79 240.108 1258.14 239.886 1257.33 239.886C1256.62 239.886 1256 240.074 1255.46 240.449C1254.94 240.818 1254.52 241.347 1254.23 242.034C1253.93 242.716 1253.79 243.523 1253.79 244.455C1253.79 245.409 1253.93 246.233 1254.22 246.926C1254.51 247.619 1254.92 248.156 1255.45 248.537C1255.98 248.918 1256.61 249.108 1257.33 249.108C1257.81 249.108 1258.25 249.02 1258.64 248.844C1259.04 248.662 1259.37 248.403 1259.64 248.068C1259.91 247.733 1260.1 247.33 1260.21 246.858H1262.69C1262.6 247.705 1262.33 248.46 1261.87 249.125C1261.4 249.79 1260.79 250.312 1260.02 250.693C1259.25 251.074 1258.35 251.264 1257.31 251.264ZM1270.21 251.264C1268.98 251.264 1267.91 250.983 1267 250.42C1266.08 249.858 1265.37 249.071 1264.87 248.06C1264.36 247.048 1264.11 245.866 1264.11 244.514C1264.11 243.156 1264.36 241.969 1264.87 240.952C1265.37 239.935 1266.08 239.145 1267 238.582C1267.91 238.02 1268.98 237.739 1270.21 237.739C1271.44 237.739 1272.51 238.02 1273.42 238.582C1274.34 239.145 1275.05 239.935 1275.55 240.952C1276.06 241.969 1276.31 243.156 1276.31 244.514C1276.31 245.866 1276.06 247.048 1275.55 248.06C1275.05 249.071 1274.34 249.858 1273.42 250.42C1272.51 250.983 1271.44 251.264 1270.21 251.264ZM1270.22 249.125C1271.02 249.125 1271.67 248.915 1272.2 248.494C1272.72 248.074 1273.11 247.514 1273.36 246.815C1273.61 246.116 1273.74 245.347 1273.74 244.506C1273.74 243.67 1273.61 242.903 1273.36 242.205C1273.11 241.5 1272.72 240.935 1272.2 240.509C1271.67 240.082 1271.02 239.869 1270.22 239.869C1269.42 239.869 1268.75 240.082 1268.23 240.509C1267.7 240.935 1267.31 241.5 1267.06 242.205C1266.81 242.903 1266.68 243.67 1266.68 244.506C1266.68 245.347 1266.81 246.116 1267.06 246.815C1267.31 247.514 1267.7 248.074 1268.23 248.494C1268.75 248.915 1269.42 249.125 1270.22 249.125ZM1280.99 243.227V251H1278.44V237.909H1280.88V240.04H1281.05C1281.35 239.347 1281.82 238.79 1282.46 238.369C1283.11 237.949 1283.92 237.739 1284.91 237.739C1285.8 237.739 1286.58 237.926 1287.25 238.301C1287.92 238.67 1288.44 239.222 1288.81 239.955C1289.18 240.687 1289.36 241.594 1289.36 242.673V251H1286.82V242.98C1286.82 242.031 1286.57 241.29 1286.07 240.756C1285.58 240.216 1284.9 239.946 1284.04 239.946C1283.45 239.946 1282.92 240.074 1282.46 240.33C1282.01 240.585 1281.65 240.96 1281.38 241.455C1281.12 241.943 1280.99 242.534 1280.99 243.227ZM1298.17 237.909V239.955H1291.02V237.909H1298.17ZM1292.94 234.773H1295.49V247.156C1295.49 247.651 1295.56 248.023 1295.71 248.273C1295.86 248.517 1296.05 248.685 1296.28 248.776C1296.52 248.861 1296.78 248.903 1297.06 248.903C1297.26 248.903 1297.44 248.889 1297.59 248.861C1297.75 248.832 1297.87 248.81 1297.95 248.793L1298.41 250.898C1298.26 250.955 1298.05 251.011 1297.78 251.068C1297.51 251.131 1297.17 251.165 1296.76 251.17C1296.09 251.182 1295.46 251.062 1294.88 250.812C1294.3 250.562 1293.83 250.176 1293.48 249.653C1293.12 249.131 1292.94 248.474 1292.94 247.685V234.773ZM1300.27 251V237.909H1302.73V239.989H1302.87C1303.11 239.284 1303.53 238.73 1304.13 238.327C1304.74 237.918 1305.43 237.713 1306.19 237.713C1306.35 237.713 1306.54 237.719 1306.76 237.73C1306.98 237.741 1307.15 237.756 1307.28 237.773V240.21C1307.17 240.182 1306.99 240.151 1306.73 240.116C1306.47 240.077 1306.21 240.057 1305.95 240.057C1305.35 240.057 1304.81 240.185 1304.34 240.44C1303.87 240.69 1303.5 241.04 1303.23 241.489C1302.96 241.932 1302.82 242.437 1302.82 243.006V251H1300.27ZM1312.45 251.29C1311.63 251.29 1310.88 251.136 1310.2 250.83C1309.53 250.517 1309 250.065 1308.61 249.474C1308.22 248.884 1308.03 248.159 1308.03 247.301C1308.03 246.562 1308.17 245.955 1308.46 245.477C1308.74 245 1309.13 244.622 1309.61 244.344C1310.09 244.065 1310.63 243.855 1311.23 243.713C1311.82 243.571 1312.43 243.463 1313.05 243.389C1313.84 243.298 1314.47 243.224 1314.96 243.168C1315.45 243.105 1315.8 243.006 1316.03 242.869C1316.25 242.733 1316.36 242.511 1316.36 242.205V242.145C1316.36 241.401 1316.15 240.824 1315.73 240.415C1315.31 240.006 1314.69 239.801 1313.87 239.801C1313.01 239.801 1312.34 239.991 1311.84 240.372C1311.35 240.747 1311.01 241.165 1310.83 241.625L1308.43 241.08C1308.72 240.284 1309.13 239.642 1309.68 239.153C1310.23 238.659 1310.86 238.301 1311.58 238.08C1312.29 237.852 1313.05 237.739 1313.84 237.739C1314.36 237.739 1314.91 237.801 1315.5 237.926C1316.09 238.045 1316.64 238.267 1317.15 238.591C1317.67 238.915 1318.09 239.378 1318.42 239.98C1318.75 240.577 1318.92 241.352 1318.92 242.307V251H1316.43V249.21H1316.32C1316.16 249.54 1315.91 249.864 1315.58 250.182C1315.25 250.5 1314.83 250.764 1314.31 250.974C1313.8 251.185 1313.18 251.29 1312.45 251.29ZM1313.01 249.244C1313.71 249.244 1314.32 249.105 1314.82 248.827C1315.32 248.548 1315.7 248.185 1315.97 247.736C1316.23 247.281 1316.37 246.795 1316.37 246.278V244.591C1316.28 244.682 1316.1 244.767 1315.84 244.847C1315.58 244.92 1315.29 244.986 1314.96 245.043C1314.63 245.094 1314.31 245.142 1314 245.188C1313.68 245.227 1313.42 245.261 1313.21 245.29C1312.72 245.352 1312.27 245.457 1311.86 245.605C1311.45 245.753 1311.13 245.966 1310.89 246.244C1310.65 246.517 1310.53 246.881 1310.53 247.335C1310.53 247.966 1310.76 248.443 1311.23 248.767C1311.69 249.085 1312.29 249.244 1313.01 249.244ZM1327.1 251.264C1325.84 251.264 1324.75 250.977 1323.83 250.403C1322.92 249.824 1322.22 249.026 1321.73 248.009C1321.25 246.991 1321 245.827 1321 244.514C1321 243.185 1321.25 242.011 1321.75 240.994C1322.25 239.972 1322.96 239.173 1323.86 238.599C1324.77 238.026 1325.84 237.739 1327.08 237.739C1328.07 237.739 1328.96 237.923 1329.74 238.293C1330.52 238.656 1331.14 239.168 1331.62 239.827C1332.1 240.486 1332.39 241.256 1332.48 242.136H1330C1329.86 241.523 1329.55 240.994 1329.06 240.551C1328.58 240.108 1327.93 239.886 1327.12 239.886C1326.41 239.886 1325.79 240.074 1325.25 240.449C1324.73 240.818 1324.31 241.347 1324.02 242.034C1323.72 242.716 1323.58 243.523 1323.58 244.455C1323.58 245.409 1323.72 246.233 1324.01 246.926C1324.3 247.619 1324.71 248.156 1325.24 248.537C1325.77 248.918 1326.4 249.108 1327.12 249.108C1327.6 249.108 1328.04 249.02 1328.43 248.844C1328.83 248.662 1329.16 248.403 1329.43 248.068C1329.7 247.733 1329.89 247.33 1330 246.858H1332.48C1332.39 247.705 1332.11 248.46 1331.65 249.125C1331.19 249.79 1330.58 250.312 1329.81 250.693C1329.04 251.074 1328.14 251.264 1327.1 251.264ZM1340.6 237.909V239.955H1333.45V237.909H1340.6ZM1335.36 234.773H1337.91V247.156C1337.91 247.651 1337.99 248.023 1338.13 248.273C1338.28 248.517 1338.47 248.685 1338.71 248.776C1338.94 248.861 1339.2 248.903 1339.48 248.903C1339.69 248.903 1339.86 248.889 1340.02 248.861C1340.17 248.832 1340.29 248.81 1340.38 248.793L1340.84 250.898C1340.69 250.955 1340.48 251.011 1340.21 251.068C1339.93 251.131 1339.59 251.165 1339.18 251.17C1338.51 251.182 1337.89 251.062 1337.31 250.812C1336.73 250.562 1336.26 250.176 1335.9 249.653C1335.54 249.131 1335.36 248.474 1335.36 247.685V234.773Z" fill="white"/>
<path d="M375.235 230.264C373.945 230.264 372.834 229.989 371.902 229.438C370.976 228.881 370.26 228.099 369.755 227.094C369.255 226.082 369.005 224.898 369.005 223.54C369.005 222.199 369.255 221.017 369.755 219.994C370.26 218.972 370.965 218.173 371.868 217.599C372.777 217.026 373.84 216.739 375.056 216.739C375.795 216.739 376.51 216.861 377.204 217.105C377.897 217.349 378.519 217.733 379.07 218.256C379.621 218.778 380.056 219.457 380.374 220.293C380.692 221.122 380.851 222.131 380.851 223.318V224.222H370.445V222.312H378.354C378.354 221.642 378.218 221.048 377.945 220.531C377.672 220.009 377.289 219.597 376.795 219.295C376.306 218.994 375.732 218.844 375.073 218.844C374.357 218.844 373.732 219.02 373.198 219.372C372.67 219.719 372.26 220.173 371.971 220.736C371.687 221.293 371.545 221.898 371.545 222.551V224.043C371.545 224.918 371.698 225.662 372.005 226.276C372.317 226.889 372.752 227.358 373.309 227.682C373.866 228 374.516 228.159 375.26 228.159C375.743 228.159 376.184 228.091 376.581 227.955C376.979 227.812 377.323 227.602 377.613 227.324C377.902 227.045 378.124 226.702 378.277 226.293L380.689 226.727C380.496 227.437 380.15 228.06 379.65 228.594C379.155 229.122 378.533 229.534 377.783 229.83C377.039 230.119 376.189 230.264 375.235 230.264ZM384.665 216.909L387.555 222.006L390.469 216.909H393.256L389.174 223.455L393.29 230H390.503L387.555 225.108L384.614 230H381.819L385.893 223.455L381.87 216.909H384.665ZM401.264 216.909V218.955H394.113V216.909H401.264ZM396.031 213.773H398.579V226.156C398.579 226.651 398.653 227.023 398.801 227.273C398.948 227.517 399.139 227.685 399.372 227.776C399.61 227.861 399.869 227.903 400.147 227.903C400.352 227.903 400.531 227.889 400.684 227.861C400.837 227.832 400.957 227.81 401.042 227.793L401.502 229.898C401.355 229.955 401.144 230.011 400.872 230.068C400.599 230.131 400.258 230.165 399.849 230.17C399.178 230.182 398.553 230.062 397.974 229.812C397.394 229.562 396.926 229.176 396.568 228.653C396.21 228.131 396.031 227.474 396.031 226.685V213.773ZM408.864 230.264C407.574 230.264 406.463 229.989 405.532 229.438C404.605 228.881 403.889 228.099 403.384 227.094C402.884 226.082 402.634 224.898 402.634 223.54C402.634 222.199 402.884 221.017 403.384 219.994C403.889 218.972 404.594 218.173 405.497 217.599C406.407 217.026 407.469 216.739 408.685 216.739C409.424 216.739 410.139 216.861 410.833 217.105C411.526 217.349 412.148 217.733 412.699 218.256C413.25 218.778 413.685 219.457 414.003 220.293C414.321 221.122 414.48 222.131 414.48 223.318V224.222H404.074V222.312H411.983C411.983 221.642 411.847 221.048 411.574 220.531C411.301 220.009 410.918 219.597 410.424 219.295C409.935 218.994 409.361 218.844 408.702 218.844C407.986 218.844 407.361 219.02 406.827 219.372C406.299 219.719 405.889 220.173 405.6 220.736C405.316 221.293 405.174 221.898 405.174 222.551V224.043C405.174 224.918 405.327 225.662 405.634 226.276C405.946 226.889 406.381 227.358 406.938 227.682C407.495 228 408.145 228.159 408.889 228.159C409.372 228.159 409.813 228.091 410.211 227.955C410.608 227.812 410.952 227.602 411.242 227.324C411.532 227.045 411.753 226.702 411.907 226.293L414.318 226.727C414.125 227.437 413.779 228.06 413.279 228.594C412.784 229.122 412.162 229.534 411.412 229.83C410.668 230.119 409.818 230.264 408.864 230.264ZM416.588 230V216.909H419.051V218.989H419.187C419.426 218.284 419.846 217.73 420.449 217.327C421.057 216.918 421.744 216.713 422.511 216.713C422.67 216.713 422.858 216.719 423.074 216.73C423.295 216.741 423.468 216.756 423.593 216.773V219.21C423.491 219.182 423.309 219.151 423.048 219.116C422.787 219.077 422.525 219.057 422.264 219.057C421.662 219.057 421.125 219.185 420.653 219.44C420.187 219.69 419.818 220.04 419.545 220.489C419.272 220.932 419.136 221.437 419.136 222.006V230H416.588ZM427.627 222.227V230H425.079V216.909H427.525V219.04H427.687C427.988 218.347 428.459 217.79 429.101 217.369C429.749 216.949 430.565 216.739 431.547 216.739C432.44 216.739 433.221 216.926 433.891 217.301C434.562 217.67 435.082 218.222 435.451 218.955C435.82 219.687 436.005 220.594 436.005 221.673V230H433.457V221.98C433.457 221.031 433.209 220.29 432.715 219.756C432.221 219.216 431.542 218.946 430.678 218.946C430.087 218.946 429.562 219.074 429.101 219.33C428.647 219.585 428.286 219.96 428.019 220.455C427.758 220.943 427.627 221.534 427.627 222.227ZM442.512 230.29C441.683 230.29 440.933 230.136 440.262 229.83C439.592 229.517 439.06 229.065 438.668 228.474C438.282 227.884 438.089 227.159 438.089 226.301C438.089 225.562 438.231 224.955 438.515 224.477C438.799 224 439.183 223.622 439.666 223.344C440.149 223.065 440.688 222.855 441.285 222.713C441.881 222.571 442.489 222.463 443.109 222.389C443.893 222.298 444.529 222.224 445.018 222.168C445.506 222.105 445.862 222.006 446.083 221.869C446.305 221.733 446.416 221.511 446.416 221.205V221.145C446.416 220.401 446.205 219.824 445.785 219.415C445.37 219.006 444.751 218.801 443.927 218.801C443.069 218.801 442.393 218.991 441.899 219.372C441.41 219.747 441.072 220.165 440.884 220.625L438.489 220.08C438.774 219.284 439.188 218.642 439.734 218.153C440.285 217.659 440.918 217.301 441.634 217.08C442.35 216.852 443.103 216.739 443.893 216.739C444.416 216.739 444.97 216.801 445.555 216.926C446.146 217.045 446.697 217.267 447.208 217.591C447.725 217.915 448.149 218.378 448.478 218.98C448.808 219.577 448.972 220.352 448.972 221.307V230H446.484V228.21H446.381C446.217 228.54 445.97 228.864 445.64 229.182C445.31 229.5 444.887 229.764 444.37 229.974C443.853 230.185 443.234 230.29 442.512 230.29ZM443.066 228.244C443.771 228.244 444.373 228.105 444.873 227.827C445.379 227.548 445.762 227.185 446.024 226.736C446.291 226.281 446.424 225.795 446.424 225.278V223.591C446.333 223.682 446.157 223.767 445.896 223.847C445.64 223.92 445.347 223.986 445.018 224.043C444.688 224.094 444.367 224.142 444.055 224.188C443.742 224.227 443.481 224.261 443.271 224.29C442.776 224.352 442.325 224.457 441.916 224.605C441.512 224.753 441.188 224.966 440.944 225.244C440.705 225.517 440.586 225.881 440.586 226.335C440.586 226.966 440.819 227.443 441.285 227.767C441.751 228.085 442.345 228.244 443.066 228.244ZM454.195 212.545V230H451.647V212.545H454.195ZM360.482 245.105L358.172 245.514C358.076 245.219 357.922 244.937 357.712 244.67C357.507 244.403 357.229 244.185 356.877 244.014C356.524 243.844 356.084 243.759 355.556 243.759C354.834 243.759 354.232 243.92 353.749 244.244C353.266 244.562 353.024 244.974 353.024 245.48C353.024 245.918 353.186 246.27 353.51 246.537C353.834 246.804 354.357 247.023 355.078 247.193L357.158 247.67C358.363 247.949 359.26 248.378 359.851 248.957C360.442 249.537 360.738 250.29 360.738 251.216C360.738 252 360.51 252.699 360.056 253.312C359.607 253.92 358.979 254.398 358.172 254.744C357.371 255.091 356.442 255.264 355.385 255.264C353.919 255.264 352.723 254.952 351.797 254.327C350.871 253.696 350.303 252.801 350.093 251.642L352.556 251.267C352.709 251.909 353.024 252.395 353.502 252.724C353.979 253.048 354.601 253.21 355.368 253.21C356.203 253.21 356.871 253.037 357.371 252.69C357.871 252.338 358.121 251.909 358.121 251.403C358.121 250.994 357.968 250.651 357.661 250.372C357.36 250.094 356.897 249.884 356.272 249.741L354.056 249.256C352.834 248.977 351.931 248.534 351.345 247.926C350.766 247.318 350.476 246.548 350.476 245.616C350.476 244.844 350.692 244.168 351.124 243.588C351.556 243.009 352.152 242.557 352.914 242.233C353.675 241.903 354.547 241.739 355.53 241.739C356.945 241.739 358.059 242.045 358.871 242.659C359.684 243.267 360.22 244.082 360.482 245.105ZM362.819 255V241.909H365.368V255H362.819ZM364.106 239.889C363.663 239.889 363.282 239.741 362.964 239.446C362.652 239.145 362.496 238.787 362.496 238.372C362.496 237.952 362.652 237.594 362.964 237.298C363.282 236.997 363.663 236.847 364.106 236.847C364.549 236.847 364.927 236.997 365.24 237.298C365.558 237.594 365.717 237.952 365.717 238.372C365.717 238.787 365.558 239.145 365.24 239.446C364.927 239.741 364.549 239.889 364.106 239.889ZM373.565 260.182C372.525 260.182 371.63 260.045 370.88 259.773C370.136 259.5 369.528 259.139 369.056 258.69C368.584 258.241 368.232 257.75 367.999 257.216L370.19 256.312C370.343 256.562 370.548 256.827 370.803 257.105C371.065 257.389 371.417 257.631 371.86 257.83C372.309 258.028 372.886 258.128 373.59 258.128C374.556 258.128 375.354 257.892 375.985 257.42C376.616 256.955 376.931 256.21 376.931 255.188V252.614H376.769C376.616 252.892 376.394 253.202 376.104 253.543C375.82 253.884 375.428 254.179 374.928 254.429C374.428 254.679 373.778 254.804 372.977 254.804C371.942 254.804 371.011 254.562 370.181 254.08C369.357 253.591 368.704 252.872 368.221 251.923C367.744 250.969 367.505 249.795 367.505 248.403C367.505 247.011 367.741 245.818 368.212 244.824C368.69 243.83 369.343 243.068 370.173 242.54C371.002 242.006 371.942 241.739 372.994 241.739C373.806 241.739 374.462 241.875 374.962 242.148C375.462 242.415 375.852 242.727 376.13 243.085C376.414 243.443 376.633 243.759 376.786 244.031H376.974V241.909H379.471V255.29C379.471 256.415 379.209 257.338 378.687 258.06C378.164 258.781 377.457 259.315 376.565 259.662C375.678 260.009 374.678 260.182 373.565 260.182ZM373.539 252.69C374.272 252.69 374.891 252.52 375.397 252.179C375.908 251.832 376.295 251.338 376.556 250.696C376.823 250.048 376.957 249.273 376.957 248.369C376.957 247.489 376.826 246.713 376.565 246.043C376.303 245.372 375.92 244.849 375.414 244.474C374.908 244.094 374.283 243.903 373.539 243.903C372.772 243.903 372.133 244.102 371.621 244.5C371.11 244.892 370.724 245.426 370.462 246.102C370.207 246.778 370.079 247.534 370.079 248.369C370.079 249.227 370.209 249.98 370.471 250.628C370.732 251.276 371.119 251.781 371.63 252.145C372.147 252.509 372.783 252.69 373.539 252.69ZM384.717 247.227V255H382.168V241.909H384.614V244.04H384.776C385.078 243.347 385.549 242.79 386.191 242.369C386.839 241.949 387.654 241.739 388.637 241.739C389.529 241.739 390.31 241.926 390.981 242.301C391.651 242.67 392.171 243.222 392.541 243.955C392.91 244.687 393.095 245.594 393.095 246.673V255H390.546V246.98C390.546 246.031 390.299 245.29 389.805 244.756C389.31 244.216 388.632 243.946 387.768 243.946C387.177 243.946 386.651 244.074 386.191 244.33C385.737 244.585 385.376 244.96 385.109 245.455C384.847 245.943 384.717 246.534 384.717 247.227ZM401.434 255.264C400.144 255.264 399.034 254.989 398.102 254.438C397.176 253.881 396.46 253.099 395.954 252.094C395.454 251.082 395.204 249.898 395.204 248.54C395.204 247.199 395.454 246.017 395.954 244.994C396.46 243.972 397.164 243.173 398.068 242.599C398.977 242.026 400.039 241.739 401.255 241.739C401.994 241.739 402.71 241.861 403.403 242.105C404.096 242.349 404.718 242.733 405.269 243.256C405.821 243.778 406.255 244.457 406.573 245.293C406.892 246.122 407.051 247.131 407.051 248.318V249.222H396.644V247.312H404.554C404.554 246.642 404.417 246.048 404.144 245.531C403.872 245.009 403.488 244.597 402.994 244.295C402.505 243.994 401.931 243.844 401.272 243.844C400.556 243.844 399.931 244.02 399.397 244.372C398.869 244.719 398.46 245.173 398.17 245.736C397.886 246.293 397.744 246.898 397.744 247.551V249.043C397.744 249.918 397.897 250.662 398.204 251.276C398.517 251.889 398.951 252.358 399.508 252.682C400.065 253 400.715 253.159 401.46 253.159C401.943 253.159 402.383 253.091 402.781 252.955C403.179 252.812 403.522 252.602 403.812 252.324C404.102 252.045 404.323 251.702 404.477 251.293L406.889 251.727C406.696 252.437 406.349 253.06 405.849 253.594C405.355 254.122 404.733 254.534 403.983 254.83C403.238 255.119 402.389 255.264 401.434 255.264ZM414.059 255.256C413.002 255.256 412.059 254.986 411.229 254.446C410.405 253.901 409.758 253.125 409.286 252.119C408.82 251.108 408.587 249.895 408.587 248.48C408.587 247.065 408.823 245.855 409.294 244.849C409.772 243.844 410.425 243.074 411.255 242.54C412.084 242.006 413.025 241.739 414.076 241.739C414.888 241.739 415.542 241.875 416.036 242.148C416.536 242.415 416.922 242.727 417.195 243.085C417.473 243.443 417.689 243.759 417.843 244.031H417.996V237.545H420.544V255H418.056V252.963H417.843C417.689 253.241 417.468 253.56 417.178 253.918C416.894 254.276 416.502 254.588 416.002 254.855C415.502 255.122 414.854 255.256 414.059 255.256ZM414.621 253.082C415.354 253.082 415.973 252.889 416.479 252.503C416.991 252.111 417.377 251.568 417.638 250.875C417.905 250.182 418.039 249.375 418.039 248.455C418.039 247.545 417.908 246.75 417.647 246.068C417.385 245.386 417.002 244.855 416.496 244.474C415.991 244.094 415.366 243.903 414.621 243.903C413.854 243.903 413.215 244.102 412.704 244.5C412.192 244.898 411.806 245.44 411.544 246.128C411.289 246.815 411.161 247.591 411.161 248.455C411.161 249.33 411.292 250.116 411.553 250.815C411.814 251.514 412.201 252.068 412.712 252.477C413.229 252.881 413.866 253.082 414.621 253.082ZM429.093 255V241.909H431.539V244.04H431.701C431.974 243.318 432.42 242.756 433.039 242.352C433.658 241.943 434.4 241.739 435.264 241.739C436.139 241.739 436.872 241.943 437.462 242.352C438.059 242.761 438.499 243.324 438.783 244.04H438.92C439.232 243.341 439.729 242.784 440.411 242.369C441.093 241.949 441.906 241.739 442.849 241.739C444.036 241.739 445.005 242.111 445.755 242.855C446.511 243.599 446.889 244.722 446.889 246.222V255H444.34V246.46C444.34 245.574 444.099 244.932 443.616 244.534C443.133 244.136 442.556 243.938 441.886 243.938C441.056 243.938 440.411 244.193 439.951 244.705C439.491 245.21 439.261 245.861 439.261 246.656V255H436.721V246.298C436.721 245.588 436.499 245.017 436.056 244.585C435.613 244.153 435.036 243.938 434.326 243.938C433.843 243.938 433.397 244.065 432.988 244.321C432.585 244.571 432.258 244.92 432.008 245.369C431.764 245.818 431.641 246.338 431.641 246.929V255H429.093ZM459.394 245.105L457.084 245.514C456.987 245.219 456.834 244.937 456.624 244.67C456.419 244.403 456.141 244.185 455.789 244.014C455.436 243.844 454.996 243.759 454.468 243.759C453.746 243.759 453.144 243.92 452.661 244.244C452.178 244.562 451.936 244.974 451.936 245.48C451.936 245.918 452.098 246.27 452.422 246.537C452.746 246.804 453.269 247.023 453.99 247.193L456.07 247.67C457.274 247.949 458.172 248.378 458.763 248.957C459.354 249.537 459.649 250.29 459.649 251.216C459.649 252 459.422 252.699 458.968 253.312C458.519 253.92 457.891 254.398 457.084 254.744C456.283 255.091 455.354 255.264 454.297 255.264C452.831 255.264 451.635 254.952 450.709 254.327C449.783 253.696 449.215 252.801 449.005 251.642L451.468 251.267C451.621 251.909 451.936 252.395 452.414 252.724C452.891 253.048 453.513 253.21 454.28 253.21C455.115 253.21 455.783 253.037 456.283 252.69C456.783 252.338 457.033 251.909 457.033 251.403C457.033 250.994 456.88 250.651 456.573 250.372C456.272 250.094 455.808 249.884 455.183 249.741L452.968 249.256C451.746 248.977 450.843 248.534 450.257 247.926C449.678 247.318 449.388 246.548 449.388 245.616C449.388 244.844 449.604 244.168 450.036 243.588C450.468 243.009 451.064 242.557 451.826 242.233C452.587 241.903 453.459 241.739 454.442 241.739C455.857 241.739 456.97 242.045 457.783 242.659C458.595 243.267 459.132 244.082 459.394 245.105ZM467.22 260.182C466.18 260.182 465.285 260.045 464.535 259.773C463.791 259.5 463.183 259.139 462.711 258.69C462.24 258.241 461.887 257.75 461.655 257.216L463.845 256.312C463.998 256.562 464.203 256.827 464.459 257.105C464.72 257.389 465.072 257.631 465.515 257.83C465.964 258.028 466.541 258.128 467.245 258.128C468.211 258.128 469.01 257.892 469.64 257.42C470.271 256.955 470.586 256.21 470.586 255.188V252.614H470.424C470.271 252.892 470.049 253.202 469.76 253.543C469.476 253.884 469.084 254.179 468.584 254.429C468.084 254.679 467.433 254.804 466.632 254.804C465.598 254.804 464.666 254.562 463.836 254.08C463.012 253.591 462.359 252.872 461.876 251.923C461.399 250.969 461.16 249.795 461.16 248.403C461.16 247.011 461.396 245.818 461.868 244.824C462.345 243.83 462.998 243.068 463.828 242.54C464.657 242.006 465.598 241.739 466.649 241.739C467.461 241.739 468.118 241.875 468.618 242.148C469.118 242.415 469.507 242.727 469.785 243.085C470.069 243.443 470.288 243.759 470.441 244.031H470.629V241.909H473.126V255.29C473.126 256.415 472.865 257.338 472.342 258.06C471.819 258.781 471.112 259.315 470.22 259.662C469.334 260.009 468.334 260.182 467.22 260.182ZM467.194 252.69C467.927 252.69 468.547 252.52 469.052 252.179C469.564 251.832 469.95 251.338 470.211 250.696C470.478 250.048 470.612 249.273 470.612 248.369C470.612 247.489 470.481 246.713 470.22 246.043C469.959 245.372 469.575 244.849 469.069 244.474C468.564 244.094 467.939 243.903 467.194 243.903C466.427 243.903 465.788 244.102 465.277 244.5C464.765 244.892 464.379 245.426 464.118 246.102C463.862 246.778 463.734 247.534 463.734 248.369C463.734 249.227 463.865 249.98 464.126 250.628C464.387 251.276 464.774 251.781 465.285 252.145C465.802 252.509 466.439 252.69 467.194 252.69Z" fill="white"/>
<path d="M148.602 158H145.806L152.087 140.545H155.13L161.411 158H158.616L153.681 143.716H153.545L148.602 158ZM149.07 151.165H158.139V153.381H149.07V151.165ZM165.556 140.545V158H163.007V140.545H165.556ZM168.264 158V144.909H170.812V158H168.264ZM169.551 142.889C169.108 142.889 168.727 142.741 168.409 142.446C168.096 142.145 167.94 141.787 167.94 141.372C167.94 140.952 168.096 140.594 168.409 140.298C168.727 139.997 169.108 139.847 169.551 139.847C169.994 139.847 170.372 139.997 170.684 140.298C171.002 140.594 171.162 140.952 171.162 141.372C171.162 141.787 171.002 142.145 170.684 142.446C170.372 142.741 169.994 142.889 169.551 142.889ZM179.035 158.264C177.768 158.264 176.677 157.977 175.762 157.403C174.853 156.824 174.154 156.026 173.665 155.009C173.177 153.991 172.932 152.827 172.932 151.514C172.932 150.185 173.182 149.011 173.682 147.994C174.182 146.972 174.887 146.173 175.796 145.599C176.705 145.026 177.776 144.739 179.009 144.739C180.003 144.739 180.89 144.923 181.668 145.293C182.447 145.656 183.074 146.168 183.552 146.827C184.035 147.486 184.322 148.256 184.412 149.136H181.932C181.796 148.523 181.483 147.994 180.995 147.551C180.512 147.108 179.864 146.886 179.052 146.886C178.341 146.886 177.719 147.074 177.185 147.449C176.657 147.818 176.245 148.347 175.949 149.034C175.654 149.716 175.506 150.523 175.506 151.455C175.506 152.409 175.651 153.233 175.941 153.926C176.231 154.619 176.64 155.156 177.168 155.537C177.702 155.918 178.33 156.108 179.052 156.108C179.535 156.108 179.972 156.02 180.364 155.844C180.762 155.662 181.094 155.403 181.361 155.068C181.634 154.733 181.824 154.33 181.932 153.858H184.412C184.322 154.705 184.046 155.46 183.586 156.125C183.126 156.79 182.509 157.312 181.736 157.693C180.969 158.074 180.069 158.264 179.035 158.264ZM192.06 158.264C190.77 158.264 189.659 157.989 188.727 157.438C187.801 156.881 187.085 156.099 186.58 155.094C186.08 154.082 185.83 152.898 185.83 151.54C185.83 150.199 186.08 149.017 186.58 147.994C187.085 146.972 187.79 146.173 188.693 145.599C189.602 145.026 190.665 144.739 191.881 144.739C192.619 144.739 193.335 144.861 194.028 145.105C194.722 145.349 195.344 145.733 195.895 146.256C196.446 146.778 196.881 147.457 197.199 148.293C197.517 149.122 197.676 150.131 197.676 151.318V152.222H187.27V150.312H195.179C195.179 149.642 195.043 149.048 194.77 148.531C194.497 148.009 194.114 147.597 193.619 147.295C193.131 146.994 192.557 146.844 191.898 146.844C191.182 146.844 190.557 147.02 190.023 147.372C189.494 147.719 189.085 148.173 188.795 148.736C188.511 149.293 188.369 149.898 188.369 150.551V152.043C188.369 152.918 188.523 153.662 188.83 154.276C189.142 154.889 189.577 155.358 190.134 155.682C190.69 156 191.341 156.159 192.085 156.159C192.568 156.159 193.009 156.091 193.406 155.955C193.804 155.812 194.148 155.602 194.437 155.324C194.727 155.045 194.949 154.702 195.102 154.293L197.514 154.727C197.321 155.437 196.974 156.06 196.474 156.594C195.98 157.122 195.358 157.534 194.608 157.83C193.864 158.119 193.014 158.264 192.06 158.264Z" fill="white"/>
<path d="M483.895 234L567.895 234" stroke="white" stroke-width="2"/>
<path d="M586.895 234L567.895 240L567.895 228L586.895 234Z" fill="white"/>
<path d="M237.895 234H341.895" stroke="white" stroke-width="2"/>
<path d="M940.857 228V214.909H943.405V228H940.857ZM942.144 212.889C941.7 212.889 941.32 212.741 941.002 212.446C940.689 212.145 940.533 211.787 940.533 211.372C940.533 210.952 940.689 210.594 941.002 210.298C941.32 209.997 941.7 209.847 942.144 209.847C942.587 209.847 942.965 209.997 943.277 210.298C943.595 210.594 943.754 210.952 943.754 211.372C943.754 211.787 943.595 212.145 943.277 212.446C942.965 212.741 942.587 212.889 942.144 212.889ZM948.662 220.227V228H946.113V214.909H948.559V217.04H948.721C949.022 216.347 949.494 215.79 950.136 215.369C950.784 214.949 951.599 214.739 952.582 214.739C953.474 214.739 954.255 214.926 954.926 215.301C955.596 215.67 956.116 216.222 956.485 216.955C956.855 217.687 957.039 218.594 957.039 219.673V228H954.491V219.98C954.491 219.031 954.244 218.29 953.75 217.756C953.255 217.216 952.576 216.946 951.713 216.946C951.122 216.946 950.596 217.074 950.136 217.33C949.681 217.585 949.321 217.96 949.054 218.455C948.792 218.943 948.662 219.534 948.662 220.227ZM965.848 214.909V216.955H958.697V214.909H965.848ZM960.615 211.773H963.163V224.156C963.163 224.651 963.237 225.023 963.385 225.273C963.532 225.517 963.723 225.685 963.956 225.776C964.194 225.861 964.453 225.903 964.731 225.903C964.936 225.903 965.115 225.889 965.268 225.861C965.422 225.832 965.541 225.81 965.626 225.793L966.086 227.898C965.939 227.955 965.728 228.011 965.456 228.068C965.183 228.131 964.842 228.165 964.433 228.17C963.763 228.182 963.138 228.062 962.558 227.812C961.978 227.562 961.51 227.176 961.152 226.653C960.794 226.131 960.615 225.474 960.615 224.685V211.773ZM973.448 228.264C972.158 228.264 971.048 227.989 970.116 227.438C969.19 226.881 968.474 226.099 967.968 225.094C967.468 224.082 967.218 222.898 967.218 221.54C967.218 220.199 967.468 219.017 967.968 217.994C968.474 216.972 969.178 216.173 970.082 215.599C970.991 215.026 972.053 214.739 973.269 214.739C974.008 214.739 974.724 214.861 975.417 215.105C976.11 215.349 976.732 215.733 977.283 216.256C977.834 216.778 978.269 217.457 978.587 218.293C978.905 219.122 979.065 220.131 979.065 221.318V222.222H968.658V220.312H976.567C976.567 219.642 976.431 219.048 976.158 218.531C975.886 218.009 975.502 217.597 975.008 217.295C974.519 216.994 973.945 216.844 973.286 216.844C972.57 216.844 971.945 217.02 971.411 217.372C970.883 217.719 970.474 218.173 970.184 218.736C969.9 219.293 969.758 219.898 969.758 220.551V222.043C969.758 222.918 969.911 223.662 970.218 224.276C970.53 224.889 970.965 225.358 971.522 225.682C972.079 226 972.729 226.159 973.474 226.159C973.957 226.159 974.397 226.091 974.795 225.955C975.192 225.812 975.536 225.602 975.826 225.324C976.116 225.045 976.337 224.702 976.491 224.293L978.903 224.727C978.709 225.437 978.363 226.06 977.863 226.594C977.369 227.122 976.746 227.534 975.996 227.83C975.252 228.119 974.403 228.264 973.448 228.264ZM981.172 228V214.909H983.635V216.989H983.771C984.01 216.284 984.43 215.73 985.033 215.327C985.641 214.918 986.328 214.713 987.095 214.713C987.254 214.713 987.442 214.719 987.658 214.73C987.879 214.741 988.053 214.756 988.178 214.773V217.21C988.075 217.182 987.894 217.151 987.632 217.116C987.371 217.077 987.109 217.057 986.848 217.057C986.246 217.057 985.709 217.185 985.237 217.44C984.771 217.69 984.402 218.04 984.129 218.489C983.857 218.932 983.72 219.437 983.72 220.006V228H981.172ZM992.211 220.227V228H989.663V214.909H992.109V217.04H992.271C992.572 216.347 993.044 215.79 993.686 215.369C994.333 214.949 995.149 214.739 996.132 214.739C997.024 214.739 997.805 214.926 998.475 215.301C999.146 215.67 999.666 216.222 1000.04 216.955C1000.4 217.687 1000.59 218.594 1000.59 219.673V228H998.041V219.98C998.041 219.031 997.794 218.29 997.299 217.756C996.805 217.216 996.126 216.946 995.262 216.946C994.671 216.946 994.146 217.074 993.686 217.33C993.231 217.585 992.87 217.96 992.603 218.455C992.342 218.943 992.211 219.534 992.211 220.227ZM1007.1 228.29C1006.27 228.29 1005.52 228.136 1004.85 227.83C1004.18 227.517 1003.64 227.065 1003.25 226.474C1002.87 225.884 1002.67 225.159 1002.67 224.301C1002.67 223.562 1002.82 222.955 1003.1 222.477C1003.38 222 1003.77 221.622 1004.25 221.344C1004.73 221.065 1005.27 220.855 1005.87 220.713C1006.47 220.571 1007.07 220.463 1007.69 220.389C1008.48 220.298 1009.11 220.224 1009.6 220.168C1010.09 220.105 1010.45 220.006 1010.67 219.869C1010.89 219.733 1011 219.511 1011 219.205V219.145C1011 218.401 1010.79 217.824 1010.37 217.415C1009.95 217.006 1009.33 216.801 1008.51 216.801C1007.65 216.801 1006.98 216.991 1006.48 217.372C1005.99 217.747 1005.66 218.165 1005.47 218.625L1003.07 218.08C1003.36 217.284 1003.77 216.642 1004.32 216.153C1004.87 215.659 1005.5 215.301 1006.22 215.08C1006.93 214.852 1007.69 214.739 1008.48 214.739C1009 214.739 1009.55 214.801 1010.14 214.926C1010.73 215.045 1011.28 215.267 1011.79 215.591C1012.31 215.915 1012.73 216.378 1013.06 216.98C1013.39 217.577 1013.56 218.352 1013.56 219.307V228H1011.07V226.21H1010.97C1010.8 226.54 1010.55 226.864 1010.22 227.182C1009.89 227.5 1009.47 227.764 1008.95 227.974C1008.44 228.185 1007.82 228.29 1007.1 228.29ZM1007.65 226.244C1008.35 226.244 1008.96 226.105 1009.46 225.827C1009.96 225.548 1010.35 225.185 1010.61 224.736C1010.87 224.281 1011.01 223.795 1011.01 223.278V221.591C1010.92 221.682 1010.74 221.767 1010.48 221.847C1010.22 221.92 1009.93 221.986 1009.6 222.043C1009.27 222.094 1008.95 222.142 1008.64 222.188C1008.33 222.227 1008.07 222.261 1007.85 222.29C1007.36 222.352 1006.91 222.457 1006.5 222.605C1006.1 222.753 1005.77 222.966 1005.53 223.244C1005.29 223.517 1005.17 223.881 1005.17 224.335C1005.17 224.966 1005.4 225.443 1005.87 225.767C1006.33 226.085 1006.93 226.244 1007.65 226.244ZM1018.78 210.545V228H1016.23V210.545H1018.78ZM1027.12 228V214.909H1029.56V217.04H1029.73C1030 216.318 1030.45 215.756 1031.06 215.352C1031.68 214.943 1032.43 214.739 1033.29 214.739C1034.16 214.739 1034.9 214.943 1035.49 215.352C1036.08 215.761 1036.53 216.324 1036.81 217.04H1036.95C1037.26 216.341 1037.76 215.784 1038.44 215.369C1039.12 214.949 1039.93 214.739 1040.87 214.739C1042.06 214.739 1043.03 215.111 1043.78 215.855C1044.54 216.599 1044.91 217.722 1044.91 219.222V228H1042.37V219.46C1042.37 218.574 1042.12 217.932 1041.64 217.534C1041.16 217.136 1040.58 216.938 1039.91 216.938C1039.08 216.938 1038.44 217.193 1037.98 217.705C1037.52 218.21 1037.29 218.861 1037.29 219.656V228H1034.75V219.298C1034.75 218.588 1034.53 218.017 1034.08 217.585C1033.64 217.153 1033.06 216.938 1032.35 216.938C1031.87 216.938 1031.42 217.065 1031.01 217.321C1030.61 217.571 1030.28 217.92 1030.03 218.369C1029.79 218.818 1029.67 219.338 1029.67 219.929V228H1027.12ZM1057.42 218.105L1055.11 218.514C1055.01 218.219 1054.86 217.937 1054.65 217.67C1054.45 217.403 1054.17 217.185 1053.81 217.014C1053.46 216.844 1053.02 216.759 1052.49 216.759C1051.77 216.759 1051.17 216.92 1050.69 217.244C1050.2 217.562 1049.96 217.974 1049.96 218.48C1049.96 218.918 1050.12 219.27 1050.45 219.537C1050.77 219.804 1051.29 220.023 1052.02 220.193L1054.1 220.67C1055.3 220.949 1056.2 221.378 1056.79 221.957C1057.38 222.537 1057.68 223.29 1057.68 224.216C1057.68 225 1057.45 225.699 1056.99 226.312C1056.54 226.92 1055.92 227.398 1055.11 227.744C1054.31 228.091 1053.38 228.264 1052.32 228.264C1050.86 228.264 1049.66 227.952 1048.73 227.327C1047.81 226.696 1047.24 225.801 1047.03 224.642L1049.49 224.267C1049.65 224.909 1049.96 225.395 1050.44 225.724C1050.92 226.048 1051.54 226.21 1052.31 226.21C1053.14 226.21 1053.81 226.037 1054.31 225.69C1054.81 225.338 1055.06 224.909 1055.06 224.403C1055.06 223.994 1054.91 223.651 1054.6 223.372C1054.3 223.094 1053.83 222.884 1053.21 222.741L1050.99 222.256C1049.77 221.977 1048.87 221.534 1048.28 220.926C1047.7 220.318 1047.41 219.548 1047.41 218.616C1047.41 217.844 1047.63 217.168 1048.06 216.588C1048.49 216.009 1049.09 215.557 1049.85 215.233C1050.61 214.903 1051.48 214.739 1052.47 214.739C1053.88 214.739 1055 215.045 1055.81 215.659C1056.62 216.267 1057.16 217.082 1057.42 218.105ZM1065.25 233.182C1064.21 233.182 1063.31 233.045 1062.56 232.773C1061.82 232.5 1061.21 232.139 1060.74 231.69C1060.27 231.241 1059.91 230.75 1059.68 230.216L1061.87 229.312C1062.02 229.562 1062.23 229.827 1062.48 230.105C1062.75 230.389 1063.1 230.631 1063.54 230.83C1063.99 231.028 1064.57 231.128 1065.27 231.128C1066.24 231.128 1067.04 230.892 1067.67 230.42C1068.3 229.955 1068.61 229.21 1068.61 228.188V225.614H1068.45C1068.3 225.892 1068.08 226.202 1067.79 226.543C1067.5 226.884 1067.11 227.179 1066.61 227.429C1066.11 227.679 1065.46 227.804 1064.66 227.804C1063.62 227.804 1062.69 227.562 1061.86 227.08C1061.04 226.591 1060.38 225.872 1059.9 224.923C1059.42 223.969 1059.19 222.795 1059.19 221.403C1059.19 220.011 1059.42 218.818 1059.89 217.824C1060.37 216.83 1061.02 216.068 1061.85 215.54C1062.68 215.006 1063.62 214.739 1064.67 214.739C1065.49 214.739 1066.14 214.875 1066.64 215.148C1067.14 215.415 1067.53 215.727 1067.81 216.085C1068.1 216.443 1068.31 216.759 1068.47 217.031H1068.65V214.909H1071.15V228.29C1071.15 229.415 1070.89 230.338 1070.37 231.06C1069.85 231.781 1069.14 232.315 1068.25 232.662C1067.36 233.009 1066.36 233.182 1065.25 233.182ZM1065.22 225.69C1065.95 225.69 1066.57 225.52 1067.08 225.179C1067.59 224.832 1067.98 224.338 1068.24 223.696C1068.5 223.048 1068.64 222.273 1068.64 221.369C1068.64 220.489 1068.51 219.713 1068.25 219.043C1067.98 218.372 1067.6 217.849 1067.1 217.474C1066.59 217.094 1065.96 216.903 1065.22 216.903C1064.45 216.903 1063.81 217.102 1063.3 217.5C1062.79 217.892 1062.4 218.426 1062.14 219.102C1061.89 219.778 1061.76 220.534 1061.76 221.369C1061.76 222.227 1061.89 222.98 1062.15 223.628C1062.41 224.276 1062.8 224.781 1063.31 225.145C1063.83 225.509 1064.46 225.69 1065.22 225.69ZM954.292 253L950.439 239.909H953.073L955.638 249.523H955.766L958.34 239.909H960.974L963.53 249.48H963.658L966.207 239.909H968.84L964.996 253H962.397L959.738 243.548H959.542L956.883 253H954.292ZM985.98 243.105L983.67 243.514C983.573 243.219 983.42 242.937 983.21 242.67C983.005 242.403 982.727 242.185 982.374 242.014C982.022 241.844 981.582 241.759 981.053 241.759C980.332 241.759 979.73 241.92 979.247 242.244C978.764 242.562 978.522 242.974 978.522 243.48C978.522 243.918 978.684 244.27 979.008 244.537C979.332 244.804 979.855 245.023 980.576 245.193L982.656 245.67C983.86 245.949 984.758 246.378 985.349 246.957C985.94 247.537 986.235 248.29 986.235 249.216C986.235 250 986.008 250.699 985.553 251.312C985.105 251.92 984.477 252.398 983.67 252.744C982.869 253.091 981.94 253.264 980.883 253.264C979.417 253.264 978.221 252.952 977.295 252.327C976.369 251.696 975.801 250.801 975.59 249.642L978.053 249.267C978.207 249.909 978.522 250.395 978.999 250.724C979.477 251.048 980.099 251.21 980.866 251.21C981.701 251.21 982.369 251.037 982.869 250.69C983.369 250.338 983.619 249.909 983.619 249.403C983.619 248.994 983.465 248.651 983.159 248.372C982.857 248.094 982.394 247.884 981.769 247.741L979.553 247.256C978.332 246.977 977.428 246.534 976.843 245.926C976.264 245.318 975.974 244.548 975.974 243.616C975.974 242.844 976.19 242.168 976.622 241.588C977.053 241.009 977.65 240.557 978.411 240.233C979.173 239.903 980.045 239.739 981.028 239.739C982.443 239.739 983.556 240.045 984.369 240.659C985.181 241.267 985.718 242.082 985.98 243.105ZM994.428 239.909V241.955H987.277V239.909H994.428ZM989.195 236.773H991.743V249.156C991.743 249.651 991.817 250.023 991.965 250.273C992.113 250.517 992.303 250.685 992.536 250.776C992.775 250.861 993.033 250.903 993.311 250.903C993.516 250.903 993.695 250.889 993.848 250.861C994.002 250.832 994.121 250.81 994.206 250.793L994.667 252.898C994.519 252.955 994.309 253.011 994.036 253.068C993.763 253.131 993.422 253.165 993.013 253.17C992.343 253.182 991.718 253.062 991.138 252.812C990.559 252.562 990.09 252.176 989.732 251.653C989.374 251.131 989.195 250.474 989.195 249.685V236.773ZM1000.34 253.29C999.507 253.29 998.757 253.136 998.086 252.83C997.416 252.517 996.885 252.065 996.493 251.474C996.106 250.884 995.913 250.159 995.913 249.301C995.913 248.562 996.055 247.955 996.339 247.477C996.623 247 997.007 246.622 997.49 246.344C997.973 246.065 998.513 245.855 999.109 245.713C999.706 245.571 1000.31 245.463 1000.93 245.389C1001.72 245.298 1002.35 245.224 1002.84 245.168C1003.33 245.105 1003.69 245.006 1003.91 244.869C1004.13 244.733 1004.24 244.511 1004.24 244.205V244.145C1004.24 243.401 1004.03 242.824 1003.61 242.415C1003.19 242.006 1002.58 241.801 1001.75 241.801C1000.89 241.801 1000.22 241.991 999.723 242.372C999.234 242.747 998.896 243.165 998.709 243.625L996.314 243.08C996.598 242.284 997.013 241.642 997.558 241.153C998.109 240.659 998.743 240.301 999.459 240.08C1000.17 239.852 1000.93 239.739 1001.72 239.739C1002.24 239.739 1002.79 239.801 1003.38 239.926C1003.97 240.045 1004.52 240.267 1005.03 240.591C1005.55 240.915 1005.97 241.378 1006.3 241.98C1006.63 242.577 1006.8 243.352 1006.8 244.307V253H1004.31V251.21H1004.21C1004.04 251.54 1003.79 251.864 1003.46 252.182C1003.13 252.5 1002.71 252.764 1002.19 252.974C1001.68 253.185 1001.06 253.29 1000.34 253.29ZM1000.89 251.244C1001.59 251.244 1002.2 251.105 1002.7 250.827C1003.2 250.548 1003.59 250.185 1003.85 249.736C1004.11 249.281 1004.25 248.795 1004.25 248.278V246.591C1004.16 246.682 1003.98 246.767 1003.72 246.847C1003.46 246.92 1003.17 246.986 1002.84 247.043C1002.51 247.094 1002.19 247.142 1001.88 247.188C1001.57 247.227 1001.31 247.261 1001.09 247.29C1000.6 247.352 1000.15 247.457 999.74 247.605C999.336 247.753 999.013 247.966 998.768 248.244C998.53 248.517 998.41 248.881 998.41 249.335C998.41 249.966 998.643 250.443 999.109 250.767C999.575 251.085 1000.17 251.244 1000.89 251.244ZM1015.58 239.909V241.955H1008.43V239.909H1015.58ZM1010.35 236.773H1012.9V249.156C1012.9 249.651 1012.97 250.023 1013.12 250.273C1013.27 250.517 1013.46 250.685 1013.69 250.776C1013.93 250.861 1014.19 250.903 1014.47 250.903C1014.67 250.903 1014.85 250.889 1015 250.861C1015.16 250.832 1015.27 250.81 1015.36 250.793L1015.82 252.898C1015.67 252.955 1015.46 253.011 1015.19 253.068C1014.92 253.131 1014.58 253.165 1014.17 253.17C1013.5 253.182 1012.87 253.062 1012.29 252.812C1011.71 252.562 1011.24 252.176 1010.89 251.653C1010.53 251.131 1010.35 250.474 1010.35 249.685V236.773ZM1023.18 253.264C1021.89 253.264 1020.78 252.989 1019.85 252.438C1018.92 251.881 1018.21 251.099 1017.7 250.094C1017.2 249.082 1016.95 247.898 1016.95 246.54C1016.95 245.199 1017.2 244.017 1017.7 242.994C1018.21 241.972 1018.91 241.173 1019.82 240.599C1020.72 240.026 1021.79 239.739 1023 239.739C1023.74 239.739 1024.46 239.861 1025.15 240.105C1025.84 240.349 1026.47 240.733 1027.02 241.256C1027.57 241.778 1028 242.457 1028.32 243.293C1028.64 244.122 1028.8 245.131 1028.8 246.318V247.222H1018.39V245.312H1026.3C1026.3 244.642 1026.16 244.048 1025.89 243.531C1025.62 243.009 1025.24 242.597 1024.74 242.295C1024.25 241.994 1023.68 241.844 1023.02 241.844C1022.3 241.844 1021.68 242.02 1021.15 242.372C1020.62 242.719 1020.21 243.173 1019.92 243.736C1019.63 244.293 1019.49 244.898 1019.49 245.551V247.043C1019.49 247.918 1019.65 248.662 1019.95 249.276C1020.26 249.889 1020.7 250.358 1021.26 250.682C1021.81 251 1022.46 251.159 1023.21 251.159C1023.69 251.159 1024.13 251.091 1024.53 250.955C1024.93 250.812 1025.27 250.602 1025.56 250.324C1025.85 250.045 1026.07 249.702 1026.22 249.293L1028.64 249.727C1028.44 250.437 1028.1 251.06 1027.6 251.594C1027.1 252.122 1026.48 252.534 1025.73 252.83C1024.99 253.119 1024.14 253.264 1023.18 253.264ZM1030.91 253V239.909H1033.45V253H1030.91ZM1032.19 237.889C1031.75 237.889 1031.37 237.741 1031.05 237.446C1030.74 237.145 1030.58 236.787 1030.58 236.372C1030.58 235.952 1030.74 235.594 1031.05 235.298C1031.37 234.997 1031.75 234.847 1032.19 234.847C1032.64 234.847 1033.01 234.997 1033.33 235.298C1033.64 235.594 1033.8 235.952 1033.8 236.372C1033.8 236.787 1033.64 237.145 1033.33 237.446C1033.01 237.741 1032.64 237.889 1032.19 237.889ZM1038.71 245.227V253H1036.16V239.909H1038.61V242.04H1038.77C1039.07 241.347 1039.54 240.79 1040.19 240.369C1040.83 239.949 1041.65 239.739 1042.63 239.739C1043.52 239.739 1044.3 239.926 1044.97 240.301C1045.65 240.67 1046.17 241.222 1046.53 241.955C1046.9 242.687 1047.09 243.594 1047.09 244.673V253H1044.54V244.98C1044.54 244.031 1044.29 243.29 1043.8 242.756C1043.3 242.216 1042.63 241.946 1041.76 241.946C1041.17 241.946 1040.65 242.074 1040.19 242.33C1039.73 242.585 1039.37 242.96 1039.1 243.455C1038.84 243.943 1038.71 244.534 1038.71 245.227ZM1049.79 253V239.909H1052.33V253H1049.79ZM1051.07 237.889C1050.63 237.889 1050.25 237.741 1049.93 237.446C1049.62 237.145 1049.46 236.787 1049.46 236.372C1049.46 235.952 1049.62 235.594 1049.93 235.298C1050.25 234.997 1050.63 234.847 1051.07 234.847C1051.52 234.847 1051.89 234.997 1052.21 235.298C1052.52 235.594 1052.68 235.952 1052.68 236.372C1052.68 236.787 1052.52 237.145 1052.21 237.446C1051.89 237.741 1051.52 237.889 1051.07 237.889ZM1061.15 239.909V241.955H1054V239.909H1061.15ZM1055.92 236.773H1058.47V249.156C1058.47 249.651 1058.54 250.023 1058.69 250.273C1058.84 250.517 1059.03 250.685 1059.26 250.776C1059.5 250.861 1059.76 250.903 1060.04 250.903C1060.24 250.903 1060.42 250.889 1060.57 250.861C1060.73 250.832 1060.85 250.81 1060.93 250.793L1061.39 252.898C1061.24 252.955 1061.03 253.011 1060.76 253.068C1060.49 253.131 1060.15 253.165 1059.74 253.17C1059.07 253.182 1058.44 253.062 1057.86 252.812C1057.28 252.562 1056.82 252.176 1056.46 251.653C1056.1 251.131 1055.92 250.474 1055.92 249.685V236.773Z" fill="white"/>
<path d="M1079.89 234L1156.89 234" stroke="white" stroke-width="2"/>
<path d="M1175.89 234L1156.89 240L1156.89 228L1175.89 234Z" fill="white"/>
<path d="M826.895 234H922.895" stroke="white" stroke-width="2"/>
<path d="M171.952 229.059C159.003 229.059 147.831 217.442 147.831 202.525C147.831 187.862 159.003 176.563 171.952 176.563C184.838 176.563 196.01 187.672 196.01 202.462C196.01 217.442 184.901 229.059 171.952 229.059ZM131.708 284.728C125.233 284.728 121.298 281.617 121.298 276.539C121.298 261.114 140.785 239.786 171.889 239.786C203.056 239.786 222.479 261.114 222.479 276.539C222.479 281.617 218.607 284.728 212.069 284.728H131.708Z" fill="white"/>
</g>
<defs>
<clipPath id="clip0_0_10">
<rect width="1495" height="460" fill="white"/>
</clipPath>
</defs>
</svg>
