<svg width="321" height="179" viewBox="0 0 321 179" fill="none" xmlns="http://www.w3.org/2000/svg">
<path d="M108.952 103.059C96.0029 103.059 84.8311 91.4424 84.8311 76.5254C84.8311 61.8623 96.0029 50.5635 108.952 50.5635C121.838 50.5635 133.01 61.6719 133.01 76.4619C133.01 91.4424 121.901 103.059 108.952 103.059ZM68.708 158.728C62.2334 158.728 58.2979 155.617 58.2979 150.539C58.2979 135.114 77.7852 113.786 108.889 113.786C140.056 113.786 159.479 135.114 159.479 150.539C159.479 155.617 155.607 158.728 149.069 158.728H68.708Z" fill="#979EA8"/>
<path d="M88.5772 24H86.9153L91.7221 10.9091H93.3585L98.1653 24H96.5034L92.5914 12.9801H92.4892L88.5772 24ZM89.1909 18.8864H95.8897V20.2926H89.1909V18.8864ZM103.988 24.2045C103.068 24.2045 102.275 23.9872 101.611 23.5526C100.946 23.1179 100.434 22.5192 100.077 21.7564C99.7186 20.9936 99.5396 20.1222 99.5396 19.142C99.5396 18.1449 99.7228 17.2649 100.089 16.5021C100.46 15.7351 100.976 15.1364 101.636 14.706C102.301 14.2713 103.077 14.054 103.963 14.054C104.653 14.054 105.275 14.1818 105.829 14.4375C106.383 14.6932 106.837 15.0511 107.191 15.5114C107.545 15.9716 107.764 16.5085 107.849 17.1222H106.341C106.226 16.6747 105.97 16.2784 105.574 15.9332C105.182 15.5838 104.653 15.4091 103.988 15.4091C103.4 15.4091 102.885 15.5625 102.442 15.8693C102.003 16.1719 101.66 16.6001 101.412 17.1541C101.17 17.7038 101.048 18.3494 101.048 19.0909C101.048 19.8494 101.167 20.5099 101.406 21.0724C101.649 21.6349 101.99 22.0717 102.429 22.3828C102.872 22.6939 103.392 22.8494 103.988 22.8494C104.381 22.8494 104.736 22.7812 105.056 22.6449C105.376 22.5085 105.646 22.3125 105.868 22.0568C106.089 21.8011 106.247 21.4943 106.341 21.1364H107.849C107.764 21.7159 107.553 22.2379 107.216 22.7024C106.884 23.1626 106.443 23.5291 105.893 23.8018C105.348 24.0703 104.713 24.2045 103.988 24.2045ZM114.324 14.1818V15.4602H109.236V14.1818H114.324ZM110.719 11.8295H112.228V21.1875C112.228 21.6136 112.29 21.9332 112.413 22.1463C112.541 22.3551 112.703 22.4957 112.899 22.5682C113.099 22.6364 113.31 22.6705 113.532 22.6705C113.698 22.6705 113.834 22.6619 113.941 22.6449C114.047 22.6236 114.133 22.6065 114.197 22.5938L114.503 23.9489C114.401 23.9872 114.258 24.0256 114.075 24.0639C113.892 24.1065 113.66 24.1278 113.378 24.1278C112.952 24.1278 112.535 24.0362 112.126 23.853C111.721 23.6697 111.384 23.3906 111.116 23.0156C110.851 22.6406 110.719 22.1676 110.719 21.5966V11.8295ZM120.477 24.2045C119.59 24.2045 118.813 23.9936 118.144 23.5717C117.479 23.1499 116.959 22.5597 116.584 21.8011C116.213 21.0426 116.028 20.1562 116.028 19.142C116.028 18.1193 116.213 17.2266 116.584 16.4638C116.959 15.701 117.479 15.1087 118.144 14.6868C118.813 14.2649 119.59 14.054 120.477 14.054C121.363 14.054 122.139 14.2649 122.803 14.6868C123.472 15.1087 123.992 15.701 124.363 16.4638C124.738 17.2266 124.926 18.1193 124.926 19.142C124.926 20.1562 124.738 21.0426 124.363 21.8011C123.992 22.5597 123.472 23.1499 122.803 23.5717C122.139 23.9936 121.363 24.2045 120.477 24.2045ZM120.477 22.8494C121.15 22.8494 121.704 22.6768 122.139 22.3317C122.573 21.9865 122.895 21.5327 123.104 20.9702C123.313 20.4077 123.417 19.7983 123.417 19.142C123.417 18.4858 123.313 17.8743 123.104 17.3075C122.895 16.7408 122.573 16.2827 122.139 15.9332C121.704 15.5838 121.15 15.4091 120.477 15.4091C119.803 15.4091 119.249 15.5838 118.815 15.9332C118.38 16.2827 118.058 16.7408 117.85 17.3075C117.641 17.8743 117.536 18.4858 117.536 19.142C117.536 19.7983 117.641 20.4077 117.85 20.9702C118.058 21.5327 118.38 21.9865 118.815 22.3317C119.249 22.6768 119.803 22.8494 120.477 22.8494ZM127.228 24V14.1818H128.686V15.6648H128.788C128.967 15.179 129.291 14.7848 129.76 14.4822C130.228 14.1797 130.757 14.0284 131.345 14.0284C131.456 14.0284 131.594 14.0305 131.76 14.0348C131.926 14.0391 132.052 14.0455 132.137 14.054V15.5881C132.086 15.5753 131.969 15.5561 131.786 15.5305C131.607 15.5007 131.417 15.4858 131.217 15.4858C130.74 15.4858 130.314 15.5859 129.939 15.7862C129.568 15.9822 129.274 16.255 129.056 16.6044C128.843 16.9496 128.737 17.3437 128.737 17.7869V24H127.228Z" fill="black"/>
<path d="M186.179 66H185.256L187.926 58.7273H188.835L191.506 66H190.582L188.409 59.8778H188.352L186.179 66ZM186.52 63.1591H190.241V63.9403H186.52V63.1591ZM194.741 66.1136C194.229 66.1136 193.789 65.9929 193.42 65.7514C193.05 65.5099 192.766 65.1773 192.567 64.7536C192.369 64.3298 192.269 63.8456 192.269 63.3011C192.269 62.7472 192.371 62.2583 192.575 61.8345C192.781 61.4084 193.067 61.0758 193.434 60.8366C193.803 60.5952 194.234 60.4744 194.727 60.4744C195.11 60.4744 195.456 60.5455 195.763 60.6875C196.071 60.8295 196.323 61.0284 196.52 61.2841C196.716 61.5398 196.838 61.8381 196.886 62.179H196.048C195.984 61.9304 195.842 61.7102 195.621 61.5185C195.404 61.3243 195.11 61.2273 194.741 61.2273C194.414 61.2273 194.128 61.3125 193.881 61.483C193.638 61.651 193.447 61.889 193.31 62.1967C193.175 62.5021 193.107 62.8608 193.107 63.2727C193.107 63.6941 193.174 64.0611 193.306 64.3736C193.441 64.6861 193.63 64.9287 193.874 65.1016C194.121 65.2744 194.409 65.3608 194.741 65.3608C194.959 65.3608 195.156 65.3229 195.334 65.2472C195.511 65.1714 195.662 65.0625 195.785 64.9205C195.908 64.7784 195.996 64.608 196.048 64.4091H196.886C196.838 64.7311 196.721 65.0211 196.534 65.2791C196.349 65.5348 196.104 65.7384 195.799 65.8899C195.496 66.0391 195.143 66.1136 194.741 66.1136ZM200.483 60.5455V61.2557H197.656V60.5455H200.483ZM198.48 59.2386H199.318V64.4375C199.318 64.6742 199.353 64.8518 199.421 64.9702C199.492 65.0862 199.582 65.1643 199.691 65.2045C199.802 65.2424 199.92 65.2614 200.043 65.2614C200.135 65.2614 200.211 65.2566 200.27 65.2472C200.329 65.2353 200.376 65.2259 200.412 65.2188L200.582 65.9716C200.526 65.9929 200.446 66.0142 200.344 66.0355C200.243 66.0592 200.114 66.071 199.957 66.071C199.721 66.071 199.489 66.0201 199.261 65.9183C199.036 65.8165 198.849 65.6615 198.7 65.4531C198.554 65.2448 198.48 64.982 198.48 64.6648V59.2386ZM203.901 66.1136C203.408 66.1136 202.976 65.9964 202.605 65.7621C202.235 65.5277 201.947 65.1998 201.738 64.7784C201.532 64.357 201.429 63.8646 201.429 63.3011C201.429 62.733 201.532 62.237 201.738 61.8132C201.947 61.3894 202.235 61.0604 202.605 60.826C202.976 60.5916 203.408 60.4744 203.901 60.4744C204.393 60.4744 204.824 60.5916 205.194 60.826C205.565 61.0604 205.854 61.3894 206.06 61.8132C206.268 62.237 206.373 62.733 206.373 63.3011C206.373 63.8646 206.268 64.357 206.06 64.7784C205.854 65.1998 205.565 65.5277 205.194 65.7621C204.824 65.9964 204.393 66.1136 203.901 66.1136ZM203.901 65.3608C204.275 65.3608 204.583 65.2649 204.824 65.0732C205.066 64.8814 205.244 64.6293 205.36 64.3168C205.476 64.0043 205.534 63.6657 205.534 63.3011C205.534 62.9366 205.476 62.5968 205.36 62.282C205.244 61.9671 205.066 61.7126 204.824 61.5185C204.583 61.3243 204.275 61.2273 203.901 61.2273C203.527 61.2273 203.219 61.3243 202.978 61.5185C202.736 61.7126 202.557 61.9671 202.441 62.282C202.325 62.5968 202.267 62.9366 202.267 63.3011C202.267 63.6657 202.325 64.0043 202.441 64.3168C202.557 64.6293 202.736 64.8814 202.978 65.0732C203.219 65.2649 203.527 65.3608 203.901 65.3608ZM207.652 66V60.5455H208.461V61.3693H208.518C208.618 61.0994 208.798 60.8804 209.058 60.7124C209.318 60.5443 209.612 60.4602 209.939 60.4602C210 60.4602 210.077 60.4614 210.17 60.4638C210.262 60.4661 210.332 60.4697 210.379 60.4744V61.3267C210.351 61.3196 210.286 61.3089 210.184 61.2947C210.084 61.2782 209.979 61.2699 209.868 61.2699C209.603 61.2699 209.366 61.3255 209.157 61.4368C208.952 61.5457 208.788 61.6972 208.667 61.8913C208.549 62.0831 208.49 62.3021 208.49 62.5483V66H207.652ZM216.401 66.1136C215.89 66.1136 215.449 65.9929 215.08 65.7514C214.711 65.5099 214.426 65.1773 214.228 64.7536C214.029 64.3298 213.929 63.8456 213.929 63.3011C213.929 62.7472 214.031 62.2583 214.235 61.8345C214.441 61.4084 214.727 61.0758 215.094 60.8366C215.463 60.5952 215.894 60.4744 216.387 60.4744C216.77 60.4744 217.116 60.5455 217.424 60.6875C217.731 60.8295 217.984 61.0284 218.18 61.2841C218.377 61.5398 218.498 61.8381 218.546 62.179H217.708C217.644 61.9304 217.502 61.7102 217.282 61.5185C217.064 61.3243 216.77 61.2273 216.401 61.2273C216.074 61.2273 215.788 61.3125 215.542 61.483C215.298 61.651 215.107 61.889 214.97 62.1967C214.835 62.5021 214.767 62.8608 214.767 63.2727C214.767 63.6941 214.834 64.0611 214.966 64.3736C215.101 64.6861 215.291 64.9287 215.534 65.1016C215.781 65.2744 216.069 65.3608 216.401 65.3608C216.619 65.3608 216.816 65.3229 216.994 65.2472C217.172 65.1714 217.322 65.0625 217.445 64.9205C217.568 64.7784 217.656 64.608 217.708 64.4091H218.546C218.498 64.7311 218.381 65.0211 218.194 65.2791C218.01 65.5348 217.765 65.7384 217.459 65.8899C217.156 66.0391 216.803 66.1136 216.401 66.1136ZM221.376 66.1278C221.03 66.1278 220.717 66.0627 220.435 65.9325C220.153 65.8 219.93 65.6094 219.764 65.3608C219.598 65.1098 219.515 64.8068 219.515 64.4517C219.515 64.1392 219.577 63.8859 219.7 63.6918C219.823 63.4953 219.988 63.3414 220.194 63.2301C220.4 63.1188 220.627 63.036 220.875 62.9815C221.126 62.9247 221.378 62.8797 221.632 62.8466C221.963 62.804 222.232 62.772 222.438 62.7507C222.646 62.727 222.798 62.688 222.892 62.6335C222.989 62.5791 223.038 62.4844 223.038 62.3494V62.321C223.038 61.9706 222.942 61.6984 222.75 61.5043C222.561 61.3101 222.273 61.2131 221.887 61.2131C221.487 61.2131 221.174 61.3007 220.946 61.4759C220.719 61.651 220.559 61.8381 220.467 62.0369L219.672 61.7528C219.814 61.4214 220.003 61.1634 220.24 60.9787C220.479 60.7917 220.739 60.6615 221.021 60.5881C221.305 60.5123 221.584 60.4744 221.859 60.4744C222.034 60.4744 222.235 60.4957 222.463 60.5384C222.692 60.5786 222.914 60.6626 223.127 60.7905C223.342 60.9183 223.521 61.1113 223.663 61.3693C223.805 61.6274 223.876 61.973 223.876 62.4062V66H223.038V65.2614H222.995C222.939 65.3797 222.844 65.5064 222.711 65.6413C222.579 65.7763 222.402 65.8911 222.182 65.9858C221.962 66.0805 221.693 66.1278 221.376 66.1278ZM221.504 65.375C221.835 65.375 222.115 65.3099 222.342 65.1797C222.572 65.0495 222.744 64.8814 222.86 64.6754C222.979 64.4695 223.038 64.2528 223.038 64.0256V63.2585C223.002 63.3011 222.924 63.3402 222.804 63.3757C222.685 63.4089 222.548 63.4384 222.392 63.4645C222.238 63.4882 222.087 63.5095 221.941 63.5284C221.796 63.545 221.679 63.5592 221.589 63.571C221.371 63.5994 221.168 63.6456 220.978 63.7095C220.791 63.7711 220.64 63.8646 220.524 63.9901C220.41 64.1132 220.353 64.2812 220.353 64.4943C220.353 64.7855 220.461 65.0057 220.676 65.1548C220.894 65.3016 221.17 65.375 221.504 65.375ZM226.244 62.7188V66H225.406V60.5455H226.215V61.3977H226.286C226.414 61.1207 226.608 60.8982 226.869 60.7301C227.129 60.5597 227.465 60.4744 227.877 60.4744C228.247 60.4744 228.57 60.5502 228.847 60.7017C229.124 60.8509 229.339 61.0781 229.493 61.3835C229.647 61.6866 229.724 62.0701 229.724 62.5341V66H228.886V62.5909C228.886 62.1624 228.775 61.8286 228.552 61.5895C228.329 61.348 228.024 61.2273 227.636 61.2273C227.368 61.2273 227.129 61.2853 226.919 61.4013C226.71 61.5173 226.546 61.6866 226.425 61.9091C226.304 62.1316 226.244 62.4015 226.244 62.7188ZM231.866 66.0568C231.691 66.0568 231.541 65.9941 231.415 65.8686C231.29 65.7431 231.227 65.5928 231.227 65.4176C231.227 65.2424 231.29 65.0921 231.415 64.9666C231.541 64.8411 231.691 64.7784 231.866 64.7784C232.041 64.7784 232.192 64.8411 232.317 64.9666C232.443 65.0921 232.505 65.2424 232.505 65.4176C232.505 65.5336 232.476 65.6402 232.417 65.7372C232.36 65.8343 232.283 65.9124 232.186 65.9716C232.091 66.0284 231.984 66.0568 231.866 66.0568ZM231.866 62.0085C231.691 62.0085 231.541 61.9458 231.415 61.8203C231.29 61.6948 231.227 61.5445 231.227 61.3693C231.227 61.1941 231.29 61.0438 231.415 60.9183C231.541 60.7929 231.691 60.7301 231.866 60.7301C232.041 60.7301 232.192 60.7929 232.317 60.9183C232.443 61.0438 232.505 61.1941 232.505 61.3693C232.505 61.4853 232.476 61.5919 232.417 61.6889C232.36 61.786 232.283 61.8641 232.186 61.9233C232.091 61.9801 231.984 62.0085 231.866 62.0085ZM192.5 88.6648C192.214 88.6648 191.952 88.5949 191.715 88.4553C191.478 88.3132 191.289 88.1238 191.147 87.8871C191.007 87.6503 190.938 87.3887 190.938 87.1023C190.938 86.8134 191.007 86.5518 191.147 86.3175C191.289 86.0807 191.478 85.8925 191.715 85.7528C191.952 85.6108 192.214 85.5398 192.5 85.5398C192.789 85.5398 193.05 85.6108 193.285 85.7528C193.522 85.8925 193.71 86.0807 193.849 86.3175C193.991 86.5518 194.062 86.8134 194.062 87.1023C194.062 87.3887 193.991 87.6503 193.849 87.8871C193.71 88.1238 193.522 88.3132 193.285 88.4553C193.05 88.5949 192.789 88.6648 192.5 88.6648ZM202.983 90.1136C202.472 90.1136 202.031 89.9929 201.662 89.7514C201.293 89.5099 201.009 89.1773 200.81 88.7536C200.611 88.3298 200.511 87.8456 200.511 87.3011C200.511 86.7472 200.613 86.2583 200.817 85.8345C201.023 85.4084 201.309 85.0758 201.676 84.8366C202.045 84.5952 202.476 84.4744 202.969 84.4744C203.352 84.4744 203.698 84.5455 204.006 84.6875C204.313 84.8295 204.566 85.0284 204.762 85.2841C204.959 85.5398 205.08 85.8381 205.128 86.179H204.29C204.226 85.9304 204.084 85.7102 203.864 85.5185C203.646 85.3243 203.352 85.2273 202.983 85.2273C202.656 85.2273 202.37 85.3125 202.124 85.483C201.88 85.651 201.689 85.889 201.552 86.1967C201.417 86.5021 201.349 86.8608 201.349 87.2727C201.349 87.6941 201.416 88.0611 201.548 88.3736C201.683 88.6861 201.873 88.9287 202.116 89.1016C202.363 89.2744 202.652 89.3608 202.983 89.3608C203.201 89.3608 203.398 89.3229 203.576 89.2472C203.754 89.1714 203.904 89.0625 204.027 88.9205C204.15 88.7784 204.238 88.608 204.29 88.4091H205.128C205.08 88.7311 204.963 89.0211 204.776 89.2791C204.592 89.5348 204.347 89.7384 204.041 89.8899C203.738 90.0391 203.385 90.1136 202.983 90.1136ZM207.191 86.7188V90H206.353V82.7273H207.191V85.3977H207.262C207.39 85.116 207.582 84.8923 207.837 84.7266C208.095 84.5585 208.439 84.4744 208.867 84.4744C209.239 84.4744 209.564 84.549 209.844 84.6982C210.123 84.8449 210.34 85.071 210.494 85.3764C210.65 85.6795 210.728 86.0653 210.728 86.5341V90H209.89V86.5909C209.89 86.1577 209.777 85.8227 209.553 85.5859C209.33 85.3468 209.021 85.2273 208.626 85.2273C208.351 85.2273 208.105 85.2853 207.887 85.4013C207.672 85.5173 207.501 85.6866 207.376 85.9091C207.253 86.1316 207.191 86.4015 207.191 86.7188ZM213.866 90.1278C213.521 90.1278 213.207 90.0627 212.925 89.9325C212.644 89.8 212.42 89.6094 212.254 89.3608C212.088 89.1098 212.006 88.8068 212.006 88.4517C212.006 88.1392 212.067 87.8859 212.19 87.6918C212.313 87.4953 212.478 87.3414 212.684 87.2301C212.89 87.1188 213.117 87.036 213.366 86.9815C213.617 86.9247 213.869 86.8797 214.122 86.8466C214.453 86.804 214.722 86.772 214.928 86.7507C215.136 86.727 215.288 86.688 215.383 86.6335C215.48 86.5791 215.528 86.4844 215.528 86.3494V86.321C215.528 85.9706 215.432 85.6984 215.241 85.5043C215.051 85.3101 214.764 85.2131 214.378 85.2131C213.978 85.2131 213.664 85.3007 213.437 85.4759C213.209 85.651 213.05 85.8381 212.957 86.0369L212.162 85.7528C212.304 85.4214 212.493 85.1634 212.73 84.9787C212.969 84.7917 213.229 84.6615 213.511 84.5881C213.795 84.5123 214.075 84.4744 214.349 84.4744C214.524 84.4744 214.726 84.4957 214.953 84.5384C215.183 84.5786 215.404 84.6626 215.617 84.7905C215.832 84.9183 216.011 85.1113 216.153 85.3693C216.295 85.6274 216.366 85.973 216.366 86.4062V90H215.528V89.2614H215.486C215.429 89.3797 215.334 89.5064 215.202 89.6413C215.069 89.7763 214.893 89.8911 214.672 89.9858C214.452 90.0805 214.184 90.1278 213.866 90.1278ZM213.994 89.375C214.326 89.375 214.605 89.3099 214.832 89.1797C215.062 89.0495 215.235 88.8814 215.351 88.6754C215.469 88.4695 215.528 88.2528 215.528 88.0256V87.2585C215.493 87.3011 215.415 87.3402 215.294 87.3757C215.175 87.4089 215.038 87.4384 214.882 87.4645C214.728 87.4882 214.578 87.5095 214.431 87.5284C214.287 87.545 214.169 87.5592 214.079 87.571C213.862 87.5994 213.658 87.6456 213.469 87.7095C213.282 87.7711 213.13 87.8646 213.014 87.9901C212.9 88.1132 212.844 88.2812 212.844 88.4943C212.844 88.7855 212.951 89.0057 213.167 89.1548C213.385 89.3016 213.66 89.375 213.994 89.375ZM218.734 86.7188V90H217.896V84.5455H218.706V85.3977H218.777C218.904 85.1207 219.099 84.8982 219.359 84.7301C219.619 84.5597 219.956 84.4744 220.368 84.4744C220.737 84.4744 221.06 84.5502 221.337 84.7017C221.614 84.8509 221.829 85.0781 221.983 85.3835C222.137 85.6866 222.214 86.0701 222.214 86.5341V90H221.376V86.5909C221.376 86.1624 221.265 85.8286 221.042 85.5895C220.82 85.348 220.514 85.2273 220.126 85.2273C219.859 85.2273 219.619 85.2853 219.409 85.4013C219.2 85.5173 219.036 85.6866 218.915 85.9091C218.794 86.1316 218.734 86.4015 218.734 86.7188ZM225.947 92.1591C225.542 92.1591 225.194 92.107 224.903 92.0028C224.612 91.901 224.369 91.7661 224.175 91.598C223.983 91.4323 223.831 91.2547 223.717 91.0653L224.385 90.5966C224.461 90.696 224.556 90.8097 224.672 90.9375C224.788 91.0677 224.947 91.1802 225.148 91.2749C225.352 91.3719 225.618 91.4205 225.947 91.4205C226.388 91.4205 226.751 91.3139 227.037 91.1009C227.324 90.8878 227.467 90.554 227.467 90.0994V88.9915H227.396C227.335 89.0909 227.247 89.214 227.133 89.3608C227.022 89.5052 226.861 89.6342 226.65 89.7479C226.442 89.8591 226.16 89.9148 225.805 89.9148C225.365 89.9148 224.97 89.8106 224.619 89.6023C224.271 89.3939 223.995 89.0909 223.792 88.6932C223.59 88.2955 223.49 87.8125 223.49 87.2443C223.49 86.6856 223.588 86.1991 223.785 85.7848C223.981 85.3681 224.255 85.0462 224.605 84.8189C224.955 84.5893 225.36 84.4744 225.819 84.4744C226.175 84.4744 226.456 84.5336 226.665 84.652C226.875 84.768 227.036 84.9006 227.148 85.0497C227.261 85.1965 227.349 85.3172 227.41 85.4119H227.496V84.5455H228.305V90.1562C228.305 90.625 228.199 91.0062 227.986 91.2997C227.775 91.5956 227.491 91.8123 227.133 91.9496C226.778 92.0893 226.383 92.1591 225.947 92.1591ZM225.919 89.1619C226.255 89.1619 226.539 89.085 226.771 88.9311C227.003 88.7772 227.18 88.5559 227.3 88.267C227.421 87.9782 227.481 87.6326 227.481 87.2301C227.481 86.8371 227.422 86.4903 227.304 86.1896C227.185 85.889 227.01 85.6534 226.778 85.483C226.546 85.3125 226.26 85.2273 225.919 85.2273C225.564 85.2273 225.268 85.3172 225.031 85.4972C224.797 85.6771 224.62 85.9186 224.502 86.2216C224.386 86.5246 224.328 86.8608 224.328 87.2301C224.328 87.6089 224.387 87.9439 224.506 88.2351C224.626 88.5239 224.804 88.7512 225.038 88.9169C225.275 89.0803 225.568 89.1619 225.919 89.1619ZM232.126 90.1136C231.601 90.1136 231.147 89.9976 230.766 89.7656C230.387 89.5312 230.095 89.2045 229.889 88.7855C229.685 88.3641 229.584 87.8741 229.584 87.3153C229.584 86.7566 229.685 86.2642 229.889 85.8381C230.095 85.4096 230.381 85.0758 230.748 84.8366C231.118 84.5952 231.549 84.4744 232.041 84.4744C232.325 84.4744 232.606 84.5218 232.883 84.6165C233.16 84.7112 233.412 84.8651 233.639 85.0781C233.866 85.2888 234.047 85.5682 234.182 85.9162C234.317 86.2642 234.385 86.6927 234.385 87.2017V87.5568H230.18V86.8324H233.532C233.532 86.5246 233.471 86.25 233.348 86.0085C233.227 85.767 233.054 85.5765 232.829 85.4368C232.607 85.2971 232.344 85.2273 232.041 85.2273C231.707 85.2273 231.418 85.3101 231.175 85.4759C230.933 85.6392 230.747 85.8523 230.617 86.1151C230.487 86.3778 230.422 86.6596 230.422 86.9602V87.4432C230.422 87.8551 230.493 88.2043 230.635 88.4908C230.779 88.7749 230.979 88.9915 231.235 89.1406C231.491 89.2874 231.788 89.3608 232.126 89.3608C232.346 89.3608 232.545 89.33 232.723 89.2685C232.903 89.2045 233.058 89.1098 233.188 88.9844C233.318 88.8565 233.419 88.6979 233.49 88.5085L234.3 88.7358C234.214 89.0104 234.071 89.2519 233.87 89.4602C233.669 89.6662 233.42 89.8272 233.124 89.9432C232.828 90.0568 232.496 90.1136 232.126 90.1136ZM238.472 90V84.5455H239.31V90H238.472ZM238.898 83.6364C238.735 83.6364 238.594 83.5807 238.476 83.4695C238.36 83.3582 238.302 83.2244 238.302 83.0682C238.302 82.9119 238.36 82.7782 238.476 82.6669C238.594 82.5556 238.735 82.5 238.898 82.5C239.062 82.5 239.201 82.5556 239.317 82.6669C239.436 82.7782 239.495 82.9119 239.495 83.0682C239.495 83.2244 239.436 83.3582 239.317 83.4695C239.201 83.5807 239.062 83.6364 238.898 83.6364ZM243.217 84.5455V85.2557H240.391V84.5455H243.217ZM241.214 83.2386H242.053V88.4375C242.053 88.6742 242.087 88.8518 242.156 88.9702C242.227 89.0862 242.317 89.1643 242.425 89.2045C242.537 89.2424 242.654 89.2614 242.777 89.2614C242.869 89.2614 242.945 89.2566 243.004 89.2472C243.063 89.2353 243.111 89.2259 243.146 89.2188L243.317 89.9716C243.26 89.9929 243.181 90.0142 243.079 90.0355C242.977 90.0592 242.848 90.071 242.692 90.071C242.455 90.071 242.223 90.0201 241.996 89.9183C241.771 89.8165 241.584 89.6615 241.435 89.4531C241.288 89.2448 241.214 88.982 241.214 88.6648V83.2386ZM248.244 85.767L247.491 85.9801C247.444 85.8546 247.374 85.7327 247.282 85.6143C247.192 85.4936 247.069 85.3942 246.912 85.3161C246.756 85.2379 246.556 85.1989 246.312 85.1989C245.978 85.1989 245.7 85.2758 245.478 85.4297C245.257 85.5812 245.147 85.7741 245.147 86.0085C245.147 86.2169 245.223 86.3814 245.375 86.5021C245.526 86.6229 245.763 86.7235 246.085 86.804L246.895 87.0028C247.382 87.1212 247.746 87.3023 247.985 87.5462C248.224 87.7876 248.343 88.099 248.343 88.4801C248.343 88.7926 248.253 89.072 248.074 89.3182C247.896 89.5644 247.647 89.7585 247.328 89.9006C247.008 90.0426 246.636 90.1136 246.213 90.1136C245.656 90.1136 245.196 89.9929 244.831 89.7514C244.467 89.5099 244.236 89.1572 244.139 88.6932L244.934 88.4943C245.01 88.7879 245.153 89.008 245.364 89.1548C245.577 89.3016 245.855 89.375 246.199 89.375C246.589 89.375 246.899 89.2921 247.129 89.1264C247.361 88.9583 247.477 88.7571 247.477 88.5227C247.477 88.3333 247.411 88.1747 247.278 88.0469C247.145 87.9167 246.942 87.8196 246.667 87.7557L245.758 87.5426C245.259 87.4242 244.892 87.2408 244.657 86.9922C244.425 86.7412 244.309 86.4276 244.309 86.0511C244.309 85.7434 244.396 85.4711 244.569 85.2344C244.744 84.9976 244.982 84.8118 245.282 84.6768C245.585 84.5419 245.929 84.4744 246.312 84.4744C246.852 84.4744 247.276 84.5928 247.583 84.8295C247.894 85.0663 248.114 85.3788 248.244 85.767ZM256.281 85.767L255.528 85.9801C255.481 85.8546 255.411 85.7327 255.319 85.6143C255.229 85.4936 255.106 85.3942 254.949 85.3161C254.793 85.2379 254.593 85.1989 254.349 85.1989C254.015 85.1989 253.737 85.2758 253.515 85.4297C253.295 85.5812 253.184 85.7741 253.184 86.0085C253.184 86.2169 253.26 86.3814 253.412 86.5021C253.563 86.6229 253.8 86.7235 254.122 86.804L254.932 87.0028C255.419 87.1212 255.783 87.3023 256.022 87.5462C256.261 87.7876 256.381 88.099 256.381 88.4801C256.381 88.7926 256.291 89.072 256.111 89.3182C255.933 89.5644 255.684 89.7585 255.365 89.9006C255.045 90.0426 254.674 90.1136 254.25 90.1136C253.693 90.1136 253.233 89.9929 252.868 89.7514C252.504 89.5099 252.273 89.1572 252.176 88.6932L252.971 88.4943C253.047 88.7879 253.19 89.008 253.401 89.1548C253.614 89.3016 253.892 89.375 254.236 89.375C254.626 89.375 254.936 89.2921 255.166 89.1264C255.398 88.9583 255.514 88.7571 255.514 88.5227C255.514 88.3333 255.448 88.1747 255.315 88.0469C255.183 87.9167 254.979 87.8196 254.704 87.7557L253.795 87.5426C253.296 87.4242 252.929 87.2408 252.694 86.9922C252.462 86.7412 252.346 86.4276 252.346 86.0511C252.346 85.7434 252.433 85.4711 252.606 85.2344C252.781 84.9976 253.019 84.8118 253.319 84.6768C253.622 84.5419 253.966 84.4744 254.349 84.4744C254.889 84.4744 255.313 84.5928 255.621 84.8295C255.931 85.0663 256.151 85.3788 256.281 85.767ZM260.014 84.5455V85.2557H257.188V84.5455H260.014ZM258.011 83.2386H258.849V88.4375C258.849 88.6742 258.884 88.8518 258.952 88.9702C259.023 89.0862 259.113 89.1643 259.222 89.2045C259.334 89.2424 259.451 89.2614 259.574 89.2614C259.666 89.2614 259.742 89.2566 259.801 89.2472C259.86 89.2353 259.908 89.2259 259.943 89.2188L260.114 89.9716C260.057 89.9929 259.978 90.0142 259.876 90.0355C259.774 90.0592 259.645 90.071 259.489 90.071C259.252 90.071 259.02 90.0201 258.793 89.9183C258.568 89.8165 258.381 89.6615 258.232 89.4531C258.085 89.2448 258.011 88.982 258.011 88.6648V83.2386ZM262.88 90.1278C262.534 90.1278 262.221 90.0627 261.939 89.9325C261.657 89.8 261.433 89.6094 261.268 89.3608C261.102 89.1098 261.019 88.8068 261.019 88.4517C261.019 88.1392 261.081 87.8859 261.204 87.6918C261.327 87.4953 261.491 87.3414 261.697 87.2301C261.903 87.1188 262.131 87.036 262.379 86.9815C262.63 86.9247 262.882 86.8797 263.136 86.8466C263.467 86.804 263.736 86.772 263.942 86.7507C264.15 86.727 264.302 86.688 264.396 86.6335C264.493 86.5791 264.542 86.4844 264.542 86.3494V86.321C264.542 85.9706 264.446 85.6984 264.254 85.5043C264.065 85.3101 263.777 85.2131 263.391 85.2131C262.991 85.2131 262.678 85.3007 262.45 85.4759C262.223 85.651 262.063 85.8381 261.971 86.0369L261.175 85.7528C261.317 85.4214 261.507 85.1634 261.744 84.9787C261.983 84.7917 262.243 84.6615 262.525 84.5881C262.809 84.5123 263.088 84.4744 263.363 84.4744C263.538 84.4744 263.739 84.4957 263.967 84.5384C264.196 84.5786 264.418 84.6626 264.631 84.7905C264.846 84.9183 265.025 85.1113 265.167 85.3693C265.309 85.6274 265.38 85.973 265.38 86.4062V90H264.542V89.2614H264.499C264.442 89.3797 264.348 89.5064 264.215 89.6413C264.083 89.7763 263.906 89.8911 263.686 89.9858C263.466 90.0805 263.197 90.1278 262.88 90.1278ZM263.008 89.375C263.339 89.375 263.619 89.3099 263.846 89.1797C264.076 89.0495 264.248 88.8814 264.364 88.6754C264.483 88.4695 264.542 88.2528 264.542 88.0256V87.2585C264.506 87.3011 264.428 87.3402 264.308 87.3757C264.189 87.4089 264.052 87.4384 263.896 87.4645C263.742 87.4882 263.591 87.5095 263.445 87.5284C263.3 87.545 263.183 87.5592 263.093 87.571C262.875 87.5994 262.672 87.6456 262.482 87.7095C262.295 87.7711 262.144 87.8646 262.028 87.9901C261.914 88.1132 261.857 88.2812 261.857 88.4943C261.857 88.7855 261.965 89.0057 262.18 89.1548C262.398 89.3016 262.674 89.375 263.008 89.375ZM269.282 84.5455V85.2557H266.455V84.5455H269.282ZM267.279 83.2386H268.117V88.4375C268.117 88.6742 268.151 88.8518 268.22 88.9702C268.291 89.0862 268.381 89.1643 268.49 89.2045C268.601 89.2424 268.718 89.2614 268.841 89.2614C268.934 89.2614 269.01 89.2566 269.069 89.2472C269.128 89.2353 269.175 89.2259 269.211 89.2188L269.381 89.9716C269.324 89.9929 269.245 90.0142 269.143 90.0355C269.041 90.0592 268.912 90.071 268.756 90.071C268.519 90.071 268.287 90.0201 268.06 89.9183C267.835 89.8165 267.648 89.6615 267.499 89.4531C267.352 89.2448 267.279 88.982 267.279 88.6648V83.2386ZM272.771 90.1136C272.245 90.1136 271.792 89.9976 271.411 89.7656C271.032 89.5312 270.74 89.2045 270.534 88.7855C270.33 88.3641 270.228 87.8741 270.228 87.3153C270.228 86.7566 270.33 86.2642 270.534 85.8381C270.74 85.4096 271.026 85.0758 271.393 84.8366C271.762 84.5952 272.193 84.4744 272.686 84.4744C272.97 84.4744 273.25 84.5218 273.527 84.6165C273.804 84.7112 274.056 84.8651 274.284 85.0781C274.511 85.2888 274.692 85.5682 274.827 85.9162C274.962 86.2642 275.029 86.6927 275.029 87.2017V87.5568H270.825V86.8324H274.177C274.177 86.5246 274.115 86.25 273.992 86.0085C273.872 85.767 273.699 85.5765 273.474 85.4368C273.251 85.2971 272.989 85.2273 272.686 85.2273C272.352 85.2273 272.063 85.3101 271.819 85.4759C271.578 85.6392 271.392 85.8523 271.262 86.1151C271.131 86.3778 271.066 86.6596 271.066 86.9602V87.4432C271.066 87.8551 271.137 88.2043 271.279 88.4908C271.424 88.7749 271.624 88.9915 271.879 89.1406C272.135 89.2874 272.432 89.3608 272.771 89.3608C272.991 89.3608 273.19 89.33 273.367 89.2685C273.547 89.2045 273.702 89.1098 273.833 88.9844C273.963 88.8565 274.063 88.6979 274.134 88.5085L274.944 88.7358C274.859 89.0104 274.716 89.2519 274.514 89.4602C274.313 89.6662 274.065 89.8272 273.769 89.9432C273.473 90.0568 273.14 90.1136 272.771 90.1136ZM192.5 100.665C192.214 100.665 191.952 100.595 191.715 100.455C191.478 100.313 191.289 100.124 191.147 99.8871C191.007 99.6503 190.938 99.3887 190.938 99.1023C190.938 98.8134 191.007 98.5518 191.147 98.3175C191.289 98.0807 191.478 97.8925 191.715 97.7528C191.952 97.6108 192.214 97.5398 192.5 97.5398C192.789 97.5398 193.05 97.6108 193.285 97.7528C193.522 97.8925 193.71 98.0807 193.849 98.3175C193.991 98.5518 194.062 98.8134 194.062 99.1023C194.062 99.3887 193.991 99.6503 193.849 99.8871C193.71 100.124 193.522 100.313 193.285 100.455C193.05 100.595 192.789 100.665 192.5 100.665ZM204.631 97.767L203.878 97.9801C203.83 97.8546 203.761 97.7327 203.668 97.6143C203.578 97.4936 203.455 97.3942 203.299 97.3161C203.143 97.2379 202.943 97.1989 202.699 97.1989C202.365 97.1989 202.087 97.2758 201.864 97.4297C201.644 97.5812 201.534 97.7741 201.534 98.0085C201.534 98.2169 201.61 98.3814 201.761 98.5021C201.913 98.6229 202.15 98.7235 202.472 98.804L203.281 99.0028C203.769 99.1212 204.132 99.3023 204.371 99.5462C204.611 99.7876 204.73 100.099 204.73 100.48C204.73 100.793 204.64 101.072 204.46 101.318C204.283 101.564 204.034 101.759 203.714 101.901C203.395 102.043 203.023 102.114 202.599 102.114C202.043 102.114 201.583 101.993 201.218 101.751C200.853 101.51 200.623 101.157 200.526 100.693L201.321 100.494C201.397 100.788 201.54 101.008 201.751 101.155C201.964 101.302 202.242 101.375 202.585 101.375C202.976 101.375 203.286 101.292 203.516 101.126C203.748 100.958 203.864 100.757 203.864 100.523C203.864 100.333 203.797 100.175 203.665 100.047C203.532 99.9167 203.329 99.8196 203.054 99.7557L202.145 99.5426C201.645 99.4242 201.278 99.2408 201.044 98.9922C200.812 98.7412 200.696 98.4276 200.696 98.0511C200.696 97.7434 200.782 97.4711 200.955 97.2344C201.13 96.9976 201.368 96.8118 201.669 96.6768C201.972 96.5419 202.315 96.4744 202.699 96.4744C203.239 96.4744 203.662 96.5928 203.97 96.8295C204.28 97.0663 204.5 97.3788 204.631 97.767ZM208.279 102.114C207.753 102.114 207.3 101.998 206.919 101.766C206.54 101.531 206.247 101.205 206.041 100.786C205.838 100.364 205.736 99.8741 205.736 99.3153C205.736 98.7566 205.838 98.2642 206.041 97.8381C206.247 97.4096 206.534 97.0758 206.901 96.8366C207.27 96.5952 207.701 96.4744 208.193 96.4744C208.477 96.4744 208.758 96.5218 209.035 96.6165C209.312 96.7112 209.564 96.8651 209.791 97.0781C210.019 97.2888 210.2 97.5682 210.335 97.9162C210.47 98.2642 210.537 98.6927 210.537 99.2017V99.5568H206.333V98.8324H209.685C209.685 98.5246 209.623 98.25 209.5 98.0085C209.379 97.767 209.207 97.5765 208.982 97.4368C208.759 97.2971 208.496 97.2273 208.193 97.2273C207.86 97.2273 207.571 97.3101 207.327 97.4759C207.085 97.6392 206.9 97.8523 206.769 98.1151C206.639 98.3778 206.574 98.6596 206.574 98.9602V99.4432C206.574 99.8551 206.645 100.204 206.787 100.491C206.932 100.775 207.132 100.991 207.387 101.141C207.643 101.287 207.94 101.361 208.279 101.361C208.499 101.361 208.698 101.33 208.875 101.268C209.055 101.205 209.21 101.11 209.34 100.984C209.471 100.857 209.571 100.698 209.642 100.509L210.452 100.736C210.367 101.01 210.223 101.252 210.022 101.46C209.821 101.666 209.572 101.827 209.276 101.943C208.981 102.057 208.648 102.114 208.279 102.114ZM212.65 98.7188V102H211.812V96.5455H212.622V97.3977H212.693C212.82 97.1207 213.015 96.8982 213.275 96.7301C213.535 96.5597 213.872 96.4744 214.284 96.4744C214.653 96.4744 214.976 96.5502 215.253 96.7017C215.53 96.8509 215.745 97.0781 215.899 97.3835C216.053 97.6866 216.13 98.0701 216.13 98.5341V102H215.292V98.5909C215.292 98.1624 215.181 97.8286 214.958 97.5895C214.736 97.348 214.43 97.2273 214.042 97.2273C213.775 97.2273 213.535 97.2853 213.325 97.4013C213.116 97.5173 212.952 97.6866 212.831 97.9091C212.71 98.1316 212.65 98.4015 212.65 98.7188ZM219.721 102.114C219.267 102.114 218.865 101.999 218.517 101.769C218.169 101.537 217.897 101.21 217.701 100.789C217.504 100.365 217.406 99.8646 217.406 99.2869C217.406 98.714 217.504 98.2169 217.701 97.7955C217.897 97.3741 218.171 97.0485 218.521 96.8189C218.871 96.5893 219.276 96.4744 219.735 96.4744C220.091 96.4744 220.371 96.5336 220.577 96.652C220.785 96.768 220.944 96.9006 221.053 97.0497C221.164 97.1965 221.251 97.3172 221.312 97.4119H221.383V94.7273H222.221V102H221.412V101.162H221.312C221.251 101.261 221.163 101.387 221.049 101.538C220.936 101.687 220.774 101.821 220.563 101.94C220.352 102.056 220.072 102.114 219.721 102.114ZM219.835 101.361C220.171 101.361 220.455 101.273 220.687 101.098C220.919 100.92 221.096 100.675 221.216 100.363C221.337 100.048 221.397 99.6847 221.397 99.2727C221.397 98.8655 221.338 98.5092 221.22 98.2038C221.101 97.8961 220.926 97.657 220.694 97.4865C220.462 97.3137 220.176 97.2273 219.835 97.2273C219.48 97.2273 219.184 97.3184 218.947 97.5007C218.713 97.6806 218.536 97.9257 218.418 98.2358C218.302 98.5436 218.244 98.8892 218.244 99.2727C218.244 99.661 218.303 100.014 218.422 100.331C218.542 100.646 218.72 100.897 218.954 101.084C219.191 101.268 219.484 101.361 219.835 101.361ZM226.685 102V96.5455H227.495V97.3977H227.566C227.679 97.1065 227.863 96.8804 228.116 96.7195C228.369 96.5561 228.674 96.4744 229.029 96.4744C229.389 96.4744 229.688 96.5561 229.927 96.7195C230.169 96.8804 230.357 97.1065 230.492 97.3977H230.549C230.688 97.116 230.898 96.8923 231.177 96.7266C231.457 96.5585 231.792 96.4744 232.182 96.4744C232.67 96.4744 233.069 96.6271 233.379 96.9325C233.689 97.2356 233.844 97.7079 233.844 98.3494V102H233.006V98.3494C233.006 97.947 232.896 97.6593 232.676 97.4865C232.456 97.3137 232.196 97.2273 231.898 97.2273C231.515 97.2273 231.217 97.3433 231.007 97.5753C230.796 97.8049 230.691 98.0961 230.691 98.4489V102H229.838V98.2642C229.838 97.9541 229.738 97.7043 229.537 97.5149C229.335 97.3232 229.076 97.2273 228.759 97.2273C228.541 97.2273 228.337 97.2853 228.148 97.4013C227.961 97.5173 227.81 97.6783 227.694 97.8842C227.58 98.0878 227.523 98.3234 227.523 98.5909V102H226.685ZM237.663 102.114C237.138 102.114 236.684 101.998 236.303 101.766C235.924 101.531 235.632 101.205 235.426 100.786C235.223 100.364 235.121 99.8741 235.121 99.3153C235.121 98.7566 235.223 98.2642 235.426 97.8381C235.632 97.4096 235.919 97.0758 236.286 96.8366C236.655 96.5952 237.086 96.4744 237.578 96.4744C237.862 96.4744 238.143 96.5218 238.42 96.6165C238.697 96.7112 238.949 96.8651 239.176 97.0781C239.403 97.2888 239.585 97.5682 239.719 97.9162C239.854 98.2642 239.922 98.6927 239.922 99.2017V99.5568H235.717V98.8324H239.07C239.07 98.5246 239.008 98.25 238.885 98.0085C238.764 97.767 238.591 97.5765 238.366 97.4368C238.144 97.2971 237.881 97.2273 237.578 97.2273C237.244 97.2273 236.955 97.3101 236.712 97.4759C236.47 97.6392 236.284 97.8523 236.154 98.1151C236.024 98.3778 235.959 98.6596 235.959 98.9602V99.4432C235.959 99.8551 236.03 100.204 236.172 100.491C236.316 100.775 236.516 100.991 236.772 101.141C237.028 101.287 237.325 101.361 237.663 101.361C237.884 101.361 238.082 101.33 238.26 101.268C238.44 101.205 238.595 101.11 238.725 100.984C238.855 100.857 238.956 100.698 239.027 100.509L239.837 100.736C239.751 101.01 239.608 101.252 239.407 101.46C239.206 101.666 238.957 101.827 238.661 101.943C238.365 102.057 238.033 102.114 237.663 102.114ZM245.06 97.767L244.308 97.9801C244.26 97.8546 244.19 97.7327 244.098 97.6143C244.008 97.4936 243.885 97.3942 243.729 97.3161C243.572 97.2379 243.372 97.1989 243.129 97.1989C242.795 97.1989 242.517 97.2758 242.294 97.4297C242.074 97.5812 241.964 97.7741 241.964 98.0085C241.964 98.2169 242.04 98.3814 242.191 98.5021C242.343 98.6229 242.579 98.7235 242.901 98.804L243.711 99.0028C244.199 99.1212 244.562 99.3023 244.801 99.5462C245.04 99.7876 245.16 100.099 245.16 100.48C245.16 100.793 245.07 101.072 244.89 101.318C244.712 101.564 244.464 101.759 244.144 101.901C243.825 102.043 243.453 102.114 243.029 102.114C242.473 102.114 242.012 101.993 241.648 101.751C241.283 101.51 241.052 101.157 240.955 100.693L241.751 100.494C241.826 100.788 241.97 101.008 242.18 101.155C242.393 101.302 242.672 101.375 243.015 101.375C243.406 101.375 243.716 101.292 243.945 101.126C244.177 100.958 244.293 100.757 244.293 100.523C244.293 100.333 244.227 100.175 244.094 100.047C243.962 99.9167 243.758 99.8196 243.484 99.7557L242.575 99.5426C242.075 99.4242 241.708 99.2408 241.474 98.9922C241.242 98.7412 241.126 98.4276 241.126 98.0511C241.126 97.7434 241.212 97.4711 241.385 97.2344C241.56 96.9976 241.798 96.8118 242.099 96.6768C242.402 96.5419 242.745 96.4744 243.129 96.4744C243.668 96.4744 244.092 96.5928 244.4 96.8295C244.71 97.0663 244.93 97.3788 245.06 97.767ZM250.285 97.767L249.532 97.9801C249.485 97.8546 249.415 97.7327 249.323 97.6143C249.233 97.4936 249.11 97.3942 248.953 97.3161C248.797 97.2379 248.597 97.1989 248.353 97.1989C248.019 97.1989 247.741 97.2758 247.519 97.4297C247.298 97.5812 247.188 97.7741 247.188 98.0085C247.188 98.2169 247.264 98.3814 247.416 98.5021C247.567 98.6229 247.804 98.7235 248.126 98.804L248.936 99.0028C249.423 99.1212 249.787 99.3023 250.026 99.5462C250.265 99.7876 250.384 100.099 250.384 100.48C250.384 100.793 250.294 101.072 250.115 101.318C249.937 101.564 249.688 101.759 249.369 101.901C249.049 102.043 248.677 102.114 248.254 102.114C247.697 102.114 247.237 101.993 246.872 101.751C246.508 101.51 246.277 101.157 246.18 100.693L246.975 100.494C247.051 100.788 247.194 101.008 247.405 101.155C247.618 101.302 247.896 101.375 248.24 101.375C248.63 101.375 248.94 101.292 249.17 101.126C249.402 100.958 249.518 100.757 249.518 100.523C249.518 100.333 249.452 100.175 249.319 100.047C249.186 99.9167 248.983 99.8196 248.708 99.7557L247.799 99.5426C247.3 99.4242 246.933 99.2408 246.698 98.9922C246.466 98.7412 246.35 98.4276 246.35 98.0511C246.35 97.7434 246.437 97.4711 246.61 97.2344C246.785 96.9976 247.023 96.8118 247.323 96.6768C247.626 96.5419 247.97 96.4744 248.353 96.4744C248.893 96.4744 249.317 96.5928 249.624 96.8295C249.935 97.0663 250.155 97.3788 250.285 97.767ZM253.251 102.128C252.905 102.128 252.592 102.063 252.31 101.933C252.028 101.8 251.805 101.609 251.639 101.361C251.473 101.11 251.39 100.807 251.39 100.452C251.39 100.139 251.452 99.8859 251.575 99.6918C251.698 99.4953 251.863 99.3414 252.069 99.2301C252.275 99.1188 252.502 99.036 252.75 98.9815C253.001 98.9247 253.253 98.8797 253.507 98.8466C253.838 98.804 254.107 98.772 254.313 98.7507C254.521 98.727 254.673 98.688 254.767 98.6335C254.864 98.5791 254.913 98.4844 254.913 98.3494V98.321C254.913 97.9706 254.817 97.6984 254.625 97.5043C254.436 97.3101 254.148 97.2131 253.762 97.2131C253.362 97.2131 253.049 97.3007 252.821 97.4759C252.594 97.651 252.434 97.8381 252.342 98.0369L251.547 97.7528C251.689 97.4214 251.878 97.1634 252.115 96.9787C252.354 96.7917 252.614 96.6615 252.896 96.5881C253.18 96.5123 253.459 96.4744 253.734 96.4744C253.909 96.4744 254.11 96.4957 254.338 96.5384C254.567 96.5786 254.789 96.6626 255.002 96.7905C255.217 96.9183 255.396 97.1113 255.538 97.3693C255.68 97.6274 255.751 97.973 255.751 98.4062V102H254.913V101.261H254.87C254.814 101.38 254.719 101.506 254.586 101.641C254.454 101.776 254.277 101.891 254.057 101.986C253.837 102.08 253.568 102.128 253.251 102.128ZM253.379 101.375C253.71 101.375 253.99 101.31 254.217 101.18C254.447 101.049 254.619 100.881 254.735 100.675C254.854 100.469 254.913 100.253 254.913 100.026V99.2585C254.877 99.3011 254.799 99.3402 254.679 99.3757C254.56 99.4089 254.423 99.4384 254.267 99.4645C254.113 99.4882 253.962 99.5095 253.816 99.5284C253.671 99.545 253.554 99.5592 253.464 99.571C253.246 99.5994 253.043 99.6456 252.853 99.7095C252.666 99.7711 252.515 99.8646 252.399 99.9901C252.285 100.113 252.228 100.281 252.228 100.494C252.228 100.786 252.336 101.006 252.551 101.155C252.769 101.302 253.045 101.375 253.379 101.375ZM259.482 104.159C259.078 104.159 258.73 104.107 258.438 104.003C258.147 103.901 257.905 103.766 257.71 103.598C257.519 103.432 257.366 103.255 257.252 103.065L257.92 102.597C257.996 102.696 258.092 102.81 258.208 102.938C258.324 103.068 258.482 103.18 258.683 103.275C258.887 103.372 259.153 103.42 259.482 103.42C259.923 103.42 260.286 103.314 260.573 103.101C260.859 102.888 261.002 102.554 261.002 102.099V100.991H260.931C260.87 101.091 260.782 101.214 260.669 101.361C260.557 101.505 260.396 101.634 260.186 101.748C259.977 101.859 259.695 101.915 259.34 101.915C258.9 101.915 258.505 101.811 258.154 101.602C257.806 101.394 257.53 101.091 257.327 100.693C257.126 100.295 257.025 99.8125 257.025 99.2443C257.025 98.6856 257.123 98.1991 257.32 97.7848C257.516 97.3681 257.79 97.0462 258.14 96.8189C258.49 96.5893 258.895 96.4744 259.355 96.4744C259.71 96.4744 259.991 96.5336 260.2 96.652C260.41 96.768 260.571 96.9006 260.683 97.0497C260.796 97.1965 260.884 97.3172 260.945 97.4119H261.031V96.5455H261.84V102.156C261.84 102.625 261.734 103.006 261.521 103.3C261.31 103.596 261.026 103.812 260.669 103.95C260.313 104.089 259.918 104.159 259.482 104.159ZM259.454 101.162C259.79 101.162 260.074 101.085 260.306 100.931C260.538 100.777 260.715 100.556 260.835 100.267C260.956 99.9782 261.017 99.6326 261.017 99.2301C261.017 98.8371 260.957 98.4903 260.839 98.1896C260.721 97.889 260.545 97.6534 260.313 97.483C260.081 97.3125 259.795 97.2273 259.454 97.2273C259.099 97.2273 258.803 97.3172 258.566 97.4972C258.332 97.6771 258.155 97.9186 258.037 98.2216C257.921 98.5246 257.863 98.8608 257.863 99.2301C257.863 99.6089 257.922 99.9439 258.041 100.235C258.161 100.524 258.339 100.751 258.573 100.917C258.81 101.08 259.104 101.162 259.454 101.162ZM265.661 102.114C265.136 102.114 264.682 101.998 264.301 101.766C263.923 101.531 263.63 101.205 263.424 100.786C263.221 100.364 263.119 99.8741 263.119 99.3153C263.119 98.7566 263.221 98.2642 263.424 97.8381C263.63 97.4096 263.917 97.0758 264.284 96.8366C264.653 96.5952 265.084 96.4744 265.576 96.4744C265.86 96.4744 266.141 96.5218 266.418 96.6165C266.695 96.7112 266.947 96.8651 267.174 97.0781C267.401 97.2888 267.583 97.5682 267.718 97.9162C267.852 98.2642 267.92 98.6927 267.92 99.2017V99.5568H263.715V98.8324H267.068C267.068 98.5246 267.006 98.25 266.883 98.0085C266.762 97.767 266.589 97.5765 266.365 97.4368C266.142 97.2971 265.879 97.2273 265.576 97.2273C265.242 97.2273 264.954 97.3101 264.71 97.4759C264.468 97.6392 264.282 97.8523 264.152 98.1151C264.022 98.3778 263.957 98.6596 263.957 98.9602V99.4432C263.957 99.8551 264.028 100.204 264.17 100.491C264.314 100.775 264.514 100.991 264.77 101.141C265.026 101.287 265.323 101.361 265.661 101.361C265.882 101.361 266.08 101.33 266.258 101.268C266.438 101.205 266.593 101.11 266.723 100.984C266.853 100.857 266.954 100.698 267.025 100.509L267.835 100.736C267.749 101.01 267.606 101.252 267.405 101.46C267.204 101.666 266.955 101.827 266.659 101.943C266.363 102.057 266.031 102.114 265.661 102.114ZM273.058 97.767L272.306 97.9801C272.258 97.8546 272.188 97.7327 272.096 97.6143C272.006 97.4936 271.883 97.3942 271.727 97.3161C271.57 97.2379 271.37 97.1989 271.127 97.1989C270.793 97.1989 270.515 97.2758 270.292 97.4297C270.072 97.5812 269.962 97.7741 269.962 98.0085C269.962 98.2169 270.038 98.3814 270.189 98.5021C270.341 98.6229 270.577 98.7235 270.899 98.804L271.709 99.0028C272.197 99.1212 272.56 99.3023 272.799 99.5462C273.038 99.7876 273.158 100.099 273.158 100.48C273.158 100.793 273.068 101.072 272.888 101.318C272.71 101.564 272.462 101.759 272.142 101.901C271.823 102.043 271.451 102.114 271.027 102.114C270.471 102.114 270.01 101.993 269.646 101.751C269.281 101.51 269.05 101.157 268.953 100.693L269.749 100.494C269.825 100.788 269.968 101.008 270.178 101.155C270.392 101.302 270.67 101.375 271.013 101.375C271.404 101.375 271.714 101.292 271.943 101.126C272.175 100.958 272.291 100.757 272.291 100.523C272.291 100.333 272.225 100.175 272.093 100.047C271.96 99.9167 271.756 99.8196 271.482 99.7557L270.573 99.5426C270.073 99.4242 269.706 99.2408 269.472 98.9922C269.24 98.7412 269.124 98.4276 269.124 98.0511C269.124 97.7434 269.21 97.4711 269.383 97.2344C269.558 96.9976 269.796 96.8118 270.097 96.6768C270.4 96.5419 270.743 96.4744 271.127 96.4744C271.666 96.4744 272.09 96.5928 272.398 96.8295C272.708 97.0663 272.928 97.3788 273.058 97.767ZM279.604 96.5455V97.2557H276.777V96.5455H279.604ZM277.601 95.2386H278.439V100.438C278.439 100.674 278.474 100.852 278.542 100.97C278.613 101.086 278.703 101.164 278.812 101.205C278.923 101.242 279.041 101.261 279.164 101.261C279.256 101.261 279.332 101.257 279.391 101.247C279.45 101.235 279.498 101.226 279.533 101.219L279.703 101.972C279.647 101.993 279.567 102.014 279.466 102.036C279.364 102.059 279.235 102.071 279.078 102.071C278.842 102.071 278.61 102.02 278.382 101.918C278.158 101.817 277.971 101.661 277.821 101.453C277.675 101.245 277.601 100.982 277.601 100.665V95.2386ZM283.022 102.114C282.53 102.114 282.098 101.996 281.726 101.762C281.357 101.528 281.068 101.2 280.859 100.778C280.653 100.357 280.55 99.8646 280.55 99.3011C280.55 98.733 280.653 98.237 280.859 97.8132C281.068 97.3894 281.357 97.0604 281.726 96.826C282.098 96.5916 282.53 96.4744 283.022 96.4744C283.514 96.4744 283.945 96.5916 284.315 96.826C284.686 97.0604 284.975 97.3894 285.181 97.8132C285.389 98.237 285.494 98.733 285.494 99.3011C285.494 99.8646 285.389 100.357 285.181 100.778C284.975 101.2 284.686 101.528 284.315 101.762C283.945 101.996 283.514 102.114 283.022 102.114ZM283.022 101.361C283.396 101.361 283.704 101.265 283.945 101.073C284.187 100.881 284.366 100.629 284.482 100.317C284.598 100.004 284.656 99.6657 284.656 99.3011C284.656 98.9366 284.598 98.5968 284.482 98.282C284.366 97.9671 284.187 97.7126 283.945 97.5185C283.704 97.3243 283.396 97.2273 283.022 97.2273C282.648 97.2273 282.34 97.3243 282.099 97.5185C281.857 97.7126 281.679 97.9671 281.562 98.282C281.446 98.5968 281.388 98.9366 281.388 99.3011C281.388 99.6657 281.446 100.004 281.562 100.317C281.679 100.629 281.857 100.881 282.099 101.073C282.34 101.265 282.648 101.361 283.022 101.361ZM202.983 114.114C202.491 114.114 202.058 113.996 201.687 113.762C201.317 113.528 201.029 113.2 200.82 112.778C200.614 112.357 200.511 111.865 200.511 111.301C200.511 110.733 200.614 110.237 200.82 109.813C201.029 109.389 201.317 109.06 201.687 108.826C202.058 108.592 202.491 108.474 202.983 108.474C203.475 108.474 203.906 108.592 204.276 108.826C204.647 109.06 204.936 109.389 205.142 109.813C205.35 110.237 205.455 110.733 205.455 111.301C205.455 111.865 205.35 112.357 205.142 112.778C204.936 113.2 204.647 113.528 204.276 113.762C203.906 113.996 203.475 114.114 202.983 114.114ZM202.983 113.361C203.357 113.361 203.665 113.265 203.906 113.073C204.148 112.881 204.326 112.629 204.442 112.317C204.558 112.004 204.616 111.666 204.616 111.301C204.616 110.937 204.558 110.597 204.442 110.282C204.326 109.967 204.148 109.713 203.906 109.518C203.665 109.324 203.357 109.227 202.983 109.227C202.609 109.227 202.301 109.324 202.06 109.518C201.818 109.713 201.639 109.967 201.523 110.282C201.407 110.597 201.349 110.937 201.349 111.301C201.349 111.666 201.407 112.004 201.523 112.317C201.639 112.629 201.818 112.881 202.06 113.073C202.301 113.265 202.609 113.361 202.983 113.361ZM209.106 108.545V109.256H206.279V108.545H209.106ZM207.103 107.239H207.941V112.438C207.941 112.674 207.976 112.852 208.044 112.97C208.115 113.086 208.205 113.164 208.314 113.205C208.425 113.242 208.543 113.261 208.666 113.261C208.758 113.261 208.834 113.257 208.893 113.247C208.952 113.235 208.999 113.226 209.035 113.219L209.205 113.972C209.149 113.993 209.069 114.014 208.968 114.036C208.866 114.059 208.737 114.071 208.58 114.071C208.344 114.071 208.112 114.02 207.884 113.918C207.66 113.817 207.472 113.661 207.323 113.453C207.177 113.245 207.103 112.982 207.103 112.665V107.239ZM211.322 110.719V114H210.484V106.727H211.322V109.398H211.393C211.521 109.116 211.713 108.892 211.968 108.727C212.226 108.558 212.57 108.474 212.998 108.474C213.37 108.474 213.695 108.549 213.975 108.698C214.254 108.845 214.471 109.071 214.624 109.376C214.781 109.679 214.859 110.065 214.859 110.534V114H214.021V110.591C214.021 110.158 213.908 109.823 213.683 109.586C213.461 109.347 213.152 109.227 212.757 109.227C212.482 109.227 212.236 109.285 212.018 109.401C211.802 109.517 211.632 109.687 211.507 109.909C211.383 110.132 211.322 110.402 211.322 110.719ZM218.679 114.114C218.153 114.114 217.7 113.998 217.319 113.766C216.94 113.531 216.648 113.205 216.442 112.786C216.238 112.364 216.136 111.874 216.136 111.315C216.136 110.757 216.238 110.264 216.442 109.838C216.648 109.41 216.934 109.076 217.301 108.837C217.67 108.595 218.101 108.474 218.594 108.474C218.878 108.474 219.158 108.522 219.435 108.616C219.712 108.711 219.964 108.865 220.192 109.078C220.419 109.289 220.6 109.568 220.735 109.916C220.87 110.264 220.938 110.693 220.938 111.202V111.557H216.733V110.832H220.085C220.085 110.525 220.024 110.25 219.901 110.009C219.78 109.767 219.607 109.576 219.382 109.437C219.16 109.297 218.897 109.227 218.594 109.227C218.26 109.227 217.971 109.31 217.727 109.476C217.486 109.639 217.3 109.852 217.17 110.115C217.04 110.378 216.974 110.66 216.974 110.96V111.443C216.974 111.855 217.045 112.204 217.188 112.491C217.332 112.775 217.532 112.991 217.788 113.141C218.043 113.287 218.34 113.361 218.679 113.361C218.899 113.361 219.098 113.33 219.276 113.268C219.455 113.205 219.611 113.11 219.741 112.984C219.871 112.857 219.972 112.698 220.043 112.509L220.852 112.736C220.767 113.01 220.624 113.252 220.423 113.46C220.221 113.666 219.973 113.827 219.677 113.943C219.381 114.057 219.048 114.114 218.679 114.114ZM222.212 114V108.545H223.022V109.369H223.079C223.178 109.099 223.358 108.88 223.619 108.712C223.879 108.544 224.173 108.46 224.499 108.46C224.561 108.46 224.638 108.461 224.73 108.464C224.822 108.466 224.892 108.47 224.94 108.474V109.327C224.911 109.32 224.846 109.309 224.744 109.295C224.645 109.278 224.54 109.27 224.428 109.27C224.163 109.27 223.926 109.326 223.718 109.437C223.512 109.546 223.349 109.697 223.228 109.891C223.11 110.083 223.05 110.302 223.05 110.548V114H222.212ZM230.351 114.128C230.005 114.128 229.691 114.063 229.41 113.933C229.128 113.8 228.904 113.609 228.738 113.361C228.573 113.11 228.49 112.807 228.49 112.452C228.49 112.139 228.551 111.886 228.675 111.692C228.798 111.495 228.962 111.341 229.168 111.23C229.374 111.119 229.601 111.036 229.85 110.982C230.101 110.925 230.353 110.88 230.606 110.847C230.938 110.804 231.206 110.772 231.412 110.751C231.621 110.727 231.772 110.688 231.867 110.634C231.964 110.579 232.013 110.484 232.013 110.349V110.321C232.013 109.971 231.917 109.698 231.725 109.504C231.536 109.31 231.248 109.213 230.862 109.213C230.462 109.213 230.148 109.301 229.921 109.476C229.694 109.651 229.534 109.838 229.442 110.037L228.646 109.753C228.788 109.421 228.978 109.163 229.214 108.979C229.453 108.792 229.714 108.661 229.996 108.588C230.28 108.512 230.559 108.474 230.834 108.474C231.009 108.474 231.21 108.496 231.437 108.538C231.667 108.579 231.888 108.663 232.101 108.79C232.317 108.918 232.496 109.111 232.638 109.369C232.78 109.627 232.851 109.973 232.851 110.406V114H232.013V113.261H231.97C231.913 113.38 231.818 113.506 231.686 113.641C231.553 113.776 231.377 113.891 231.157 113.986C230.937 114.08 230.668 114.128 230.351 114.128ZM230.479 113.375C230.81 113.375 231.089 113.31 231.317 113.18C231.546 113.049 231.719 112.881 231.835 112.675C231.953 112.469 232.013 112.253 232.013 112.026V111.259C231.977 111.301 231.899 111.34 231.778 111.376C231.66 111.409 231.523 111.438 231.366 111.464C231.212 111.488 231.062 111.509 230.915 111.528C230.771 111.545 230.654 111.559 230.564 111.571C230.346 111.599 230.142 111.646 229.953 111.71C229.766 111.771 229.614 111.865 229.498 111.99C229.385 112.113 229.328 112.281 229.328 112.494C229.328 112.786 229.436 113.006 229.651 113.155C229.869 113.302 230.145 113.375 230.479 113.375ZM236.596 114.114C236.085 114.114 235.645 113.993 235.275 113.751C234.906 113.51 234.622 113.177 234.423 112.754C234.224 112.33 234.125 111.846 234.125 111.301C234.125 110.747 234.226 110.258 234.43 109.835C234.636 109.408 234.922 109.076 235.289 108.837C235.659 108.595 236.09 108.474 236.582 108.474C236.966 108.474 237.311 108.545 237.619 108.688C237.927 108.83 238.179 109.028 238.375 109.284C238.572 109.54 238.694 109.838 238.741 110.179H237.903C237.839 109.93 237.697 109.71 237.477 109.518C237.259 109.324 236.966 109.227 236.596 109.227C236.27 109.227 235.983 109.312 235.737 109.483C235.493 109.651 235.302 109.889 235.165 110.197C235.03 110.502 234.963 110.861 234.963 111.273C234.963 111.694 235.029 112.061 235.162 112.374C235.297 112.686 235.486 112.929 235.73 113.102C235.976 113.274 236.265 113.361 236.596 113.361C236.814 113.361 237.012 113.323 237.189 113.247C237.367 113.171 237.517 113.062 237.64 112.92C237.763 112.778 237.851 112.608 237.903 112.409H238.741C238.694 112.731 238.577 113.021 238.39 113.279C238.205 113.535 237.96 113.738 237.654 113.89C237.351 114.039 236.999 114.114 236.596 114.114ZM242.338 108.545V109.256H239.512V108.545H242.338ZM240.336 107.239H241.174V112.438C241.174 112.674 241.208 112.852 241.277 112.97C241.348 113.086 241.438 113.164 241.547 113.205C241.658 113.242 241.775 113.261 241.898 113.261C241.99 113.261 242.066 113.257 242.125 113.247C242.185 113.235 242.232 113.226 242.267 113.219L242.438 113.972C242.381 113.993 242.302 114.014 242.2 114.036C242.098 114.059 241.969 114.071 241.813 114.071C241.576 114.071 241.344 114.02 241.117 113.918C240.892 113.817 240.705 113.661 240.556 113.453C240.409 113.245 240.336 112.982 240.336 112.665V107.239ZM245.756 114.114C245.264 114.114 244.832 113.996 244.46 113.762C244.091 113.528 243.802 113.2 243.594 112.778C243.388 112.357 243.285 111.865 243.285 111.301C243.285 110.733 243.388 110.237 243.594 109.813C243.802 109.389 244.091 109.06 244.46 108.826C244.832 108.592 245.264 108.474 245.756 108.474C246.249 108.474 246.68 108.592 247.049 108.826C247.421 109.06 247.71 109.389 247.915 109.813C248.124 110.237 248.228 110.733 248.228 111.301C248.228 111.865 248.124 112.357 247.915 112.778C247.71 113.2 247.421 113.528 247.049 113.762C246.68 113.996 246.249 114.114 245.756 114.114ZM245.756 113.361C246.13 113.361 246.438 113.265 246.68 113.073C246.921 112.881 247.1 112.629 247.216 112.317C247.332 112.004 247.39 111.666 247.39 111.301C247.39 110.937 247.332 110.597 247.216 110.282C247.1 109.967 246.921 109.713 246.68 109.518C246.438 109.324 246.13 109.227 245.756 109.227C245.382 109.227 245.075 109.324 244.833 109.518C244.592 109.713 244.413 109.967 244.297 110.282C244.181 110.597 244.123 110.937 244.123 111.301C244.123 111.666 244.181 112.004 244.297 112.317C244.413 112.629 244.592 112.881 244.833 113.073C245.075 113.265 245.382 113.361 245.756 113.361ZM249.507 114V108.545H250.317V109.369H250.374C250.473 109.099 250.653 108.88 250.914 108.712C251.174 108.544 251.468 108.46 251.794 108.46C251.856 108.46 251.933 108.461 252.025 108.464C252.117 108.466 252.187 108.47 252.235 108.474V109.327C252.206 109.32 252.141 109.309 252.039 109.295C251.94 109.278 251.834 109.27 251.723 109.27C251.458 109.27 251.221 109.326 251.013 109.437C250.807 109.546 250.644 109.697 250.523 109.891C250.405 110.083 250.345 110.302 250.345 110.548V114H249.507ZM257.092 109.767L256.339 109.98C256.291 109.855 256.222 109.733 256.129 109.614C256.039 109.494 255.916 109.394 255.76 109.316C255.604 109.238 255.404 109.199 255.16 109.199C254.826 109.199 254.548 109.276 254.325 109.43C254.105 109.581 253.995 109.774 253.995 110.009C253.995 110.217 254.071 110.381 254.222 110.502C254.374 110.623 254.611 110.723 254.933 110.804L255.742 111.003C256.23 111.121 256.593 111.302 256.832 111.546C257.071 111.788 257.191 112.099 257.191 112.48C257.191 112.793 257.101 113.072 256.921 113.318C256.744 113.564 256.495 113.759 256.175 113.901C255.856 114.043 255.484 114.114 255.06 114.114C254.504 114.114 254.044 113.993 253.679 113.751C253.314 113.51 253.084 113.157 252.987 112.693L253.782 112.494C253.858 112.788 254.001 113.008 254.212 113.155C254.425 113.302 254.703 113.375 255.046 113.375C255.437 113.375 255.747 113.292 255.977 113.126C256.209 112.958 256.325 112.757 256.325 112.523C256.325 112.333 256.258 112.175 256.126 112.047C255.993 111.917 255.79 111.82 255.515 111.756L254.606 111.543C254.106 111.424 253.739 111.241 253.505 110.992C253.273 110.741 253.157 110.428 253.157 110.051C253.157 109.743 253.243 109.471 253.416 109.234C253.591 108.998 253.829 108.812 254.13 108.677C254.433 108.542 254.776 108.474 255.16 108.474C255.7 108.474 256.123 108.593 256.431 108.83C256.741 109.066 256.961 109.379 257.092 109.767ZM192.5 124.665C192.214 124.665 191.952 124.595 191.715 124.455C191.478 124.313 191.289 124.124 191.147 123.887C191.007 123.65 190.938 123.389 190.938 123.102C190.938 122.813 191.007 122.552 191.147 122.317C191.289 122.081 191.478 121.893 191.715 121.753C191.952 121.611 192.214 121.54 192.5 121.54C192.789 121.54 193.05 121.611 193.285 121.753C193.522 121.893 193.71 122.081 193.849 122.317C193.991 122.552 194.062 122.813 194.062 123.102C194.062 123.389 193.991 123.65 193.849 123.887C193.71 124.124 193.522 124.313 193.285 124.455C193.05 124.595 192.789 124.665 192.5 124.665ZM204.631 121.767L203.878 121.98C203.83 121.855 203.761 121.733 203.668 121.614C203.578 121.494 203.455 121.394 203.299 121.316C203.143 121.238 202.943 121.199 202.699 121.199C202.365 121.199 202.087 121.276 201.864 121.43C201.644 121.581 201.534 121.774 201.534 122.009C201.534 122.217 201.61 122.381 201.761 122.502C201.913 122.623 202.15 122.723 202.472 122.804L203.281 123.003C203.769 123.121 204.132 123.302 204.371 123.546C204.611 123.788 204.73 124.099 204.73 124.48C204.73 124.793 204.64 125.072 204.46 125.318C204.283 125.564 204.034 125.759 203.714 125.901C203.395 126.043 203.023 126.114 202.599 126.114C202.043 126.114 201.583 125.993 201.218 125.751C200.853 125.51 200.623 125.157 200.526 124.693L201.321 124.494C201.397 124.788 201.54 125.008 201.751 125.155C201.964 125.302 202.242 125.375 202.585 125.375C202.976 125.375 203.286 125.292 203.516 125.126C203.748 124.958 203.864 124.757 203.864 124.523C203.864 124.333 203.797 124.175 203.665 124.047C203.532 123.917 203.329 123.82 203.054 123.756L202.145 123.543C201.645 123.424 201.278 123.241 201.044 122.992C200.812 122.741 200.696 122.428 200.696 122.051C200.696 121.743 200.782 121.471 200.955 121.234C201.13 120.998 201.368 120.812 201.669 120.677C201.972 120.542 202.315 120.474 202.699 120.474C203.239 120.474 203.662 120.593 203.97 120.83C204.28 121.066 204.5 121.379 204.631 121.767ZM205.992 128.045V120.545H206.801V121.412H206.901C206.962 121.317 207.048 121.196 207.156 121.05C207.268 120.901 207.426 120.768 207.632 120.652C207.841 120.534 208.122 120.474 208.477 120.474C208.937 120.474 209.342 120.589 209.692 120.819C210.042 121.049 210.316 121.374 210.512 121.795C210.709 122.217 210.807 122.714 210.807 123.287C210.807 123.865 210.709 124.365 210.512 124.789C210.316 125.21 210.044 125.537 209.695 125.769C209.347 125.999 208.946 126.114 208.492 126.114C208.141 126.114 207.861 126.056 207.65 125.94C207.439 125.821 207.277 125.687 207.164 125.538C207.05 125.387 206.962 125.261 206.901 125.162H206.83V128.045H205.992ZM206.816 123.273C206.816 123.685 206.876 124.048 206.997 124.363C207.117 124.675 207.294 124.92 207.526 125.098C207.758 125.273 208.042 125.361 208.378 125.361C208.728 125.361 209.021 125.268 209.255 125.084C209.492 124.897 209.669 124.646 209.788 124.331C209.909 124.014 209.969 123.661 209.969 123.273C209.969 122.889 209.91 122.544 209.791 122.236C209.675 121.926 209.499 121.681 209.262 121.501C209.028 121.318 208.733 121.227 208.378 121.227C208.037 121.227 207.751 121.314 207.519 121.487C207.287 121.657 207.111 121.896 206.993 122.204C206.875 122.509 206.816 122.866 206.816 123.273ZM213.691 126.128C213.345 126.128 213.031 126.063 212.749 125.933C212.468 125.8 212.244 125.609 212.078 125.361C211.913 125.11 211.83 124.807 211.83 124.452C211.83 124.139 211.891 123.886 212.014 123.692C212.137 123.495 212.302 123.341 212.508 123.23C212.714 123.119 212.941 123.036 213.19 122.982C213.441 122.925 213.693 122.88 213.946 122.847C214.278 122.804 214.546 122.772 214.752 122.751C214.961 122.727 215.112 122.688 215.207 122.634C215.304 122.579 215.352 122.484 215.352 122.349V122.321C215.352 121.971 215.257 121.698 215.065 121.504C214.875 121.31 214.588 121.213 214.202 121.213C213.802 121.213 213.488 121.301 213.261 121.476C213.034 121.651 212.874 121.838 212.781 122.037L211.986 121.753C212.128 121.421 212.317 121.163 212.554 120.979C212.793 120.792 213.054 120.661 213.335 120.588C213.619 120.512 213.899 120.474 214.173 120.474C214.349 120.474 214.55 120.496 214.777 120.538C215.007 120.579 215.228 120.663 215.441 120.79C215.657 120.918 215.835 121.111 215.977 121.369C216.119 121.627 216.191 121.973 216.191 122.406V126H215.352V125.261H215.31C215.253 125.38 215.158 125.506 215.026 125.641C214.893 125.776 214.717 125.891 214.497 125.986C214.276 126.08 214.008 126.128 213.691 126.128ZM213.818 125.375C214.15 125.375 214.429 125.31 214.656 125.18C214.886 125.049 215.059 124.881 215.175 124.675C215.293 124.469 215.352 124.253 215.352 124.026V123.259C215.317 123.301 215.239 123.34 215.118 123.376C215 123.409 214.862 123.438 214.706 123.464C214.552 123.488 214.402 123.509 214.255 123.528C214.111 123.545 213.994 123.559 213.904 123.571C213.686 123.599 213.482 123.646 213.293 123.71C213.106 123.771 212.954 123.865 212.838 123.99C212.725 124.113 212.668 124.281 212.668 124.494C212.668 124.786 212.776 125.006 212.991 125.155C213.209 125.302 213.485 125.375 213.818 125.375ZM218.956 126L217.294 120.545H218.175L219.354 124.722H219.411L220.575 120.545H221.47L222.621 124.707H222.678L223.857 120.545H224.737L223.075 126H222.251L221.058 121.81H220.973L219.78 126H218.956ZM226.683 122.719V126H225.845V120.545H226.655V121.398H226.726C226.854 121.121 227.048 120.898 227.308 120.73C227.569 120.56 227.905 120.474 228.317 120.474C228.686 120.474 229.009 120.55 229.286 120.702C229.563 120.851 229.779 121.078 229.933 121.384C230.086 121.687 230.163 122.07 230.163 122.534V126H229.325V122.591C229.325 122.162 229.214 121.829 228.991 121.589C228.769 121.348 228.464 121.227 228.075 121.227C227.808 121.227 227.569 121.285 227.358 121.401C227.15 121.517 226.985 121.687 226.864 121.909C226.744 122.132 226.683 122.402 226.683 122.719ZM235.345 122.719V126H234.507V120.545H235.317V121.398H235.388C235.516 121.121 235.71 120.898 235.97 120.73C236.231 120.56 236.567 120.474 236.979 120.474C237.348 120.474 237.671 120.55 237.948 120.702C238.225 120.851 238.441 121.078 238.595 121.384C238.749 121.687 238.825 122.07 238.825 122.534V126H237.987V122.591C237.987 122.162 237.876 121.829 237.654 121.589C237.431 121.348 237.126 121.227 236.737 121.227C236.47 121.227 236.231 121.285 236.02 121.401C235.812 121.517 235.647 121.687 235.526 121.909C235.406 122.132 235.345 122.402 235.345 122.719ZM242.644 126.114C242.118 126.114 241.665 125.998 241.284 125.766C240.905 125.531 240.613 125.205 240.407 124.786C240.203 124.364 240.101 123.874 240.101 123.315C240.101 122.757 240.203 122.264 240.407 121.838C240.613 121.41 240.899 121.076 241.266 120.837C241.635 120.595 242.066 120.474 242.559 120.474C242.843 120.474 243.123 120.522 243.4 120.616C243.677 120.711 243.929 120.865 244.157 121.078C244.384 121.289 244.565 121.568 244.7 121.916C244.835 122.264 244.902 122.693 244.902 123.202V123.557H240.698V122.832H244.05C244.05 122.525 243.989 122.25 243.865 122.009C243.745 121.767 243.572 121.576 243.347 121.437C243.124 121.297 242.862 121.227 242.559 121.227C242.225 121.227 241.936 121.31 241.692 121.476C241.451 121.639 241.265 121.852 241.135 122.115C241.004 122.378 240.939 122.66 240.939 122.96V123.443C240.939 123.855 241.01 124.204 241.152 124.491C241.297 124.775 241.497 124.991 241.752 125.141C242.008 125.287 242.305 125.361 242.644 125.361C242.864 125.361 243.063 125.33 243.24 125.268C243.42 125.205 243.575 125.11 243.706 124.984C243.836 124.857 243.936 124.698 244.007 124.509L244.817 124.736C244.732 125.01 244.589 125.252 244.387 125.46C244.186 125.666 243.938 125.827 243.642 125.943C243.346 126.057 243.013 126.114 242.644 126.114ZM247.413 126L245.751 120.545H246.632L247.811 124.722H247.868L249.032 120.545H249.927L251.078 124.707H251.135L252.314 120.545H253.194L251.532 126H250.708L249.515 121.81H249.43L248.237 126H247.413ZM258.72 126.128C258.374 126.128 258.06 126.063 257.779 125.933C257.497 125.8 257.273 125.609 257.108 125.361C256.942 125.11 256.859 124.807 256.859 124.452C256.859 124.139 256.921 123.886 257.044 123.692C257.167 123.495 257.331 123.341 257.537 123.23C257.743 123.119 257.971 123.036 258.219 122.982C258.47 122.925 258.722 122.88 258.975 122.847C259.307 122.804 259.576 122.772 259.782 122.751C259.99 122.727 260.141 122.688 260.236 122.634C260.333 122.579 260.382 122.484 260.382 122.349V122.321C260.382 121.971 260.286 121.698 260.094 121.504C259.905 121.31 259.617 121.213 259.231 121.213C258.831 121.213 258.517 121.301 258.29 121.476C258.063 121.651 257.903 121.838 257.811 122.037L257.015 121.753C257.157 121.421 257.347 121.163 257.583 120.979C257.823 120.792 258.083 120.661 258.365 120.588C258.649 120.512 258.928 120.474 259.203 120.474C259.378 120.474 259.579 120.496 259.806 120.538C260.036 120.579 260.257 120.663 260.471 120.79C260.686 120.918 260.865 121.111 261.007 121.369C261.149 121.627 261.22 121.973 261.22 122.406V126H260.382V125.261H260.339C260.282 125.38 260.188 125.506 260.055 125.641C259.922 125.776 259.746 125.891 259.526 125.986C259.306 126.08 259.037 126.128 258.72 126.128ZM258.848 125.375C259.179 125.375 259.458 125.31 259.686 125.18C259.915 125.049 260.088 124.881 260.204 124.675C260.323 124.469 260.382 124.253 260.382 124.026V123.259C260.346 123.301 260.268 123.34 260.147 123.376C260.029 123.409 259.892 123.438 259.735 123.464C259.582 123.488 259.431 123.509 259.284 123.528C259.14 123.545 259.023 123.559 258.933 123.571C258.715 123.599 258.511 123.646 258.322 123.71C258.135 123.771 257.984 123.865 257.868 123.99C257.754 124.113 257.697 124.281 257.697 124.494C257.697 124.786 257.805 125.006 258.02 125.155C258.238 125.302 258.514 125.375 258.848 125.375ZM264.965 126.114C264.454 126.114 264.014 125.993 263.644 125.751C263.275 125.51 262.991 125.177 262.792 124.754C262.593 124.33 262.494 123.846 262.494 123.301C262.494 122.747 262.596 122.258 262.799 121.835C263.005 121.408 263.292 121.076 263.659 120.837C264.028 120.595 264.459 120.474 264.951 120.474C265.335 120.474 265.68 120.545 265.988 120.688C266.296 120.83 266.548 121.028 266.744 121.284C266.941 121.54 267.063 121.838 267.11 122.179H266.272C266.208 121.93 266.066 121.71 265.846 121.518C265.628 121.324 265.335 121.227 264.965 121.227C264.639 121.227 264.352 121.312 264.106 121.483C263.862 121.651 263.672 121.889 263.534 122.197C263.399 122.502 263.332 122.861 263.332 123.273C263.332 123.694 263.398 124.061 263.531 124.374C263.666 124.686 263.855 124.929 264.099 125.102C264.345 125.274 264.634 125.361 264.965 125.361C265.183 125.361 265.381 125.323 265.558 125.247C265.736 125.171 265.886 125.062 266.009 124.92C266.133 124.778 266.22 124.608 266.272 124.409H267.11C267.063 124.731 266.946 125.021 266.759 125.279C266.574 125.535 266.329 125.738 266.024 125.89C265.721 126.039 265.368 126.114 264.965 126.114ZM270.708 120.545V121.256H267.881V120.545H270.708ZM268.705 119.239H269.543V124.438C269.543 124.674 269.577 124.852 269.646 124.97C269.717 125.086 269.807 125.164 269.916 125.205C270.027 125.242 270.144 125.261 270.267 125.261C270.36 125.261 270.435 125.257 270.494 125.247C270.554 125.235 270.601 125.226 270.637 125.219L270.807 125.972C270.75 125.993 270.671 126.014 270.569 126.036C270.467 126.059 270.338 126.071 270.182 126.071C269.945 126.071 269.713 126.02 269.486 125.918C269.261 125.817 269.074 125.661 268.925 125.453C268.778 125.245 268.705 124.982 268.705 124.665V119.239ZM274.126 126.114C273.633 126.114 273.201 125.996 272.829 125.762C272.46 125.528 272.171 125.2 271.963 124.778C271.757 124.357 271.654 123.865 271.654 123.301C271.654 122.733 271.757 122.237 271.963 121.813C272.171 121.389 272.46 121.06 272.829 120.826C273.201 120.592 273.633 120.474 274.126 120.474C274.618 120.474 275.049 120.592 275.418 120.826C275.79 121.06 276.079 121.389 276.285 121.813C276.493 122.237 276.597 122.733 276.597 123.301C276.597 123.865 276.493 124.357 276.285 124.778C276.079 125.2 275.79 125.528 275.418 125.762C275.049 125.996 274.618 126.114 274.126 126.114ZM274.126 125.361C274.5 125.361 274.807 125.265 275.049 125.073C275.29 124.881 275.469 124.629 275.585 124.317C275.701 124.004 275.759 123.666 275.759 123.301C275.759 122.937 275.701 122.597 275.585 122.282C275.469 121.967 275.29 121.713 275.049 121.518C274.807 121.324 274.5 121.227 274.126 121.227C273.751 121.227 273.444 121.324 273.202 121.518C272.961 121.713 272.782 121.967 272.666 122.282C272.55 122.597 272.492 122.937 272.492 123.301C272.492 123.666 272.55 124.004 272.666 124.317C272.782 124.629 272.961 124.881 273.202 125.073C273.444 125.265 273.751 125.361 274.126 125.361ZM277.876 126V120.545H278.686V121.369H278.743C278.842 121.099 279.022 120.88 279.283 120.712C279.543 120.544 279.837 120.46 280.163 120.46C280.225 120.46 280.302 120.461 280.394 120.464C280.487 120.466 280.556 120.47 280.604 120.474V121.327C280.575 121.32 280.51 121.309 280.408 121.295C280.309 121.278 280.204 121.27 280.092 121.27C279.827 121.27 279.59 121.326 279.382 121.437C279.176 121.546 279.013 121.697 278.892 121.891C278.774 122.083 278.714 122.302 278.714 122.548V126H277.876ZM285.461 121.767L284.708 121.98C284.661 121.855 284.591 121.733 284.498 121.614C284.408 121.494 284.285 121.394 284.129 121.316C283.973 121.238 283.773 121.199 283.529 121.199C283.195 121.199 282.917 121.276 282.694 121.43C282.474 121.581 282.364 121.774 282.364 122.009C282.364 122.217 282.44 122.381 282.591 122.502C282.743 122.623 282.98 122.723 283.302 122.804L284.111 123.003C284.599 123.121 284.962 123.302 285.202 123.546C285.441 123.788 285.56 124.099 285.56 124.48C285.56 124.793 285.47 125.072 285.29 125.318C285.113 125.564 284.864 125.759 284.545 125.901C284.225 126.043 283.853 126.114 283.43 126.114C282.873 126.114 282.413 125.993 282.048 125.751C281.684 125.51 281.453 125.157 281.356 124.693L282.151 124.494C282.227 124.788 282.37 125.008 282.581 125.155C282.794 125.302 283.072 125.375 283.415 125.375C283.806 125.375 284.116 125.292 284.346 125.126C284.578 124.958 284.694 124.757 284.694 124.523C284.694 124.333 284.627 124.175 284.495 124.047C284.362 123.917 284.159 123.82 283.884 123.756L282.975 123.543C282.475 123.424 282.108 123.241 281.874 122.992C281.642 122.741 281.526 122.428 281.526 122.051C281.526 121.743 281.613 121.471 281.785 121.234C281.961 120.998 282.198 120.812 282.499 120.677C282.802 120.542 283.145 120.474 283.529 120.474C284.069 120.474 284.492 120.593 284.8 120.83C285.11 121.066 285.331 121.379 285.461 121.767Z" fill="black"/>
</svg>
