<?xml version="1.0" encoding="UTF-8" standalone="no"?>
<!DOCTYPE svg PUBLIC "-//W3C//DTD SVG 1.1//EN" "http://www.w3.org/Graphics/SVG/1.1/DTD/svg11.dtd">
<!-- Generated by Microsoft Visio, SVG Export split-merge.svg split-merge-scheme -->
<svg xmlns="http://www.w3.org/2000/svg" xmlns:xlink="http://www.w3.org/1999/xlink" xmlns:ev="http://www.w3.org/2001/xml-events"
		xmlns:v="http://schemas.microsoft.com/visio/2003/SVGExtensions/" width="17.2276in" height="5.26167in"
		viewBox="0 0 1240.39 378.84" xml:space="preserve" color-interpolation-filters="sRGB" class="st14">
	<v:documentProperties v:langID="1049" v:metric="true" v:viewMarkup="false">
		<v:userDefs>
			<v:ud v:nameU="msvNoAutoConnect" v:val="VT0(1):26"/>
		</v:userDefs>
	</v:documentProperties>

	<style type="text/css">
	<![CDATA[
		.st1 {fill:#ffffff;stroke:#000000;stroke-linecap:round;stroke-linejoin:round;stroke-width:1.75}
		.st2 {fill:none;stroke:none;stroke-linecap:round;stroke-linejoin:round;stroke-width:0.75}
		.st3 {fill:#000000;font-family:Inter;font-size:1.5em}
		.st4 {stroke:#000000;stroke-linecap:round;stroke-linejoin:round;stroke-width:3.25}
		.st5 {font-size:1em}
		.st6 {fill:#00b0f0;stroke:#00b0f0;stroke-linecap:round;stroke-linejoin:round;stroke-width:1.75}
		.st7 {stroke:#00b0f0;stroke-linecap:round;stroke-linejoin:round;stroke-width:3.25}
		.st8 {fill:#00b0f0;font-family:Inter;font-size:1.5em}
		.st9 {stroke:#000000;stroke-dasharray:5.25,3.75;stroke-linecap:round;stroke-linejoin:round;stroke-width:0.75}
		.st10 {marker-end:url(#mrkr4-180);stroke:#000000;stroke-linecap:round;stroke-linejoin:round;stroke-width:1.5}
		.st11 {fill:#000000;fill-opacity:1;stroke:#000000;stroke-opacity:1;stroke-width:0.37313432835821}
		.st12 {fill:#ffffff;stroke:none;stroke-linecap:butt;stroke-width:7.2}
		.st13 {fill:#000000;font-family:Inter;font-size:3em}
		.st14 {fill:none;fill-rule:evenodd;font-size:12px;overflow:visible;stroke-linecap:square;stroke-miterlimit:3}
	]]>
	</style>

	<defs id="Markers">
		<g id="lend4">
			<path d="M 2 1 L 0 0 L 2 -1 L 2 1 " style="stroke:none"/>
		</g>
		<marker id="mrkr4-180" class="st11" v:arrowType="4" v:arrowSize="2" v:setback="5.36" refX="-5.36" orient="auto"
				markerUnits="strokeWidth" overflow="visible">
			<use xlink:href="#lend4" transform="scale(-2.68,-2.68) "/>
		</marker>
	</defs>
	<g v:mID="54" v:index="14" v:groupContext="foregroundPage">
		<title>split-merge-scheme</title>
		<v:pageProperties v:drawingScale="0.0393701" v:pageScale="0.0393701" v:drawingUnits="24" v:shadowOffsetX="8.50394"
				v:shadowOffsetY="-8.50394"/>
		<v:layer v:name="Connector" v:index="0"/>
		<g id="shape1-1" v:mID="1" v:groupContext="shape" transform="translate(340.199,-317.945)">
			<title>Circle.37</title>
			<v:userDefs>
				<v:ud v:nameU="visVersion" v:val="VT0(15):26"/>
			</v:userDefs>
			<path d="M0 374.59 A4.25199 4.25199 0 0 1 8.5 374.59 A4.25199 4.25199 0 1 1 -0 374.59 Z" class="st1"/>
		</g>
		<g id="shape2-3" v:mID="2" v:groupContext="shape" transform="translate(292.01,-317.945)">
			<title>Sheet.2</title>
			<desc>seqno = 28</desc>
			<v:textBlock v:margins="rect(4,4,4,4)" v:tabSpace="42.5197"/>
			<v:textRect cx="52.4409" cy="357.58" width="104.89" height="42.5197"/>
			<rect x="0" y="336.32" width="104.882" height="42.5197" class="st2"/>
			<text x="4.39" y="362.98" class="st3" v:langID="1033"><v:paragraph v:horizAlign="1"/><v:tabList/>seqno = 28</text>		</g>
		<g id="shape3-6" v:mID="3" v:groupContext="shape" v:layerMember="0" transform="translate(283.506,-329.284)">
			<title>Dynamic connector.44</title>
			<path d="M0 385.93 L56.69 385.93" class="st4"/>
		</g>
		<g id="shape4-9" v:mID="4" v:groupContext="shape" v:layerMember="0" transform="translate(348.703,-328.575)">
			<title>Dynamic connector.4</title>
			<path d="M0 385.22 L279 386.64" class="st4"/>
		</g>
		<g id="shape5-12" v:mID="5" v:groupContext="shape" transform="translate(20.3092,-300.938)">
			<title>Sheet.5</title>
			<desc>Masterchain (workchain = -1)</desc>
			<v:textBlock v:margins="rect(4,4,4,4)" v:tabSpace="42.5197"/>
			<v:textRect cx="131.598" cy="357.58" width="263.2" height="42.5197"/>
			<rect x="0" y="336.32" width="263.197" height="42.5197" class="st2"/>
			<text x="79.13" y="352.18" class="st3" v:langID="1033"><v:paragraph v:horizAlign="1"/><v:tabList/>Masterchain <v:lf/><tspan
						x="62.01" dy="1.2em" class="st5">(workchain = </tspan>-1)</text>		</g>
		<g id="shape7-16" v:mID="7" v:groupContext="shape" transform="translate(627.703,-316.528)">
			<title>Circle.7</title>
			<v:userDefs>
				<v:ud v:nameU="visVersion" v:val="VT0(15):26"/>
			</v:userDefs>
			<path d="M0 374.59 A4.25199 4.25199 0 0 1 8.5 374.59 A4.25199 4.25199 0 1 1 -0 374.59 Z" class="st1"/>
		</g>
		<g id="shape8-18" v:mID="8" v:groupContext="shape" v:layerMember="0" transform="translate(636.207,-327.158)">
			<title>Dynamic connector.8</title>
			<path d="M0 385.22 L311.81 386.64" class="st4"/>
		</g>
		<g id="shape9-21" v:mID="9" v:groupContext="shape" transform="translate(948.018,-315.111)">
			<title>Circle.9</title>
			<v:userDefs>
				<v:ud v:nameU="visVersion" v:val="VT0(15):26"/>
			</v:userDefs>
			<path d="M0 374.59 A4.25199 4.25199 0 0 1 8.5 374.59 A4.25199 4.25199 0 1 1 -0 374.59 Z" class="st1"/>
		</g>
		<g id="shape12-23" v:mID="12" v:groupContext="shape" transform="translate(579.514,-316.528)">
			<title>Sheet.12</title>
			<desc>seqno = 29</desc>
			<v:textBlock v:margins="rect(4,4,4,4)" v:tabSpace="42.5197"/>
			<v:textRect cx="52.4409" cy="357.58" width="104.89" height="42.5197"/>
			<rect x="0" y="336.32" width="104.882" height="42.5197" class="st2"/>
			<text x="4.32" y="362.98" class="st3" v:langID="1033"><v:paragraph v:horizAlign="1"/><v:tabList/>seqno = 29</text>		</g>
		<g id="shape13-26" v:mID="13" v:groupContext="shape" transform="translate(899.829,-316.528)">
			<title>Sheet.13</title>
			<desc>seqno = 30</desc>
			<v:textBlock v:margins="rect(4,4,4,4)" v:tabSpace="42.5197"/>
			<v:textRect cx="52.4409" cy="357.58" width="104.89" height="42.5197"/>
			<rect x="0" y="336.32" width="104.882" height="42.5197" class="st2"/>
			<text x="4.03" y="362.98" class="st3" v:langID="1033"><v:paragraph v:horizAlign="1"/><v:tabList/>seqno = 30</text>		</g>
		<g id="shape14-29" v:mID="14" v:groupContext="shape" transform="translate(324.396,-208.811)">
			<title>Circle.14</title>
			<v:userDefs>
				<v:ud v:nameU="visVersion" v:val="VT0(15):26"/>
			</v:userDefs>
			<path d="M0 374.59 A4.25199 4.25199 0 0 1 8.5 374.59 A4.25199 4.25199 0 1 1 -0 374.59 Z" class="st6"/>
		</g>
		<g id="shape15-31" v:mID="15" v:groupContext="shape" v:layerMember="0" transform="translate(281.876,-220.15)">
			<title>Dynamic connector.15</title>
			<path d="M0 385.93 L1.33 385.93 L1.33 385.93 L42.52 385.93" class="st7"/>
		</g>
		<g id="shape16-34" v:mID="16" v:groupContext="shape" transform="translate(18.375,-191.804)">
			<title>Sheet.16</title>
			<desc>Basechain (workchain = 0)</desc>
			<v:textBlock v:margins="rect(4,4,4,4)" v:tabSpace="42.5197"/>
			<v:textRect cx="131.598" cy="357.58" width="263.2" height="42.5197"/>
			<rect x="0" y="336.32" width="263.197" height="42.5197" class="st2"/>
			<text x="87.9" y="352.18" class="st8" v:langID="1033"><v:paragraph v:horizAlign="1"/><v:tabList/>Basechain <v:lf/><tspan
						x="64.71" dy="1.2em" class="st5">(workchain = 0)</tspan></text>		</g>
		<g id="shape17-38" v:mID="17" v:groupContext="shape" transform="translate(274.789,-171.961)">
			<title>Sheet.17</title>
			<desc>100</desc>
			<v:textBlock v:margins="rect(4,4,4,4)" v:tabSpace="42.5197"/>
			<v:textRect cx="52.4409" cy="357.58" width="104.89" height="42.5197"/>
			<rect x="0" y="336.32" width="104.882" height="42.5197" class="st2"/>
			<text x="37.01" y="362.98" class="st8" v:langID="1033"><v:paragraph v:horizAlign="1"/><v:tabList/>100</text>		</g>
		<g id="shape18-41" v:mID="18" v:groupContext="shape" transform="translate(416.522,-208.811)">
			<title>Circle.18</title>
			<v:userDefs>
				<v:ud v:nameU="visVersion" v:val="VT0(15):26"/>
			</v:userDefs>
			<path d="M0 374.59 A4.25199 4.25199 0 0 1 8.5 374.59 A4.25199 4.25199 0 1 1 -0 374.59 Z" class="st6"/>
		</g>
		<g id="shape19-43" v:mID="19" v:groupContext="shape" v:layerMember="0" transform="translate(332.9,-220.15)">
			<title>Dynamic connector.19</title>
			<path d="M0 385.93 L10.63 385.93 L10.63 385.93 L83.62 385.93" class="st7"/>
		</g>
		<g id="shape20-46" v:mID="20" v:groupContext="shape" transform="translate(366.915,-171.961)">
			<title>Sheet.20</title>
			<desc>101</desc>
			<v:textBlock v:margins="rect(4,4,4,4)" v:tabSpace="42.5197"/>
			<v:textRect cx="52.4409" cy="357.58" width="104.89" height="42.5197"/>
			<rect x="0" y="336.32" width="104.882" height="42.5197" class="st2"/>
			<text x="38.46" y="362.98" class="st8" v:langID="1033"><v:paragraph v:horizAlign="1"/><v:tabList/>101</text>		</g>
		<g id="shape22-49" v:mID="22" v:groupContext="shape" transform="translate(514.317,-208.811)">
			<title>Circle.22</title>
			<v:userDefs>
				<v:ud v:nameU="visVersion" v:val="VT0(15):26"/>
			</v:userDefs>
			<path d="M0 374.59 A4.25199 4.25199 0 0 1 8.5 374.59 A4.25199 4.25199 0 1 1 -0 374.59 Z" class="st6"/>
		</g>
		<g id="shape23-51" v:mID="23" v:groupContext="shape" v:layerMember="0" transform="translate(423.608,-220.15)">
			<title>Dynamic connector.23</title>
			<path d="M0 385.93 L10.63 385.93 L10.63 385.93 L90.71 385.93" class="st7"/>
		</g>
		<g id="shape24-54" v:mID="24" v:groupContext="shape" transform="translate(467.545,-171.961)">
			<title>Sheet.24</title>
			<desc>102</desc>
			<v:textBlock v:margins="rect(4,4,4,4)" v:tabSpace="42.5197"/>
			<v:textRect cx="52.4409" cy="357.58" width="104.89" height="42.5197"/>
			<rect x="0" y="336.32" width="104.882" height="42.5197" class="st2"/>
			<text x="37.19" y="362.98" class="st8" v:langID="1033"><v:paragraph v:horizAlign="1"/><v:tabList/>102</text>		</g>
		<g id="shape25-57" v:mID="25" v:groupContext="shape" transform="translate(610.695,-208.811)">
			<title>Circle.25</title>
			<v:userDefs>
				<v:ud v:nameU="visVersion" v:val="VT0(15):26"/>
			</v:userDefs>
			<path d="M0 374.59 A4.25199 4.25199 0 0 1 8.5 374.59 A4.25199 4.25199 0 1 1 -0 374.59 Z" class="st6"/>
		</g>
		<g id="shape26-59" v:mID="26" v:groupContext="shape" v:layerMember="0" transform="translate(522.821,-220.15)">
			<title>Dynamic connector.26</title>
			<path d="M0 385.93 L87.87 385.93" class="st7"/>
		</g>
		<g id="shape27-62" v:mID="27" v:groupContext="shape" transform="translate(562.506,-171.961)">
			<title>Sheet.27</title>
			<desc>103</desc>
			<v:textBlock v:margins="rect(4,4,4,4)" v:tabSpace="42.5197"/>
			<v:textRect cx="52.4409" cy="357.58" width="104.89" height="42.5197"/>
			<rect x="0" y="336.32" width="104.882" height="42.5197" class="st2"/>
			<text x="36.91" y="362.98" class="st8" v:langID="1033"><v:paragraph v:horizAlign="1"/><v:tabList/>103</text>		</g>
		<g id="shape28-65" v:mID="28" v:groupContext="shape" v:layerMember="0" transform="translate(956.522,-312.276)">
			<title>Dynamic connector.28</title>
			<path d="M0 371.75 L165.43 371.75" class="st4"/>
		</g>
		<g id="shape29-68" v:mID="29" v:groupContext="shape" transform="translate(708.49,-208.812)">
			<title>Circle.29</title>
			<v:userDefs>
				<v:ud v:nameU="visVersion" v:val="VT0(15):26"/>
			</v:userDefs>
			<path d="M0 374.59 A4.25199 4.25199 0 0 1 8.5 374.59 A4.25199 4.25199 0 1 1 -0 374.59 Z" class="st6"/>
		</g>
		<g id="shape30-70" v:mID="30" v:groupContext="shape" v:layerMember="0" transform="translate(633.083,-206.139)">
			<title>Dynamic connector.30</title>
			<path d="M0 371.92 L75.41 371.59" class="st7"/>
		</g>
		<g id="shape31-73" v:mID="31" v:groupContext="shape" transform="translate(661.719,-171.961)">
			<title>Sheet.31</title>
			<desc>104</desc>
			<v:textBlock v:margins="rect(4,4,4,4)" v:tabSpace="42.5197"/>
			<v:textRect cx="52.4409" cy="357.58" width="104.89" height="42.5197"/>
			<rect x="0" y="336.32" width="104.882" height="42.5197" class="st2"/>
			<text x="36.86" y="362.98" class="st8" v:langID="1033"><v:paragraph v:horizAlign="1"/><v:tabList/>104</text>		</g>
		<g id="shape32-76" v:mID="32" v:groupContext="shape" v:layerMember="0" transform="translate(619.054,-219.988)">
			<title>Dynamic connector.32</title>
			<path d="M0.14 385.76 L14.03 385.76 L14.03 386.09" class="st7"/>
		</g>
		<g id="shape33-79" v:mID="33" v:groupContext="shape" transform="translate(881.404,-209.095)">
			<title>Circle.33</title>
			<v:userDefs>
				<v:ud v:nameU="visVersion" v:val="VT0(15):26"/>
			</v:userDefs>
			<path d="M0 374.59 A4.25199 4.25199 0 0 1 8.5 374.59 A4.25199 4.25199 0 1 1 -0 374.59 Z" class="st6"/>
		</g>
		<g id="shape34-81" v:mID="34" v:groupContext="shape" v:layerMember="0" transform="translate(718.128,-220.434)">
			<title>Dynamic connector.34</title>
			<path d="M0 385.93 L163.28 385.93" class="st7"/>
		</g>
		<g id="shape35-84" v:mID="35" v:groupContext="shape" transform="translate(834.632,-172.245)">
			<title>Sheet.35</title>
			<desc>105</desc>
			<v:textBlock v:margins="rect(4,4,4,4)" v:tabSpace="42.5197"/>
			<v:textRect cx="52.4409" cy="357.58" width="104.89" height="42.5197"/>
			<rect x="0" y="336.32" width="104.882" height="42.5197" class="st2"/>
			<text x="37.16" y="362.98" class="st8" v:langID="1033"><v:paragraph v:horizAlign="1"/><v:tabList/>105</text>		</g>
		<g id="shape36-87" v:mID="36" v:groupContext="shape" transform="translate(1054.46,-208.812)">
			<title>Circle.36</title>
			<v:userDefs>
				<v:ud v:nameU="visVersion" v:val="VT0(15):26"/>
			</v:userDefs>
			<path d="M0 374.59 A4.25199 4.25199 0 0 1 8.5 374.59 A4.25199 4.25199 0 1 1 -0 374.59 Z" class="st6"/>
		</g>
		<g id="shape37-89" v:mID="37" v:groupContext="shape" v:layerMember="0" transform="translate(891.183,-219.957)">
			<title>Dynamic connector.37</title>
			<path d="M0 385.73 L62.2 386.12" class="st7"/>
		</g>
		<g id="shape38-92" v:mID="38" v:groupContext="shape" transform="translate(1007.69,-171.961)">
			<title>Sheet.38</title>
			<desc>106</desc>
			<v:textBlock v:margins="rect(4,4,4,4)" v:tabSpace="42.5197"/>
			<v:textRect cx="52.4409" cy="357.58" width="104.89" height="42.5197"/>
			<rect x="0" y="336.32" width="104.882" height="42.5197" class="st2"/>
			<text x="37.02" y="362.98" class="st8" v:langID="1033"><v:paragraph v:horizAlign="1"/><v:tabList/>106</text>		</g>
		<g id="shape39-95" v:mID="39" v:groupContext="shape" v:layerMember="0" transform="translate(1064.24,-206.285)">
			<title>Dynamic connector.39</title>
			<path d="M0 372.06 L71.84 371.45" class="st7"/>
		</g>
		<g id="shape40-98" v:mID="40" v:groupContext="shape" v:layerMember="0" transform="translate(953.383,-205.784)">
			<title>Dynamic connector.40</title>
			<path d="M0 371.95 L101.08 371.56" class="st7"/>
		</g>
		<g id="shape41-101" v:mID="41" v:groupContext="shape" transform="translate(656.049,-283.93)">
			<title>Circle.41</title>
			<v:userDefs>
				<v:ud v:nameU="visVersion" v:val="VT0(15):26"/>
			</v:userDefs>
			<path d="M0 374.59 A4.25199 4.25199 0 0 1 8.5 374.59 A4.25199 4.25199 0 1 1 -0 374.59 Z" class="st6"/>
		</g>
		<g id="shape42-103" v:mID="42" v:groupContext="shape" transform="translate(607.981,-277.46)">
			<title>Sheet.42</title>
			<desc>60</desc>
			<v:textBlock v:margins="rect(4,4,4,4)" v:tabSpace="42.5197"/>
			<v:textRect cx="52.4409" cy="357.58" width="104.89" height="42.5197"/>
			<rect x="0" y="336.32" width="104.882" height="42.5197" class="st2"/>
			<text x="41.2" y="362.98" class="st8" v:langID="1033"><v:paragraph v:horizAlign="1"/><v:tabList/>60</text>		</g>
		<g id="shape43-106" v:mID="43" v:groupContext="shape" transform="translate(729.041,-283.93)">
			<title>Circle.43</title>
			<v:userDefs>
				<v:ud v:nameU="visVersion" v:val="VT0(15):26"/>
			</v:userDefs>
			<path d="M0 374.59 A4.25199 4.25199 0 0 1 8.5 374.59 A4.25199 4.25199 0 1 1 -0 374.59 Z" class="st6"/>
		</g>
		<g id="shape44-108" v:mID="44" v:groupContext="shape" v:layerMember="0" transform="translate(663.136,-295.268)">
			<title>Dynamic connector.44</title>
			<path d="M0 385.93 L10.63 385.93 L10.63 385.93 L65.91 385.93" class="st7"/>
		</g>
		<g id="shape45-111" v:mID="45" v:groupContext="shape" transform="translate(680.265,-277.46)">
			<title>Sheet.45</title>
			<desc>61</desc>
			<v:textBlock v:margins="rect(4,4,4,4)" v:tabSpace="42.5197"/>
			<v:textRect cx="52.4409" cy="357.58" width="104.89" height="42.5197"/>
			<rect x="0" y="336.32" width="104.882" height="42.5197" class="st2"/>
			<text x="42.65" y="362.98" class="st8" v:langID="1033"><v:paragraph v:horizAlign="1"/><v:tabList/>61</text>		</g>
		<g id="shape46-114" v:mID="46" v:groupContext="shape" transform="translate(825.419,-283.93)">
			<title>Circle.46</title>
			<v:userDefs>
				<v:ud v:nameU="visVersion" v:val="VT0(15):26"/>
			</v:userDefs>
			<path d="M0 374.59 A4.25199 4.25199 0 0 1 8.5 374.59 A4.25199 4.25199 0 1 1 -0 374.59 Z" class="st6"/>
		</g>
		<g id="shape47-116" v:mID="47" v:groupContext="shape" v:layerMember="0" transform="translate(737.545,-295.268)">
			<title>Dynamic connector.47</title>
			<path d="M0 385.93 L87.87 385.93" class="st7"/>
		</g>
		<g id="shape48-119" v:mID="48" v:groupContext="shape" transform="translate(777.23,-277.46)">
			<title>Sheet.48</title>
			<desc>62</desc>
			<v:textBlock v:margins="rect(4,4,4,4)" v:tabSpace="42.5197"/>
			<v:textRect cx="52.4409" cy="357.58" width="104.89" height="42.5197"/>
			<rect x="0" y="336.32" width="104.882" height="42.5197" class="st2"/>
			<text x="41.38" y="362.98" class="st8" v:langID="1033"><v:paragraph v:horizAlign="1"/><v:tabList/>62</text>		</g>
		<g id="shape50-122" v:mID="50" v:groupContext="shape" transform="translate(921.089,-283.93)">
			<title>Circle.50</title>
			<v:userDefs>
				<v:ud v:nameU="visVersion" v:val="VT0(15):26"/>
			</v:userDefs>
			<path d="M0 374.59 A4.25199 4.25199 0 0 1 8.5 374.59 A4.25199 4.25199 0 1 1 -0 374.59 Z" class="st6"/>
		</g>
		<g id="shape51-124" v:mID="51" v:groupContext="shape" v:layerMember="0" transform="translate(833.215,-295.268)">
			<title>Dynamic connector.51</title>
			<path d="M0 385.93 L87.87 385.93" class="st7"/>
		</g>
		<g id="shape52-127" v:mID="52" v:groupContext="shape" transform="translate(872.9,-277.46)">
			<title>Sheet.52</title>
			<desc>63</desc>
			<v:textBlock v:margins="rect(4,4,4,4)" v:tabSpace="42.5197"/>
			<v:textRect cx="52.4409" cy="357.58" width="104.89" height="42.5197"/>
			<rect x="0" y="336.32" width="104.882" height="42.5197" class="st2"/>
			<text x="41.1" y="362.98" class="st8" v:langID="1033"><v:paragraph v:horizAlign="1"/><v:tabList/>63</text>		</g>
		<g id="shape53-130" v:mID="53" v:groupContext="shape" v:layerMember="0" transform="translate(617.954,-216.07)">
			<title>Dynamic connector.53</title>
			<path d="M0 378.84 L39.34 309.74" class="st7"/>
		</g>
		<g id="shape54-133" v:mID="54" v:groupContext="shape" v:layerMember="0" transform="translate(639.041,-316.528)">
			<title>Dynamic connector</title>
			<path d="M-7.09 378.84 C-7.09 384.16 -7.09 384.6 -7.09 385.01 C-7.09 389.47 -7.09 389.47 -7.09 402.5 C-7.09 427.36 -7.09
						 499.67 -7.09 609.86" class="st9"/>
		</g>
		<g id="shape55-136" v:mID="55" v:groupContext="shape" v:layerMember="0" transform="translate(952.27,-274.434)">
			<title>Dynamic connector.55</title>
			<path d="M0 378.41 L-22.68 365.09" class="st7"/>
		</g>
		<g id="shape59-139" v:mID="59" v:groupContext="shape" v:layerMember="0" transform="translate(959.356,-315.111)">
			<title>Dynamic connector.59</title>
			<path d="M-7.09 378.84 L-7.09 609.86" class="st9"/>
		</g>
		<g id="shape60-142" v:mID="60" v:groupContext="shape" v:layerMember="0" transform="translate(1055.7,-216.071)">
			<title>Dynamic connector.60</title>
			<path d="M0 378.84 L-103.43 320.05" class="st7"/>
		</g>
		<g id="shape67-145" v:mID="67" v:groupContext="shape" transform="translate(429.986,-128.024)">
			<title>Circle.67</title>
			<v:userDefs>
				<v:ud v:nameU="visVersion" v:val="VT0(15):26"/>
			</v:userDefs>
			<path d="M0 374.59 A4.25199 4.25199 0 0 1 8.5 374.59 A4.25199 4.25199 0 1 1 -0 374.59 Z" class="st6"/>
		</g>
		<g id="shape68-147" v:mID="68" v:groupContext="shape" transform="translate(383.215,-91.1738)">
			<title>Sheet.68</title>
			<desc>80</desc>
			<v:textBlock v:margins="rect(4,4,4,4)" v:tabSpace="42.5197"/>
			<v:textRect cx="52.4409" cy="357.58" width="104.89" height="42.5197"/>
			<rect x="0" y="336.32" width="104.882" height="42.5197" class="st2"/>
			<text x="41.27" y="362.98" class="st8" v:langID="1033"><v:paragraph v:horizAlign="1"/><v:tabList/>80</text>		</g>
		<g id="shape69-150" v:mID="69" v:groupContext="shape" transform="translate(797.782,-128.024)">
			<title>Circle.69</title>
			<v:userDefs>
				<v:ud v:nameU="visVersion" v:val="VT0(15):26"/>
			</v:userDefs>
			<path d="M0 374.59 A4.25199 4.25199 0 0 1 8.5 374.59 A4.25199 4.25199 0 1 1 -0 374.59 Z" class="st6"/>
		</g>
		<g id="shape70-152" v:mID="70" v:groupContext="shape" v:layerMember="0" transform="translate(438.49,-139.363)">
			<title>Dynamic connector.70</title>
			<path d="M0 385.93 L359.29 385.93" class="st7"/>
		</g>
		<g id="shape71-155" v:mID="71" v:groupContext="shape" transform="translate(749.593,-91.1738)">
			<title>Sheet.71</title>
			<desc>81</desc>
			<v:textBlock v:margins="rect(4,4,4,4)" v:tabSpace="42.5197"/>
			<v:textRect cx="52.4409" cy="357.58" width="104.89" height="42.5197"/>
			<rect x="0" y="336.32" width="104.882" height="42.5197" class="st2"/>
			<text x="42.71" y="362.98" class="st8" v:langID="1033"><v:paragraph v:horizAlign="1"/><v:tabList/>81</text>		</g>
		<g id="shape72-158" v:mID="72" v:groupContext="shape" transform="translate(1067.07,-128.024)">
			<title>Circle.72</title>
			<v:userDefs>
				<v:ud v:nameU="visVersion" v:val="VT0(15):26"/>
			</v:userDefs>
			<path d="M0 374.59 A4.25199 4.25199 0 0 1 8.5 374.59 A4.25199 4.25199 0 1 1 -0 374.59 Z" class="st6"/>
		</g>
		<g id="shape73-160" v:mID="73" v:groupContext="shape" v:layerMember="0" transform="translate(805.577,-125.19)">
			<title>Dynamic connector.73</title>
			<path d="M0 371.75 L146.69 371.75" class="st7"/>
		</g>
		<g id="shape74-163" v:mID="74" v:groupContext="shape" transform="translate(1018.88,-91.1738)">
			<title>Sheet.74</title>
			<desc>82</desc>
			<v:textBlock v:margins="rect(4,4,4,4)" v:tabSpace="42.5197"/>
			<v:textRect cx="52.4409" cy="357.58" width="104.89" height="42.5197"/>
			<rect x="0" y="336.32" width="104.882" height="42.5197" class="st2"/>
			<text x="41.45" y="362.98" class="st8" v:langID="1033"><v:paragraph v:horizAlign="1"/><v:tabList/>82</text>		</g>
		<g id="shape76-166" v:mID="76" v:groupContext="shape" v:layerMember="0" transform="translate(953.687,-139.363)">
			<title>Dynamic connector.76</title>
			<path d="M0 385.93 L113.39 385.93" class="st7"/>
		</g>
		<g id="shape77-169" v:mID="77" v:groupContext="shape" v:layerMember="0" transform="translate(434.238,-132.276)">
			<title>Dynamic connector.77</title>
			<path d="M0 378.84 L-105.59 302.3" class="st7"/>
		</g>
		<g id="shape79-172" v:mID="79" v:groupContext="shape" v:layerMember="0" transform="translate(1075.58,-125.498)">
			<title>Dynamic connector.79</title>
			<path d="M0 372.06 L61.92 371.44" class="st7"/>
		</g>
		<g id="shape80-175" v:mID="80" v:groupContext="shape" v:layerMember="0" transform="translate(154.438,-55.8424)">
			<title>Dynamic connector.80</title>
			<desc>t</desc>
			<v:textBlock v:margins="rect(4,4,4,4)" v:tabSpace="42.5197"/>
			<v:textRect cx="977.953" cy="400.1" width="180" height="51.2036"/>
			<path d="M0 371.75 L984.09 371.75" class="st10"/>
			<rect v:rectContext="textBkgnd" x="971.407" y="378.5" width="13.091" height="43.2002" class="st12"/>
			<text x="971.41" y="410.9" class="st13" v:langID="1033"><v:paragraph v:horizAlign="1"/><v:tabList/>t</text>		</g>
		<g id="shape81-183" v:mID="81" v:groupContext="shape" transform="translate(1121.95,-315.111)">
			<title>Circle.81</title>
			<v:userDefs>
				<v:ud v:nameU="visVersion" v:val="VT0(15):26"/>
			</v:userDefs>
			<path d="M0 374.59 A4.25199 4.25199 0 0 1 8.5 374.59 A4.25199 4.25199 0 1 1 -0 374.59 Z" class="st1"/>
		</g>
		<g id="shape82-185" v:mID="82" v:groupContext="shape" v:layerMember="0" transform="translate(1126.91,-312.094)">
			<title>Dynamic connector.82</title>
			<path d="M4.68 371.75 L9.5 371.75" class="st4"/>
		</g>
		<g id="shape83-188" v:mID="83" v:groupContext="shape" transform="translate(1059.59,-318.32)">
			<title>Sheet.83</title>
			<desc>seqno = 31</desc>
			<v:textBlock v:margins="rect(4,4,4,4)" v:tabSpace="42.5197"/>
			<v:textRect cx="52.4409" cy="357.58" width="104.89" height="42.5197"/>
			<rect x="0" y="336.32" width="104.882" height="42.5197" class="st2"/>
			<text x="5.47" y="362.98" class="st3" v:langID="1033"><v:paragraph v:horizAlign="1"/><v:tabList/>seqno = 31</text>		</g>
		<g id="shape84-191" v:mID="84" v:groupContext="shape" v:layerMember="0" transform="translate(351.538,-317.945)">
			<title>Dynamic connector.84</title>
			<path d="M-7.09 378.84 C-7.09 384.16 -7.09 384.6 -7.09 385.01 C-7.09 389.47 -7.09 389.47 -7.09 402.5 C-7.09 427.36 -7.09
						 499.67 -7.09 609.86" class="st9"/>
		</g>
	</g>
</svg>
