<svg width="24" height="24" viewBox="0 0 24 24" fill="none" xmlns="http://www.w3.org/2000/svg">
<path d="M19.1288 9.5066C19.1125 9.3838 19.0551 9.27015 18.9658 9.18423C18.8766 9.09831 18.7609 9.0452 18.6375 9.03357C17.8033 8.9358 16.958 9.05243 16.1814 9.37242C15.4049 9.69241 14.7228 10.2052 14.1996 10.8623C13.6765 11.5193 13.3295 12.299 13.1917 13.1275C13.1234 13.5377 13.1075 13.9531 13.1431 14.3641C13.2098 15.1339 13.0633 15.9454 12.5168 16.4917L9.58392 19.4235C9.20292 19.8235 8.99342 20.3567 9.00016 20.9091C9.00689 21.4615 9.22933 21.9894 9.61997 22.38C10.0106 22.7707 10.5385 22.9931 11.0909 22.9998C11.6433 23.0066 12.1765 22.7971 12.5765 22.4161L15.5083 19.4843C16.0546 18.938 16.8659 18.7916 17.6357 18.8583C18.0469 18.894 18.4625 18.8781 18.8729 18.8098C19.7015 18.6718 20.4813 18.3248 21.1384 17.8015C21.7955 17.2781 22.3083 16.5958 22.6282 15.819C22.948 15.0423 23.0645 14.1968 22.9664 13.3625C22.9075 12.8487 22.2927 12.7013 21.9249 13.0677L20.5563 14.4363C20.1595 14.8331 19.6213 15.056 19.06 15.056C18.4988 15.056 17.9606 14.8331 17.5637 14.4363C17.1669 14.0394 16.944 13.5012 16.944 12.94C16.944 12.3787 17.1669 11.8405 17.5637 11.4437L18.9323 10.0751C19.006 10.0014 19.062 9.91194 19.096 9.81346C19.13 9.71498 19.1413 9.61005 19.1288 9.5066Z" stroke="#E3E3E3" stroke-width="2"/>
<path d="M17 5.73333V4.33333C17 3.04467 15.9553 2 14.6667 2H5.33333C4.04467 2 3 3.04467 3 4.33333V13.6667C3 14.9553 4.04467 16 5.33333 16H8.5" stroke="#E3E3E3" stroke-width="2" stroke-linecap="round"/>
<path d="M3 6L17 6" stroke="#E3E3E3" stroke-width="2" stroke-linecap="round"/>
</svg>
