<svg width="48" height="48" viewBox="0 0 48 48" fill="none" xmlns="http://www.w3.org/2000/svg">
<path fill-rule="evenodd" clip-rule="evenodd" d="M32.2218 6.5249H15.3094C12.2328 6.5249 11.113 6.83545 9.98711 7.43864C8.88376 8.02975 8.01784 8.89717 7.42777 10.0024C6.82564 11.1303 6.51562 12.252 6.51562 15.3341V25.1758C6.51562 28.2578 6.82564 29.3796 7.42777 30.5074C8.01784 31.6127 8.88376 32.4801 9.98711 33.0712C11.113 33.6744 12.2328 33.985 15.3094 33.985H32.2218C35.2985 33.985 36.4183 33.6744 37.5441 33.0712C38.6475 32.4801 39.5134 31.6127 40.1035 30.5074C40.7056 29.3796 41.0156 28.2578 41.0156 25.1758V15.3341C41.0156 12.252 40.7056 11.1303 40.1035 10.0024C39.5134 8.89717 38.6475 8.02975 37.5441 7.43864C36.4183 6.83545 35.2985 6.5249 32.2218 6.5249Z" stroke="#01A4F5" stroke-width="3"/>
<path d="M6.51562 41.0249L40.9554 41.0249" stroke="#01A4F5" stroke-width="3" stroke-linecap="round" stroke-linejoin="round"/>
</svg>
