<svg width="48" height="48" viewBox="0 0 48 48" fill="none" xmlns="http://www.w3.org/2000/svg">
<path d="M13.4688 6.75H13.3661C9.79348 6.75 6.89732 9.64616 6.89732 13.2187V20.8095C6.89732 21.2714 6.69979 21.7113 6.35453 22.0182L4.125 24L6.35454 25.9818C6.69979 26.2887 6.89732 26.7286 6.89732 27.1905V34.7812C6.89732 38.3538 9.79348 41.25 13.3661 41.25H13.4688" stroke="#0088CC" stroke-width="3" stroke-linecap="round" stroke-linejoin="round"/>
<path d="M34.3086 6.75H34.4113C37.9839 6.75 40.88 9.64616 40.88 13.2187V20.8095C40.88 21.2714 41.0776 21.7113 41.4228 22.0182L43.6523 24L41.4228 25.9818C41.0776 26.2887 40.88 26.7286 40.88 27.1905V34.7812C40.88 38.3538 37.9839 41.25 34.4113 41.25H34.3086" stroke="#0088CC" stroke-width="3" stroke-linecap="round" stroke-linejoin="round"/>
<path d="M19.125 32.625C19.125 34.0747 17.9497 35.25 16.5 35.25C15.0503 35.25 13.875 34.0747 13.875 32.625C13.875 31.1753 15.0503 30 16.5 30C17.9497 30 19.125 31.1753 19.125 32.625Z" fill="#0088CC"/>
<path d="M26.6719 32.625C26.6719 34.0747 25.4966 35.25 24.0469 35.25C22.5971 35.25 21.4219 34.0747 21.4219 32.625C21.4219 31.1753 22.5971 30 24.0469 30C25.4966 30 26.6719 31.1753 26.6719 32.625Z" fill="#0088CC"/>
<path d="M34.2188 32.625C34.2188 34.0747 33.0435 35.25 31.5938 35.25C30.144 35.25 28.9688 34.0747 28.9688 32.625C28.9688 31.1753 30.144 30 31.5938 30C33.0435 30 34.2188 31.1753 34.2188 32.625Z" fill="#0088CC"/>
</svg>
