<svg width="48" height="48" viewBox="0 0 48 48" fill="none" xmlns="http://www.w3.org/2000/svg">
<path fill-rule="evenodd" clip-rule="evenodd" d="M32.2257 6.52502H15.3133C12.2367 6.52502 11.1169 6.83558 9.99101 7.43876C8.88766 8.02987 8.02175 8.8973 7.43167 10.0026C6.82954 11.1304 6.51953 12.2522 6.51953 15.3342V25.1759C6.51953 28.258 6.82954 29.3797 7.43167 30.5076C8.02175 31.6128 8.88766 32.4803 9.99101 33.0714C11.1169 33.6745 12.2367 33.9851 15.3133 33.9851H32.2257C35.3024 33.9851 36.4222 33.6745 37.548 33.0714C38.6514 32.4803 39.5173 31.6128 40.1074 30.5076C40.7095 29.3797 41.0195 28.258 41.0195 25.1759V15.3342C41.0195 12.2522 40.7095 11.1304 40.1074 10.0026C39.5173 8.8973 38.6514 8.02987 37.548 7.43876C36.4222 6.83558 35.3024 6.52502 32.2257 6.52502Z" stroke="#0088CC" stroke-width="3"/>
<path d="M6.51953 41.025L40.9594 41.025" stroke="#0088CC" stroke-width="3" stroke-linecap="round" stroke-linejoin="round"/>
</svg>
