<svg width="48" height="48" viewBox="0 0 48 48" fill="none" xmlns="http://www.w3.org/2000/svg">
<path d="M18.7094 6H27.3131C28.9044 6 30.4305 6.63214 31.5557 7.75736L36.4966 12.6982C37.6218 13.8234 38.2539 15.3495 38.2539 16.9408V33.5445C38.2539 36.6008 37.9993 37.7344 37.3981 38.8585C36.8711 39.8439 36.0978 40.6172 35.1124 41.1442C33.9883 41.7454 32.8547 42 29.7984 42H18.7094C15.6531 42 14.5195 41.7454 13.3954 41.1442C12.41 40.6172 11.6367 39.8439 11.1097 38.8585C10.5085 37.7344 10.2539 36.6008 10.2539 33.5445V14.4555C10.2539 11.3992 10.5085 10.2656 11.1097 9.14149C11.6367 8.15611 12.41 7.38278 13.3954 6.85579C14.5195 6.2546 15.6531 6 18.7094 6Z" stroke="#0088CC" stroke-width="3"/>
<path d="M24.2539 18.0003V34.0002L16.4977 20.6436C16.3395 20.3765 16.2554 20.0726 16.2539 19.7628C16.2525 19.453 16.3337 19.1484 16.4893 18.8799C16.645 18.6114 16.8697 18.3885 17.1403 18.234C17.4109 18.0795 17.7179 17.9989 18.0301 18.0003H24.2539Z" stroke="#0088CC" stroke-width="3" stroke-linecap="round" stroke-linejoin="round"/>
<path d="M24.2578 34.0002L32.0133 20.6436C32.172 20.3765 32.2563 20.0726 32.2578 19.7628C32.2593 19.453 32.1775 19.1484 32.0214 18.8799C31.8653 18.6114 31.6402 18.3885 31.3688 18.234C31.0974 18.0795 30.7895 17.9989 30.4764 18.0003H24.2578V34.0002Z" stroke="#0088CC" stroke-width="3" stroke-linecap="round" stroke-linejoin="round"/>
</svg>
