<svg width="48" height="48" viewBox="0 0 48 48" fill="none" xmlns="http://www.w3.org/2000/svg">
<path d="M18.7055 6H27.3092C28.9005 6 30.4266 6.63214 31.5518 7.75736L36.4926 12.6982C37.6179 13.8234 38.25 15.3495 38.25 16.9408V33.5445C38.25 36.6008 37.9954 37.7344 37.3942 38.8585C36.8672 39.8439 36.0939 40.6172 35.1085 41.1442C33.9844 41.7454 32.8508 42 29.7945 42H18.7055C15.6492 42 14.5156 41.7454 13.3915 41.1442C12.4061 40.6172 11.6328 39.8439 11.1058 38.8585C10.5046 37.7344 10.25 36.6008 10.25 33.5445V14.4555C10.25 11.3992 10.5046 10.2656 11.1058 9.14149C11.6328 8.15611 12.4061 7.38278 13.3915 6.85579C14.5156 6.2546 15.6492 6 18.7055 6Z" stroke="#01A4F5" stroke-width="3"/>
<path d="M24.25 18.0003V34.0002L16.4938 20.6436C16.3356 20.3765 16.2515 20.0726 16.25 19.7628C16.2486 19.453 16.3298 19.1484 16.4854 18.8799C16.6411 18.6114 16.8658 18.3885 17.1364 18.234C17.407 18.0795 17.714 17.9989 18.0262 18.0003H24.25Z" stroke="#01A4F5" stroke-width="3" stroke-linecap="round" stroke-linejoin="round"/>
<path d="M24.25 34.0002L32.0055 20.6436C32.1642 20.3765 32.2485 20.0726 32.25 19.7628C32.2514 19.453 32.1697 19.1484 32.0136 18.8799C31.8575 18.6114 31.6324 18.3885 31.361 18.234C31.0896 18.0795 30.7817 17.9989 30.4686 18.0003H24.25V34.0002Z" stroke="#01A4F5" stroke-width="3" stroke-linecap="round" stroke-linejoin="round"/>
</svg>
