<svg width="48" height="48" viewBox="0 0 48 48" fill="none" xmlns="http://www.w3.org/2000/svg">
<g clip-path="url(#clip0_15178_19011)">
<path d="M5.74143 19.4001C4.628 18.8314 4.65803 17.2302 5.79201 16.7037L23.3683 8.54327C23.7689 8.35729 24.2311 8.35729 24.6317 8.54327L42.208 16.7037C43.342 17.2302 43.372 18.8314 42.2586 19.4001L24.6822 28.3766C24.2537 28.5954 23.7463 28.5954 23.3178 28.3766L5.74143 19.4001Z" stroke="#0088CC" stroke-width="3" stroke-linejoin="round"/>
<path d="M11.8477 21.8998C11.8477 21.0714 11.1761 20.3998 10.3477 20.3998C9.51923 20.3998 8.84766 21.0714 8.84766 21.8998H11.8477ZM39.1477 21.8998C39.1477 21.0714 38.4761 20.3998 37.6477 20.3998C36.8192 20.3998 36.1477 21.0714 36.1477 21.8998H39.1477ZM36.1477 33.8657C36.1477 34.104 36.0359 34.4738 35.5321 34.9611C35.024 35.4526 34.2101 35.9643 33.0817 36.4259C30.8324 37.3461 27.6214 37.9498 23.9977 37.9498V40.9498C27.9126 40.9498 31.5266 40.3034 34.2176 39.2026C35.5594 38.6536 36.7445 37.9621 37.6178 37.1175C38.4955 36.2686 39.1477 35.1694 39.1477 33.8657H36.1477ZM23.9977 37.9498C20.3739 37.9498 17.1629 37.3461 14.9136 36.4259C13.7853 35.9643 12.9713 35.4526 12.4632 34.9611C11.9594 34.4738 11.8477 34.104 11.8477 33.8657H8.84766C8.84766 35.1694 9.49981 36.2686 10.3775 37.1175C11.2508 37.9621 12.4359 38.6536 13.7777 39.2026C16.4687 40.3034 20.0828 40.9498 23.9977 40.9498V37.9498ZM11.8477 33.8657V21.8998H8.84766V33.8657H11.8477ZM39.1477 33.8657V21.8998H36.1477V33.8657H39.1477Z" fill="#0088CC"/>
<path d="M43.0898 18V30" stroke="#0088CC" stroke-width="3" stroke-linecap="round" stroke-linejoin="round"/>
</g>
<defs>
<clipPath id="clip0_15178_19011">
<rect width="48" height="48" fill="white"/>
</clipPath>
</defs>
</svg>
