<svg width="555" height="320" viewBox="0 0 555 320" fill="none" xmlns="http://www.w3.org/2000/svg">
<g clip-path="url(#clip0_299_236)">
<rect width="555" height="320" fill="white"/>
<rect x="441" y="27" width="23" height="23" rx="7" fill="#ECF5FF"/>
<rect x="441" y="27" width="23" height="23" rx="7" stroke="#6EB1FF" stroke-width="2"/>
<rect x="467" y="27" width="23" height="23" rx="7" fill="#ECF5FF"/>
<rect x="467" y="27" width="23" height="23" rx="7" stroke="#6EB1FF" stroke-width="2"/>
<rect x="467" y="54" width="23" height="23" rx="7" fill="#ECF5FF"/>
<rect x="467" y="54" width="23" height="23" rx="7" stroke="#6EB1FF" stroke-width="2"/>
<rect x="441" y="54" width="23" height="23" rx="7" fill="#ECF5FF"/>
<rect x="441" y="54" width="23" height="23" rx="7" stroke="#6EB1FF" stroke-width="2"/>
<path d="M225.28 44.3438V42.4545H236.537V44.3438H231.999V57H229.811V44.3438H225.28ZM250.435 49.7273C250.435 51.2803 250.151 52.6155 249.582 53.733C249.014 54.8456 248.235 55.7027 247.246 56.304C246.261 56.9006 245.141 57.1989 243.886 57.1989C242.627 57.1989 241.502 56.9006 240.513 56.304C239.528 55.7027 238.751 54.8433 238.183 53.7259C237.615 52.6084 237.331 51.2756 237.331 49.7273C237.331 48.1742 237.615 46.8414 238.183 45.7287C238.751 44.6113 239.528 43.7543 240.513 43.1577C241.502 42.5563 242.627 42.2557 243.886 42.2557C245.141 42.2557 246.261 42.5563 247.246 43.1577C248.235 43.7543 249.014 44.6113 249.582 45.7287C250.151 46.8414 250.435 48.1742 250.435 49.7273ZM248.261 49.7273C248.261 48.5436 248.07 47.5469 247.686 46.7372C247.307 45.9228 246.787 45.3073 246.124 44.8906C245.465 44.4692 244.72 44.2585 243.886 44.2585C243.048 44.2585 242.3 44.4692 241.642 44.8906C240.984 45.3073 240.463 45.9228 240.08 46.7372C239.701 47.5469 239.511 48.5436 239.511 49.7273C239.511 50.911 239.701 51.91 240.08 52.7244C240.463 53.5341 240.984 54.1496 241.642 54.571C242.3 54.9877 243.048 55.196 243.886 55.196C244.72 55.196 245.465 54.9877 246.124 54.571C246.787 54.1496 247.307 53.5341 247.686 52.7244C248.07 51.91 248.261 50.911 248.261 49.7273ZM264.311 42.4545V57H262.294L254.9 46.3324H254.765V57H252.571V42.4545H254.602L262.003 53.1364H262.138V42.4545H264.311ZM283.686 47.1847H281.47C281.385 46.7112 281.226 46.2945 280.994 45.9347C280.762 45.5748 280.478 45.2694 280.142 45.0185C279.806 44.7675 279.43 44.5781 279.013 44.4503C278.601 44.3224 278.163 44.2585 277.699 44.2585C276.861 44.2585 276.11 44.4692 275.448 44.8906C274.789 45.312 274.269 45.9299 273.885 46.7443C273.506 47.5587 273.317 48.553 273.317 49.7273C273.317 50.911 273.506 51.91 273.885 52.7244C274.269 53.5388 274.792 54.1544 275.455 54.571C276.118 54.9877 276.863 55.196 277.692 55.196C278.151 55.196 278.587 55.1345 278.999 55.0114C279.415 54.8835 279.792 54.6965 280.128 54.4503C280.464 54.2041 280.748 53.9034 280.98 53.5483C281.217 53.1884 281.38 52.7765 281.47 52.3125L283.686 52.3196C283.568 53.0346 283.338 53.6927 282.997 54.294C282.661 54.8906 282.228 55.4067 281.698 55.8423C281.172 56.2732 280.571 56.607 279.894 56.8438C279.217 57.0805 278.478 57.1989 277.678 57.1989C276.418 57.1989 275.296 56.9006 274.311 56.304C273.326 55.7027 272.55 54.8433 271.982 53.7259C271.418 52.6084 271.136 51.2756 271.136 49.7273C271.136 48.1742 271.421 46.8414 271.989 45.7287C272.557 44.6113 273.333 43.7543 274.318 43.1577C275.303 42.5563 276.423 42.2557 277.678 42.2557C278.449 42.2557 279.169 42.367 279.837 42.5895C280.509 42.8073 281.113 43.1293 281.648 43.5554C282.183 43.9768 282.626 44.4929 282.976 45.1037C283.326 45.7098 283.563 46.4034 283.686 47.1847ZM290.137 57.2202C289.114 57.2202 288.222 56.9858 287.459 56.517C286.697 56.0483 286.105 55.3925 285.684 54.5497C285.262 53.7069 285.052 52.7221 285.052 51.5952C285.052 50.4635 285.262 49.474 285.684 48.6264C286.105 47.7789 286.697 47.1207 287.459 46.652C288.222 46.1832 289.114 45.9489 290.137 45.9489C291.16 45.9489 292.052 46.1832 292.815 46.652C293.577 47.1207 294.169 47.7789 294.59 48.6264C295.012 49.474 295.222 50.4635 295.222 51.5952C295.222 52.7221 295.012 53.7069 294.59 54.5497C294.169 55.3925 293.577 56.0483 292.815 56.517C292.052 56.9858 291.16 57.2202 290.137 57.2202ZM290.144 55.4375C290.807 55.4375 291.356 55.2623 291.792 54.9119C292.227 54.5616 292.549 54.0952 292.758 53.5128C292.971 52.9304 293.077 52.2888 293.077 51.5881C293.077 50.892 292.971 50.2528 292.758 49.6705C292.549 49.0833 292.227 48.6122 291.792 48.2571C291.356 47.902 290.807 47.7244 290.144 47.7244C289.476 47.7244 288.922 47.902 288.482 48.2571C288.047 48.6122 287.722 49.0833 287.509 49.6705C287.301 50.2528 287.197 50.892 287.197 51.5881C287.197 52.2888 287.301 52.9304 287.509 53.5128C287.722 54.0952 288.047 54.5616 288.482 54.9119C288.922 55.2623 289.476 55.4375 290.144 55.4375ZM299.116 50.5227V57H296.993V46.0909H299.031V47.8665H299.166C299.417 47.2888 299.81 46.8248 300.345 46.4744C300.885 46.1241 301.564 45.9489 302.383 45.9489C303.127 45.9489 303.778 46.1051 304.336 46.4176C304.895 46.7254 305.328 47.1847 305.636 47.7955C305.944 48.4062 306.098 49.1615 306.098 50.0611V57H303.974V50.3168C303.974 49.526 303.768 48.9081 303.356 48.4631C302.944 48.0133 302.378 47.7884 301.659 47.7884C301.166 47.7884 300.728 47.8949 300.345 48.108C299.966 48.321 299.665 48.6335 299.443 49.0455C299.225 49.4527 299.116 49.9451 299.116 50.5227ZM310.469 50.5227V57H308.346V46.0909H310.384V47.8665H310.519C310.77 47.2888 311.163 46.8248 311.698 46.4744C312.238 46.1241 312.917 45.9489 313.736 45.9489C314.48 45.9489 315.131 46.1051 315.689 46.4176C316.248 46.7254 316.681 47.1847 316.989 47.7955C317.297 48.4062 317.451 49.1615 317.451 50.0611V57H315.327V50.3168C315.327 49.526 315.121 48.9081 314.709 48.4631C314.297 48.0133 313.732 47.7884 313.012 47.7884C312.519 47.7884 312.082 47.8949 311.698 48.108C311.319 48.321 311.019 48.6335 310.796 49.0455C310.578 49.4527 310.469 49.9451 310.469 50.5227ZM324.401 57.2202C323.326 57.2202 322.4 56.9905 321.624 56.5312C320.852 56.0672 320.255 55.4162 319.834 54.5781C319.417 53.7353 319.209 52.7481 319.209 51.6165C319.209 50.4991 319.417 49.5142 319.834 48.6619C320.255 47.8097 320.842 47.1444 321.595 46.6662C322.353 46.188 323.238 45.9489 324.251 45.9489C324.867 45.9489 325.464 46.0507 326.041 46.2543C326.619 46.4579 327.137 46.7775 327.597 47.2131C328.056 47.6487 328.418 48.2145 328.683 48.9105C328.948 49.6018 329.081 50.4422 329.081 51.4318V52.1847H320.409V50.5938H327C327 50.035 326.886 49.5402 326.659 49.1094C326.432 48.6738 326.112 48.3305 325.7 48.0795C325.293 47.8286 324.815 47.7031 324.266 47.7031C323.669 47.7031 323.148 47.8499 322.703 48.1435C322.263 48.4323 321.922 48.8111 321.68 49.2798C321.444 49.7438 321.325 50.2481 321.325 50.7926V52.0355C321.325 52.7647 321.453 53.3849 321.709 53.8963C321.969 54.4077 322.331 54.7983 322.795 55.0682C323.259 55.3333 323.802 55.4659 324.422 55.4659C324.824 55.4659 325.191 55.4091 325.523 55.2955C325.854 55.1771 326.141 55.0019 326.382 54.7699C326.624 54.5379 326.808 54.2514 326.936 53.9105L328.946 54.2727C328.785 54.8646 328.496 55.383 328.08 55.8281C327.668 56.2685 327.149 56.6117 326.524 56.858C325.904 57.0994 325.196 57.2202 324.401 57.2202ZM335.432 57.2202C334.376 57.2202 333.467 56.9811 332.705 56.5028C331.947 56.0199 331.365 55.3546 330.958 54.5071C330.551 53.6596 330.347 52.6889 330.347 51.5952C330.347 50.4872 330.555 49.5095 330.972 48.6619C331.389 47.8097 331.976 47.1444 332.733 46.6662C333.491 46.188 334.384 45.9489 335.411 45.9489C336.24 45.9489 336.978 46.1027 337.627 46.4105C338.276 46.7135 338.799 47.1397 339.197 47.6889C339.599 48.2382 339.838 48.8797 339.914 49.6136H337.847C337.733 49.1023 337.473 48.6619 337.066 48.2926C336.663 47.9233 336.124 47.7386 335.447 47.7386C334.855 47.7386 334.336 47.8949 333.891 48.2074C333.451 48.5152 333.107 48.9555 332.861 49.5284C332.615 50.0966 332.492 50.7689 332.492 51.5455C332.492 52.3409 332.613 53.0275 332.854 53.6051C333.096 54.1828 333.437 54.6302 333.877 54.9474C334.322 55.2647 334.845 55.4233 335.447 55.4233C335.849 55.4233 336.214 55.3499 336.54 55.2031C336.872 55.0516 337.149 54.8362 337.371 54.5568C337.598 54.2775 337.757 53.9413 337.847 53.5483H339.914C339.838 54.2538 339.608 54.8835 339.225 55.4375C338.841 55.9915 338.328 56.4271 337.684 56.7443C337.045 57.0616 336.294 57.2202 335.432 57.2202ZM346.677 46.0909V47.7955H340.718V46.0909H346.677ZM342.316 43.4773H344.44V53.7969C344.44 54.2088 344.501 54.5189 344.625 54.7273C344.748 54.9309 344.906 55.0705 345.1 55.1463C345.299 55.2173 345.515 55.2528 345.747 55.2528C345.917 55.2528 346.066 55.241 346.194 55.2173C346.322 55.1937 346.421 55.1747 346.492 55.1605L346.876 56.9148C346.753 56.9621 346.578 57.0095 346.35 57.0568C346.123 57.1089 345.839 57.1373 345.498 57.142C344.939 57.1515 344.419 57.0521 343.936 56.8438C343.453 56.6354 343.062 56.3134 342.764 55.8778C342.465 55.4422 342.316 54.8954 342.316 54.2372V43.4773Z" fill="black"/>
<path d="M75.6765 22L72.4492 10.3636H74.2958L76.5629 19.375H76.6708L79.0288 10.3636H80.8583L83.2163 19.3807H83.3242L85.5856 10.3636H87.4379L84.2049 22H82.4379L79.989 13.2841H79.8981L77.4492 22H75.6765ZM90.1028 22.1932C89.5497 22.1932 89.0497 22.0909 88.6028 21.8864C88.1558 21.678 87.8016 21.3769 87.5403 20.983C87.2827 20.589 87.1539 20.1061 87.1539 19.5341C87.1539 19.0417 87.2486 18.6364 87.438 18.3182C87.6274 18 87.8831 17.7481 88.205 17.5625C88.527 17.3769 88.8868 17.2367 89.2846 17.142C89.6823 17.0473 90.0876 16.9754 90.5005 16.9261C91.0232 16.8655 91.4475 16.8163 91.7732 16.7784C92.099 16.7367 92.3357 16.6705 92.4834 16.5795C92.6312 16.4886 92.705 16.3409 92.705 16.1364V16.0966C92.705 15.6004 92.5649 15.2159 92.2846 14.9432C92.0081 14.6705 91.5952 14.5341 91.0459 14.5341C90.474 14.5341 90.0232 14.661 89.6937 14.9148C89.3679 15.1648 89.1425 15.4432 89.0175 15.75L87.4209 15.3864C87.6103 14.8561 87.8868 14.428 88.2505 14.1023C88.6179 13.7727 89.0403 13.5341 89.5175 13.3864C89.9948 13.2348 90.4967 13.1591 91.0232 13.1591C91.3717 13.1591 91.741 13.2008 92.1312 13.2841C92.5251 13.3636 92.8925 13.5114 93.2334 13.7273C93.5781 13.9432 93.8603 14.2519 94.08 14.6534C94.2997 15.0511 94.4096 15.5682 94.4096 16.2045V22H92.7505V20.8068H92.6823C92.5725 21.0265 92.4077 21.2424 92.188 21.4545C91.9683 21.6667 91.6861 21.8428 91.3414 21.983C90.9967 22.1231 90.5838 22.1932 90.1028 22.1932ZM90.4721 20.8295C90.9418 20.8295 91.3433 20.7367 91.6766 20.5511C92.0137 20.3655 92.2694 20.1231 92.4437 19.8239C92.6217 19.5208 92.7107 19.197 92.7107 18.8523V17.7273C92.6501 17.7879 92.5327 17.8447 92.3584 17.8977C92.188 17.947 91.9929 17.9905 91.7732 18.0284C91.5535 18.0625 91.3395 18.0947 91.1312 18.125C90.9228 18.1515 90.7486 18.1742 90.6084 18.1932C90.2789 18.2348 89.9778 18.3049 89.705 18.4034C89.4361 18.5019 89.2202 18.6439 89.0573 18.8295C88.8982 19.0114 88.8187 19.2538 88.8187 19.5568C88.8187 19.9773 88.974 20.2955 89.2846 20.5114C89.5952 20.7235 89.991 20.8295 90.4721 20.8295ZM97.8912 10.3636V22H96.1924V10.3636H97.8912ZM101.396 10.3636V22H99.6967V10.3636H101.396ZM106.962 22.1761C106.103 22.1761 105.362 21.9924 104.741 21.625C104.123 21.2538 103.646 20.733 103.309 20.0625C102.976 19.3883 102.809 18.5985 102.809 17.6932C102.809 16.7992 102.976 16.0114 103.309 15.3295C103.646 14.6477 104.116 14.1155 104.718 13.733C105.324 13.3504 106.033 13.1591 106.843 13.1591C107.336 13.1591 107.813 13.2405 108.275 13.4034C108.737 13.5663 109.152 13.822 109.519 14.1705C109.887 14.5189 110.176 14.9716 110.389 15.5284C110.601 16.0814 110.707 16.7538 110.707 17.5455V18.1477H103.769V16.875H109.042C109.042 16.428 108.951 16.0322 108.769 15.6875C108.587 15.339 108.332 15.0644 108.002 14.8636C107.676 14.6629 107.294 14.5625 106.855 14.5625C106.377 14.5625 105.961 14.6799 105.605 14.9148C105.252 15.1458 104.98 15.4489 104.786 15.8239C104.597 16.1951 104.502 16.5985 104.502 17.0341V18.0284C104.502 18.6117 104.605 19.108 104.809 19.517C105.017 19.9261 105.307 20.2386 105.678 20.4545C106.05 20.6667 106.483 20.7727 106.98 20.7727C107.301 20.7727 107.595 20.7273 107.86 20.6364C108.125 20.5417 108.355 20.4015 108.548 20.2159C108.741 20.0303 108.889 19.8011 108.991 19.5284L110.599 19.8182C110.47 20.2917 110.239 20.7064 109.906 21.0625C109.576 21.4148 109.161 21.6894 108.661 21.8864C108.165 22.0795 107.599 22.1761 106.962 22.1761ZM116.186 13.2727V14.6364H111.419V13.2727H116.186ZM112.697 11.1818H114.396V19.4375C114.396 19.767 114.445 20.0152 114.544 20.1818C114.642 20.3447 114.769 20.4564 114.924 20.517C115.083 20.5739 115.256 20.6023 115.441 20.6023C115.578 20.6023 115.697 20.5928 115.799 20.5739C115.902 20.5549 115.981 20.5398 116.038 20.5284L116.345 21.9318C116.246 21.9697 116.106 22.0076 115.924 22.0455C115.742 22.0871 115.515 22.1098 115.242 22.1136C114.795 22.1212 114.379 22.0417 113.992 21.875C113.606 21.7083 113.294 21.4508 113.055 21.1023C112.816 20.7538 112.697 20.3163 112.697 19.7898V11.1818ZM123.984 15.4034L122.444 15.6761C122.38 15.4792 122.278 15.2917 122.137 15.1136C122.001 14.9356 121.815 14.7898 121.581 14.6761C121.346 14.5625 121.052 14.5057 120.7 14.5057C120.219 14.5057 119.817 14.6136 119.495 14.8295C119.173 15.0417 119.012 15.3163 119.012 15.6534C119.012 15.9451 119.12 16.1799 119.336 16.358C119.552 16.536 119.901 16.6818 120.382 16.7955L121.768 17.1136C122.571 17.2992 123.17 17.5852 123.564 17.9716C123.957 18.358 124.154 18.8598 124.154 19.4773C124.154 20 124.003 20.4659 123.7 20.875C123.401 21.2803 122.982 21.5985 122.444 21.8295C121.91 22.0606 121.291 22.1761 120.586 22.1761C119.609 22.1761 118.812 21.9678 118.194 21.5511C117.577 21.1307 117.198 20.5341 117.058 19.7614L118.7 19.5114C118.802 19.9394 119.012 20.2633 119.331 20.483C119.649 20.6989 120.064 20.8068 120.575 20.8068C121.132 20.8068 121.577 20.6913 121.91 20.4602C122.243 20.2254 122.41 19.9394 122.41 19.6023C122.41 19.3295 122.308 19.1004 122.103 18.9148C121.903 18.7292 121.594 18.589 121.177 18.4943L119.7 18.1705C118.886 17.9848 118.283 17.6894 117.893 17.2841C117.507 16.8788 117.314 16.3655 117.314 15.7443C117.314 15.2292 117.457 14.7784 117.745 14.392C118.033 14.0057 118.431 13.7045 118.939 13.4886C119.446 13.2689 120.028 13.1591 120.683 13.1591C121.626 13.1591 122.368 13.3636 122.91 13.7727C123.452 14.178 123.81 14.7216 123.984 15.4034Z" fill="black"/>
<path d="M446.255 22H442.488V10.3636H446.375C447.515 10.3636 448.494 10.5966 449.312 11.0625C450.13 11.5246 450.757 12.1894 451.193 13.0568C451.632 13.9205 451.852 14.9564 451.852 16.1648C451.852 17.3769 451.63 18.4186 451.187 19.2898C450.748 20.161 450.112 20.8314 449.278 21.3011C448.445 21.767 447.437 22 446.255 22ZM444.244 20.4659H446.159C447.045 20.4659 447.782 20.2992 448.369 19.9659C448.956 19.6288 449.396 19.142 449.687 18.5057C449.979 17.8655 450.125 17.0852 450.125 16.1648C450.125 15.2519 449.979 14.4773 449.687 13.8409C449.399 13.2045 448.969 12.7216 448.397 12.392C447.826 12.0625 447.115 11.8977 446.267 11.8977H444.244V20.4659ZM453.96 22H452.096L456.284 10.3636H458.312L462.5 22H460.636L457.346 12.4773H457.256L453.96 22ZM454.273 17.4432H460.318V18.9205H454.273V17.4432ZM463.564 25.2727V13.2727H465.223V14.6875H465.365C465.464 14.5057 465.606 14.2955 465.791 14.0568C465.977 13.8182 466.234 13.6098 466.564 13.4318C466.893 13.25 467.329 13.1591 467.871 13.1591C468.575 13.1591 469.204 13.3371 469.757 13.6932C470.31 14.0492 470.744 14.5625 471.058 15.233C471.376 15.9034 471.536 16.7102 471.536 17.6534C471.536 18.5966 471.378 19.4053 471.064 20.0795C470.75 20.75 470.318 21.267 469.768 21.6307C469.219 21.9905 468.592 22.1705 467.888 22.1705C467.357 22.1705 466.924 22.0814 466.587 21.9034C466.253 21.7254 465.992 21.517 465.803 21.2784C465.613 21.0398 465.467 20.8277 465.365 20.642H465.263V25.2727H463.564ZM465.229 17.6364C465.229 18.25 465.318 18.7879 465.496 19.25C465.674 19.7121 465.931 20.0739 466.268 20.3352C466.606 20.5928 467.018 20.7216 467.507 20.7216C468.015 20.7216 468.439 20.5871 468.78 20.3182C469.121 20.0455 469.378 19.6761 469.553 19.2102C469.731 18.7443 469.82 18.2197 469.82 17.6364C469.82 17.0606 469.732 16.5436 469.558 16.0852C469.388 15.6269 469.13 15.2652 468.786 15C468.445 14.7348 468.018 14.6023 467.507 14.6023C467.015 14.6023 466.598 14.7292 466.257 14.983C465.92 15.2367 465.664 15.5909 465.49 16.0455C465.316 16.5 465.229 17.0303 465.229 17.6364ZM472.959 25.2727V13.2727H474.618V14.6875H474.76C474.859 14.5057 475.001 14.2955 475.186 14.0568C475.372 13.8182 475.629 13.6098 475.959 13.4318C476.288 13.25 476.724 13.1591 477.266 13.1591C477.97 13.1591 478.599 13.3371 479.152 13.6932C479.705 14.0492 480.139 14.5625 480.453 15.233C480.771 15.9034 480.931 16.7102 480.931 17.6534C480.931 18.5966 480.773 19.4053 480.459 20.0795C480.145 20.75 479.713 21.267 479.163 21.6307C478.614 21.9905 477.987 22.1705 477.283 22.1705C476.752 22.1705 476.319 22.0814 475.982 21.9034C475.648 21.7254 475.387 21.517 475.198 21.2784C475.008 21.0398 474.862 20.8277 474.76 20.642H474.658V25.2727H472.959ZM474.624 17.6364C474.624 18.25 474.713 18.7879 474.891 19.25C475.069 19.7121 475.326 20.0739 475.663 20.3352C476.001 20.5928 476.413 20.7216 476.902 20.7216C477.41 20.7216 477.834 20.5871 478.175 20.3182C478.516 20.0455 478.773 19.6761 478.948 19.2102C479.126 18.7443 479.215 18.2197 479.215 17.6364C479.215 17.0606 479.127 16.5436 478.953 16.0852C478.783 15.6269 478.525 15.2652 478.181 15C477.84 14.7348 477.413 14.6023 476.902 14.6023C476.41 14.6023 475.993 14.7292 475.652 14.983C475.315 15.2367 475.059 15.5909 474.885 16.0455C474.711 16.5 474.624 17.0303 474.624 17.6364ZM488.894 15.4034L487.354 15.6761C487.29 15.4792 487.187 15.2917 487.047 15.1136C486.911 14.9356 486.725 14.7898 486.49 14.6761C486.255 14.5625 485.962 14.5057 485.61 14.5057C485.129 14.5057 484.727 14.6136 484.405 14.8295C484.083 15.0417 483.922 15.3163 483.922 15.6534C483.922 15.9451 484.03 16.1799 484.246 16.358C484.462 16.536 484.81 16.6818 485.291 16.7955L486.678 17.1136C487.481 17.2992 488.079 17.5852 488.473 17.9716C488.867 18.358 489.064 18.8598 489.064 19.4773C489.064 20 488.913 20.4659 488.61 20.875C488.31 21.2803 487.892 21.5985 487.354 21.8295C486.82 22.0606 486.201 22.1761 485.496 22.1761C484.519 22.1761 483.721 21.9678 483.104 21.5511C482.486 21.1307 482.108 20.5341 481.968 19.7614L483.61 19.5114C483.712 19.9394 483.922 20.2633 484.24 20.483C484.558 20.6989 484.973 20.8068 485.485 20.8068C486.041 20.8068 486.486 20.6913 486.82 20.4602C487.153 20.2254 487.32 19.9394 487.32 19.6023C487.32 19.3295 487.218 19.1004 487.013 18.9148C486.812 18.7292 486.504 18.589 486.087 18.4943L484.61 18.1705C483.795 17.9848 483.193 17.6894 482.803 17.2841C482.416 16.8788 482.223 16.3655 482.223 15.7443C482.223 15.2292 482.367 14.7784 482.655 14.392C482.943 14.0057 483.341 13.7045 483.848 13.4886C484.356 13.2689 484.937 13.1591 485.593 13.1591C486.536 13.1591 487.278 13.3636 487.82 13.7727C488.361 14.178 488.719 14.7216 488.894 15.4034Z" fill="black"/>
<path d="M231.082 300.875V299.364H240.088V300.875H236.457V311H234.707V300.875H231.082ZM251.206 305.182C251.206 306.424 250.979 307.492 250.524 308.386C250.07 309.277 249.447 309.962 248.655 310.443C247.867 310.92 246.971 311.159 245.967 311.159C244.96 311.159 244.06 310.92 243.269 310.443C242.481 309.962 241.859 309.275 241.405 308.381C240.95 307.487 240.723 306.42 240.723 305.182C240.723 303.939 240.95 302.873 241.405 301.983C241.859 301.089 242.481 300.403 243.269 299.926C244.06 299.445 244.96 299.205 245.967 299.205C246.971 299.205 247.867 299.445 248.655 299.926C249.447 300.403 250.07 301.089 250.524 301.983C250.979 302.873 251.206 303.939 251.206 305.182ZM249.467 305.182C249.467 304.235 249.314 303.437 249.007 302.79C248.704 302.138 248.287 301.646 247.757 301.312C247.231 300.975 246.634 300.807 245.967 300.807C245.297 300.807 244.698 300.975 244.172 301.312C243.645 301.646 243.229 302.138 242.922 302.79C242.619 303.437 242.467 304.235 242.467 305.182C242.467 306.129 242.619 306.928 242.922 307.58C243.229 308.227 243.645 308.72 244.172 309.057C244.698 309.39 245.297 309.557 245.967 309.557C246.634 309.557 247.231 309.39 247.757 309.057C248.287 308.72 248.704 308.227 249.007 307.58C249.314 306.928 249.467 306.129 249.467 305.182ZM262.307 299.364V311H260.693L254.779 302.466H254.671V311H252.915V299.364H254.54L260.46 307.909H260.568V299.364H262.307ZM268.142 311V299.364H272.404C273.23 299.364 273.913 299.5 274.455 299.773C274.997 300.042 275.402 300.407 275.671 300.869C275.94 301.328 276.074 301.845 276.074 302.42C276.074 302.905 275.985 303.314 275.807 303.648C275.629 303.977 275.391 304.242 275.091 304.443C274.796 304.64 274.47 304.784 274.114 304.875V304.989C274.5 305.008 274.877 305.133 275.245 305.364C275.616 305.591 275.923 305.915 276.165 306.335C276.408 306.756 276.529 307.267 276.529 307.869C276.529 308.464 276.389 308.998 276.108 309.472C275.832 309.941 275.404 310.314 274.824 310.591C274.245 310.864 273.504 311 272.603 311H268.142ZM269.898 309.494H272.432C273.273 309.494 273.875 309.331 274.239 309.006C274.603 308.68 274.785 308.273 274.785 307.784C274.785 307.417 274.692 307.08 274.506 306.773C274.321 306.466 274.055 306.222 273.711 306.04C273.37 305.858 272.964 305.767 272.495 305.767H269.898V309.494ZM269.898 304.398H272.25C272.644 304.398 272.999 304.322 273.313 304.17C273.631 304.019 273.883 303.807 274.069 303.534C274.258 303.258 274.353 302.932 274.353 302.557C274.353 302.076 274.184 301.672 273.847 301.347C273.51 301.021 272.993 300.858 272.296 300.858H269.898V304.398ZM279.694 299.364V311H277.995V299.364H279.694ZM285.175 311.176C284.357 311.176 283.643 310.989 283.033 310.614C282.423 310.239 281.95 309.714 281.613 309.04C281.276 308.366 281.107 307.578 281.107 306.676C281.107 305.771 281.276 304.979 281.613 304.301C281.95 303.623 282.423 303.097 283.033 302.722C283.643 302.347 284.357 302.159 285.175 302.159C285.994 302.159 286.708 302.347 287.317 302.722C287.927 303.097 288.401 303.623 288.738 304.301C289.075 304.979 289.244 305.771 289.244 306.676C289.244 307.578 289.075 308.366 288.738 309.04C288.401 309.714 287.927 310.239 287.317 310.614C286.708 310.989 285.994 311.176 285.175 311.176ZM285.181 309.75C285.711 309.75 286.151 309.61 286.499 309.33C286.848 309.049 287.105 308.676 287.272 308.21C287.442 307.744 287.528 307.231 287.528 306.67C287.528 306.114 287.442 305.602 287.272 305.136C287.105 304.667 286.848 304.29 286.499 304.006C286.151 303.722 285.711 303.58 285.181 303.58C284.647 303.58 284.204 303.722 283.852 304.006C283.503 304.29 283.244 304.667 283.073 305.136C282.906 305.602 282.823 306.114 282.823 306.67C282.823 307.231 282.906 307.744 283.073 308.21C283.244 308.676 283.503 309.049 283.852 309.33C284.204 309.61 284.647 309.75 285.181 309.75ZM294.336 311.176C293.491 311.176 292.764 310.985 292.154 310.602C291.548 310.216 291.082 309.684 290.756 309.006C290.431 308.328 290.268 307.551 290.268 306.676C290.268 305.79 290.434 305.008 290.768 304.33C291.101 303.648 291.571 303.116 292.177 302.733C292.783 302.35 293.497 302.159 294.319 302.159C294.982 302.159 295.573 302.282 296.092 302.528C296.611 302.771 297.029 303.112 297.347 303.551C297.669 303.991 297.861 304.504 297.921 305.091H296.268C296.177 304.682 295.969 304.33 295.643 304.034C295.321 303.739 294.889 303.591 294.347 303.591C293.874 303.591 293.459 303.716 293.103 303.966C292.751 304.212 292.476 304.564 292.279 305.023C292.082 305.477 291.984 306.015 291.984 306.636C291.984 307.273 292.08 307.822 292.273 308.284C292.467 308.746 292.739 309.104 293.092 309.358C293.448 309.612 293.866 309.739 294.347 309.739C294.669 309.739 294.961 309.68 295.222 309.562C295.488 309.441 295.709 309.269 295.887 309.045C296.069 308.822 296.196 308.553 296.268 308.239H297.921C297.861 308.803 297.677 309.307 297.37 309.75C297.063 310.193 296.652 310.542 296.137 310.795C295.626 311.049 295.025 311.176 294.336 311.176ZM300.82 308.04L300.809 305.966H301.105L304.582 302.273H306.616L302.65 306.477H302.383L300.82 308.04ZM299.258 311V299.364H300.957V311H299.258ZM304.769 311L301.644 306.852L302.815 305.665L306.855 311H304.769ZM311.001 311.176C310.156 311.176 309.429 310.985 308.819 310.602C308.213 310.216 307.747 309.684 307.421 309.006C307.096 308.328 306.933 307.551 306.933 306.676C306.933 305.79 307.099 305.008 307.433 304.33C307.766 303.648 308.236 303.116 308.842 302.733C309.448 302.35 310.162 302.159 310.984 302.159C311.647 302.159 312.238 302.282 312.757 302.528C313.276 302.771 313.694 303.112 314.012 303.551C314.334 303.991 314.526 304.504 314.586 305.091H312.933C312.842 304.682 312.634 304.33 312.308 304.034C311.986 303.739 311.554 303.591 311.012 303.591C310.539 303.591 310.124 303.716 309.768 303.966C309.416 304.212 309.141 304.564 308.944 305.023C308.747 305.477 308.649 306.015 308.649 306.636C308.649 307.273 308.745 307.822 308.938 308.284C309.132 308.746 309.404 309.104 309.757 309.358C310.113 309.612 310.531 309.739 311.012 309.739C311.334 309.739 311.626 309.68 311.887 309.562C312.153 309.441 312.374 309.269 312.552 309.045C312.734 308.822 312.861 308.553 312.933 308.239H314.586C314.526 308.803 314.342 309.307 314.035 309.75C313.728 310.193 313.317 310.542 312.802 310.795C312.291 311.049 311.69 311.176 311.001 311.176ZM317.622 305.818V311H315.923V299.364H317.599V303.693H317.707C317.912 303.223 318.224 302.85 318.645 302.574C319.065 302.297 319.614 302.159 320.292 302.159C320.891 302.159 321.414 302.282 321.86 302.528C322.311 302.775 322.66 303.142 322.906 303.631C323.156 304.116 323.281 304.722 323.281 305.449V311H321.582V305.653C321.582 305.013 321.417 304.517 321.088 304.165C320.758 303.809 320.3 303.631 319.713 303.631C319.311 303.631 318.951 303.716 318.633 303.886C318.319 304.057 318.071 304.307 317.889 304.636C317.711 304.962 317.622 305.356 317.622 305.818ZM327.608 311.193C327.055 311.193 326.555 311.091 326.108 310.886C325.661 310.678 325.307 310.377 325.045 309.983C324.788 309.589 324.659 309.106 324.659 308.534C324.659 308.042 324.754 307.636 324.943 307.318C325.132 307 325.388 306.748 325.71 306.562C326.032 306.377 326.392 306.237 326.79 306.142C327.187 306.047 327.593 305.975 328.005 305.926C328.528 305.866 328.952 305.816 329.278 305.778C329.604 305.737 329.841 305.67 329.988 305.58C330.136 305.489 330.21 305.341 330.21 305.136V305.097C330.21 304.6 330.07 304.216 329.79 303.943C329.513 303.67 329.1 303.534 328.551 303.534C327.979 303.534 327.528 303.661 327.199 303.915C326.873 304.165 326.648 304.443 326.523 304.75L324.926 304.386C325.115 303.856 325.392 303.428 325.755 303.102C326.123 302.773 326.545 302.534 327.023 302.386C327.5 302.235 328.002 302.159 328.528 302.159C328.877 302.159 329.246 302.201 329.636 302.284C330.03 302.364 330.398 302.511 330.738 302.727C331.083 302.943 331.365 303.252 331.585 303.653C331.805 304.051 331.915 304.568 331.915 305.205V311H330.255V309.807H330.187C330.077 310.027 329.913 310.242 329.693 310.455C329.473 310.667 329.191 310.843 328.846 310.983C328.502 311.123 328.089 311.193 327.608 311.193ZM327.977 309.83C328.447 309.83 328.848 309.737 329.182 309.551C329.519 309.366 329.774 309.123 329.949 308.824C330.127 308.521 330.216 308.197 330.216 307.852V306.727C330.155 306.788 330.038 306.845 329.863 306.898C329.693 306.947 329.498 306.991 329.278 307.028C329.059 307.062 328.844 307.095 328.636 307.125C328.428 307.152 328.254 307.174 328.113 307.193C327.784 307.235 327.483 307.305 327.21 307.403C326.941 307.502 326.725 307.644 326.562 307.83C326.403 308.011 326.324 308.254 326.324 308.557C326.324 308.977 326.479 309.295 326.79 309.511C327.1 309.723 327.496 309.83 327.977 309.83ZM333.697 311V302.273H335.396V311H333.697ZM334.555 300.926C334.26 300.926 334.006 300.828 333.794 300.631C333.586 300.43 333.481 300.191 333.481 299.915C333.481 299.634 333.586 299.396 333.794 299.199C334.006 298.998 334.26 298.898 334.555 298.898C334.851 298.898 335.103 298.998 335.311 299.199C335.523 299.396 335.629 299.634 335.629 299.915C335.629 300.191 335.523 300.43 335.311 300.631C335.103 300.828 334.851 300.926 334.555 300.926ZM338.901 305.818V311H337.202V302.273H338.832V303.693H338.94C339.141 303.231 339.456 302.86 339.884 302.58C340.315 302.299 340.859 302.159 341.514 302.159C342.109 302.159 342.63 302.284 343.077 302.534C343.524 302.78 343.87 303.148 344.117 303.636C344.363 304.125 344.486 304.729 344.486 305.449V311H342.787V305.653C342.787 305.021 342.622 304.527 342.293 304.17C341.963 303.811 341.51 303.631 340.935 303.631C340.541 303.631 340.19 303.716 339.884 303.886C339.581 304.057 339.34 304.307 339.162 304.636C338.988 304.962 338.901 305.356 338.901 305.818Z" fill="black"/>
<path d="M352 52L431 52" stroke="#4C525B" stroke-width="2"/>
<path d="M440.5 52.0009L435.744 54.4984L430.988 56.9959L430.988 47.0059L440.5 52.0009Z" fill="#4C525B"/>
<path d="M142 52L223.999 52" stroke="#4C525B" stroke-width="2"/>
<path d="M135.56 51.9952L145 47.0002L145 56.9902L135.56 51.9952Z" fill="#4C525B"/>
<path d="M293 214L461 83" stroke="#4C525B" stroke-width="2" stroke-dasharray="4 4"/>
<path d="M466.403 77.6941L462.926 87.7924L456.098 80.5L466.403 77.6941Z" fill="#4C525B"/>
<path d="M288.152 217.832L292.324 208L298.627 215.751L288.152 217.832Z" fill="#4C525B"/>
<path d="M282.104 214.289L101.001 77" stroke="#4C525B" stroke-width="2" stroke-dasharray="4 4"/>
<path d="M97.1546 73.8735L107.628 75.9623L101.319 83.708L97.1546 73.8735Z" fill="#4C525B"/>
<path d="M287.009 218.047L276.453 216.418L282.418 208.404L287.009 218.047Z" fill="#4C525B"/>
<rect x="66" y="31" width="68" height="41" rx="7" fill="#ECF5FF"/>
<rect x="66" y="31" width="68" height="41" rx="7" stroke="#6EB1FF" stroke-width="2"/>
<rect x="1" y="-1" width="12" height="12" rx="6" transform="matrix(1 0 0 -1 121 63)" fill="#ECF5FF"/>
<rect x="1" y="-1" width="12" height="12" rx="6" transform="matrix(1 0 0 -1 121 63)" stroke="#6EB1FF" stroke-width="2"/>
<line x1="75.5" y1="41.5" x2="98.5" y2="41.5" stroke="#6EB1FF" stroke-width="3" stroke-linecap="round"/>
<rect x="324" y="260" width="6" height="6" rx="3" fill="#ECF5FF"/>
<rect x="324" y="260" width="6" height="6" rx="3" stroke="#6EB1FF" stroke-width="2"/>
<rect x="313" y="207" width="14" height="14" rx="7" fill="#ECF5FF"/>
<rect x="313" y="207" width="14" height="14" rx="7" stroke="#6EB1FF" stroke-width="2"/>
<rect x="248" y="265" width="24" height="24" rx="12" fill="#ECF5FF"/>
<rect x="248" y="265" width="24" height="24" rx="12" stroke="#6EB1FF" stroke-width="2"/>
<rect x="230" y="205" width="34" height="34" rx="17" fill="#ECF5FF"/>
<rect x="230" y="205" width="34" height="34" rx="17" stroke="#6EB1FF" stroke-width="2"/>
<line x1="262.224" y1="230.553" x2="324.224" y2="261.553" stroke="#6EB1FF"/>
<line x1="268.639" y1="268.654" x2="315.639" y2="219.654" stroke="#6EB1FF"/>
<rect x="278" y="232" width="25" height="25" rx="12.5" fill="#ECF5FF"/>
<rect x="278" y="232" width="25" height="25" rx="12.5" stroke="#6EB1FF" stroke-width="2"/>
<line x1="482.5" y1="316" x2="482.5" y2="311" stroke="white"/>
</g>
<defs>
<clipPath id="clip0_299_236">
<rect width="555" height="320" fill="white"/>
</clipPath>
</defs>
</svg>
