<?xml version="1.0" encoding="UTF-8" standalone="no"?>
<!DOCTYPE svg PUBLIC "-//W3C//DTD SVG 1.1//EN" "http://www.w3.org/Graphics/SVG/1.1/DTD/svg11.dtd">
<!-- Generated by Microsoft Visio, SVG Export ton-connect.svg dark -->
<svg xmlns="http://www.w3.org/2000/svg" xmlns:xlink="http://www.w3.org/1999/xlink" xmlns:ev="http://www.w3.org/2001/xml-events"
		xmlns:v="http://schemas.microsoft.com/visio/2003/SVGExtensions/" width="9.40097in" height="5.18837in"
		viewBox="0 0 676.87 373.563" xml:space="preserve" color-interpolation-filters="sRGB" class="st25">
	<v:documentProperties v:langID="1049" v:metric="true" v:viewMarkup="false">
		<v:userDefs>
			<v:ud v:nameU="msvNoAutoConnect" v:val="VT0(1):26"/>
		</v:userDefs>
	</v:documentProperties>

	<style type="text/css">
	<![CDATA[
		.st1 {fill:#ffffff;fill-opacity:0;stroke:none;stroke-linecap:round;stroke-linejoin:round;stroke-width:0.24}
		.st2 {fill:none;stroke:#00b0f0;stroke-linecap:round;stroke-linejoin:round;stroke-width:2.5}
		.st3 {fill:#ffffff;stroke:#00b0f0;stroke-linecap:round;stroke-linejoin:round;stroke-width:4}
		.st4 {fill:#ffffff;stroke:#00b0f0;stroke-linecap:round;stroke-linejoin:round;stroke-width:2.5}
		.st5 {fill:#ffffff;stroke:#00b0f0;stroke-linecap:round;stroke-linejoin:round;stroke-width:2.25}
		.st6 {fill:#ffffff;stroke:#00b0f0;stroke-linecap:round;stroke-linejoin:round;stroke-width:1.75}
		.st7 {fill:#ffffff;stroke:#00b0f0;stroke-linecap:round;stroke-linejoin:round;stroke-width:1.5}
		.st8 {stroke:#00b0f0;stroke-linecap:round;stroke-linejoin:round;stroke-width:1.5}
		.st9 {fill:none;stroke:none;stroke-linecap:round;stroke-linejoin:round;stroke-width:0.24}
		.st10 {fill:#00b0f0;stroke:none;stroke-linecap:round;stroke-linejoin:round;stroke-width:0.24}
		.st11 {fill:#ffffff;stroke:#ffffff;stroke-linecap:round;stroke-linejoin:round;stroke-width:1.25}
		.st12 {fill:none;stroke:#00b0f0;stroke-linecap:round;stroke-linejoin:round;stroke-width:1.25}
		.st13 {fill:#ffffff;stroke:#ffffff;stroke-linecap:round;stroke-linejoin:round;stroke-width:0.25}
		.st14 {fill:#ffffff;stroke:#ffffff;stroke-linecap:round;stroke-linejoin:round;stroke-width:0.5}
		.st15 {fill:#ffffff;stroke:#ffffff;stroke-linecap:round;stroke-linejoin:round;stroke-width:0.75}
		.st16 {marker-end:url(#mrkr4-65);marker-start:url(#mrkr4-63);stroke:#00b0f0;stroke-linecap:round;stroke-linejoin:round;stroke-width:2.25}
		.st17 {fill:#00b0f0;fill-opacity:1;stroke:#00b0f0;stroke-opacity:1;stroke-width:0.47169811320755}
		.st18 {fill:#ffffff;stroke:none;stroke-linecap:butt;stroke-width:7.2}
		.st19 {fill:#000000;font-family:Inter;font-size:1.5em}
		.st20 {marker-end:url(#mrkr4-75);marker-start:url(#mrkr4-63);stroke:#00b0f0;stroke-dasharray:6.75,6.75;stroke-linecap:round;stroke-linejoin:round;stroke-width:2.25}
		.st21 {fill:none}
		.st22 {stroke:none;stroke-linecap:round;stroke-linejoin:round;stroke-width:2.25}
		.st23 {fill:#000000;font-family:Inter;font-size:1.16666em}
		.st24 {font-size:1em}
		.st25 {fill:none;fill-rule:evenodd;font-size:12px;overflow:visible;stroke-linecap:square;stroke-miterlimit:3}
	]]>
	</style>

	<defs id="Markers">
		<g id="lend4">
			<path d="M 2 1 L 0 0 L 2 -1 L 2 1 " style="stroke:none"/>
		</g>
		<marker id="mrkr4-63" class="st17" v:arrowType="4" v:arrowSize="2" v:setback="4.08" refX="4.08" orient="auto"
				markerUnits="strokeWidth" overflow="visible">
			<use xlink:href="#lend4" transform="scale(2.12) "/>
		</marker>
		<marker id="mrkr4-65" class="st17" v:arrowType="4" v:arrowSize="2" v:setback="4.08" refX="-4.08" orient="auto"
				markerUnits="strokeWidth" overflow="visible">
			<use xlink:href="#lend4" transform="scale(-2.12,-2.12) "/>
		</marker>
		<marker id="mrkr4-75" class="st17" v:arrowType="4" v:arrowSize="2" v:setback="4.24" refX="-4.24" orient="auto"
				markerUnits="strokeWidth" overflow="visible">
			<use xlink:href="#lend4" transform="scale(-2.12,-2.12) "/>
		</marker>
		<marker id="mrkr4-87" class="st17" v:arrowType="4" v:arrowSize="2" v:setback="4.24" refX="4.24" orient="auto"
				markerUnits="strokeWidth" overflow="visible">
			<use xlink:href="#lend4" transform="scale(2.12) "/>
		</marker>
	</defs>
	<g v:mID="20" v:index="9" v:groupContext="foregroundPage">
		<title>dark</title>
		<v:pageProperties v:drawingScale="0.0393701" v:pageScale="0.0393701" v:drawingUnits="24" v:shadowOffsetX="8.50394"
				v:shadowOffsetY="-8.50394"/>
		<v:layer v:name="Connector" v:index="0"/>
		<v:layer v:name="Flowchart" v:index="1"/>
		<v:layer v:name="Common Icons" v:index="2"/>
		<v:layer v:name="Data Graphic" v:index="3"/>
		<g id="shape105-1" v:mID="105" v:groupContext="shape" v:layerMember="1" transform="translate(261.108,-33.8367)">
			<title>Process.105</title>
			<v:custProps>
				<v:cp v:nameU="Cost" v:lbl="Cost" v:prompt="" v:type="7" v:format="@" v:sortKey="" v:invis="false" v:ask="false"
						v:langID="1033" v:cal="0"/>
				<v:cp v:nameU="ProcessNumber" v:lbl="Process Number" v:prompt="" v:type="2" v:format="" v:sortKey=""
						v:invis="false" v:ask="false" v:langID="1033" v:cal="0"/>
				<v:cp v:nameU="Owner" v:lbl="Owner" v:prompt="" v:type="0" v:format="" v:sortKey="" v:invis="false" v:ask="false"
						v:langID="1033" v:cal="0"/>
				<v:cp v:nameU="Function" v:lbl="Function" v:prompt="" v:type="0" v:format="" v:sortKey="" v:invis="false"
						v:ask="false" v:langID="1033" v:cal="0" v:val="VT4()"/>
				<v:cp v:nameU="StartDate" v:lbl="Start Date" v:prompt="" v:type="5" v:format="" v:sortKey="" v:invis="false"
						v:ask="false" v:langID="1033" v:cal="0"/>
				<v:cp v:nameU="EndDate" v:lbl="End Date" v:prompt="" v:type="5" v:format="" v:sortKey="" v:invis="false"
						v:ask="false" v:langID="1033" v:cal="0"/>
				<v:cp v:nameU="Status" v:lbl="Status" v:prompt="" v:type="4"
						v:format=";Not Started;In Progress;Completed;Deferred;Waiting on Input" v:sortKey="" v:invis="false"
						v:ask="false" v:langID="1033" v:cal="0" v:val="VT4()"/>
			</v:custProps>
			<v:userDefs>
				<v:ud v:nameU="visVersion" v:prompt="" v:val="VT0(15):26"/>
				<v:ud v:nameU="DefaultWidth" v:prompt="" v:val="VT0(0.98425196850394):24"/>
				<v:ud v:nameU="DefaultHeight" v:prompt="" v:val="VT0(0.59055118110236):24"/>
				<v:ud v:nameU="ResizeTxtHeight" v:prompt="" v:val="VT0(0.59055118110236):24"/>
			</v:userDefs>
			<rect x="0" y="276.457" width="132.439" height="97.1056" class="st1"/>
		</g>
		<g id="shape158-3" v:mID="158" v:groupContext="shape" transform="translate(437.518,-297.174)">
			<title>Square</title>
			<v:userDefs>
				<v:ud v:nameU="visVersion" v:val="VT0(15):26"/>
			</v:userDefs>
			<rect x="0" y="354.73" width="18.8333" height="18.8333" rx="5.66929" ry="5.66929" class="st2"/>
		</g>
		<g id="shape159-5" v:mID="159" v:groupContext="shape" transform="translate(461.072,-297.174)">
			<title>Square.159</title>
			<v:userDefs>
				<v:ud v:nameU="visVersion" v:val="VT0(15):26"/>
			</v:userDefs>
			<rect x="0" y="354.73" width="18.8333" height="18.8333" rx="5.66929" ry="5.66929" class="st2"/>
		</g>
		<g id="shape160-7" v:mID="160" v:groupContext="shape" transform="translate(461.072,-274.347)">
			<title>Square.160</title>
			<v:userDefs>
				<v:ud v:nameU="visVersion" v:val="VT0(15):26"/>
			</v:userDefs>
			<rect x="0" y="354.73" width="18.8333" height="18.8333" rx="5.66929" ry="5.66929" class="st2"/>
		</g>
		<g id="shape161-9" v:mID="161" v:groupContext="shape" transform="translate(437.518,-274.347)">
			<title>Square.161</title>
			<v:userDefs>
				<v:ud v:nameU="visVersion" v:val="VT0(15):26"/>
			</v:userDefs>
			<rect x="0" y="354.73" width="18.8333" height="18.8333" rx="5.66929" ry="5.66929" class="st2"/>
		</g>
		<g id="shape162-11" v:mID="162" v:groupContext="shape" transform="translate(163.142,-275.86)">
			<title>Rectangle</title>
			<v:userDefs>
				<v:ud v:nameU="visVersion" v:val="VT0(15):26"/>
			</v:userDefs>
			<rect x="0" y="329.123" width="66.4785" height="44.4399" rx="5.66929" ry="5.66929" class="st3"/>
		</g>
		<g id="shape163-13" v:mID="163" v:groupContext="shape" transform="translate(213.735,-286.979)">
			<title>Circle</title>
			<v:userDefs>
				<v:ud v:nameU="visVersion" v:val="VT0(15):26"/>
			</v:userDefs>
			<path d="M0 365.62 A7.9424 7.9424 0 0 1 15.88 365.62 A7.9424 7.9424 0 1 1 0 365.62 Z" class="st4"/>
		</g>
		<g id="shape164-15" v:mID="164" v:groupContext="shape" transform="translate(174.942,-311.745)">
			<title>Rectangle.164</title>
			<v:userDefs>
				<v:ud v:nameU="visVersion" v:val="VT0(15):26"/>
			</v:userDefs>
			<rect x="0" y="373.4" width="15.8848" height="0.162608" class="st4"/>
		</g>
		<g id="shape167-17" v:mID="167" v:groupContext="shape" transform="translate(324.527,-87.9775)">
			<title>Circle.167</title>
			<v:userDefs>
				<v:ud v:nameU="visVersion" v:val="VT0(15):26"/>
			</v:userDefs>
			<path d="M0 366.39 A7.17172 7.17172 0 0 1 14.34 366.39 A7.17172 7.17172 0 1 1 0 366.39 Z" class="st5"/>
		</g>
		<g id="shape169-19" v:mID="169" v:groupContext="shape" transform="translate(351.246,-74.5817)">
			<title>Circle.169</title>
			<v:userDefs>
				<v:ud v:nameU="visVersion" v:val="VT0(15):26"/>
			</v:userDefs>
			<path d="M0 371.56 A2.00393 2.00393 0 0 1 4.01 371.56 A2.00393 2.00393 0 1 1 0 371.56 Z" class="st6"/>
		</g>
		<g id="shape170-21" v:mID="170" v:groupContext="shape" transform="translate(350.355,-109.539)">
			<title>Circle.170</title>
			<v:userDefs>
				<v:ud v:nameU="visVersion" v:val="VT0(15):26"/>
			</v:userDefs>
			<path d="M0 369.55 A4.00786 4.00786 0 1 1 8.02 369.55 A4.00786 4.00786 0 0 1 0 369.55 Z" class="st7"/>
		</g>
		<g id="shape171-23" v:mID="171" v:groupContext="shape" transform="translate(274.651,-104.485)">
			<title>Circle.171</title>
			<v:userDefs>
				<v:ud v:nameU="visVersion" v:val="VT0(15):26"/>
			</v:userDefs>
			<path d="M0 360.52 A13.0433 13.0433 0 0 1 26.09 360.52 A13.0433 13.0433 0 1 1 0 360.52 Z" class="st6"/>
		</g>
		<g id="shape172-25" v:mID="172" v:groupContext="shape" transform="translate(294.173,-70.8318)">
			<title>Circle.172</title>
			<v:userDefs>
				<v:ud v:nameU="visVersion" v:val="VT0(15):26"/>
			</v:userDefs>
			<path d="M0 366.39 A7.17172 7.17172 0 0 1 14.34 366.39 A7.17172 7.17172 0 1 1 0 366.39 Z" class="st7"/>
		</g>
		<g id="shape176-27" v:mID="176" v:groupContext="shape" transform="translate(120.326,-31.1268) rotate(-35.4087)">
			<title>Sheet.176</title>
			<path d="M0 373.56 L18.11 373.56" class="st8"/>
		</g>
		<g id="shape177-30" v:mID="177" v:groupContext="shape" transform="translate(570.425,-7.98466) rotate(38.7171)">
			<title>Sheet.177</title>
			<path d="M0 373.56 L19.3 373.56" class="st8"/>
		</g>
		<g id="shape178-33" v:mID="178" v:groupContext="shape" transform="translate(492.227,618.337) rotate(153.685)">
			<title>Sheet.178</title>
			<path d="M0 373.56 L21.08 373.56" class="st8"/>
		</g>
		<g id="shape179-36" v:mID="179" v:groupContext="shape" transform="translate(173.877,614.248) rotate(-155.864)">
			<title>Sheet.179</title>
			<path d="M0 373.56 L29.56 373.56" class="st8"/>
		</g>
		<g id="shape184-39" v:mID="184" v:groupContext="shape" transform="translate(18.12,-18.12)">
			<title>Rectangle.184</title>
			<v:userDefs>
				<v:ud v:nameU="visVersion" v:val="VT0(15):26"/>
			</v:userDefs>
			<rect x="0" y="36.24" width="640.63" height="337.323" class="st9"/>
		</g>
		<g id="shape197-41" v:mID="197" v:groupContext="shape" transform="translate(311.377,-250.872)">
			<title>Rectangle.186</title>
			<v:userDefs>
				<v:ud v:nameU="visVersion" v:val="VT0(15):26"/>
			</v:userDefs>
			<rect x="0" y="337.658" width="35.88" height="35.9044" class="st10"/>
		</g>
		<g id="shape198-43" v:mID="198" v:groupContext="shape" transform="translate(317.316,-256.824)">
			<title>Square.187</title>
			<v:userDefs>
				<v:ud v:nameU="visVersion" v:val="VT0(15):26"/>
			</v:userDefs>
			<rect x="0" y="349.561" width="24.0016" height="24.0016" rx="8.50394" ry="8.50394" class="st11"/>
		</g>
		<g id="shape199-45" v:mID="199" v:groupContext="shape" transform="translate(331.805,476.586) rotate(180)">
			<title>Triangle.190</title>
			<v:userDefs>
				<v:ud v:nameU="visVersion" v:val="VT0(15):26"/>
			</v:userDefs>
			<path d="M8.93 371.51 L6.24 366.15 A1.41732 1.41732 -180 0 0 3.71 366.15 L1.03 371.51 A1.41732 1.41732 -180 0 0 2.29
						 373.56 L7.66 373.56 A1.41732 1.41732 -180 0 0 8.93 371.51 Z" class="st12"/>
		</g>
		<g id="shape200-47" v:mID="200" v:groupContext="shape" transform="translate(326.305,-266.087)">
			<title>Triangle.191</title>
			<v:userDefs>
				<v:ud v:nameU="visVersion" v:val="VT0(15):26"/>
			</v:userDefs>
			<path d="M8.93 371.51 L6.24 366.15 A1.41732 1.41732 -180 0 0 3.71 366.15 L1.03 371.51 A1.41732 1.41732 -180 0 0 2.29
						 373.56 L7.66 373.56 A1.41732 1.41732 -180 0 0 8.93 371.51 Z" class="st12"/>
		</g>
		<g id="shape201-49" v:mID="201" v:groupContext="shape" transform="translate(327.614,-265.028)">
			<title>Rectangle.192</title>
			<v:userDefs>
				<v:ud v:nameU="visVersion" v:val="VT0(15):26"/>
			</v:userDefs>
			<rect x="0" y="373.039" width="3.14277" height="0.523791" class="st13"/>
		</g>
		<g id="shape202-51" v:mID="202" v:groupContext="shape" transform="translate(328.4,-266.84)">
			<title>Rectangle.193</title>
			<v:userDefs>
				<v:ud v:nameU="visVersion" v:val="VT0(15):26"/>
			</v:userDefs>
			<rect x="0" y="373.039" width="2.61899" height="0.523791" class="st14"/>
		</g>
		<g id="shape203-53" v:mID="203" v:groupContext="shape" transform="translate(326.829,-269.526)">
			<title>Rectangle.194</title>
			<v:userDefs>
				<v:ud v:nameU="visVersion" v:val="VT0(15):26"/>
			</v:userDefs>
			<rect x="0" y="373.039" width="2.61899" height="0.523791" class="st15"/>
		</g>
		<g id="shape204-55" v:mID="204" v:groupContext="shape" transform="translate(327.614,-271.269)">
			<title>Rectangle.195</title>
			<v:userDefs>
				<v:ud v:nameU="visVersion" v:val="VT0(15):26"/>
			</v:userDefs>
			<rect x="0" y="373.039" width="2.61899" height="0.523809" class="st14"/>
		</g>
		<g id="shape205-57" v:mID="205" v:groupContext="shape" v:layerMember="0" transform="translate(229.62,-287.978)">
			<title>Dynamic connector.165</title>
			<desc>TON Connect</desc>
			<v:textBlock v:margins="rect(4,4,4,4)" v:tabSpace="42.5197"/>
			<v:textRect cx="104.828" cy="366.341" width="128.92" height="29.6036"/>
			<path d="M9.18 366.49 L9.54 366.49 C10.76 366.48 12.18 366.47 13.83 366.46 C36.25 366.34 101.68 366.33 200.12 366.33
						 L200.48 366.33" class="st16"/>
			<rect v:rectContext="textBkgnd" x="46.903" y="355.541" width="115.849" height="21.5999" class="st18"/>
			<text x="46.9" y="371.74" class="st19" v:langID="1041"><v:paragraph v:horizAlign="1"/><v:tabList/>TON Connect</text>		</g>
		<g id="shape214-68" v:mID="214" v:groupContext="shape" v:layerMember="0" transform="translate(327.328,-130.942)">
			<title>Dynamic connector.214</title>
			<path d="M6.25 366.84 L6.49 366.57 L124.8 239.15" class="st20"/>
		</g>
		<g id="shape215-76" v:mID="215" v:groupContext="shape" v:layerMember="0" transform="translate(327.328,-130.942)">
			<title>Dynamic connector.215</title>
			<path d="M-6.15 366.75 L-6.4 366.48 L-124.55 235.72" class="st20"/>
		</g>
		<g id="shape219-83" v:mID="219" v:groupContext="shape" v:layerMember="0" transform="translate(134.644,-54.0693)">
			<title>Dynamic connector.219</title>
			<desc>TON Blockchain</desc>
			<v:textBlock v:margins="rect(4,4,4,4)" v:tabSpace="42.5197"/>
			<v:textRect cx="191.729" cy="371.924" width="193.83" height="14.1732"/>
			<path d="M0 366.6 C0 383.52 48.45 383.52 96.91 383.52 C145.37 383.52 193.83 383.52 193.83 366.35 L0 366.6 Z"
					class="st21"/>
			<path d="M0 366.6 C0 383.52 48.45 383.52 96.91 383.52 C145.37 383.52 193.83 383.52 193.83 366.35" class="st22"/>
			<rect v:rectContext="textBkgnd" x="138.812" y="363.524" width="105.834" height="16.8" class="st18"/>
			<text x="138.81" y="376.12" class="st23" v:langID="1041"><v:paragraph v:horizAlign="1"/><v:tabList/>TON <tspan
						class="st24" v:langID="1033">Blockchain</tspan></text>		</g>
		<g id="shape220-92" v:mID="220" v:groupContext="shape" v:layerMember="0" transform="translate(41.6653,-318.434)">
			<title>Dynamic connector.220</title>
			<desc>Wallets</desc>
			<v:textBlock v:margins="rect(4,4,4,4)" v:tabSpace="42.5197"/>
			<v:textRect cx="153.932" cy="360.034" width="156.2" height="14.1732"/>
			<path d="M0 366.58 C0 349.2 39.05 349.2 78.1 349.2 C117.15 349.2 156.19 349.2 156.19 366.37 L0 366.58 Z" class="st21"/>
			<path d="M0 366.58 C0 349.2 39.05 349.2 78.1 349.2 C117.15 349.2 156.19 349.2 156.19 366.37" class="st22"/>
			<rect v:rectContext="textBkgnd" x="129.74" y="351.634" width="48.3824" height="16.8" class="st18"/>
			<text x="129.74" y="364.23" class="st23" v:langID="1041"><v:paragraph v:horizAlign="1"/><v:tabList/>Wallets</text>		</g>
		<g id="shape221-99" v:mID="221" v:groupContext="shape" v:layerMember="0" transform="translate(266.236,-314.518)">
			<title>Dynamic connector.221</title>
			<desc>dApps</desc>
			<v:textBlock v:margins="rect(4,4,4,4)" v:tabSpace="42.5197"/>
			<v:textRect cx="191.641" cy="360.67" width="193.83" height="14.1732"/>
			<path d="M0 366.6 C-0 349.18 48.46 349.18 96.92 349.18 C145.37 349.18 193.83 349.18 193.83 366.35 L0 366.6 Z"
					class="st21"/>
			<path d="M0 366.6 C-0 349.18 48.46 349.18 96.92 349.18 C145.37 349.18 193.83 349.18 193.83 366.35" class="st22"/>
			<rect v:rectContext="textBkgnd" x="170.373" y="352.27" width="42.5363" height="16.8" class="st18"/>
			<text x="170.37" y="364.87" class="st23" v:langID="1041"><v:paragraph v:horizAlign="1"/><v:tabList/>dApps</text>		</g>
	</g>
</svg>
