<?xml version="1.0" encoding="UTF-8" standalone="no"?>
<!DOCTYPE svg PUBLIC "-//W3C//DTD SVG 1.1//EN" "http://www.w3.org/Graphics/SVG/1.1/DTD/svg11.dtd">
<!-- Generated by Microsoft Visio, SVG Export ton_proof_dark.svg Page-1 -->
<svg xmlns="http://www.w3.org/2000/svg" xmlns:xlink="http://www.w3.org/1999/xlink" xmlns:ev="http://www.w3.org/2001/xml-events"
		xmlns:v="http://schemas.microsoft.com/visio/2003/SVGExtensions/" width="8.236in" height="5.11266in"
		viewBox="0 0 592.992 368.111" xml:space="preserve" color-interpolation-filters="sRGB" class="st20">
	<v:documentProperties v:langID="1033" v:metric="true" v:viewMarkup="false">
		<v:userDefs>
			<v:ud v:nameU="msvNoAutoConnect" v:prompt="" v:val="VT0(1):26"/>
		</v:userDefs>
	</v:documentProperties>

	<style type="text/css">
	<![CDATA[
		.st1 {fill:none;stroke:none;stroke-linecap:round;stroke-linejoin:round;stroke-width:1}
		.st2 {stroke:#0c76ad;stroke-dasharray:7,5;stroke-linecap:round;stroke-linejoin:round;stroke-width:1}
		.st3 {fill:#00b0f0;font-family:Calibri;font-size:1.5em}
		.st4 {font-size:1em}
		.st5 {fill:#7f7f7f;stroke:#0c76ad;stroke-linecap:round;stroke-linejoin:round;stroke-width:0.75}
		.st6 {fill:#7f7f7f;stroke:#0c76ad;stroke-linecap:round;stroke-linejoin:round;stroke-width:1}
		.st7 {marker-end:url(#mrkr4-51);stroke:#0c76ad;stroke-linecap:round;stroke-linejoin:round;stroke-width:0.5}
		.st8 {fill:#0c76ad;fill-opacity:1;stroke:#0c76ad;stroke-opacity:1;stroke-width:0.13368983957219}
		.st9 {marker-start:url(#mrkr4-57);stroke:#0c76ad;stroke-linecap:round;stroke-linejoin:round;stroke-width:0.5}
		.st10 {fill:#0c76ad;fill-opacity:1;stroke:#0c76ad;stroke-opacity:1;stroke-width:0.16556291390728}
		.st11 {marker-end:url(#mrkr4-65);stroke:#0088cc;stroke-linecap:round;stroke-linejoin:round;stroke-width:0.5}
		.st12 {fill:#0088cc;fill-opacity:1;stroke:#0088cc;stroke-opacity:1;stroke-width:0.16556291390728}
		.st13 {marker-end:url(#mrkr1-71);stroke:#0c76ad;stroke-linecap:round;stroke-linejoin:round;stroke-width:0.5}
		.st14 {marker-end:url(#mrkr4-77);stroke:#0c76ad;stroke-linecap:round;stroke-linejoin:round;stroke-width:0.5}
		.st15 {fill:none;stroke:#0088cc;stroke-linecap:butt;stroke-width:1}
		.st16 {stroke:#0088cc;stroke-dasharray:7,5;stroke-linecap:round;stroke-linejoin:round;stroke-width:1}
		.st17 {fill:none;stroke:none;stroke-linecap:round;stroke-linejoin:round;stroke-width:0.75}
		.st18 {fill:#ffffff;font-family:Calibri;font-size:1.16666em}
		.st19 {font-size:1em;font-style:italic}
		.st20 {fill:none;fill-rule:evenodd;font-size:12px;overflow:visible;stroke-linecap:square;stroke-miterlimit:3}
	]]>
	</style>

	<defs id="Markers">
		<g id="lend4">
			<path d="M 2 1 L 0 0 L 2 -1 L 2 1 " style="stroke:none"/>
		</g>
		<marker id="mrkr4-51" class="st8" v:arrowType="4" v:arrowSize="3" v:setback="14.96" refX="-14.96" orient="auto"
				markerUnits="strokeWidth" overflow="visible">
			<use xlink:href="#lend4" transform="scale(-7.48,-7.48) "/>
		</marker>
		<marker id="mrkr4-57" class="st10" v:arrowType="4" v:arrowSize="2" v:setback="11.36" refX="11.36" orient="auto"
				markerUnits="strokeWidth" overflow="visible">
			<use xlink:href="#lend4" transform="scale(6.04) "/>
		</marker>
		<marker id="mrkr4-65" class="st12" v:arrowType="4" v:arrowSize="2" v:setback="12.08" refX="-12.08" orient="auto"
				markerUnits="strokeWidth" overflow="visible">
			<use xlink:href="#lend4" transform="scale(-6.04,-6.04) "/>
		</marker>
		<g id="lend1">
			<path d="M 1 -1 L 0 0 L 1 1 " style="stroke-linecap:round;stroke-linejoin:round;fill:none"/>
		</g>
		<marker id="mrkr1-71" class="st10" v:arrowType="1" v:arrowSize="2" orient="auto" markerUnits="strokeWidth"
				overflow="visible">
			<use xlink:href="#lend1" transform="scale(-6.04,-6.04) "/>
		</marker>
		<marker id="mrkr4-77" class="st10" v:arrowType="4" v:arrowSize="2" v:setback="12.08" refX="-12.08" orient="auto"
				markerUnits="strokeWidth" overflow="visible">
			<use xlink:href="#lend4" transform="scale(-6.04,-6.04) "/>
		</marker>
	</defs>
	<g v:mID="6" v:index="1" v:groupContext="foregroundPage">
		<v:userDefs>
			<v:ud v:nameU="visNavType" v:val="VT0(1):26"/>
		</v:userDefs>
		<title>Page-1</title>
		<v:pageProperties v:drawingScale="0.0393701" v:pageScale="0.0393701" v:drawingUnits="24" v:shadowOffsetX="8.50394"
				v:shadowOffsetY="-8.50394"/>
		<v:layer v:name="Connector" v:index="0"/>
		<g id="group38-1" transform="translate(145.879,-286.397)" v:mID="38" v:groupContext="group">
			<v:userDefs>
				<v:ud v:nameU="visVersion" v:prompt="" v:val="VT0(15):26"/>
				<v:ud v:nameU="ShowActor" v:prompt="" v:val="VT0(1):5"/>
				<v:ud v:nameU="ShowDestruction" v:prompt="" v:val="VT0(0):5"/>
				<v:ud v:nameU="visNavOrder" v:val="VT0(1000):26"/>
			</v:userDefs>
			<title>Actor lifeline</title>
			<desc>dApp frontend</desc>
			<g id="shape39-2" v:mID="39" v:groupContext="shape" transform="translate(19.8425,-9.10517)">
				<title>Sheet.39</title>
				<rect x="0" y="342.6" width="51.0236" height="25.5118" class="st1"/>
			</g>
			<g id="shape41-4" v:mID="41" v:groupContext="shape" transform="translate(30.2362,268.397)">
				<title>Sheet.41</title>
			</g>
			<g id="shape42-6" v:mID="42" v:groupContext="shape" transform="translate(413.466,368.111) rotate(90)">
				<title>Sheet.42</title>
				<path d="M0 368.11 L244.28 368.11" class="st2"/>
			</g>
			<g id="shape38-9" v:mID="38" v:groupContext="groupContent">
				<v:textBlock v:margins="rect(4,4,4,4)" v:tabSpace="42.5197"/>
				<v:textRect cx="45.3543" cy="346.25" width="90.71" height="43.7221"/>
				<rect x="0" y="324.389" width="90.7087" height="43.7221" class="st1"/>
				<text x="25.96" y="340.85" class="st3" v:langID="1033"><v:paragraph v:horizAlign="1"/><v:tabList/>dApp <tspan
							x="13.05" dy="1.2em" class="st4">frontend</tspan></text>			</g>
		</g>
		<g id="group43-13" transform="translate(345.013,-286.397)" v:mID="43" v:groupContext="group">
			<v:userDefs>
				<v:ud v:nameU="visVersion" v:prompt="" v:val="VT0(15):26"/>
				<v:ud v:nameU="ShowActor" v:prompt="" v:val="VT0(0):5"/>
				<v:ud v:nameU="ShowDestruction" v:prompt="" v:val="VT0(0):5"/>
				<v:ud v:nameU="visNavOrder" v:val="VT0(2000):26"/>
			</v:userDefs>
			<title>Object lifeline</title>
			<desc>dApp backend</desc>
			<g id="shape44-14" v:mID="44" v:groupContext="shape" transform="translate(19.8425,-9.10517)">
				<title>Sheet.44</title>
				<rect x="0" y="342.6" width="51.0236" height="25.5118" class="st1"/>
			</g>
			<g id="shape45-16" v:mID="45" v:groupContext="shape" transform="translate(36.8504,-47.2654)">
				<title>Sheet.45</title>
				<path d="M8.5 368.11 a0 0 0 1 1 0 0 a0 0 0 1 1 0 0 Z" class="st1"/>
			</g>
			<g id="shape46-18" v:mID="46" v:groupContext="shape" transform="translate(30.2362,268.397)">
				<title>Sheet.46</title>
			</g>
			<g id="shape47-20" v:mID="47" v:groupContext="shape" transform="translate(413.466,368.111) rotate(90)">
				<title>Sheet.47</title>
				<path d="M0 368.11 L244.28 368.11" class="st2"/>
			</g>
			<g id="shape43-23" v:mID="43" v:groupContext="groupContent">
				<v:textBlock v:margins="rect(4,4,4,4)" v:tabSpace="42.5197"/>
				<v:textRect cx="45.3543" cy="346.25" width="90.71" height="43.7221"/>
				<rect x="0" y="324.389" width="90.7087" height="43.7221" class="st1"/>
				<text x="25.96" y="340.85" class="st3" v:langID="1033"><v:paragraph v:horizAlign="1"/><v:tabList/>dApp <tspan
							x="14.48" dy="1.2em" class="st4">backend</tspan></text>			</g>
		</g>
		<g id="group54-27" transform="translate(480.438,-286.397)" v:mID="54" v:groupContext="group">
			<v:userDefs>
				<v:ud v:nameU="visVersion" v:prompt="" v:val="VT0(15):26"/>
				<v:ud v:nameU="ShowActor" v:prompt="" v:val="VT0(0):5"/>
				<v:ud v:nameU="ShowDestruction" v:prompt="" v:val="VT0(0):5"/>
				<v:ud v:nameU="visNavOrder" v:val="VT0(3000):26"/>
			</v:userDefs>
			<title>Object lifeline.54</title>
			<desc>Wallet</desc>
			<g id="shape55-28" v:mID="55" v:groupContext="shape" transform="translate(19.8425,-9.10517)">
				<title>Sheet.55</title>
				<rect x="0" y="342.6" width="51.0236" height="25.5118" class="st1"/>
			</g>
			<g id="shape56-30" v:mID="56" v:groupContext="shape" transform="translate(36.8504,-47.2654)">
				<title>Sheet.56</title>
				<path d="M8.5 368.11 a0 0 0 1 1 0 0 a0 0 0 1 1 0 0 Z" class="st1"/>
			</g>
			<g id="shape57-32" v:mID="57" v:groupContext="shape" transform="translate(30.2362,268.397)">
				<title>Sheet.57</title>
			</g>
			<g id="shape58-34" v:mID="58" v:groupContext="shape" transform="translate(413.466,368.111) rotate(90)">
				<title>Sheet.58</title>
				<path d="M0 368.11 L244.28 368.11" class="st2"/>
			</g>
			<g id="shape54-37" v:mID="54" v:groupContext="groupContent">
				<v:textBlock v:margins="rect(4,4,4,4)" v:tabSpace="42.5197"/>
				<v:textRect cx="45.3543" cy="346.25" width="90.71" height="43.7221"/>
				<rect x="0" y="324.389" width="90.7087" height="43.7221" class="st1"/>
				<text x="21.41" y="351.65" class="st3" v:langID="1033"><v:paragraph v:horizAlign="1"/><v:tabList/>Wallet</text>			</g>
		</g>
		<g id="shape59-40" v:mID="59" v:groupContext="shape" transform="translate(-172.626,303.457) rotate(-90)">
			<title>Activation</title>
			<v:userDefs>
				<v:ud v:nameU="visVersion" v:prompt="" v:val="VT0(15):26"/>
				<v:ud v:nameU="visNavOrder" v:val="VT0(1500):26"/>
			</v:userDefs>
			<rect x="0" y="359.607" width="167.244" height="8.50394" class="st5"/>
		</g>
		<g id="shape60-42" v:mID="60" v:groupContext="shape" transform="translate(26.5076,156.055) rotate(-90)">
			<title>Activation.60</title>
			<v:userDefs>
				<v:ud v:nameU="visVersion" v:prompt="" v:val="VT0(15):26"/>
				<v:ud v:nameU="visNavOrder" v:val="VT0(2500):26"/>
			</v:userDefs>
			<rect x="0" y="359.607" width="17.0079" height="8.50394" class="st6"/>
		</g>
		<g id="shape65-44" v:mID="65" v:groupContext="shape" transform="translate(161.933,232.591) rotate(-90)">
			<title>Activation.65</title>
			<v:userDefs>
				<v:ud v:nameU="visVersion" v:prompt="" v:val="VT0(15):26"/>
				<v:ud v:nameU="visNavOrder" v:val="VT0(6000):26"/>
			</v:userDefs>
			<rect x="0" y="359.607" width="42.5197" height="8.50394" class="st5"/>
		</g>
		<g id="shape128-46" v:mID="128" v:groupContext="shape" v:layerMember="0" transform="translate(195.485,-221.977)">
			<title>Message.21</title>
			<v:userDefs>
				<v:ud v:nameU="IsReturn" v:prompt="" v:val="VT0(0):5"/>
				<v:ud v:nameU="IsAsync" v:prompt="" v:val="VT0(0):26"/>
				<v:ud v:nameU="IsSelfMessage" v:prompt="" v:val="VT0(0):5"/>
				<v:ud v:nameU="visVersion" v:prompt="" v:val="VT0(15):26"/>
				<v:ud v:nameU="IsAsync" v:prompt="" v:val="VT0(0):5"/>
				<v:ud v:nameU="visNavOrder" v:val="VT0(1666):26"/>
			</v:userDefs>
			<path d="M0 361.02 L183.15 361.02" class="st7"/>
		</g>
		<g id="shape161-52" v:mID="161" v:groupContext="shape" v:layerMember="0" transform="translate(195.485,-62.277)">
			<title>Dynamic connector.161</title>
			<v:userDefs>
				<v:ud v:nameU="visNavOrder" v:val="VT0(21000):26"/>
			</v:userDefs>
			<path d="M5.68 361.33 L6.04 361.32 L190.63 360.7" class="st9"/>
		</g>
		<g id="shape148-58" v:mID="148" v:groupContext="shape" transform="translate(26.5076,303.457) rotate(-90)">
			<title>Activation.148</title>
			<v:userDefs>
				<v:ud v:nameU="visVersion" v:prompt="" v:val="VT0(15):26"/>
				<v:ud v:nameU="visNavOrder" v:val="VT0(15000):26"/>
			</v:userDefs>
			<rect x="0" y="359.607" width="36.2103" height="8.50394" class="st5"/>
		</g>
		<g id="shape150-60" v:mID="150" v:groupContext="shape" v:layerMember="0" transform="translate(386.115,-204.969)">
			<title>Dynamic connector</title>
			<v:userDefs>
				<v:ud v:nameU="visNavOrder" v:val="VT0(16000):26"/>
			</v:userDefs>
			<path d="M0 361.02 L-184.59 361.02" class="st11"/>
		</g>
		<g id="shape152-66" v:mID="152" v:groupContext="shape" v:layerMember="0" transform="translate(195.485,-180.418)">
			<title>Dynamic connector.152</title>
			<v:userDefs>
				<v:ud v:nameU="visNavOrder" v:val="VT0(17000):26"/>
			</v:userDefs>
			<path d="M0 374.88 L326.06 375.52" class="st13"/>
		</g>
		<g id="shape153-72" v:mID="153" v:groupContext="shape" v:layerMember="0" transform="translate(521.54,-149.163)">
			<title>Dynamic connector.153</title>
			<v:userDefs>
				<v:ud v:nameU="visNavOrder" v:val="VT0(18000):26"/>
			</v:userDefs>
			<path d="M0 374.95 L-320.02 375.44" class="st14"/>
		</g>
		<g id="group154-78" transform="translate(49.0394,-314.111)" v:mID="154" v:groupContext="group">
			<v:userDefs>
				<v:ud v:nameU="msvDisableCustomConnectionPoints" v:prompt="" v:val="VT4(True)"/>
				<v:ud v:nameU="visNavOrder" v:val="VT0(19000):26"/>
			</v:userDefs>
			<title>User</title>
			<g id="group155-79" v:mID="155" v:groupContext="group">
				<v:userDefs>
					<v:ud v:nameU="msvDisableCustomConnectionPoints" v:prompt="" v:val="VT0(1):5"/>
				</v:userDefs>
				<title>Sheet.155</title>
				<g id="shape156-80" v:mID="156" v:groupContext="shape">
					<title>Sheet.156</title>
					<v:userDefs>
						<v:ud v:nameU="msvDisableCustomConnectionPoints" v:prompt="" v:val="VT0(1):5"/>
					</v:userDefs>
					<path d="M35.23 368.11 L0.77 368.11 C0.57 368.11 0.37 368.03 0.23 367.89 C0.08 367.74 0 367.55 0 367.34 L0 365.04
								 C0 361.13 1.31 357.33 3.72 354.26 C6.13 351.18 9.5 349.01 13.3 348.08 C13.48 348.04 13.68 348.06
								 13.85 348.15 C15.12 348.85 16.54 349.21 17.99 349.21 C19.44 349.21 20.86 348.84 22.14 348.15 C22.3
								 348.06 22.5 348.04 22.68 348.08 C26.48 349 29.86 351.17 32.27 354.25 C34.69 357.33 36 361.13 36
								 365.05 L36 367.35 C36 367.55 35.91 367.75 35.77 367.89 C35.63 368.03 35.44 368.11 35.23 368.11 ZM1.53
								 366.58 L34.47 366.58 L34.47 365.04 C34.47 361.52 33.3 358.1 31.15 355.32 C29.01 352.53 26 350.54
								 22.6 349.66 C21.17 350.37 19.6 350.75 18 350.75 C16.4 350.76 14.83 350.38 13.41 349.66 C10 350.54
								 6.99 352.53 4.85 355.32 C2.7 358.11 1.53 361.53 1.53 365.05 L1.53 366.58 Z" class="st15"/>
				</g>
				<g id="shape157-82" v:mID="157" v:groupContext="shape" transform="translate(8.71815,-17.4064)">
					<title>Sheet.157</title>
					<v:userDefs>
						<v:ud v:nameU="msvDisableCustomConnectionPoints" v:prompt="" v:val="VT0(1):5"/>
					</v:userDefs>
					<path d="M9.28 368.11 C7.7 368.11 6.15 367.71 4.76 366.95 C3.34 366.15 2.15 364.99 1.31 363.58 C0.48 362.17 0.03
								 360.56 0.02 358.92 C0 357.28 0.42 355.67 1.22 354.24 C2.03 352.82 3.2 351.63 4.61 350.8 C6.02 349.97
								 7.63 349.53 9.26 349.53 C10.9 349.52 12.51 349.94 13.93 350.76 C15.35 351.57 16.52 352.75 17.34
								 354.17 C18.16 355.59 18.6 357.2 18.6 358.83 C18.6 360.5 18.15 362.13 17.3 363.56 C16.45 364.99 15.22
								 366.17 13.76 366.95 C12.38 367.7 10.85 368.1 9.28 368.11 ZM9.28 351.08 C7.55 351.04 5.86 351.59
								 4.48 352.64 C3.1 353.68 2.11 355.16 1.67 356.84 C1.23 358.51 1.36 360.29 2.04 361.88 C2.73 363.47
								 3.93 364.79 5.45 365.61 C6.61 366.24 7.91 366.57 9.22 366.57 C10.54 366.57 11.84 366.24 13 365.61
								 C14.51 364.79 15.7 363.48 16.39 361.91 C17.08 360.33 17.22 358.56 16.79 356.89 C16.37 355.22 15.4
								 353.74 14.03 352.69 C12.67 351.64 11 351.07 9.28 351.08 Z" class="st15"/>
				</g>
			</g>
		</g>
		<g id="shape160-84" v:mID="160" v:groupContext="shape" v:layerMember="0" transform="translate(386.115,-107.631)">
			<title>Dynamic connector.160</title>
			<v:userDefs>
				<v:ud v:nameU="visNavOrder" v:val="VT0(20000):26"/>
			</v:userDefs>
			<path d="M-5.68 374.9 L-6.04 374.9 L-190.63 375.52" class="st9"/>
		</g>
		<g id="group163-89" transform="translate(21.1544,-286.204)" v:mID="163" v:groupContext="group">
			<v:userDefs>
				<v:ud v:nameU="visVersion" v:prompt="" v:val="VT0(15):26"/>
				<v:ud v:nameU="ShowActor" v:prompt="" v:val="VT0(0):5"/>
				<v:ud v:nameU="ShowDestruction" v:prompt="" v:val="VT0(0):5"/>
				<v:ud v:nameU="visNavOrder" v:val="VT0(22000):26"/>
			</v:userDefs>
			<title>Object lifeline.142</title>
			<desc>User</desc>
			<g id="shape164-90" v:mID="164" v:groupContext="shape" transform="translate(19.8425,-0.0474305)">
				<title>Sheet.164</title>
				<rect x="0" y="342.6" width="51.0236" height="25.5118" class="st1"/>
			</g>
			<g id="shape165-92" v:mID="165" v:groupContext="shape" transform="translate(36.8504,-29.15)">
				<title>Sheet.165</title>
				<path d="M8.5 368.11 a0 0 0 1 1 0 0 a0 0 0 1 1 0 0 Z" class="st1"/>
			</g>
			<g id="shape166-94" v:mID="166" v:groupContext="shape" transform="translate(30.2362,258.499)">
				<title>Sheet.166</title>
			</g>
			<g id="shape167-96" v:mID="167" v:groupContext="shape" transform="translate(413.466,368.111) rotate(90)">
				<title>Sheet.167</title>
				<path d="M0 368.11 L240.85 368.11" class="st16"/>
			</g>
			<g id="shape163-99" v:mID="163" v:groupContext="groupContent">
				<v:textBlock v:margins="rect(4,4,4,4)" v:tabSpace="42.5197"/>
				<v:textRect cx="45.3543" cy="355.308" width="90.71" height="25.6067"/>
				<rect x="0" y="342.505" width="90.7087" height="25.6067" class="st1"/>
				<text x="28.44" y="360.71" class="st3" v:langID="1033"><v:paragraph v:horizAlign="1"/><v:tabList/>User</text>			</g>
		</g>
		<g id="shape169-102" v:mID="169" v:groupContext="shape" v:layerMember="0" transform="translate(66.5087,-224.716)">
			<title>Dynamic connector.169</title>
			<v:userDefs>
				<v:ud v:nameU="visNavOrder" v:val="VT0(23000):26"/>
			</v:userDefs>
			<path d="M0 361.12 L114.43 360.94" class="st14"/>
		</g>
		<g id="shape175-107" v:mID="175" v:groupContext="shape" transform="translate(52.8709,-240.79)">
			<title>Sheet.175</title>
			<desc>Connect wallet</desc>
			<v:userDefs>
				<v:ud v:nameU="visNavOrder" v:val="VT0(24000):26"/>
			</v:userDefs>
			<v:textBlock v:margins="rect(4,4,4,4)" v:tabSpace="42.5197"/>
			<v:textRect cx="76" cy="358.111" width="152" height="20"/>
			<rect x="0" y="348.111" width="152" height="20" class="st17"/>
			<text x="52.43" y="353.91" class="st18" v:langID="1033"><v:paragraph v:horizAlign="1"/><v:tabList/>Connect<v:newlineChar/><tspan
						x="57.02" dy="1.2em" class="st4"> </tspan>wallet</text>		</g>
		<g id="shape179-111" v:mID="179" v:groupContext="shape" transform="translate(221.102,-232.441)">
			<title>Sheet.179</title>
			<desc>generate ton_proof payload</desc>
			<v:userDefs>
				<v:ud v:nameU="visNavOrder" v:val="VT0(25000):26"/>
			</v:userDefs>
			<v:textBlock v:margins="rect(4,4,4,4)" v:tabSpace="42.5197"/>
			<v:textRect cx="76" cy="358.111" width="152.01" height="20"/>
			<rect x="0" y="348.111" width="152" height="20" class="st17"/>
			<text x="20.52" y="353.91" class="st18" v:langID="1033"><v:paragraph v:horizAlign="1"/><v:tabList/>generate<tspan
						class="st19"> </tspan><tspan class="st19">ton_proof<v:lf/></tspan><tspan x="53.47" dy="1.2em" class="st4">payload</tspan></text>		</g>
		<g id="shape181-117" v:mID="181" v:groupContext="shape" transform="translate(213.134,-165.748)">
			<title>Sheet.181</title>
			<desc>Connection request with ton_proof</desc>
			<v:userDefs>
				<v:ud v:nameU="visNavOrder" v:val="VT0(26000):26"/>
			</v:userDefs>
			<v:textBlock v:margins="rect(4,4,4,4)" v:tabSpace="42.5197"/>
			<v:textRect cx="76" cy="358.111" width="152" height="20"/>
			<rect x="0" y="348.111" width="152" height="20" class="st17"/>
			<text x="5.82" y="353.91" class="st18" v:langID="1033"><v:paragraph v:horizAlign="1"/><v:tabList/>Connection request with <tspan
						x="47.66" dy="1.2em" class="st19">ton_proof</tspan></text>		</g>
		<g id="shape183-121" v:mID="183" v:groupContext="shape" transform="translate(371.874,-124.724)">
			<title>Sheet.183</title>
			<desc>Signed ton_proof</desc>
			<v:userDefs>
				<v:ud v:nameU="visNavOrder" v:val="VT0(27000):26"/>
			</v:userDefs>
			<v:textBlock v:margins="rect(4,4,4,4)" v:tabSpace="42.5197"/>
			<v:textRect cx="76" cy="358.111" width="152" height="20"/>
			<rect x="0" y="348.111" width="152" height="20" class="st17"/>
			<text x="27.12" y="362.31" class="st18" v:langID="1033"><v:paragraph v:horizAlign="1"/><v:tabList/>Signed <tspan
						class="st19">ton_proof</tspan></text>		</g>
		<g id="shape185-125" v:mID="185" v:groupContext="shape" transform="translate(213.134,-99.0551)">
			<title>Sheet.185</title>
			<desc>Check ton_proof</desc>
			<v:userDefs>
				<v:ud v:nameU="visNavOrder" v:val="VT0(28000):26"/>
			</v:userDefs>
			<v:textBlock v:margins="rect(4,4,4,4)" v:tabSpace="42.5197"/>
			<v:textRect cx="76" cy="358.111" width="152.01" height="20"/>
			<rect x="0" y="348.111" width="152" height="20" class="st17"/>
			<text x="29.04" y="362.31" class="st18" v:langID="1033"><v:paragraph v:horizAlign="1"/><v:tabList/>Check<tspan
						class="st19"> </tspan><tspan class="st19">ton_proof</tspan></text>		</g>
		<g id="shape189-130" v:mID="189" v:groupContext="shape" transform="translate(227.843,-48.0315)">
			<title>Sheet.189</title>
			<desc>Auth token/cookie</desc>
			<v:userDefs>
				<v:ud v:nameU="visNavOrder" v:val="VT0(29000):26"/>
			</v:userDefs>
			<v:textBlock v:margins="rect(4,4,4,4)" v:tabSpace="42.5197"/>
			<v:textRect cx="76" cy="358.111" width="152.01" height="20"/>
			<rect x="0" y="348.111" width="152" height="20" class="st17"/>
			<text x="22.97" y="362.31" class="st18" v:langID="1033"><v:paragraph v:horizAlign="1"/><v:tabList/>Auth token/cookie</text>		</g>
	</g>
</svg>
