<?xml version="1.0" encoding="UTF-8" standalone="no"?>
<!DOCTYPE svg PUBLIC "-//W3C//DTD SVG 1.1//EN" "http://www.w3.org/Graphics/SVG/1.1/DTD/svg11.dtd">
<!-- Generated by Microsoft Visio, SVG Export ton_proof.svg Page-1 -->
<svg xmlns="http://www.w3.org/2000/svg" xmlns:xlink="http://www.w3.org/1999/xlink" xmlns:ev="http://www.w3.org/2001/xml-events"
		xmlns:v="http://schemas.microsoft.com/visio/2003/SVGExtensions/" width="8.236in" height="5.11266in"
		viewBox="0 0 592.992 368.111" xml:space="preserve" color-interpolation-filters="sRGB" class="st20">
	<v:documentProperties v:langID="1033" v:metric="true" v:viewMarkup="false">
		<v:userDefs>
			<v:ud v:nameU="msvNoAutoConnect" v:prompt="" v:val="VT0(1):26"/>
		</v:userDefs>
	</v:documentProperties>

	<style type="text/css">
	<![CDATA[
		.st1 {visibility:visible}
		.st2 {fill:#5b9bd5;fill-opacity:0.22;filter:url(#filter_2);stroke:#5b9bd5;stroke-opacity:0.22}
		.st3 {fill:#00b0f0;stroke:#c7c8c8;stroke-width:1}
		.st4 {stroke:#5b9bd5;stroke-dasharray:7,5;stroke-linecap:round;stroke-linejoin:round;stroke-width:1}
		.st5 {fill:#feffff;font-family:Calibri;font-size:1.5em}
		.st6 {font-size:1em}
		.st7 {fill:#5b9bd5;stroke:#5b9bd5;stroke-linecap:round;stroke-linejoin:round;stroke-width:0.75}
		.st8 {fill:#5b9bd5;stroke:#5b9bd5;stroke-linecap:round;stroke-linejoin:round;stroke-width:1}
		.st9 {marker-end:url(#mrkr4-84);stroke:#5b9bd5;stroke-linecap:round;stroke-linejoin:round;stroke-width:2}
		.st10 {fill:#5b9bd5;fill-opacity:1;stroke:#5b9bd5;stroke-opacity:1;stroke-width:0.38167938931298}
		.st11 {fill:#ffffff;stroke:none;stroke-linecap:butt;stroke-width:7.2}
		.st12 {fill:#000000;font-family:Calibri;font-size:1.16666em}
		.st13 {font-size:1em;font-style:italic}
		.st14 {marker-end:url(#mrkr4-97);stroke:#5b9bd5;stroke-linecap:round;stroke-linejoin:round;stroke-width:2}
		.st15 {fill:#5b9bd5;fill-opacity:1;stroke:#5b9bd5;stroke-opacity:1;stroke-width:0.44247787610619}
		.st16 {marker-end:url(#mrkr1-103);stroke:#5b9bd5;stroke-linecap:round;stroke-linejoin:round;stroke-width:2}
		.st17 {fill:#ffffff;stroke:none;stroke-linecap:butt}
		.st18 {fill:#000000;stroke:none;stroke-linecap:butt;stroke-width:2}
		.st19 {marker-start:url(#mrkr4-126);stroke:#5b9bd5;stroke-linecap:round;stroke-linejoin:round;stroke-width:2}
		.st20 {fill:none;fill-rule:evenodd;font-size:12px;overflow:visible;stroke-linecap:square;stroke-miterlimit:3}
	]]>
	</style>

	<defs id="Markers">
		<g id="lend4">
			<path d="M 2 1 L 0 0 L 2 -1 L 2 1 " style="stroke:none"/>
		</g>
		<marker id="mrkr4-84" class="st10" v:arrowType="4" v:arrowSize="3" v:setback="5.24" refX="-5.24" orient="auto"
				markerUnits="strokeWidth" overflow="visible">
			<use xlink:href="#lend4" transform="scale(-2.62,-2.62) "/>
		</marker>
		<marker id="mrkr4-97" class="st15" v:arrowType="4" v:arrowSize="2" v:setback="4.52" refX="-4.52" orient="auto"
				markerUnits="strokeWidth" overflow="visible">
			<use xlink:href="#lend4" transform="scale(-2.26,-2.26) "/>
		</marker>
		<g id="lend1">
			<path d="M 1 -1 L 0 0 L 1 1 " style="stroke-linecap:round;stroke-linejoin:round;fill:none"/>
		</g>
		<marker id="mrkr1-103" class="st15" v:arrowType="1" v:arrowSize="2" orient="auto" markerUnits="strokeWidth"
				overflow="visible">
			<use xlink:href="#lend1" transform="scale(-2.26,-2.26) "/>
		</marker>
		<marker id="mrkr4-126" class="st15" v:arrowType="4" v:arrowSize="2" v:setback="4.34" refX="4.34" orient="auto"
				markerUnits="strokeWidth" overflow="visible">
			<use xlink:href="#lend4" transform="scale(2.26) "/>
		</marker>
	</defs>
	<defs id="Filters">
		<filter id="filter_2">
			<feGaussianBlur stdDeviation="2"/>
		</filter>
	</defs>
	<g v:mID="6" v:index="1" v:groupContext="foregroundPage">
		<v:userDefs>
			<v:ud v:nameU="visNavType" v:val="VT0(1):26"/>
			<v:ud v:nameU="msvThemeOrder" v:val="VT0(0):26"/>
		</v:userDefs>
		<title>Page-1</title>
		<v:pageProperties v:drawingScale="0.0393701" v:pageScale="0.0393701" v:drawingUnits="24" v:shadowOffsetX="8.50394"
				v:shadowOffsetY="-8.50394"/>
		<v:layer v:name="Connector" v:index="0"/>
		<g id="group38-1" transform="translate(145.879,-286.397)" v:mID="38" v:groupContext="group">
			<v:userDefs>
				<v:ud v:nameU="visVersion" v:prompt="" v:val="VT0(15):26"/>
				<v:ud v:nameU="ShowActor" v:prompt="" v:val="VT0(1):5"/>
				<v:ud v:nameU="ShowDestruction" v:prompt="" v:val="VT0(0):5"/>
				<v:ud v:nameU="visNavOrder" v:val="VT0(1000):26"/>
			</v:userDefs>
			<title>Actor lifeline</title>
			<desc>dApp frontend</desc>
			<g id="shape39-2" v:mID="39" v:groupContext="shape" transform="translate(19.8425,-9.10517)">
				<title>Sheet.39</title>
				<g id="shadow39-3" v:groupContext="shadow" v:shadowOffsetX="0.345598" v:shadowOffsetY="-1.97279" v:shadowType="1"
						transform="matrix(1,0,0,1,0.345598,1.97279)" class="st1">
					<rect x="0" y="342.6" width="51.0236" height="25.5118" class="st2"/>
				</g>
				<rect x="0" y="342.6" width="51.0236" height="25.5118" class="st3"/>
			</g>
			<g id="shape41-7" v:mID="41" v:groupContext="shape" transform="translate(30.2362,268.397)">
				<title>Sheet.41</title>
				<g id="shadow41-8" v:groupContext="shadow" v:shadowOffsetX="0.345598" v:shadowOffsetY="-1.97279" v:shadowType="1"
						transform="matrix(1,0,0,1,0.345598,1.97279)" class="st1"/>
			</g>
			<g id="shape42-12" v:mID="42" v:groupContext="shape" transform="translate(413.466,368.111) rotate(90)">
				<title>Sheet.42</title>
				<path d="M0 368.11 L244.28 368.11" class="st4"/>
			</g>
			<g id="shape38-15" v:mID="38" v:groupContext="groupContent">
				<v:textBlock v:margins="rect(4,4,4,4)" v:tabSpace="42.5197"/>
				<v:textRect cx="45.3543" cy="346.25" width="90.71" height="43.7221"/>
				<g id="shadow38-16" v:groupContext="shadow" v:shadowOffsetX="0.345598" v:shadowOffsetY="-1.97279" v:shadowType="1"
						transform="matrix(1,0,0,1,0.345598,1.97279)" class="st1">
					<rect x="0" y="324.389" width="90.7087" height="43.7221" class="st2"/>
				</g>
				<rect x="0" y="324.389" width="90.7087" height="43.7221" class="st3"/>
				<text x="25.96" y="340.85" class="st5" v:langID="1033"><v:paragraph v:horizAlign="1"/><v:tabList/>dApp <tspan
							x="13.05" dy="1.2em" class="st6">frontend</tspan></text>			</g>
		</g>
		<g id="group43-22" transform="translate(345.013,-286.397)" v:mID="43" v:groupContext="group">
			<v:userDefs>
				<v:ud v:nameU="visVersion" v:prompt="" v:val="VT0(15):26"/>
				<v:ud v:nameU="ShowActor" v:prompt="" v:val="VT0(0):5"/>
				<v:ud v:nameU="ShowDestruction" v:prompt="" v:val="VT0(0):5"/>
				<v:ud v:nameU="visNavOrder" v:val="VT0(2000):26"/>
			</v:userDefs>
			<title>Object lifeline</title>
			<desc>dApp backend</desc>
			<g id="shape44-23" v:mID="44" v:groupContext="shape" transform="translate(19.8425,-9.10517)">
				<title>Sheet.44</title>
				<g id="shadow44-24" v:groupContext="shadow" v:shadowOffsetX="0.345598" v:shadowOffsetY="-1.97279" v:shadowType="1"
						transform="matrix(1,0,0,1,0.345598,1.97279)" class="st1">
					<rect x="0" y="342.6" width="51.0236" height="25.5118" class="st2"/>
				</g>
				<rect x="0" y="342.6" width="51.0236" height="25.5118" class="st3"/>
			</g>
			<g id="shape45-28" v:mID="45" v:groupContext="shape" transform="translate(36.8504,-47.2654)">
				<title>Sheet.45</title>
				<g id="shadow45-29" v:groupContext="shadow" v:shadowOffsetX="0.345598" v:shadowOffsetY="-1.97279" v:shadowType="1"
						transform="matrix(1,0,0,1,0.345598,1.97279)" class="st1">
					<path d="M8.5 368.11 a0 0 0 1 1 0 0 a0 0 0 1 1 0 0 Z" class="st2"/>
				</g>
				<path d="M8.5 368.11 a0 0 0 1 1 0 0 a0 0 0 1 1 0 0 Z" class="st3"/>
			</g>
			<g id="shape46-33" v:mID="46" v:groupContext="shape" transform="translate(30.2362,268.397)">
				<title>Sheet.46</title>
				<g id="shadow46-34" v:groupContext="shadow" v:shadowOffsetX="0.345598" v:shadowOffsetY="-1.97279" v:shadowType="1"
						transform="matrix(1,0,0,1,0.345598,1.97279)" class="st1"/>
			</g>
			<g id="shape47-38" v:mID="47" v:groupContext="shape" transform="translate(413.466,368.111) rotate(90)">
				<title>Sheet.47</title>
				<path d="M0 368.11 L244.28 368.11" class="st4"/>
			</g>
			<g id="shape43-41" v:mID="43" v:groupContext="groupContent">
				<v:textBlock v:margins="rect(4,4,4,4)" v:tabSpace="42.5197"/>
				<v:textRect cx="45.3543" cy="346.25" width="90.71" height="43.7221"/>
				<g id="shadow43-42" v:groupContext="shadow" v:shadowOffsetX="0.345598" v:shadowOffsetY="-1.97279" v:shadowType="1"
						transform="matrix(1,0,0,1,0.345598,1.97279)" class="st1">
					<rect x="0" y="324.389" width="90.7087" height="43.7221" class="st2"/>
				</g>
				<rect x="0" y="324.389" width="90.7087" height="43.7221" class="st3"/>
				<text x="25.96" y="340.85" class="st5" v:langID="1033"><v:paragraph v:horizAlign="1"/><v:tabList/>dApp <tspan
							x="14.48" dy="1.2em" class="st6">backend</tspan></text>			</g>
		</g>
		<g id="group54-48" transform="translate(480.438,-286.397)" v:mID="54" v:groupContext="group">
			<v:userDefs>
				<v:ud v:nameU="visVersion" v:prompt="" v:val="VT0(15):26"/>
				<v:ud v:nameU="ShowActor" v:prompt="" v:val="VT0(0):5"/>
				<v:ud v:nameU="ShowDestruction" v:prompt="" v:val="VT0(0):5"/>
				<v:ud v:nameU="visNavOrder" v:val="VT0(3000):26"/>
			</v:userDefs>
			<title>Object lifeline.54</title>
			<desc>Wallet</desc>
			<g id="shape55-49" v:mID="55" v:groupContext="shape" transform="translate(19.8425,-9.10517)">
				<title>Sheet.55</title>
				<g id="shadow55-50" v:groupContext="shadow" v:shadowOffsetX="0.345598" v:shadowOffsetY="-1.97279" v:shadowType="1"
						transform="matrix(1,0,0,1,0.345598,1.97279)" class="st1">
					<rect x="0" y="342.6" width="51.0236" height="25.5118" class="st2"/>
				</g>
				<rect x="0" y="342.6" width="51.0236" height="25.5118" class="st3"/>
			</g>
			<g id="shape56-54" v:mID="56" v:groupContext="shape" transform="translate(36.8504,-47.2654)">
				<title>Sheet.56</title>
				<g id="shadow56-55" v:groupContext="shadow" v:shadowOffsetX="0.345598" v:shadowOffsetY="-1.97279" v:shadowType="1"
						transform="matrix(1,0,0,1,0.345598,1.97279)" class="st1">
					<path d="M8.5 368.11 a0 0 0 1 1 0 0 a0 0 0 1 1 0 0 Z" class="st2"/>
				</g>
				<path d="M8.5 368.11 a0 0 0 1 1 0 0 a0 0 0 1 1 0 0 Z" class="st3"/>
			</g>
			<g id="shape57-59" v:mID="57" v:groupContext="shape" transform="translate(30.2362,268.397)">
				<title>Sheet.57</title>
				<g id="shadow57-60" v:groupContext="shadow" v:shadowOffsetX="0.345598" v:shadowOffsetY="-1.97279" v:shadowType="1"
						transform="matrix(1,0,0,1,0.345598,1.97279)" class="st1"/>
			</g>
			<g id="shape58-64" v:mID="58" v:groupContext="shape" transform="translate(413.466,368.111) rotate(90)">
				<title>Sheet.58</title>
				<path d="M0 368.11 L244.28 368.11" class="st4"/>
			</g>
			<g id="shape54-67" v:mID="54" v:groupContext="groupContent">
				<v:textBlock v:margins="rect(4,4,4,4)" v:tabSpace="42.5197"/>
				<v:textRect cx="45.3543" cy="346.25" width="90.71" height="43.7221"/>
				<g id="shadow54-68" v:groupContext="shadow" v:shadowOffsetX="0.345598" v:shadowOffsetY="-1.97279" v:shadowType="1"
						transform="matrix(1,0,0,1,0.345598,1.97279)" class="st1">
					<rect x="0" y="324.389" width="90.7087" height="43.7221" class="st2"/>
				</g>
				<rect x="0" y="324.389" width="90.7087" height="43.7221" class="st3"/>
				<text x="21.41" y="351.65" class="st5" v:langID="1033"><v:paragraph v:horizAlign="1"/><v:tabList/>Wallet</text>			</g>
		</g>
		<g id="shape59-73" v:mID="59" v:groupContext="shape" transform="translate(-172.626,303.457) rotate(-90)">
			<title>Activation</title>
			<v:userDefs>
				<v:ud v:nameU="visVersion" v:prompt="" v:val="VT0(15):26"/>
				<v:ud v:nameU="visNavOrder" v:val="VT0(1500):26"/>
			</v:userDefs>
			<rect x="0" y="359.607" width="167.244" height="8.50394" class="st7"/>
		</g>
		<g id="shape60-75" v:mID="60" v:groupContext="shape" transform="translate(26.5076,156.055) rotate(-90)">
			<title>Activation.60</title>
			<v:userDefs>
				<v:ud v:nameU="visVersion" v:prompt="" v:val="VT0(15):26"/>
				<v:ud v:nameU="visNavOrder" v:val="VT0(2500):26"/>
			</v:userDefs>
			<rect x="0" y="359.607" width="17.0079" height="8.50394" class="st8"/>
		</g>
		<g id="shape65-77" v:mID="65" v:groupContext="shape" transform="translate(161.933,232.591) rotate(-90)">
			<title>Activation.65</title>
			<v:userDefs>
				<v:ud v:nameU="visVersion" v:prompt="" v:val="VT0(15):26"/>
				<v:ud v:nameU="visNavOrder" v:val="VT0(6000):26"/>
			</v:userDefs>
			<rect x="0" y="359.607" width="42.5197" height="8.50394" class="st7"/>
		</g>
		<g id="shape128-79" v:mID="128" v:groupContext="shape" v:layerMember="0" transform="translate(195.485,-221.977)">
			<title>Message.21</title>
			<desc>generate ton_proof payload</desc>
			<v:userDefs>
				<v:ud v:nameU="IsReturn" v:prompt="" v:val="VT0(0):5"/>
				<v:ud v:nameU="IsAsync" v:prompt="" v:val="VT0(0):26"/>
				<v:ud v:nameU="IsSelfMessage" v:prompt="" v:val="VT0(0):5"/>
				<v:ud v:nameU="visVersion" v:prompt="" v:val="VT0(15):26"/>
				<v:ud v:nameU="IsAsync" v:prompt="" v:val="VT0(0):5"/>
				<v:ud v:nameU="visNavOrder" v:val="VT0(1666):26"/>
			</v:userDefs>
			<v:textBlock v:margins="rect(4,4,4,4)" v:tabSpace="42.5197"/>
			<v:textRect cx="94.9606" cy="346.358" width="122.14" height="41.6033"/>
			<path d="M0 361.02 L180.15 361.02" class="st9"/>
			<rect v:rectContext="textBkgnd" x="39.477" y="329.558" width="110.967" height="33.6" class="st11"/>
			<text x="39.48" y="342.16" class="st12" v:langID="1033"><v:paragraph v:horizAlign="1"/><v:tabList/>generate<tspan
						class="st13"> </tspan><tspan class="st13">ton_proof<v:lf/></tspan><tspan x="72.43" dy="1.2em" class="st6">payload</tspan></text>		</g>
		<g id="shape148-90" v:mID="148" v:groupContext="shape" transform="translate(26.5076,303.457) rotate(-90)">
			<title>Activation.148</title>
			<v:userDefs>
				<v:ud v:nameU="visVersion" v:prompt="" v:val="VT0(15):26"/>
				<v:ud v:nameU="visNavOrder" v:val="VT0(15000):26"/>
			</v:userDefs>
			<rect x="0" y="359.607" width="36.2103" height="8.50394" class="st7"/>
		</g>
		<g id="shape150-92" v:mID="150" v:groupContext="shape" v:layerMember="0" transform="translate(386.115,-204.969)">
			<title>Dynamic connector</title>
			<v:userDefs>
				<v:ud v:nameU="visNavOrder" v:val="VT0(16000):26"/>
			</v:userDefs>
			<path d="M0 361.02 L-181.59 361.02" class="st14"/>
		</g>
		<g id="shape152-98" v:mID="152" v:groupContext="shape" v:layerMember="0" transform="translate(195.485,-180.418)">
			<title>Dynamic connector.152</title>
			<desc>Connection request with ton_proof</desc>
			<v:userDefs>
				<v:ud v:nameU="visNavOrder" v:val="VT0(17000):26"/>
			</v:userDefs>
			<v:textBlock v:margins="rect(4,4,4,4)" v:tabSpace="42.5197"/>
			<v:textRect cx="163.028" cy="375.198" width="211.39" height="24.8035"/>
			<path d="M0 374.88 L326.06 375.52" class="st16"/>
			<rect v:rectContext="textBkgnd" x="62.9194" y="366.798" width="200.216" height="16.8" class="st17"/>
			<text x="62.92" y="379.4" class="st12" v:langID="1033"><v:paragraph v:horizAlign="1"/><v:tabList/>Connection request with <tspan
						class="st13">ton_proof</tspan></text>		</g>
		<g id="shape153-107" v:mID="153" v:groupContext="shape" v:layerMember="0" transform="translate(521.54,-149.163)">
			<title>Dynamic connector.153</title>
			<desc>Signed ton_proof</desc>
			<v:userDefs>
				<v:ud v:nameU="visNavOrder" v:val="VT0(18000):26"/>
			</v:userDefs>
			<v:textBlock v:margins="rect(4,4,4,4)" v:tabSpace="42.5197"/>
			<v:textRect cx="-163.028" cy="375.198" width="108.93" height="24.8035"/>
			<path d="M0 374.95 L-317.02 375.43" class="st14"/>
			<rect v:rectContext="textBkgnd" x="-211.907" y="366.798" width="97.7599" height="16.8" class="st11"/>
			<text x="-211.91" y="379.4" class="st12" v:langID="1033"><v:paragraph v:horizAlign="1"/><v:tabList/>Signed <tspan
						class="st13">ton_proof</tspan></text>		</g>
		<g id="group154-115" transform="translate(48.5087,-312.119)" v:mID="154" v:groupContext="group">
			<v:userDefs>
				<v:ud v:nameU="msvDisableCustomConnectionPoints" v:prompt="" v:val="VT4(True)"/>
				<v:ud v:nameU="visNavOrder" v:val="VT0(19000):26"/>
			</v:userDefs>
			<title>User</title>
			<g id="group155-116" v:mID="155" v:groupContext="group">
				<v:userDefs>
					<v:ud v:nameU="msvDisableCustomConnectionPoints" v:prompt="" v:val="VT0(1):5"/>
				</v:userDefs>
				<title>Sheet.155</title>
				<g id="shape156-117" v:mID="156" v:groupContext="shape">
					<title>Sheet.156</title>
					<v:userDefs>
						<v:ud v:nameU="msvDisableCustomConnectionPoints" v:prompt="" v:val="VT0(1):5"/>
					</v:userDefs>
					<path d="M35.23 368.11 L0.77 368.11 C0.57 368.11 0.37 368.03 0.23 367.89 C0.08 367.74 0 367.55 0 367.34 L0 365.04
								 C0 361.13 1.31 357.33 3.72 354.26 C6.13 351.18 9.5 349.01 13.3 348.08 C13.48 348.04 13.68 348.06
								 13.85 348.15 C15.12 348.85 16.54 349.21 17.99 349.21 C19.44 349.21 20.86 348.84 22.14 348.15 C22.3
								 348.06 22.5 348.04 22.68 348.08 C26.48 349 29.86 351.17 32.27 354.25 C34.69 357.33 36 361.13 36
								 365.05 L36 367.35 C36 367.55 35.91 367.75 35.77 367.89 C35.63 368.03 35.44 368.11 35.23 368.11 ZM1.53
								 366.58 L34.47 366.58 L34.47 365.04 C34.47 361.52 33.3 358.1 31.15 355.32 C29.01 352.53 26 350.54
								 22.6 349.66 C21.17 350.37 19.6 350.75 18 350.75 C16.4 350.76 14.83 350.38 13.41 349.66 C10 350.54
								 6.99 352.53 4.85 355.32 C2.7 358.11 1.53 361.53 1.53 365.05 L1.53 366.58 Z" class="st18"/>
				</g>
				<g id="shape157-119" v:mID="157" v:groupContext="shape" transform="translate(8.71815,-17.4064)">
					<title>Sheet.157</title>
					<v:userDefs>
						<v:ud v:nameU="msvDisableCustomConnectionPoints" v:prompt="" v:val="VT0(1):5"/>
					</v:userDefs>
					<path d="M9.28 368.11 C7.7 368.11 6.15 367.71 4.76 366.95 C3.34 366.15 2.15 364.99 1.31 363.58 C0.48 362.17 0.03
								 360.56 0.02 358.92 C0 357.28 0.42 355.67 1.22 354.24 C2.03 352.82 3.2 351.63 4.61 350.8 C6.02 349.97
								 7.63 349.53 9.26 349.53 C10.9 349.52 12.51 349.94 13.93 350.76 C15.35 351.57 16.52 352.75 17.34
								 354.17 C18.16 355.59 18.6 357.2 18.6 358.83 C18.6 360.5 18.15 362.13 17.3 363.56 C16.45 364.99 15.22
								 366.17 13.76 366.95 C12.38 367.7 10.85 368.1 9.28 368.11 ZM9.28 351.08 C7.55 351.04 5.86 351.59
								 4.48 352.64 C3.1 353.68 2.11 355.16 1.67 356.84 C1.23 358.51 1.36 360.29 2.04 361.88 C2.73 363.47
								 3.93 364.79 5.45 365.61 C6.61 366.24 7.91 366.57 9.22 366.57 C10.54 366.57 11.84 366.24 13 365.61
								 C14.51 364.79 15.7 363.48 16.39 361.91 C17.08 360.33 17.22 358.56 16.79 356.89 C16.37 355.22 15.4
								 353.74 14.03 352.69 C12.67 351.64 11 351.07 9.28 351.08 Z" class="st18"/>
				</g>
			</g>
		</g>
		<g id="shape160-121" v:mID="160" v:groupContext="shape" v:layerMember="0" transform="translate(386.115,-107.631)">
			<title>Dynamic connector.160</title>
			<desc>Check ton_proof</desc>
			<v:userDefs>
				<v:ud v:nameU="visNavOrder" v:val="VT0(20000):26"/>
			</v:userDefs>
			<v:textBlock v:margins="rect(4,4,4,4)" v:tabSpace="42.5197"/>
			<v:textRect cx="-95.315" cy="375.198" width="105.09" height="24.8035"/>
			<path d="M-8.68 374.91 L-9.04 374.91 L-190.63 375.52" class="st19"/>
			<rect v:rectContext="textBkgnd" x="-142.274" y="366.798" width="93.918" height="16.8" class="st11"/>
			<text x="-142.27" y="379.4" class="st12" v:langID="1033"><v:paragraph v:horizAlign="1"/><v:tabList/>Check<tspan
						class="st13"> </tspan><tspan class="st13">ton_proof</tspan></text>		</g>
		<g id="shape161-131" v:mID="161" v:groupContext="shape" v:layerMember="0" transform="translate(195.485,-62.277)">
			<title>Dynamic connector.161</title>
			<desc>Auth token/cookie</desc>
			<v:userDefs>
				<v:ud v:nameU="visNavOrder" v:val="VT0(21000):26"/>
			</v:userDefs>
			<v:textBlock v:margins="rect(4,4,4,4)" v:tabSpace="42.5197"/>
			<v:textRect cx="95.315" cy="361.025" width="117.23" height="24.8035"/>
			<path d="M8.68 361.32 L9.04 361.31 L190.63 360.7" class="st19"/>
			<rect v:rectContext="textBkgnd" x="42.2856" y="352.625" width="106.059" height="16.8" class="st11"/>
			<text x="42.29" y="365.23" class="st12" v:langID="1033"><v:paragraph v:horizAlign="1"/><v:tabList/>Auth token/cookie</text>		</g>
		<g id="group163-138" transform="translate(21.1544,-286.204)" v:mID="163" v:groupContext="group">
			<v:userDefs>
				<v:ud v:nameU="visVersion" v:prompt="" v:val="VT0(15):26"/>
				<v:ud v:nameU="ShowActor" v:prompt="" v:val="VT0(0):5"/>
				<v:ud v:nameU="ShowDestruction" v:prompt="" v:val="VT0(0):5"/>
				<v:ud v:nameU="visNavOrder" v:val="VT0(22000):26"/>
			</v:userDefs>
			<title>Object lifeline.142</title>
			<desc>User</desc>
			<g id="shape164-139" v:mID="164" v:groupContext="shape" transform="translate(19.8425,1.72912)">
				<title>Sheet.164</title>
				<g id="shadow164-140" v:groupContext="shadow" v:shadowOffsetX="0.345598" v:shadowOffsetY="-1.97279"
						v:shadowType="1" transform="matrix(1,0,0,1,0.345598,1.97279)" class="st1">
					<rect x="0" y="342.6" width="51.0236" height="25.5118" class="st2"/>
				</g>
				<rect x="0" y="342.6" width="51.0236" height="25.5118" class="st3"/>
			</g>
			<g id="shape165-144" v:mID="165" v:groupContext="shape" transform="translate(36.8504,-25.5969)">
				<title>Sheet.165</title>
				<g id="shadow165-145" v:groupContext="shadow" v:shadowOffsetX="0.345598" v:shadowOffsetY="-1.97279"
						v:shadowType="1" transform="matrix(1,0,0,1,0.345598,1.97279)" class="st1">
					<path d="M8.5 368.11 a0 0 0 1 1 0 0 a0 0 0 1 1 0 0 Z" class="st2"/>
				</g>
				<path d="M8.5 368.11 a0 0 0 1 1 0 0 a0 0 0 1 1 0 0 Z" class="st3"/>
			</g>
			<g id="shape166-149" v:mID="166" v:groupContext="shape" transform="translate(30.2362,252.103)">
				<title>Sheet.166</title>
				<g id="shadow166-150" v:groupContext="shadow" v:shadowOffsetX="0.345598" v:shadowOffsetY="-1.97279"
						v:shadowType="1" transform="matrix(1,0,0,1,0.345598,1.97279)" class="st1"/>
			</g>
			<g id="shape167-154" v:mID="167" v:groupContext="shape" transform="translate(413.466,368.111) rotate(90)">
				<title>Sheet.167</title>
				<path d="M0 368.11 L235.72 368.11" class="st4"/>
			</g>
			<g id="shape163-157" v:mID="163" v:groupContext="groupContent">
				<v:textBlock v:margins="rect(4,4,4,4)" v:tabSpace="42.5197"/>
				<v:textRect cx="45.3543" cy="357.085" width="90.71" height="22.0536"/>
				<g id="shadow163-158" v:groupContext="shadow" v:shadowOffsetX="0.345598" v:shadowOffsetY="-1.97279"
						v:shadowType="1" transform="matrix(1,0,0,1,0.345598,1.97279)" class="st1">
					<rect x="0" y="346.058" width="90.7087" height="22.0536" class="st2"/>
				</g>
				<rect x="0" y="346.058" width="90.7087" height="22.0536" class="st3"/>
				<text x="28.44" y="362.48" class="st5" v:langID="1033"><v:paragraph v:horizAlign="1"/><v:tabList/>User</text>			</g>
		</g>
		<g id="shape169-163" v:mID="169" v:groupContext="shape" v:layerMember="0" transform="translate(66.5087,-224.716)">
			<title>Dynamic connector.169</title>
			<desc>Connect wallet</desc>
			<v:userDefs>
				<v:ud v:nameU="visNavOrder" v:val="VT0(23000):26"/>
			</v:userDefs>
			<v:textBlock v:margins="rect(4,4,4,4)" v:tabSpace="42.5197"/>
			<v:textRect cx="60.2362" cy="361.025" width="96.27" height="24.8035"/>
			<path d="M0 361.12 L111.43 360.94" class="st14"/>
			<rect v:rectContext="textBkgnd" x="17.6896" y="352.625" width="85.0935" height="16.8" class="st11"/>
			<text x="17.69" y="365.23" class="st12" v:langID="1033"><v:paragraph v:horizAlign="1"/><v:tabList/>Connect wallet</text>		</g>
	</g>
</svg>
