<?xml version="1.0" encoding="UTF-8" standalone="no"?>
<!DOCTYPE svg PUBLIC "-//W3C//DTD SVG 1.1//EN" "http://www.w3.org/Graphics/SVG/1.1/DTD/svg11.dtd">
<!-- Generated by Microsoft Visio, SVG Export message_delivery_4.svg split-merge-scheme -->
<svg xmlns="http://www.w3.org/2000/svg" xmlns:xlink="http://www.w3.org/1999/xlink" xmlns:ev="http://www.w3.org/2001/xml-events"
		xmlns:v="http://schemas.microsoft.com/visio/2003/SVGExtensions/" width="17.2945in" height="4.349in"
		viewBox="0 0 1245.2 313.128" xml:space="preserve" color-interpolation-filters="sRGB" class="st10">
	<v:documentProperties v:langID="1049" v:metric="true" v:viewMarkup="false">
		<v:userDefs>
			<v:ud v:nameU="msvNoAutoConnect" v:val="VT0(1):26"/>
		</v:userDefs>
	</v:documentProperties>

	<style type="text/css">
	<![CDATA[
		.st1 {fill:#ffffff;stroke:#000000;stroke-linecap:round;stroke-linejoin:round;stroke-width:1.75}
		.st2 {fill:none;stroke:none;stroke-linecap:round;stroke-linejoin:round;stroke-width:0.75}
		.st3 {fill:#000000;font-family:Inter;font-size:1.5em}
		.st4 {stroke:#000000;stroke-linecap:round;stroke-linejoin:round;stroke-width:3.25}
		.st5 {font-size:1em}
		.st6 {fill:#00b0f0;stroke:#00b0f0;stroke-linecap:round;stroke-linejoin:round;stroke-width:1.75}
		.st7 {stroke:#00b0f0;stroke-linecap:round;stroke-linejoin:round;stroke-width:3.25}
		.st8 {fill:#00b0f0;font-family:Inter;font-size:1.5em}
		.st9 {stroke:#000000;stroke-dasharray:5.25,3.75;stroke-linecap:round;stroke-linejoin:round;stroke-width:0.75}
		.st10 {fill:none;fill-rule:evenodd;font-size:12px;overflow:visible;stroke-linecap:square;stroke-miterlimit:3}
	]]>
	</style>

	<g v:mID="54" v:index="14" v:groupContext="foregroundPage">
		<title>split-merge-scheme</title>
		<v:pageProperties v:drawingScale="0.0393701" v:pageScale="0.0393701" v:drawingUnits="24" v:shadowOffsetX="8.50394"
				v:shadowOffsetY="-8.50394"/>
		<v:layer v:name="Connector" v:index="0"/>
		<g id="shape1-1" v:mID="1" v:groupContext="shape" transform="translate(338.265,-252.233)">
			<title>Circle.37</title>
			<v:userDefs>
				<v:ud v:nameU="visVersion" v:val="VT0(15):26"/>
			</v:userDefs>
			<path d="M0 308.88 A4.25199 4.25199 0 0 1 8.5 308.88 A4.25199 4.25199 0 1 1 -0 308.88 Z" class="st1"/>
		</g>
		<g id="shape2-3" v:mID="2" v:groupContext="shape" transform="translate(290.076,-252.233)">
			<title>Sheet.2</title>
			<desc>seqno = 28</desc>
			<v:textBlock v:margins="rect(4,4,4,4)" v:tabSpace="42.5197"/>
			<v:textRect cx="52.4409" cy="291.868" width="104.89" height="42.5197"/>
			<rect x="0" y="270.608" width="104.882" height="42.5197" class="st2"/>
			<text x="4.39" y="297.27" class="st3" v:langID="1033"><v:paragraph v:horizAlign="1"/><v:tabList/>seqno = 28</text>		</g>
		<g id="shape3-6" v:mID="3" v:groupContext="shape" v:layerMember="0" transform="translate(281.572,-263.572)">
			<title>Dynamic connector.44</title>
			<path d="M0 320.21 L56.69 320.21" class="st4"/>
		</g>
		<g id="shape4-9" v:mID="4" v:groupContext="shape" v:layerMember="0" transform="translate(346.769,-262.863)">
			<title>Dynamic connector.4</title>
			<path d="M0 319.51 L279 320.92" class="st4"/>
		</g>
		<g id="shape5-12" v:mID="5" v:groupContext="shape" transform="translate(18.375,-235.225)">
			<title>Sheet.5</title>
			<desc>Masterchain (workchain = -1)</desc>
			<v:textBlock v:margins="rect(4,4,4,4)" v:tabSpace="42.5197"/>
			<v:textRect cx="131.598" cy="291.868" width="263.2" height="42.5197"/>
			<rect x="0" y="270.608" width="263.197" height="42.5197" class="st2"/>
			<text x="79.13" y="286.47" class="st3" v:langID="1033"><v:paragraph v:horizAlign="1"/><v:tabList/>Masterchain <v:lf/><tspan
						x="62.01" dy="1.2em" class="st5">(workchain = </tspan>-1)</text>		</g>
		<g id="shape7-16" v:mID="7" v:groupContext="shape" transform="translate(625.769,-250.816)">
			<title>Circle.7</title>
			<v:userDefs>
				<v:ud v:nameU="visVersion" v:val="VT0(15):26"/>
			</v:userDefs>
			<path d="M0 308.88 A4.25199 4.25199 0 0 1 8.5 308.88 A4.25199 4.25199 0 1 1 -0 308.88 Z" class="st1"/>
		</g>
		<g id="shape8-18" v:mID="8" v:groupContext="shape" v:layerMember="0" transform="translate(634.273,-261.446)">
			<title>Dynamic connector.8</title>
			<path d="M0 319.51 L311.81 320.92" class="st4"/>
		</g>
		<g id="shape9-21" v:mID="9" v:groupContext="shape" transform="translate(946.084,-249.399)">
			<title>Circle.9</title>
			<v:userDefs>
				<v:ud v:nameU="visVersion" v:val="VT0(15):26"/>
			</v:userDefs>
			<path d="M0 308.88 A4.25199 4.25199 0 0 1 8.5 308.88 A4.25199 4.25199 0 1 1 -0 308.88 Z" class="st1"/>
		</g>
		<g id="shape12-23" v:mID="12" v:groupContext="shape" transform="translate(577.58,-250.816)">
			<title>Sheet.12</title>
			<desc>seqno = 28</desc>
			<v:textBlock v:margins="rect(4,4,4,4)" v:tabSpace="42.5197"/>
			<v:textRect cx="52.4409" cy="291.868" width="104.89" height="42.5197"/>
			<rect x="0" y="270.608" width="104.882" height="42.5197" class="st2"/>
			<text x="4.39" y="297.27" class="st3" v:langID="1033"><v:paragraph v:horizAlign="1"/><v:tabList/>seqno = 28</text>		</g>
		<g id="shape13-26" v:mID="13" v:groupContext="shape" transform="translate(897.895,-250.816)">
			<title>Sheet.13</title>
			<desc>seqno = 28</desc>
			<v:textBlock v:margins="rect(4,4,4,4)" v:tabSpace="42.5197"/>
			<v:textRect cx="52.4409" cy="291.868" width="104.89" height="42.5197"/>
			<rect x="0" y="270.608" width="104.882" height="42.5197" class="st2"/>
			<text x="4.39" y="297.27" class="st3" v:langID="1033"><v:paragraph v:horizAlign="1"/><v:tabList/>seqno = 28</text>		</g>
		<g id="shape14-29" v:mID="14" v:groupContext="shape" transform="translate(322.461,-143.099)">
			<title>Circle.14</title>
			<v:userDefs>
				<v:ud v:nameU="visVersion" v:val="VT0(15):26"/>
			</v:userDefs>
			<path d="M0 308.88 A4.25199 4.25199 0 0 1 8.5 308.88 A4.25199 4.25199 0 1 1 -0 308.88 Z" class="st6"/>
		</g>
		<g id="shape15-31" v:mID="15" v:groupContext="shape" v:layerMember="0" transform="translate(279.942,-154.438)">
			<title>Dynamic connector.15</title>
			<path d="M0 320.21 L1.33 320.21 L1.33 320.21 L42.52 320.21" class="st7"/>
		</g>
		<g id="shape16-34" v:mID="16" v:groupContext="shape" transform="translate(16.4408,-126.091)">
			<title>Sheet.16</title>
			<desc>Basechain (workchain = 0)</desc>
			<v:textBlock v:margins="rect(4,4,4,4)" v:tabSpace="42.5197"/>
			<v:textRect cx="131.598" cy="291.868" width="263.2" height="42.5197"/>
			<rect x="0" y="270.608" width="263.197" height="42.5197" class="st2"/>
			<text x="87.9" y="286.47" class="st8" v:langID="1033"><v:paragraph v:horizAlign="1"/><v:tabList/>Basechain <v:lf/><tspan
						x="64.71" dy="1.2em" class="st5">(workchain = 0)</tspan></text>		</g>
		<g id="shape17-38" v:mID="17" v:groupContext="shape" transform="translate(272.855,-106.249)">
			<title>Sheet.17</title>
			<desc>100</desc>
			<v:textBlock v:margins="rect(4,4,4,4)" v:tabSpace="42.5197"/>
			<v:textRect cx="52.4409" cy="291.868" width="104.89" height="42.5197"/>
			<rect x="0" y="270.608" width="104.882" height="42.5197" class="st2"/>
			<text x="37.01" y="297.27" class="st8" v:langID="1033"><v:paragraph v:horizAlign="1"/><v:tabList/>100</text>		</g>
		<g id="shape18-41" v:mID="18" v:groupContext="shape" transform="translate(414.588,-143.099)">
			<title>Circle.18</title>
			<v:userDefs>
				<v:ud v:nameU="visVersion" v:val="VT0(15):26"/>
			</v:userDefs>
			<path d="M0 308.88 A4.25199 4.25199 0 0 1 8.5 308.88 A4.25199 4.25199 0 1 1 -0 308.88 Z" class="st6"/>
		</g>
		<g id="shape19-43" v:mID="19" v:groupContext="shape" v:layerMember="0" transform="translate(330.966,-154.438)">
			<title>Dynamic connector.19</title>
			<path d="M0 320.21 L10.63 320.21 L10.63 320.21 L83.62 320.21" class="st7"/>
		</g>
		<g id="shape20-46" v:mID="20" v:groupContext="shape" transform="translate(364.981,-106.249)">
			<title>Sheet.20</title>
			<desc>101</desc>
			<v:textBlock v:margins="rect(4,4,4,4)" v:tabSpace="42.5197"/>
			<v:textRect cx="52.4409" cy="291.868" width="104.89" height="42.5197"/>
			<rect x="0" y="270.608" width="104.882" height="42.5197" class="st2"/>
			<text x="38.46" y="297.27" class="st8" v:langID="1033"><v:paragraph v:horizAlign="1"/><v:tabList/>101</text>		</g>
		<g id="shape22-49" v:mID="22" v:groupContext="shape" transform="translate(512.383,-143.099)">
			<title>Circle.22</title>
			<v:userDefs>
				<v:ud v:nameU="visVersion" v:val="VT0(15):26"/>
			</v:userDefs>
			<path d="M0 308.88 A4.25199 4.25199 0 0 1 8.5 308.88 A4.25199 4.25199 0 1 1 -0 308.88 Z" class="st6"/>
		</g>
		<g id="shape23-51" v:mID="23" v:groupContext="shape" v:layerMember="0" transform="translate(421.674,-154.438)">
			<title>Dynamic connector.23</title>
			<path d="M0 320.21 L10.63 320.21 L10.63 320.21 L90.71 320.21" class="st7"/>
		</g>
		<g id="shape24-54" v:mID="24" v:groupContext="shape" transform="translate(465.611,-106.249)">
			<title>Sheet.24</title>
			<desc>102</desc>
			<v:textBlock v:margins="rect(4,4,4,4)" v:tabSpace="42.5197"/>
			<v:textRect cx="52.4409" cy="291.868" width="104.89" height="42.5197"/>
			<rect x="0" y="270.608" width="104.882" height="42.5197" class="st2"/>
			<text x="37.19" y="297.27" class="st8" v:langID="1033"><v:paragraph v:horizAlign="1"/><v:tabList/>102</text>		</g>
		<g id="shape25-57" v:mID="25" v:groupContext="shape" transform="translate(608.761,-143.099)">
			<title>Circle.25</title>
			<v:userDefs>
				<v:ud v:nameU="visVersion" v:val="VT0(15):26"/>
			</v:userDefs>
			<path d="M0 308.88 A4.25199 4.25199 0 0 1 8.5 308.88 A4.25199 4.25199 0 1 1 -0 308.88 Z" class="st6"/>
		</g>
		<g id="shape26-59" v:mID="26" v:groupContext="shape" v:layerMember="0" transform="translate(520.887,-154.438)">
			<title>Dynamic connector.26</title>
			<path d="M0 320.21 L87.87 320.21" class="st7"/>
		</g>
		<g id="shape27-62" v:mID="27" v:groupContext="shape" transform="translate(560.572,-106.249)">
			<title>Sheet.27</title>
			<desc>103</desc>
			<v:textBlock v:margins="rect(4,4,4,4)" v:tabSpace="42.5197"/>
			<v:textRect cx="52.4409" cy="291.868" width="104.89" height="42.5197"/>
			<rect x="0" y="270.608" width="104.882" height="42.5197" class="st2"/>
			<text x="36.91" y="297.27" class="st8" v:langID="1033"><v:paragraph v:horizAlign="1"/><v:tabList/>103</text>		</g>
		<g id="shape28-65" v:mID="28" v:groupContext="shape" v:layerMember="0" transform="translate(954.588,-260.737)">
			<title>Dynamic connector.28</title>
			<path d="M0 320.21 L175.75 320.21" class="st4"/>
		</g>
		<g id="shape29-68" v:mID="29" v:groupContext="shape" transform="translate(706.556,-143.099)">
			<title>Circle.29</title>
			<v:userDefs>
				<v:ud v:nameU="visVersion" v:val="VT0(15):26"/>
			</v:userDefs>
			<path d="M0 308.88 A4.25199 4.25199 0 0 1 8.5 308.88 A4.25199 4.25199 0 1 1 -0 308.88 Z" class="st6"/>
		</g>
		<g id="shape30-70" v:mID="30" v:groupContext="shape" v:layerMember="0" transform="translate(631.149,-140.427)">
			<title>Dynamic connector.30</title>
			<path d="M0 306.2 L75.41 305.88" class="st7"/>
		</g>
		<g id="shape31-73" v:mID="31" v:groupContext="shape" transform="translate(659.784,-106.249)">
			<title>Sheet.31</title>
			<desc>104</desc>
			<v:textBlock v:margins="rect(4,4,4,4)" v:tabSpace="42.5197"/>
			<v:textRect cx="52.4409" cy="291.868" width="104.89" height="42.5197"/>
			<rect x="0" y="270.608" width="104.882" height="42.5197" class="st2"/>
			<text x="36.86" y="297.27" class="st8" v:langID="1033"><v:paragraph v:horizAlign="1"/><v:tabList/>104</text>		</g>
		<g id="shape32-76" v:mID="32" v:groupContext="shape" v:layerMember="0" transform="translate(617.12,-154.276)">
			<title>Dynamic connector.32</title>
			<path d="M0.14 320.05 L14.03 320.05 L14.03 320.38" class="st7"/>
		</g>
		<g id="shape33-79" v:mID="33" v:groupContext="shape" transform="translate(879.47,-143.383)">
			<title>Circle.33</title>
			<v:userDefs>
				<v:ud v:nameU="visVersion" v:val="VT0(15):26"/>
			</v:userDefs>
			<path d="M0 308.88 A4.25199 4.25199 0 0 1 8.5 308.88 A4.25199 4.25199 0 1 1 -0 308.88 Z" class="st6"/>
		</g>
		<g id="shape34-81" v:mID="34" v:groupContext="shape" v:layerMember="0" transform="translate(716.194,-154.721)">
			<title>Dynamic connector.34</title>
			<path d="M0 320.21 L163.28 320.21" class="st7"/>
		</g>
		<g id="shape35-84" v:mID="35" v:groupContext="shape" transform="translate(832.698,-106.533)">
			<title>Sheet.35</title>
			<desc>105</desc>
			<v:textBlock v:margins="rect(4,4,4,4)" v:tabSpace="42.5197"/>
			<v:textRect cx="52.4409" cy="291.868" width="104.89" height="42.5197"/>
			<rect x="0" y="270.608" width="104.882" height="42.5197" class="st2"/>
			<text x="37.16" y="297.27" class="st8" v:langID="1033"><v:paragraph v:horizAlign="1"/><v:tabList/>105</text>		</g>
		<g id="shape36-87" v:mID="36" v:groupContext="shape" transform="translate(1052.52,-143.099)">
			<title>Circle.36</title>
			<v:userDefs>
				<v:ud v:nameU="visVersion" v:val="VT0(15):26"/>
			</v:userDefs>
			<path d="M0 308.88 A4.25199 4.25199 0 0 1 8.5 308.88 A4.25199 4.25199 0 1 1 -0 308.88 Z" class="st6"/>
		</g>
		<g id="shape37-89" v:mID="37" v:groupContext="shape" v:layerMember="0" transform="translate(889.249,-154.245)">
			<title>Dynamic connector.37</title>
			<path d="M0 320.02 L62.2 320.41" class="st7"/>
		</g>
		<g id="shape38-92" v:mID="38" v:groupContext="shape" transform="translate(1005.75,-106.249)">
			<title>Sheet.38</title>
			<desc>106</desc>
			<v:textBlock v:margins="rect(4,4,4,4)" v:tabSpace="42.5197"/>
			<v:textRect cx="52.4409" cy="291.868" width="104.89" height="42.5197"/>
			<rect x="0" y="270.608" width="104.882" height="42.5197" class="st2"/>
			<text x="37.02" y="297.27" class="st8" v:langID="1033"><v:paragraph v:horizAlign="1"/><v:tabList/>106</text>		</g>
		<g id="shape39-95" v:mID="39" v:groupContext="shape" v:layerMember="0" transform="translate(1062.3,-140.573)">
			<title>Dynamic connector.39</title>
			<path d="M0 306.35 L71.84 305.73" class="st7"/>
		</g>
		<g id="shape40-98" v:mID="40" v:groupContext="shape" v:layerMember="0" transform="translate(951.449,-140.072)">
			<title>Dynamic connector.40</title>
			<path d="M0 306.23 L101.08 305.85" class="st7"/>
		</g>
		<g id="shape41-101" v:mID="41" v:groupContext="shape" transform="translate(654.115,-218.217)">
			<title>Circle.41</title>
			<v:userDefs>
				<v:ud v:nameU="visVersion" v:val="VT0(15):26"/>
			</v:userDefs>
			<path d="M0 308.88 A4.25199 4.25199 0 0 1 8.5 308.88 A4.25199 4.25199 0 1 1 -0 308.88 Z" class="st6"/>
		</g>
		<g id="shape42-103" v:mID="42" v:groupContext="shape" transform="translate(606.047,-211.748)">
			<title>Sheet.42</title>
			<desc>60</desc>
			<v:textBlock v:margins="rect(4,4,4,4)" v:tabSpace="42.5197"/>
			<v:textRect cx="52.4409" cy="291.868" width="104.89" height="42.5197"/>
			<rect x="0" y="270.608" width="104.882" height="42.5197" class="st2"/>
			<text x="41.2" y="297.27" class="st8" v:langID="1033"><v:paragraph v:horizAlign="1"/><v:tabList/>60</text>		</g>
		<g id="shape43-106" v:mID="43" v:groupContext="shape" transform="translate(727.107,-218.217)">
			<title>Circle.43</title>
			<v:userDefs>
				<v:ud v:nameU="visVersion" v:val="VT0(15):26"/>
			</v:userDefs>
			<path d="M0 308.88 A4.25199 4.25199 0 0 1 8.5 308.88 A4.25199 4.25199 0 1 1 -0 308.88 Z" class="st6"/>
		</g>
		<g id="shape44-108" v:mID="44" v:groupContext="shape" v:layerMember="0" transform="translate(661.202,-229.556)">
			<title>Dynamic connector.44</title>
			<path d="M0 320.21 L10.63 320.21 L10.63 320.21 L65.91 320.21" class="st7"/>
		</g>
		<g id="shape45-111" v:mID="45" v:groupContext="shape" transform="translate(678.331,-211.748)">
			<title>Sheet.45</title>
			<desc>61</desc>
			<v:textBlock v:margins="rect(4,4,4,4)" v:tabSpace="42.5197"/>
			<v:textRect cx="52.4409" cy="291.868" width="104.89" height="42.5197"/>
			<rect x="0" y="270.608" width="104.882" height="42.5197" class="st2"/>
			<text x="42.65" y="297.27" class="st8" v:langID="1033"><v:paragraph v:horizAlign="1"/><v:tabList/>61</text>		</g>
		<g id="shape46-114" v:mID="46" v:groupContext="shape" transform="translate(823.485,-218.217)">
			<title>Circle.46</title>
			<v:userDefs>
				<v:ud v:nameU="visVersion" v:val="VT0(15):26"/>
			</v:userDefs>
			<path d="M0 308.88 A4.25199 4.25199 0 0 1 8.5 308.88 A4.25199 4.25199 0 1 1 -0 308.88 Z" class="st6"/>
		</g>
		<g id="shape47-116" v:mID="47" v:groupContext="shape" v:layerMember="0" transform="translate(735.611,-229.556)">
			<title>Dynamic connector.47</title>
			<path d="M0 320.21 L87.87 320.21" class="st7"/>
		</g>
		<g id="shape48-119" v:mID="48" v:groupContext="shape" transform="translate(775.296,-211.748)">
			<title>Sheet.48</title>
			<desc>62</desc>
			<v:textBlock v:margins="rect(4,4,4,4)" v:tabSpace="42.5197"/>
			<v:textRect cx="52.4409" cy="291.868" width="104.89" height="42.5197"/>
			<rect x="0" y="270.608" width="104.882" height="42.5197" class="st2"/>
			<text x="41.38" y="297.27" class="st8" v:langID="1033"><v:paragraph v:horizAlign="1"/><v:tabList/>62</text>		</g>
		<g id="shape50-122" v:mID="50" v:groupContext="shape" transform="translate(919.154,-218.217)">
			<title>Circle.50</title>
			<v:userDefs>
				<v:ud v:nameU="visVersion" v:val="VT0(15):26"/>
			</v:userDefs>
			<path d="M0 308.88 A4.25199 4.25199 0 0 1 8.5 308.88 A4.25199 4.25199 0 1 1 -0 308.88 Z" class="st6"/>
		</g>
		<g id="shape51-124" v:mID="51" v:groupContext="shape" v:layerMember="0" transform="translate(831.28,-229.556)">
			<title>Dynamic connector.51</title>
			<path d="M0 320.21 L87.87 320.21" class="st7"/>
		</g>
		<g id="shape52-127" v:mID="52" v:groupContext="shape" transform="translate(870.965,-211.748)">
			<title>Sheet.52</title>
			<desc>63</desc>
			<v:textBlock v:margins="rect(4,4,4,4)" v:tabSpace="42.5197"/>
			<v:textRect cx="52.4409" cy="291.868" width="104.89" height="42.5197"/>
			<rect x="0" y="270.608" width="104.882" height="42.5197" class="st2"/>
			<text x="41.1" y="297.27" class="st8" v:langID="1033"><v:paragraph v:horizAlign="1"/><v:tabList/>63</text>		</g>
		<g id="shape53-130" v:mID="53" v:groupContext="shape" v:layerMember="0" transform="translate(616.02,-150.358)">
			<title>Dynamic connector.53</title>
			<path d="M0 313.13 L39.34 244.02" class="st7"/>
		</g>
		<g id="shape54-133" v:mID="54" v:groupContext="shape" v:layerMember="0" transform="translate(637.107,-250.816)">
			<title>Dynamic connector</title>
			<path d="M-7.09 313.13 C-7.09 318.44 -7.09 318.89 -7.09 319.3 C-7.09 323.76 -7.09 323.76 -7.09 336.79 C-7.09 361.65 -7.09
						 433.95 -7.09 544.15" class="st9"/>
		</g>
		<g id="shape55-136" v:mID="55" v:groupContext="shape" v:layerMember="0" transform="translate(950.336,-208.721)">
			<title>Dynamic connector.55</title>
			<path d="M0 312.7 L-22.68 299.38" class="st7"/>
		</g>
		<g id="shape59-139" v:mID="59" v:groupContext="shape" v:layerMember="0" transform="translate(957.422,-249.399)">
			<title>Dynamic connector.59</title>
			<path d="M-7.09 313.13 L-7.09 544.15" class="st9"/>
		</g>
		<g id="shape60-142" v:mID="60" v:groupContext="shape" v:layerMember="0" transform="translate(1053.77,-150.358)">
			<title>Dynamic connector.60</title>
			<path d="M0 313.13 L-103.43 254.34" class="st7"/>
		</g>
		<g id="shape67-145" v:mID="67" v:groupContext="shape" transform="translate(428.052,-62.3121)">
			<title>Circle.67</title>
			<v:userDefs>
				<v:ud v:nameU="visVersion" v:val="VT0(15):26"/>
			</v:userDefs>
			<path d="M0 308.88 A4.25199 4.25199 0 0 1 8.5 308.88 A4.25199 4.25199 0 1 1 -0 308.88 Z" class="st6"/>
		</g>
		<g id="shape68-147" v:mID="68" v:groupContext="shape" transform="translate(381.281,-25.4617)">
			<title>Sheet.68</title>
			<desc>80</desc>
			<v:textBlock v:margins="rect(4,4,4,4)" v:tabSpace="42.5197"/>
			<v:textRect cx="52.4409" cy="291.868" width="104.89" height="42.5197"/>
			<rect x="0" y="270.608" width="104.882" height="42.5197" class="st2"/>
			<text x="41.27" y="297.27" class="st8" v:langID="1033"><v:paragraph v:horizAlign="1"/><v:tabList/>80</text>		</g>
		<g id="shape69-150" v:mID="69" v:groupContext="shape" transform="translate(795.847,-62.3121)">
			<title>Circle.69</title>
			<v:userDefs>
				<v:ud v:nameU="visVersion" v:val="VT0(15):26"/>
			</v:userDefs>
			<path d="M0 308.88 A4.25199 4.25199 0 0 1 8.5 308.88 A4.25199 4.25199 0 1 1 -0 308.88 Z" class="st6"/>
		</g>
		<g id="shape70-152" v:mID="70" v:groupContext="shape" v:layerMember="0" transform="translate(436.556,-73.6507)">
			<title>Dynamic connector.70</title>
			<path d="M0 320.21 L359.29 320.21" class="st7"/>
		</g>
		<g id="shape71-155" v:mID="71" v:groupContext="shape" transform="translate(747.658,-25.4617)">
			<title>Sheet.71</title>
			<desc>81</desc>
			<v:textBlock v:margins="rect(4,4,4,4)" v:tabSpace="42.5197"/>
			<v:textRect cx="52.4409" cy="291.868" width="104.89" height="42.5197"/>
			<rect x="0" y="270.608" width="104.882" height="42.5197" class="st2"/>
			<text x="42.71" y="297.27" class="st8" v:langID="1033"><v:paragraph v:horizAlign="1"/><v:tabList/>81</text>		</g>
		<g id="shape72-158" v:mID="72" v:groupContext="shape" transform="translate(1065.14,-62.3121)">
			<title>Circle.72</title>
			<v:userDefs>
				<v:ud v:nameU="visVersion" v:val="VT0(15):26"/>
			</v:userDefs>
			<path d="M0 308.88 A4.25199 4.25199 0 0 1 8.5 308.88 A4.25199 4.25199 0 1 1 -0 308.88 Z" class="st6"/>
		</g>
		<g id="shape73-160" v:mID="73" v:groupContext="shape" v:layerMember="0" transform="translate(803.643,-59.4774)">
			<title>Dynamic connector.73</title>
			<path d="M0 306.04 L146.69 306.04" class="st7"/>
		</g>
		<g id="shape74-163" v:mID="74" v:groupContext="shape" transform="translate(1016.95,-25.4617)">
			<title>Sheet.74</title>
			<desc>82</desc>
			<v:textBlock v:margins="rect(4,4,4,4)" v:tabSpace="42.5197"/>
			<v:textRect cx="52.4409" cy="291.868" width="104.89" height="42.5197"/>
			<rect x="0" y="270.608" width="104.882" height="42.5197" class="st2"/>
			<text x="41.45" y="297.27" class="st8" v:langID="1033"><v:paragraph v:horizAlign="1"/><v:tabList/>82</text>		</g>
		<g id="shape76-166" v:mID="76" v:groupContext="shape" v:layerMember="0" transform="translate(951.753,-73.6507)">
			<title>Dynamic connector.76</title>
			<path d="M0 320.21 L113.39 320.21" class="st7"/>
		</g>
		<g id="shape77-169" v:mID="77" v:groupContext="shape" v:layerMember="0" transform="translate(432.304,-66.564)">
			<title>Dynamic connector.77</title>
			<path d="M0 313.13 L-105.59 236.59" class="st7"/>
		</g>
		<g id="shape79-172" v:mID="79" v:groupContext="shape" v:layerMember="0" transform="translate(1073.64,-59.786)">
			<title>Dynamic connector.79</title>
			<path d="M0 306.35 L61.92 305.73" class="st7"/>
		</g>
	</g>
</svg>
